<?xml version="1.0" encoding="utf-8"?>
<!-- Generator: Adobe Illustrator 24.2.3, SVG Export Plug-In . SVG Version: 6.00 Build 0)  -->
<svg version="1.1" id="Ebene_1" xmlns="http://www.w3.org/2000/svg" xmlns:xlink="http://www.w3.org/1999/xlink" x="0px" y="0px"
	 viewBox="0 0 521.8 205.4" style="enable-background:new 0 0 521.8 205.4;" xml:space="preserve">
<style type="text/css">
	.st0{fill:none;}
</style>
<path d="M104.8,131.5l31.7,60.6h52.4L103.1,16.8L19.8,192.1h54L104.8,131.5z"/>
<path d="M86.2,187.9H124l-19.1-38.2L86.2,187.9z"/>
<path d="M412.5,153.2l-19.2,25.7l-4.3-5.8l23.5-32.5v-18.9l-20.2,25.6l-4.3-5.7l23.5-32.2l1-20.8l-19.2,24.6l-4.3-5.7L416.1,72
	l27.4,36.4l-5.2,5.9l-18.7-26.7v22l23.9,30.8l-5.2,5.9l-18.7-25.7v20.4l23.9,30.9l-5.2,5.9l-18.7-25.7v40.9l81.9-1L415.9,16.8
	l-83.2,175.3l79.9,1V153.2z"/>
<path class="st0" d="M296.4,16.7h-76.6l38.9,79.4L296.4,16.7z"/>
<path class="st0" d="M255.2,103.5l-42.5-86.8h-52.6l62,128.7l-5.7,2.8L153.2,16.7h-11l78.3,160L255.2,103.5z"/>
<g>
	<polyline points="220.5,172.1 144.5,16.7 135.1,16.7 220.5,191.4 303.5,16.7 294.3,16.7 257.2,94.6 	"/>
</g>
<g>
	<polyline points="297.6,172.1 221.6,16.7 212.2,16.7 297.7,191.4 380.6,16.7 371.5,16.7 334.4,94.6 	"/>
</g>
<path d="M298.1,156.6l65.6-139.9h-7l-61.8,132.3L298.1,156.6z"/>
<path d="M223,148.9L159,17h-7.1l67.6,139.1L223,148.9z"/>
</svg>
