<?xml version="1.0" encoding="utf-8"?>
<!-- Generator: Adobe Illustrator 24.2.3, SVG Export Plug-In . SVG Version: 6.00 Build 0)  -->
<svg version="1.1" id="Ebene_2" xmlns="http://www.w3.org/2000/svg" xmlns:xlink="http://www.w3.org/1999/xlink" x="0px" y="0px"
	 viewBox="0 0 521.8 205.4" style="enable-background:new 0 0 521.8 205.4;" xml:space="preserve">
<g>
	<path d="M325.2,123.5l-19.9-21.7L325.5,80l-1.2-1.3c-0.4-0.4-8.9-9.4-23.6-9.4c-0.2,0-0.5,0-0.7,0c-31.7,4-37.2,24-37.2,38
		c0,8.2,3,15.7,8.1,21.3c5.8,6.3,14.2,9.6,24.1,9.6c11.8,0,23.2-6.1,23.6-6.5L325.2,123.5z M300.1,73.2c0.2,0,0.4,0,0.6,0
		c9.9,0,16.7,4.7,19.4,6.9L300,101.7l19.4,21.1c-3.5,2.2-11.6,6.6-19.5,6.6c-19.4,0-28.2-13.6-28.3-27
		C271.3,83.6,285.7,73.4,300.1,73.2z"/>
	<path d="M357.3,68.9l-4.9,4.8l-30.3,64.1l60.6-0.3l4.9-4.8L357.3,68.9z M351.1,128.7l6.2-13l6.2,13L351.1,128.7z M368.7,128.9
		l-11.5-23.3L345.7,129l-12.5,0.1L357.3,78l24.1,50.9L368.7,128.9z"/>
	<path d="M445.3,67.7l-25.5,30.2l-25.6-29.7l-4.9,4.8l0.1,64.6h51.2l4.9-4.8L445.3,67.7z M398.2,128.9l-0.1-50.2l22.3,25.9l21-25.9
		l0.2,50.3H398.2z"/>
	<path d="M500.1,88.4c-0.7-14-11.1-16.9-15.6-18.1c-5.1-1.4-25.7-0.8-28-0.8l-1.9,0.1l-4.9,4.8v63.4h24.6l4.9-4.8v-18.9
		C489.5,113.9,500.9,104.1,500.1,88.4z M491.8,102.7c-2.8,3-6.8,4.6-11.5,4.6h-4.9V129h-16.8V73.3c7.2-0.2,21.5-0.3,25,0.7
		c6.3,1.7,12.3,4.7,12.7,14.6C496.5,94.5,495,99.4,491.8,102.7z"/>
	<path d="M139.3,68.5c-10.1,0-18.4,5.3-25.1,11.9c-6.8,6.7-12.3,15.1-12.3,25.4c0,17.9,14.6,32.5,32.5,32.5
		c10.1,0,18.4-5.3,25.1-11.9c6.8-6.7,12.2-15.1,12.2-25.4C171.8,83.1,157.2,68.5,139.3,68.5z M139.3,129.6
		c-15.8,0-28.6-12.8-28.6-28.6s12.8-28.6,28.6-28.6s28.6,12.8,28.6,28.6S155.1,129.6,139.3,129.6z"/>
	<path d="M175.1,73.7v64.6H193l4.9-4.8V68.9H180L175.1,73.7z M183.9,72.8H194v56.8h-10.1V72.8z"/>
	<path d="M212.8,68.5l-6.8,4.8v65c0,0,42.2,1.9,42.2-37.3C248.1,83.3,232.3,68.7,212.8,68.5z M214.7,129.5V72.5
		c16.5,1.1,29.5,13.6,29.5,28.5S231.2,128.4,214.7,129.5z"/>
	<g>
		<path d="M90.6,69.5L90.6,69.5l-64.7,0L21,74.2l32.8,67.1l4.4-6.3l8-14.6l9.7,20.8l4.7-6.5l31.1-65.4H90.6z M53.3,73.4h31.2
			l-15.7,33.1L53.3,73.4z M49,73.4L66.5,111l-7.9,16.6L32.1,73.4H49z M70.8,111l17.9-37.7h16.8l-27,54.3L70.8,111z"/>
	</g>
</g>
</svg>
