<?xml version="1.0" encoding="utf-8"?>
<!-- Generator: Adobe Illustrator 24.2.0, SVG Export Plug-In . SVG Version: 6.00 Build 0)  -->
<svg version="1.1" id="Ebene_1" xmlns="http://www.w3.org/2000/svg" xmlns:xlink="http://www.w3.org/1999/xlink" x="0px" y="0px"
	 viewBox="0 0 659.3 74.5" style="enable-background:new 0 0 659.3 74.5;" xml:space="preserve">
<path d="M40.9,48.8l10.6,21.7h21.6L40.3,3.4L8.4,70.5h22.2L40.9,48.8z"/>
<path d="M33.8,68.9h14.5l-7.3-15.5L33.8,68.9z"/>
<path d="M159.1,52.9l-7,11l-1.7-1.1l8.6-13.6v-8.4l-7,11l-1.7-1l8.6-13.6v-9l-7,11l-1.7-1l9.6-15.2l10.1,14.8l-1.6,1.1l-7.5-11V37
	l9.1,13.3l-1.6,1.1l-7.5-11v8.6l9.1,13.3l-1.6,1.1l-7.5-11v18h31.8L160,3.4l-31.9,67.1h31V52.9z"/>
<path d="M84.7,64.8L54.5,3.1h-2.7l32.9,67.3l14.7-31l-1.4-2.8L84.7,64.8z"/>
<path d="M100.8,36.5l15.8-33.4h-2.7L99.4,33.7L100.8,36.5z"/>
<path d="M114.6,64.8l-13.8-28.2l-1.4-2.8l-15-30.6h-2.7l16.3,33.4l1.4,2.8l15.2,31.1l31.9-67.3h-2.7L114.6,64.8z"/>
<path d="M114.6,57l25.3-53.9h-2.7l-23.8,51L114.6,57z"/>
<path d="M85.7,54L61,3.3h-2.7l26,53.6L85.7,54z"/>
<path d="M457.6,65.8c-15,0-31.1-9.4-31.3-30c-0.1-7.5,2.4-15.1,7.2-21c-8.1,6.2-12.2,16.1-12.1,25.9c0.2,20.6,16.4,30,31.3,30
	c11.5,0,22.7-8.1,23.1-8.4l0.8-0.6l-1-1.1C471.3,62.9,464.5,65.8,457.6,65.8L457.6,65.8z"/>
<path d="M508.7,12.1l-1.3-2.8l-28.8,61l57.6-0.2l-2.3-4.8l-50.5,0.2L508.7,12.1z"/>
<path d="M591,9.8l0-1.2l-19.6,24.3l0.5,0.6L591,9.8z"/>
<path d="M546.6,14.6l-4.9-5.7l0.1,61.1h49.4l0-4.8h-44.5L546.6,14.6z"/>
<path d="M628.9,43.6v4.6c4.3-0.5,8-2.3,10.9-5.3c0.7-0.7,1.2-1.5,1.8-2.3c-3,1.9-6.6,3-10.6,3L628.9,43.6L628.9,43.6z"/>
<path d="M606.3,8.5c-2.2,0-3.7,0.1-4,0.1l-0.9,0v61.7H624v-4.8h-17.7L606.3,8.5L606.3,8.5z"/>
<path d="M457.8,4.4c14.5-0.3,22.9,8.8,22.9,8.8l-4,4.3l0.4,0.5l-16.3,17.5l19.4,21.1c0,0-2,1.5-5.2,3.2l0.6,0.7c3-1.6,4.9-3,5-3.1
	l0.8-0.6l-19.9-21.7l20.3-21.8l-0.6-0.6c-0.3-0.4-8.9-9.4-23.6-9.1c-10.9,0.2-19.1,4.8-24.3,11.3c1-0.8,2.1-1.5,3.3-2.2
	C441.8,7.8,448.8,4.6,457.8,4.4L457.8,4.4z"/>
<path d="M457.6,65.8c6.9,0,13.7-2.9,18.1-5.3l-0.6-0.7c-4.3,2.3-10.9,5.1-17.5,5.1c-32.1,0-38.3-35.8-20.9-52.3
	c-1.1,0.7-2.2,1.4-3.3,2.2c-4.8,6-7.2,13.5-7.2,21C426.5,56.4,442.7,65.8,457.6,65.8L457.6,65.8z"/>
<path d="M460.8,35.5l16.3-17.5l-0.4-0.4l-16.3,17.5L460.8,35.5z"/>
<path d="M457.8,5.4h0.6c11.4,0,18.9,6,21,7.9l-3.4,3.6l0.5,0.5l0.1,0.2l4-4.3c0,0-8.4-9.1-22.9-8.8c-9,0.2-16.1,3.3-21.1,8.2
	c1.1-0.7,2.4-1.2,3.6-1.8C444.9,7.6,450.7,5.5,457.8,5.4L457.8,5.4z"/>
<path d="M460.8,35.5l-0.6,0.7l18.6,20.3c-0.9,0.6-2.4,1.5-4.4,2.6l0.6,0.7c3.2-1.7,5.2-3.2,5.2-3.2L460.8,35.5z"/>
<path d="M457.6,64c-20.2,0-29.3-14.1-29.5-28.2c-0.1-9.5,4.1-19.2,12.2-25c-1.3,0.5-2.5,1.1-3.6,1.8c-17.4,16.5-11.2,52.3,20.9,52.3
	c6.6,0,13.1-2.8,17.5-5.1l-0.6-0.7C470.1,61.3,463.8,64,457.6,64L457.6,64z"/>
<path d="M476,16.9l-16.9,18.1l1.1,1.1l0.6-0.7l-0.4-0.5l16.3-17.5l-0.1-0.2C476.5,17.4,476.3,17.2,476,16.9z"/>
<path d="M512.3,4.5l-3.6,7.6l0.5,1.1l3.1-6.5l27.4,57.6l-6.1,0l0.4,0.9l7.1,0L512.3,4.5z"/>
<path d="M522.7,64.4L523,65l-21.5,0.1l0.3-0.6L485,64.6l24.3-51.4l-0.5-1.1l-25.2,53.4l50.5-0.2l-0.4-0.9L522.7,64.4z"/>
<path d="M512.3,8.8l25.9,54.6l-5.1,0l0.4,0.9l6.1,0L512.3,6.7l-3.1,6.5l0.5,1.1L512.3,8.8z"/>
<path d="M522.3,63.5l0.4,0.9l10.8,0l-0.4-0.9L522.3,63.5z"/>
<path d="M501.9,64.5l0.4-0.9l-15.8,0.1l23.3-49.4l-0.5-1.1L485,64.6L501.9,64.5z"/>
<path d="M512.3,42.4l-10,21.2l20-0.1L512.3,42.4z M512.3,46.7l7.8,16.5l-15.6,0.1L512.3,46.7z"/>
<path d="M501.6,65.1L523,65l-0.3-0.6l-20.9,0.1L501.6,65.1z"/>
<path d="M502.3,63.6l-0.4,0.9l20.9-0.1l-0.4-0.9L502.3,63.6z"/>
<path d="M595.9,3.8l-4.9,6v1.5l3.9-4.9l0.2,58h-4v0.9h4.9L595.9,3.8z"/>
<path d="M547.5,6.6l23.2,27l0.6-0.7L546.6,4.1l0,10.5l0.9,1.1L547.5,6.6z"/>
<path d="M571.9,34.9L591,11.3V9.8l-19.2,23.7l-0.5-0.6l-0.6,0.7L571.9,34.9z"/>
<path d="M547.6,64.3l-0.1-48.6l-0.9-1.1l0.1,50.6h44.5v-0.9H547.6z"/>
<path d="M548.4,9.1l21.7,25.2l0.6-0.7l-23.2-27l0,9.1l0.9,1.1V9.1z"/>
<path d="M594,9l0.2,54.4h-3v0.9h4l-0.2-58l-3.9,4.9v1.5L594,9z"/>
<path d="M570.7,33.6l-0.6,0.7l1.8,2L591,12.7v-1.5l-19.1,23.6L570.7,33.6z"/>
<path d="M548.5,63.4l-0.1-46.6l-0.9-1.1l0.1,48.6h43.6v-0.9H548.5z"/>
<path d="M650,21.8c-0.6-13.4-10.6-16.1-14.9-17.3c-5.1-1.4-26.9-0.8-27.9-0.7l-0.9,0v4.7c0.3,0,0.6,0,0.9,0V4.6
	c0,0,22.6-0.7,27.6,0.7c5.4,1.5,13.7,4.4,14.2,16.4c0.3,7.4-2,13.2-6.2,16.7c-0.4,0.7-0.8,1.4-1.2,2.1c1.1-0.7,2.2-1.6,3.1-2.5
	C648.5,34.1,650.3,28.5,650,21.8L650,21.8z"/>
<path d="M628,64.5H624v0.9h4.9V48.2c-0.3,0-0.6,0.1-0.9,0.1L628,64.5L628,64.5z"/>
<path d="M607.2,64.5V8.4c-0.3,0-0.6,0-0.9,0v57H624v-0.9H607.2z"/>
<path d="M631,42.6c-0.2,0-3,0-3,0v5.7c0.3,0,0.6-0.1,0.9-0.1v-4.6h2.1c4,0,7.6-1,10.6-3c0.4-0.7,0.8-1.3,1.2-2.1
	C639.7,41.2,635.7,42.6,631,42.6L631,42.6z"/>
<path d="M627.1,63.6h-3v0.9h3.9V48.3c-0.3,0-0.6,0-0.9,0L627.1,63.6L627.1,63.6z"/>
<path d="M608.1,5.6c4.2-0.1,22.2-0.5,26.4,0.7c6.4,1.8,13,5,13.5,15.6c0.3,5.9-1.2,10.9-4.3,14.4c-0.3,0.8-0.6,1.6-1,2.3
	c4.2-3.6,6.6-9.4,6.2-16.7c-0.6-12-8.8-14.9-14.2-16.4c-5-1.4-27.6-0.7-27.6-0.7v3.8c0.3,0,0.6,0,0.9,0L608.1,5.6L608.1,5.6z"/>
<path d="M643.3,36.8c-3.1,3.2-7.3,4.9-12.3,4.9H627v6.6c0.3,0,0.6,0,0.9,0v-5.7h3c4.7,0,8.7-1.4,11.8-4.1c0.4-0.7,0.7-1.5,1-2.3
	C643.6,36.4,643.5,36.6,643.3,36.8z"/>
<path d="M624,64.5v-0.9h-15.9V8.4c-0.3,0-0.6,0-0.9,0v56.1L624,64.5L624,64.5L624,64.5z"/>
<path d="M272,34.4c0-7.6,2.7-14.5,7.1-19.9c-7.3,5.8-12,14.7-12,24.8c0,17.4,14.2,31.7,31.7,31.7c9.9,0,18.7-4.6,24.5-11.7
	c-5.4,4.3-12.2,6.9-19.6,6.9C286.2,66,272,51.8,272,34.4L272,34.4z"/>
<path d="M341.7,8h-4.9v62.9h15.9V66h-11C341.7,66,341.7,8,341.7,8z"/>
<path d="M368.6,66V7.8c-1.3-0.1-2.6-0.2-3.9-0.3h-0.9v63.3h0.9c11.2-0.1,21.2-5.2,27.5-12.8c-6.1,4.9-14,7.9-22.6,8L368.6,66z"/>
<path d="M231.8,54.5l8.6,18.4l3.7-7.4L235.4,47L231.8,54.5z"/>
<path d="M189.2,8.8l31.3,64.1l3.6-7.5L196.4,8.8H189.2z"/>
<path d="M225.4,66l-0.8-1.6l-0.5,1.1l1.3,2.7l6.4-13.5l-0.5-1.1L225.4,66z"/>
<path d="M195.5,5h20.3L215.4,4H194l2.4,4.8h1L195.5,5z"/>
<path d="M197.4,8.8h-1l27.7,56.6l0.5-1.1L197.4,8.8z"/>
<path d="M234.9,45.9l-3.6,7.6l0.5,1.1l3.6-7.6L234.9,45.9z"/>
<path d="M197,5.9h19.2L215.8,5h-20.3l1.9,3.9h1L197,5.9z"/>
<path d="M225.4,63.8l-0.3-0.5l-0.5,1.1l0.8,1.6l5.9-12.5l-0.5-1.1L225.4,63.8z"/>
<path d="M198.5,8.8h-1l27.1,55.5l0.5-1.1L198.5,8.8z"/>
<path d="M230.8,52.4l0.5,1.1l3.6-7.6l-0.5-1.1L230.8,52.4z"/>
<path d="M303.7,2.7c-9.9,0-18.7,4.6-24.5,11.7c1.1-0.9,2.3-1.7,3.5-2.4c5.5-5.2,12.9-8.3,21-8.3c17,0,30.7,13.7,30.7,30.7
	c0,8.3-3.3,15.9-8.7,21.4c-0.7,1.2-1.5,2.3-2.4,3.4c7.3-5.8,12-14.7,12-24.8C335.3,16.9,321.1,2.7,303.7,2.7L303.7,2.7z"/>
<path d="M303.7,65.1c-17,0-30.7-13.7-30.7-30.7c0-8.8,3.7-16.8,9.7-22.4c-1.2,0.7-2.4,1.5-3.5,2.4c-4.4,5.5-7.1,12.4-7.1,19.9
	c0,17.4,14.2,31.7,31.7,31.7c7.4,0,14.2-2.6,19.6-6.9c0.9-1.1,1.6-2.2,2.4-3.4C320.1,61.5,312.3,65.1,303.7,65.1L303.7,65.1z"/>
<path d="M303.7,4.6c16.4,0,29.8,13.4,29.8,29.8c0,6.5-2.1,12.5-5.6,17.4c-0.6,1.4-1.3,2.7-2.1,4c5.4-5.5,8.7-13.1,8.7-21.4
	c0-17-13.7-30.7-30.7-30.7c-8.1,0-15.5,3.2-21,8.3c1.3-0.7,2.6-1.4,4-2C291.5,6.6,297.3,4.6,303.7,4.6L303.7,4.6z"/>
<path d="M273,34.4c0,17,13.7,30.7,30.7,30.7c8.6,0,16.4-3.6,22-9.3c0.8-1.3,1.5-2.6,2.1-4c-5.4,7.5-14.2,12.4-24.2,12.4
	c-16.4,0-29.8-13.4-29.8-29.8c0-10.1,5.1-19,12.8-24.4c-1.4,0.6-2.7,1.3-4,2C276.7,17.6,273,25.5,273,34.4z"/>
<path d="M341.7,8h0.9V4.1h14v61h-3.9V66h4.9V3.1h-15.9C341.7,3.1,341.7,8,341.7,8z"/>
<path d="M342.6,65.1V8h-0.9V66h11v-0.9C352.7,65.1,342.6,65.1,342.6,65.1z"/>
<path d="M343.5,5h12.2v59.1h-3v0.9h3.9v-61h-14V8h0.9V5z"/>
<path d="M352.7,65.1v-0.9h-9.2V8h-0.9v57.1H352.7z"/>
<path d="M404.1,34.4c0-17.2-15.5-31.4-34.5-31.6h-0.9v5.1c0.3,0,0.6,0.1,0.9,0.1V3.7c18.6,0.2,33.6,13.9,33.6,30.7
	c0,7.7-3.2,14.8-8.4,20.2c-0.7,1.2-1.6,2.4-2.5,3.5C399.4,52.2,404.1,43.7,404.1,34.4L404.1,34.4z"/>
<path d="M369.6,65.1V7.9c-0.3,0-0.6-0.1-0.9-0.1V66h0.9c8.7-0.1,16.5-3.1,22.6-8c0.9-1.1,1.8-2.3,2.5-3.5
	C388.6,60.9,379.6,64.9,369.6,65.1z"/>
<path d="M370.5,4.6c17.6,0.7,31.7,13.8,31.7,29.7c0,6-2,11.6-5.5,16.3c-0.6,1.3-1.3,2.6-2,3.8c5.2-5.4,8.4-12.4,8.4-20.2
	c0-16.8-15-30.5-33.6-30.7v4.3c0.3,0,0.6,0.1,0.9,0.1L370.5,4.6L370.5,4.6z"/>
<path d="M394.7,54.5c0.8-1.2,1.4-2.5,2-3.8c-5.7,7.7-15.3,13-26.2,13.4v-56c-0.3,0-0.6-0.1-0.9-0.1v57.1
	C379.6,64.9,388.6,60.9,394.7,54.5L394.7,54.5z"/>
<path d="M277.1,4h-21.3L255.4,5h20.2l-30.3,61l-0.7-1.5l-0.5,1.1l1.2,2.6L277.1,4z"/>
<path d="M235.9,45.9l-0.5,1.1l8.7,18.5l0.5-1.1L235.9,45.9z"/>
<path d="M218.7,8.8l-1.4-3h-1l1.4,3H218.7z"/>
<path d="M217.6,8.8l16.8,35.9l0.5-1.1L218.7,8.8H217.6z"/>
<path d="M254.3,5h1l0.4-0.9h-40.4l0.4,0.9H254.3z"/>
<path d="M234.9,45.9l0.5,1.1l0.5-1.1l-0.5-1.1L234.9,45.9z"/>
<path d="M217.3,5.9L216.8,5h37.5h-38.5l0.4,0.9H217.3z"/>
<path d="M234.9,43.7l-0.5,1.1l0.5,1.1l0.5-1.1L234.9,43.7z"/>
<path d="M274.1,5.9l-28.8,57.9l-0.2-0.4l-0.5,1.1l0.7,1.5l30.3-61h-20.2l-0.4,0.9H274.1z"/>
<path d="M236.4,44.8l-0.5,1.1l8.7,18.6l0.5-1.1L236.4,44.8z"/>
<path d="M219.7,8.8l-1.4-3h-1l1.4,3H219.7z"/>
<path d="M219.7,8.8h-1l16.3,34.9l0.5-1.1L219.7,8.8z"/>
<path d="M253.9,5.9h1l0.4-0.9h-1L253.9,5.9z"/>
<path d="M235.9,43.7l-0.5,1.1l0.5,1.1l0.5-1.1L235.9,43.7z"/>
<path d="M217.3,5.9h1h34.6h1l0.4-0.9h-37.5L217.3,5.9z"/>
<path d="M234.9,43.7l0.5,1.1l0.5-1.1l-0.5-1.1L234.9,43.7z"/>
<path d="M225.4,66l29-61"/>
<path d="M224.5,65.5l29-61l1.7,0.8l-29,61L224.5,65.5z"/>
</svg>
