<?xml version="1.0" encoding="utf-8"?>
<!-- Generator: Adobe Illustrator 24.2.0, SVG Export Plug-In . SVG Version: 6.00 Build 0)  -->
<svg version="1.1" id="Ebene_2" xmlns="http://www.w3.org/2000/svg" xmlns:xlink="http://www.w3.org/1999/xlink" x="0px" y="0px"
	 viewBox="0 0 200.27 35" style="enable-background:new 0 0 200.27 35;" xml:space="preserve">
<style type="text/css">
	.st0{fill:#FFFFFF;}
</style>
<path class="st0" d="M116.19,28.87c-6.03,0-12.55-3.78-12.63-12.09c-0.03-3.03,0.95-6.08,2.89-8.48c-3.25,2.51-4.9,6.49-4.86,10.42
	c0.08,8.31,6.61,12.09,12.63,12.09c4.64,0,9.15-3.25,9.33-3.39l0.34-0.25l-0.4-0.44C121.71,27.7,118.98,28.87,116.19,28.87
	L116.19,28.87z"/>
<path class="st0" d="M136.81,7.21l-0.53-1.11l-11.61,24.59l23.23-0.1l-0.91-1.93l-20.35,0.09L136.81,7.21z"/>
<path class="st0" d="M169.96,6.29l-0.01-0.49l-7.92,9.79l0.21,0.24L169.96,6.29z"/>
<path class="st0" d="M152.06,8.24l-1.98-2.29l0.05,24.64h19.92l-0.01-1.94H152.1L152.06,8.24z"/>
<path class="st0" d="M185.25,19.9v1.86c1.74-0.22,3.24-0.94,4.38-2.13c0.27-0.28,0.5-0.59,0.72-0.91c-1.2,0.78-2.65,1.19-4.27,1.19
	L185.25,19.9L185.25,19.9z"/>
<path class="st0" d="M176.12,5.75c-0.9,0.02-1.51,0.03-1.6,0.04l-0.36,0.01v24.86h9.12v-1.94h-7.15V5.75L176.12,5.75z"/>
<path class="st0" d="M116.27,4.13c5.85-0.11,9.24,3.55,9.24,3.55l-1.63,1.75l0.17,0.19l-6.56,7.05l7.8,8.51c0,0-0.81,0.59-2.08,1.27
	l0.26,0.29c1.19-0.64,1.96-1.2,2.03-1.25l0.34-0.25l-8.03-8.75l8.19-8.8l-0.24-0.26c-0.14-0.15-3.58-3.79-9.53-3.67
	c-4.41,0.09-7.69,1.92-9.81,4.55c0.41-0.32,0.85-0.61,1.32-0.88C109.81,5.49,112.64,4.2,116.27,4.13L116.27,4.13z"/>
<path class="st0" d="M116.19,28.87c2.79,0,5.52-1.17,7.3-2.14l-0.26-0.29c-1.75,0.94-4.39,2.05-7.04,2.05
	c-12.94,0-15.43-14.42-8.43-21.07c-0.46,0.27-0.9,0.56-1.32,0.88c-1.94,2.4-2.92,5.45-2.89,8.48
	C103.64,25.09,110.17,28.87,116.19,28.87L116.19,28.87z"/>
<path class="st0" d="M117.5,16.67l6.56-7.05l-0.17-0.18l-6.56,7.04L117.5,16.67z"/>
<path class="st0" d="M116.28,4.51h0.26c4.59,0,7.6,2.41,8.46,3.19l-1.37,1.47l0.2,0.2l0.06,0.07l1.63-1.75c0,0-3.39-3.67-9.24-3.55
	c-3.63,0.07-6.47,1.35-8.5,3.29c0.46-0.27,0.96-0.5,1.47-0.71C111.08,5.4,113.43,4.56,116.28,4.51L116.28,4.51z"/>
<path class="st0" d="M117.5,16.67l-0.26,0.28l7.49,8.17c-0.36,0.24-0.98,0.62-1.77,1.04l0.26,0.29c1.27-0.68,2.08-1.27,2.08-1.27
	L117.5,16.67z"/>
<path class="st0" d="M116.19,28.12c-8.13,0-11.83-5.7-11.88-11.35c-0.04-3.83,1.64-7.72,4.93-10.06c-0.51,0.21-1.01,0.44-1.47,0.71
	c-7,6.65-4.51,21.07,8.43,21.07c2.65,0,5.28-1.11,7.04-2.05l-0.26-0.29C121.25,27.06,118.71,28.12,116.19,28.12L116.19,28.12z"/>
<path class="st0" d="M123.62,9.17l-6.8,7.31l0.43,0.46l0.26-0.28l-0.17-0.19l6.56-7.05l-0.06-0.07
	C123.81,9.35,123.74,9.28,123.62,9.17z"/>
<path class="st0" d="M138.25,4.16l-1.44,3.05l0.21,0.44l1.23-2.61l11.03,23.23l-2.47,0.02l0.18,0.37l2.88-0.01L138.25,4.16z"/>
<path class="st0" d="M142.45,28.31l0.12,0.25l-8.66,0.04l0.12-0.26l-6.8,0.04l9.79-20.73l-0.21-0.44l-10.17,21.54l20.35-0.09
	l-0.18-0.37L142.45,28.31z"/>
<path class="st0" d="M138.26,5.91l10.43,21.99l-2.06,0.01l0.18,0.38l2.47-0.02L138.25,5.04l-1.23,2.61l0.21,0.44L138.26,5.91z"/>
<path class="st0" d="M142.28,27.93l0.17,0.38l4.36-0.02l-0.18-0.38L142.28,27.93z"/>
<path class="st0" d="M134.03,28.34l0.17-0.37L127.82,28l9.41-19.91l-0.21-0.44l-9.79,20.73L134.03,28.34z"/>
<path class="st0" d="M138.24,19.42l-4.04,8.55l8.07-0.04L138.24,19.42z M138.24,21.18l3.15,6.64l-6.3,0.03L138.24,21.18z"/>
<path class="st0" d="M133.91,28.6l8.66-0.04l-0.12-0.25l-8.42,0.03L133.91,28.6z"/>
<path class="st0" d="M134.2,27.97l-0.17,0.37l8.42-0.03l-0.17-0.38L134.2,27.97z"/>
<path class="st0" d="M171.92,3.86l-1.96,2.43v0.6l1.59-1.97l0.09,23.36h-1.6v0.37h1.97L171.92,3.86z"/>
<path class="st0" d="M152.43,5.02l9.36,10.87l0.24-0.3l-9.98-11.58l0.01,4.23l0.38,0.44L152.43,5.02z"/>
<path class="st0" d="M162.25,16.41l7.71-9.52v-0.6l-7.72,9.54l-0.21-0.24l-0.24,0.3L162.25,16.41z"/>
<path class="st0" d="M152.47,28.28l-0.03-19.6l-0.38-0.44l0.04,20.41h17.94v-0.37H152.47z"/>
<path class="st0" d="M152.81,6.03l8.74,10.15l0.24-0.29l-9.36-10.87l0.01,3.66l0.37,0.43V6.03z"/>
<path class="st0" d="M171.18,5.97l0.08,21.93h-1.22v0.38h1.6l-0.09-23.36l-1.59,1.97v0.59L171.18,5.97z"/>
<path class="st0" d="M161.79,15.89l-0.24,0.29l0.71,0.82l7.7-9.52V6.89l-7.71,9.52L161.79,15.89z"/>
<path class="st0" d="M152.85,27.9l-0.04-18.79l-0.37-0.43l0.03,19.6h17.57V27.9H152.85z"/>
<path class="st0" d="M193.73,11.11c-0.25-5.39-4.29-6.5-6.01-6.97c-2.04-0.56-10.86-0.31-11.23-0.3l-0.36,0.01v1.89
	c0.12,0,0.25,0,0.38-0.01V4.21c0,0,9.11-0.27,11.12,0.28c2.19,0.6,5.51,1.78,5.74,6.63c0.14,2.98-0.82,5.31-2.51,6.75
	c-0.15,0.29-0.31,0.57-0.49,0.83c0.45-0.29,0.87-0.63,1.24-1.02C193.12,16.1,193.86,13.82,193.73,11.11L193.73,11.11z"/>
<path class="st0" d="M184.87,28.34h-1.59v0.38h1.97v-6.96c-0.12,0.02-0.25,0.03-0.37,0.04v6.54L184.87,28.34z"/>
<path class="st0" d="M176.5,28.34V5.74c-0.13,0-0.26,0-0.38,0.01v22.97h7.15v-0.38H176.5z"/>
<path class="st0" d="M186.08,19.53c-0.07,0-1.21,0-1.21,0v2.28c0.13-0.01,0.25-0.03,0.37-0.04v-1.86h0.84
	c1.62,0,3.07-0.41,4.27-1.19c0.18-0.27,0.34-0.54,0.49-0.83C189.6,18.94,187.97,19.53,186.08,19.53L186.08,19.53z"/>
<path class="st0" d="M184.5,27.97h-1.22v0.37h1.59V21.8c-0.12,0.01-0.25,0.01-0.38,0.02v6.15L184.5,27.97z"/>
<path class="st0" d="M176.87,4.59c1.71-0.04,8.93-0.19,10.65,0.28c2.59,0.71,5.26,2.01,5.46,6.28c0.11,2.38-0.5,4.38-1.74,5.81
	c-0.11,0.32-0.25,0.63-0.4,0.92c1.69-1.44,2.65-3.77,2.51-6.75c-0.23-4.85-3.54-6.02-5.74-6.63c-2.01-0.55-11.12-0.28-11.12-0.28
	v1.52c0.12,0,0.24,0,0.37-0.01V4.59L176.87,4.59z"/>
<path class="st0" d="M191.05,17.17c-1.23,1.29-2.95,1.98-4.97,1.98h-1.59v2.67c0.13-0.01,0.25-0.01,0.38-0.02v-2.28h1.21
	c1.88,0,3.52-0.58,4.76-1.64c0.15-0.3,0.28-0.6,0.4-0.92C191.18,17.03,191.12,17.11,191.05,17.17z"/>
<path class="st0" d="M183.28,28.34v-0.37h-6.4V5.74c-0.13,0-0.25,0-0.37,0.01v22.6h6.77V28.34z"/>
<path class="st0" d="M41.39,16.19c0-3.05,1.08-5.84,2.87-8.04c-2.94,2.34-4.83,5.94-4.83,9.98c0,7.03,5.72,12.76,12.76,12.76
	c3.99,0,7.55-1.84,9.89-4.72c-2.18,1.73-4.93,2.78-7.92,2.78C47.12,28.95,41.39,23.22,41.39,16.19L41.39,16.19z"/>
<path class="st0" d="M69.46,5.55h-1.97v25.34h6.41v-1.94h-4.44V5.55z"/>
<path class="st0" d="M80.33,28.95V5.49c-0.52-0.06-1.05-0.1-1.59-0.11h-0.38v25.51h0.38c4.53-0.06,8.55-2.09,11.09-5.16
	c-2.44,1.96-5.63,3.18-9.12,3.22L80.33,28.95z"/>
<path class="st0" d="M25.18,24.33l3.46,7.4l1.48-2.98l-3.49-7.47L25.18,24.33z"/>
<path class="st0" d="M7.99,5.9l12.63,25.83l1.44-3.03L10.91,5.9H7.99z"/>
<path class="st0" d="M22.59,28.93l-0.33-0.66l-0.2,0.43l0.53,1.09l2.59-5.46l-0.2-0.44L22.59,28.93z"/>
<path class="st0" d="M10.56,4.34h8.17l-0.17-0.38h-8.6l0.95,1.94h0.41L10.56,4.34z"/>
<path class="st0" d="M11.32,5.9h-0.41l11.15,22.8l0.2-0.43L11.32,5.9z"/>
<path class="st0" d="M26.43,20.83l-1.45,3.06l0.2,0.44l1.45-3.05L26.43,20.83z"/>
<path class="st0" d="M11.16,4.71h7.75l-0.18-0.37h-8.17l0.76,1.56h0.42L11.16,4.71z"/>
<path class="st0" d="M22.58,28.06l-0.11-0.22l-0.21,0.43l0.33,0.66l2.39-5.04l-0.21-0.44L22.58,28.06z"/>
<path class="st0" d="M11.74,5.9h-0.42l10.94,22.37l0.21-0.43L11.74,5.9z"/>
<path class="st0" d="M24.77,23.45l0.21,0.44l1.45-3.06l-0.21-0.44L24.77,23.45z"/>
<path class="st0" d="M54.15,3.43c-3.99,0-7.55,1.84-9.89,4.72c0.45-0.36,0.93-0.68,1.43-0.98c2.21-2.08,5.18-3.36,8.46-3.36
	c6.84,0,12.38,5.54,12.38,12.38c0,3.35-1.34,6.39-3.51,8.62c-0.29,0.47-0.6,0.93-0.95,1.36c2.94-2.34,4.83-5.94,4.83-9.98
	C66.91,9.16,61.19,3.43,54.15,3.43L54.15,3.43z"/>
<path class="st0" d="M54.15,28.57c-6.84,0-12.38-5.54-12.38-12.38c0-3.56,1.51-6.76,3.92-9.02c-0.5,0.3-0.98,0.62-1.43,0.98
	c-1.79,2.2-2.87,4.99-2.87,8.04c0,7.03,5.72,12.76,12.76,12.76c2.99,0,5.74-1.04,7.92-2.78c0.35-0.43,0.66-0.89,0.95-1.36
	C60.78,27.13,57.64,28.57,54.15,28.57L54.15,28.57z"/>
<path class="st0" d="M54.15,4.18c6.62,0,12.01,5.39,12.01,12.01c0,2.61-0.85,5.03-2.27,7c-0.25,0.57-0.54,1.1-0.86,1.62
	c2.17-2.23,3.51-5.27,3.51-8.62c0-6.84-5.54-12.38-12.38-12.38c-3.28,0-6.25,1.28-8.46,3.36c0.51-0.3,1.04-0.58,1.6-0.82
	C49.24,4.99,51.6,4.18,54.15,4.18L54.15,4.18z"/>
<path class="st0" d="M41.77,16.19c0,6.84,5.54,12.38,12.38,12.38c3.48,0,6.63-1.44,8.88-3.76c0.32-0.52,0.61-1.06,0.86-1.62
	c-2.18,3.03-5.73,5.01-9.74,5.01c-6.62,0-12.01-5.39-12.01-12.01c0-4.07,2.04-7.67,5.14-9.84c-0.56,0.23-1.09,0.51-1.6,0.82
	C43.28,9.43,41.77,12.63,41.77,16.19z"/>
<path class="st0" d="M69.46,5.55h0.37V3.99h5.66v24.58H73.9v0.38h1.97V3.61h-6.41V5.55z"/>
<path class="st0" d="M69.83,28.57V5.55h-0.37v23.4h4.44v-0.38H69.83z"/>
<path class="st0" d="M70.21,4.36h4.91V28.2H73.9v0.37h1.59V3.99h-5.66v1.56h0.38V4.36z"/>
<path class="st0" d="M73.9,28.57V28.2h-3.69V5.55h-0.38v23.02H73.9z"/>
<path class="st0" d="M94.62,16.19c0-6.93-6.24-12.66-13.91-12.75h-0.38v2.05c0.13,0.01,0.25,0.04,0.37,0.06V3.82
	c7.49,0.1,13.54,5.6,13.54,12.38c0,3.12-1.29,5.95-3.4,8.13c-0.3,0.49-0.65,0.95-1.02,1.4C92.75,23.38,94.62,19.97,94.62,16.19
	L94.62,16.19z"/>
<path class="st0" d="M80.71,28.57V5.54c-0.13-0.02-0.25-0.04-0.37-0.06v23.46h0.38c3.49-0.04,6.67-1.26,9.12-3.22
	c0.37-0.45,0.71-0.91,1.02-1.4C88.37,26.88,84.75,28.52,80.71,28.57z"/>
<path class="st0" d="M81.08,4.2c7.08,0.27,12.79,5.58,12.79,11.99c0,2.42-0.81,4.68-2.21,6.58c-0.23,0.54-0.51,1.06-0.81,1.55
	c2.11-2.18,3.4-5.01,3.4-8.13c0-6.78-6.04-12.28-13.54-12.38v1.73c0.13,0.02,0.25,0.04,0.38,0.06V4.2L81.08,4.2z"/>
<path class="st0" d="M90.84,24.32c0.31-0.5,0.58-1.02,0.81-1.55c-2.3,3.12-6.17,5.25-10.58,5.42V5.61
	c-0.12-0.02-0.25-0.04-0.38-0.06v23.03C84.75,28.52,88.37,26.88,90.84,24.32L90.84,24.32z"/>
<path class="st0" d="M43.45,3.96h-8.6l-0.17,0.38h8.16L30.62,28.93l-0.29-0.61l-0.21,0.43l0.49,1.04L43.45,3.96z"/>
<path class="st0" d="M26.84,20.84l-0.21,0.44l3.49,7.47l0.21-0.43L26.84,20.84z"/>
<path class="st0" d="M19.88,5.9l-0.56-1.19h-0.41l0.55,1.19H19.88z"/>
<path class="st0" d="M19.46,5.9l6.76,14.49l0.21-0.44L19.88,5.9H19.46z"/>
<path class="st0" d="M34.26,4.34h0.42l0.17-0.38H18.56l0.17,0.38H34.26z"/>
<path class="st0" d="M26.43,20.83l0.2,0.45l0.21-0.44l-0.2-0.45L26.43,20.83z"/>
<path class="st0" d="M19.32,4.71l-0.17-0.37h15.11H18.73l0.18,0.37H19.32z"/>
<path class="st0" d="M26.43,19.95l-0.21,0.44l0.21,0.44l0.21-0.44L26.43,19.95z"/>
<path class="st0" d="M42.24,4.71L30.63,28.06l-0.08-0.17l-0.22,0.43l0.29,0.61L42.84,4.34h-8.16L34.5,4.71L42.24,4.71z"/>
<path class="st0" d="M27.05,20.4l-0.21,0.44l3.49,7.48l0.22-0.43L27.05,20.4z"/>
<path class="st0" d="M20.29,5.9l-0.55-1.19h-0.42l0.56,1.19H20.29z"/>
<path class="st0" d="M20.29,5.9h-0.41l6.55,14.05l0.21-0.44L20.29,5.9z"/>
<path class="st0" d="M34.08,4.71h0.42l0.18-0.37h-0.42L34.08,4.71z"/>
<path class="st0" d="M26.85,19.95l-0.21,0.44l0.2,0.45l0.21-0.44L26.85,19.95z"/>
<path class="st0" d="M19.32,4.71h0.42h13.93h0.41l0.18-0.37H19.15L19.32,4.71z"/>
<path class="st0" d="M26.43,19.95l0.21,0.44l0.21-0.44l-0.21-0.44L26.43,19.95z"/>
<path class="st0" d="M22.59,28.93L34.26,4.34"/>
<path class="st0" d="M22.23,28.76L33.92,4.18L34.6,4.5L22.91,29.08L22.23,28.76z"/>
</svg>
