<?xml version="1.0" encoding="utf-8"?>
<!-- Generator: Adobe Illustrator 24.2.0, SVG Export Plug-In . SVG Version: 6.00 Build 0)  -->
<svg version="1.1" id="Ebene_1" xmlns="http://www.w3.org/2000/svg" xmlns:xlink="http://www.w3.org/1999/xlink" x="0px" y="0px"
	 viewBox="0 0 200.27 74.46" style="enable-background:new 0 0 200.27 74.46;" xml:space="preserve">
<path d="M40.92,48.84l10.6,21.68H73.1L40.27,3.41L8.41,70.52h22.22L40.92,48.84z"/>
<path d="M33.81,68.93h14.46l-7.33-15.55L33.81,68.93z"/>
<path d="M159.12,52.94l-6.97,10.97l-1.66-1.06l8.63-13.59v-8.37l-6.97,10.96l-1.66-1.05l8.63-13.58v-8.99l-6.97,10.96l-1.66-1.05
	l9.64-15.17l10.11,14.76l-1.62,1.11l-7.53-10.97v9.17l9.15,13.34l-1.62,1.12l-7.53-10.99v8.58l9.15,13.35l-1.62,1.11l-7.53-10.98
	v17.95h31.75L160.01,3.41l-31.86,67.11h30.97V52.94z"/>
<path d="M84.68,64.77L54.53,3.13H51.8l32.91,67.28l14.74-31.05l-1.37-2.81L84.68,64.77z"/>
<path d="M100.8,36.53l15.85-33.4h-2.71L99.42,33.72L100.8,36.53z"/>
<path d="M114.61,64.77L100.8,36.53l-1.38-2.81L84.45,3.13h-2.72l16.35,33.42l1.37,2.81l15.19,31.05l31.95-67.28h-2.71L114.61,64.77z
	"/>
<path d="M114.57,57.03l25.26-53.87h-2.71l-23.79,50.97L114.57,57.03z"/>
<path d="M85.66,54.04L61,3.26h-2.72l26.04,53.57L85.66,54.04z"/>
</svg>
