<?xml version="1.0" encoding="utf-8"?>
<!-- Generator: Adobe Illustrator 24.0.3, SVG Export Plug-In . SVG Version: 6.00 Build 0)  -->
<svg version="1.1" id="Ebene_1" xmlns="http://www.w3.org/2000/svg" xmlns:xlink="http://www.w3.org/1999/xlink" x="0px" y="0px"
	 viewBox="0 0 210 161.1" style="enable-background:new 0 0 210 161.1;" xml:space="preserve">
<style type="text/css">
	.st0{fill:none;stroke:#000000;stroke-miterlimit:10;}
	.st1{fill:none;stroke:#000000;stroke-width:2;stroke-miterlimit:10;}
	.st2{fill:#FFFFFF;stroke:#000000;stroke-width:2;stroke-miterlimit:10;}
</style>
<g>
	<path class="st0" d="M8.5,90.1l28.8,58.8l27.9-58.8H8.5z"/>
	<path d="M110.4,148c-16.3,0-29.6-13.3-29.6-29.6c0-2.7,0.4-5.4,1.1-7.9c-1.9,4-3,8.4-3,13.1c0,16.6,13.5,30.1,30.1,30.1
		c15.6,0,28.5-11.9,29.9-27.2C135.4,138.9,124,148,110.4,148z"/>
	<circle class="st0" cx="110.4" cy="118.4" r="29.6"/>
	<path d="M146.4,148V94h-0.9v59.7h13.7V148L146.4,148z"/>
	<path class="st0" d="M146.4,89.2h13.5V148h-13.5V89.2z"/>
	<path d="M173.9,148V93.6c-0.1,0-0.3,0-0.5,0v60.1c16.4-0.2,29.6-13.6,29.6-30.1c0-0.9-0.1-1.8-0.1-2.6
		C201.6,136,189.1,147.8,173.9,148z"/>
	<path class="st0" d="M203.1,118.4c0-16.2-13-29.4-29.2-29.6V148C190,147.8,203,134.6,203.1,118.4L203.1,118.4z"/>
	<path d="M56.5,148.9l-9.3-20.9l-9.9,20.9l-26.4-54H6.3l29.2,59.7l9.5-20.1l9.8,20.1l25.3-53.3L56.5,148.9z"/>
	<path class="st0" d="M30.5,90.1l26,58.8l29.2-58.8H30.5z"/>
	<path class="st1" d="M54,8.4l33.4,68.2l32.4-68.2"/>
	<path d="M112.4,76.7l-9.9-20.3l-9.7,20.3H112.4z"/>
	<path d="M42.9,55l10.8,22h21.9L42.2,8.8L9.8,77h22.6L42.9,55z"/>
	<path d="M34.8,76.7h16.4l-8.3-17L34.8,76.7z"/>
	<path class="st1" d="M84.4,8.4l33.4,68.2l32.4-68.2"/>
	<path class="st1" d="M142.8,8.9l-25.5,54.5"/>
	<path class="st2" d="M60.9,7.9l25.5,53"/>
	<path d="M163,59.2l-7.1,11.1l-1.7-1.1l8.8-13.8v-8.5l-7.1,11.1l-1.7-1.1l8.8-13.8v-9.1l-7.1,11.1l-1.7-1.1l9.8-15.4l10.3,15
		l-1.6,1.1L165,33.7V43l9.3,13.6l-1.6,1.1L165,46.6v8.7l9.3,13.6l-1.6,1.1L165,58.8V77h32.3L163.9,8.9L131.5,77H163L163,59.2z"/>
</g>
</svg>
