<?xml version="1.0" encoding="utf-8"?>
<!-- Generator: Adobe Illustrator 24.0.3, SVG Export Plug-In . SVG Version: 6.00 Build 0)  -->
<svg version="1.1" id="Ebene_1" xmlns="http://www.w3.org/2000/svg" xmlns:xlink="http://www.w3.org/1999/xlink" x="0px" y="0px"
	 viewBox="0 0 210 170.23" style="enable-background:new 0 0 210 170.23;" xml:space="preserve">
<style type="text/css">
	.st0{fill:none;stroke:#000000;stroke-miterlimit:10;}
	.st1{fill:none;stroke:#000000;stroke-width:2;stroke-miterlimit:10;}
</style>
<path d="M7.71,93.78l29.57,60.44l10.42-21.95c-0.11-0.46-0.42-0.77-0.61-1.23l-9.82,20.88L9.31,94.78h55.08l-0.03,0.06
	c0.44-0.54,0.99-0.75,1.55-0.94l0.05-0.12H7.71z"/>
<path d="M110.43,152.22c-16.35,0-29.61-13.26-29.61-29.61c0-2.74,0.38-5.38,1.07-7.9c-1.92,3.96-2.99,8.4-2.99,13.09
	c0,16.61,13.46,30.07,30.07,30.07c15.63,0,28.46-11.92,29.93-27.16C135.37,143.13,123.96,152.22,110.43,152.22z"/>
<circle class="st0" cx="110.43" cy="122.61" r="29.61"/>
<polygon points="146.38,152.22 146.38,98.17 145.49,98.17 145.49,157.88 159.23,157.88 159.23,152.22 "/>
<rect x="146.38" y="93.43" class="st0" width="13.53" height="58.79"/>
<path d="M173.87,152.21V97.77c-0.15,0-0.3-0.02-0.46-0.02v60.12c16.41-0.23,29.64-13.6,29.64-30.06c0-0.88-0.05-1.75-0.12-2.61
	C201.63,140.2,189.15,152,173.87,152.21z"/>
<path class="st0" d="M203.05,122.61c0-16.21-13.03-29.37-29.18-29.6v59.19C190.02,151.98,203.05,138.82,203.05,122.61z"/>
<polygon points="56.47,153.07 47.21,132.13 37.27,153.07 10.83,99.03 6.3,99.03 35.51,158.74 45.03,138.69 54.84,158.74 
	80.15,105.44 "/>
<path d="M56.44,154.25L29.68,93.77h56.82L56.44,154.25z M31.22,94.77L56.5,151.9l28.4-57.12H31.22z"/>
<polyline class="st1" points="53.99,12.54 87.35,80.73 119.72,12.54 "/>
<polygon points="112.36,80.85 102.41,60.5 92.74,80.85 "/>
<polyline class="st1" points="84.4,12.54 117.76,80.73 150.14,12.54 "/>
<line class="st1" x1="142.78" y1="13.03" x2="117.27" y2="67.49"/>
<line class="st1" x1="60.86" y1="12.05" x2="86.36" y2="65.03"/>
<polygon points="75.35,81.36 41.99,13.18 9.62,81.36 "/>
<polygon points="197.01,81.36 163.65,13.18 131.27,81.36 "/>
</svg>
