%TF.GenerationSoftware,KiCad,Pcbnew,5.1.6*%
%TF.CreationDate,2020-08-08T21:56:00+02:00*%
%TF.ProjectId,unibatch-9x9,756e6962-6174-4636-982d-3978392e6b69,rev?*%
%TF.SameCoordinates,Original*%
%TF.FileFunction,Legend,Top*%
%TF.FilePolarity,Positive*%
%FSLAX46Y46*%
G04 Gerber Fmt 4.6, Leading zero omitted, Abs format (unit mm)*
G04 Created by KiCad (PCBNEW 5.1.6) date 2020-08-08 21:56:00*
%MOMM*%
%LPD*%
G01*
G04 APERTURE LIST*
%ADD10C,0.120000*%
%ADD11C,0.150000*%
G04 APERTURE END LIST*
D10*
%TO.C,D15*%
X27665000Y-16210000D02*
X30525000Y-16210000D01*
X27665000Y-14290000D02*
X27665000Y-16210000D01*
X30525000Y-14290000D02*
X27665000Y-14290000D01*
%TO.C,D81*%
X41890000Y-47710000D02*
X44750000Y-47710000D01*
X41890000Y-45790000D02*
X41890000Y-47710000D01*
X44750000Y-45790000D02*
X41890000Y-45790000D01*
%TO.C,D80*%
X37140000Y-47710000D02*
X40000000Y-47710000D01*
X37140000Y-45790000D02*
X37140000Y-47710000D01*
X40000000Y-45790000D02*
X37140000Y-45790000D01*
%TO.C,D79*%
X32390000Y-47710000D02*
X35250000Y-47710000D01*
X32390000Y-45790000D02*
X32390000Y-47710000D01*
X35250000Y-45790000D02*
X32390000Y-45790000D01*
%TO.C,D78*%
X27640000Y-47710000D02*
X30500000Y-47710000D01*
X27640000Y-45790000D02*
X27640000Y-47710000D01*
X30500000Y-45790000D02*
X27640000Y-45790000D01*
%TO.C,D77*%
X22890000Y-47710000D02*
X25750000Y-47710000D01*
X22890000Y-45790000D02*
X22890000Y-47710000D01*
X25750000Y-45790000D02*
X22890000Y-45790000D01*
%TO.C,D76*%
X18140000Y-47710000D02*
X21000000Y-47710000D01*
X18140000Y-45790000D02*
X18140000Y-47710000D01*
X21000000Y-45790000D02*
X18140000Y-45790000D01*
%TO.C,D75*%
X13390000Y-47710000D02*
X16250000Y-47710000D01*
X13390000Y-45790000D02*
X13390000Y-47710000D01*
X16250000Y-45790000D02*
X13390000Y-45790000D01*
%TO.C,D74*%
X8640000Y-47710000D02*
X11500000Y-47710000D01*
X8640000Y-45790000D02*
X8640000Y-47710000D01*
X11500000Y-45790000D02*
X8640000Y-45790000D01*
%TO.C,D73*%
X3890000Y-47710000D02*
X6750000Y-47710000D01*
X3890000Y-45790000D02*
X3890000Y-47710000D01*
X6750000Y-45790000D02*
X3890000Y-45790000D01*
%TO.C,D72*%
X41890000Y-43210000D02*
X44750000Y-43210000D01*
X41890000Y-41290000D02*
X41890000Y-43210000D01*
X44750000Y-41290000D02*
X41890000Y-41290000D01*
%TO.C,D71*%
X37140000Y-43210000D02*
X40000000Y-43210000D01*
X37140000Y-41290000D02*
X37140000Y-43210000D01*
X40000000Y-41290000D02*
X37140000Y-41290000D01*
%TO.C,D70*%
X32390000Y-43210000D02*
X35250000Y-43210000D01*
X32390000Y-41290000D02*
X32390000Y-43210000D01*
X35250000Y-41290000D02*
X32390000Y-41290000D01*
%TO.C,D69*%
X27640000Y-43210000D02*
X30500000Y-43210000D01*
X27640000Y-41290000D02*
X27640000Y-43210000D01*
X30500000Y-41290000D02*
X27640000Y-41290000D01*
%TO.C,D68*%
X22890000Y-43210000D02*
X25750000Y-43210000D01*
X22890000Y-41290000D02*
X22890000Y-43210000D01*
X25750000Y-41290000D02*
X22890000Y-41290000D01*
%TO.C,D67*%
X18140000Y-43210000D02*
X21000000Y-43210000D01*
X18140000Y-41290000D02*
X18140000Y-43210000D01*
X21000000Y-41290000D02*
X18140000Y-41290000D01*
%TO.C,D66*%
X13390000Y-43210000D02*
X16250000Y-43210000D01*
X13390000Y-41290000D02*
X13390000Y-43210000D01*
X16250000Y-41290000D02*
X13390000Y-41290000D01*
%TO.C,D65*%
X8640000Y-43210000D02*
X11500000Y-43210000D01*
X8640000Y-41290000D02*
X8640000Y-43210000D01*
X11500000Y-41290000D02*
X8640000Y-41290000D01*
%TO.C,D64*%
X3890000Y-43210000D02*
X6750000Y-43210000D01*
X3890000Y-41290000D02*
X3890000Y-43210000D01*
X6750000Y-41290000D02*
X3890000Y-41290000D01*
%TO.C,D63*%
X41890000Y-38710000D02*
X44750000Y-38710000D01*
X41890000Y-36790000D02*
X41890000Y-38710000D01*
X44750000Y-36790000D02*
X41890000Y-36790000D01*
%TO.C,D62*%
X37165000Y-38710000D02*
X40025000Y-38710000D01*
X37165000Y-36790000D02*
X37165000Y-38710000D01*
X40025000Y-36790000D02*
X37165000Y-36790000D01*
%TO.C,D61*%
X32390000Y-38710000D02*
X35250000Y-38710000D01*
X32390000Y-36790000D02*
X32390000Y-38710000D01*
X35250000Y-36790000D02*
X32390000Y-36790000D01*
%TO.C,D60*%
X27640000Y-38710000D02*
X30500000Y-38710000D01*
X27640000Y-36790000D02*
X27640000Y-38710000D01*
X30500000Y-36790000D02*
X27640000Y-36790000D01*
%TO.C,D59*%
X22890000Y-38710000D02*
X25750000Y-38710000D01*
X22890000Y-36790000D02*
X22890000Y-38710000D01*
X25750000Y-36790000D02*
X22890000Y-36790000D01*
%TO.C,D58*%
X18140000Y-38710000D02*
X21000000Y-38710000D01*
X18140000Y-36790000D02*
X18140000Y-38710000D01*
X21000000Y-36790000D02*
X18140000Y-36790000D01*
%TO.C,D57*%
X13390000Y-38710000D02*
X16250000Y-38710000D01*
X13390000Y-36790000D02*
X13390000Y-38710000D01*
X16250000Y-36790000D02*
X13390000Y-36790000D01*
%TO.C,D56*%
X8640000Y-38710000D02*
X11500000Y-38710000D01*
X8640000Y-36790000D02*
X8640000Y-38710000D01*
X11500000Y-36790000D02*
X8640000Y-36790000D01*
%TO.C,D55*%
X3890000Y-38710000D02*
X6750000Y-38710000D01*
X3890000Y-36790000D02*
X3890000Y-38710000D01*
X6750000Y-36790000D02*
X3890000Y-36790000D01*
%TO.C,D54*%
X41890000Y-34210000D02*
X44750000Y-34210000D01*
X41890000Y-32290000D02*
X41890000Y-34210000D01*
X44750000Y-32290000D02*
X41890000Y-32290000D01*
%TO.C,D53*%
X37140000Y-34210000D02*
X40000000Y-34210000D01*
X37140000Y-32290000D02*
X37140000Y-34210000D01*
X40000000Y-32290000D02*
X37140000Y-32290000D01*
%TO.C,D52*%
X32390000Y-34210000D02*
X35250000Y-34210000D01*
X32390000Y-32290000D02*
X32390000Y-34210000D01*
X35250000Y-32290000D02*
X32390000Y-32290000D01*
%TO.C,D51*%
X27640000Y-34210000D02*
X30500000Y-34210000D01*
X27640000Y-32290000D02*
X27640000Y-34210000D01*
X30500000Y-32290000D02*
X27640000Y-32290000D01*
%TO.C,D50*%
X22890000Y-34210000D02*
X25750000Y-34210000D01*
X22890000Y-32290000D02*
X22890000Y-34210000D01*
X25750000Y-32290000D02*
X22890000Y-32290000D01*
%TO.C,D49*%
X18140000Y-34210000D02*
X21000000Y-34210000D01*
X18140000Y-32290000D02*
X18140000Y-34210000D01*
X21000000Y-32290000D02*
X18140000Y-32290000D01*
%TO.C,D48*%
X13390000Y-34210000D02*
X16250000Y-34210000D01*
X13390000Y-32290000D02*
X13390000Y-34210000D01*
X16250000Y-32290000D02*
X13390000Y-32290000D01*
%TO.C,D47*%
X8640000Y-34210000D02*
X11500000Y-34210000D01*
X8640000Y-32290000D02*
X8640000Y-34210000D01*
X11500000Y-32290000D02*
X8640000Y-32290000D01*
%TO.C,D46*%
X3890000Y-34210000D02*
X6750000Y-34210000D01*
X3890000Y-32290000D02*
X3890000Y-34210000D01*
X6750000Y-32290000D02*
X3890000Y-32290000D01*
%TO.C,D45*%
X41915000Y-29710000D02*
X44775000Y-29710000D01*
X41915000Y-27790000D02*
X41915000Y-29710000D01*
X44775000Y-27790000D02*
X41915000Y-27790000D01*
%TO.C,D44*%
X37140000Y-29710000D02*
X40000000Y-29710000D01*
X37140000Y-27790000D02*
X37140000Y-29710000D01*
X40000000Y-27790000D02*
X37140000Y-27790000D01*
%TO.C,D43*%
X32390000Y-29710000D02*
X35250000Y-29710000D01*
X32390000Y-27790000D02*
X32390000Y-29710000D01*
X35250000Y-27790000D02*
X32390000Y-27790000D01*
%TO.C,D42*%
X27665000Y-29710000D02*
X30525000Y-29710000D01*
X27665000Y-27790000D02*
X27665000Y-29710000D01*
X30525000Y-27790000D02*
X27665000Y-27790000D01*
%TO.C,D41*%
X22890000Y-29710000D02*
X25750000Y-29710000D01*
X22890000Y-27790000D02*
X22890000Y-29710000D01*
X25750000Y-27790000D02*
X22890000Y-27790000D01*
%TO.C,D40*%
X18165000Y-29710000D02*
X21025000Y-29710000D01*
X18165000Y-27790000D02*
X18165000Y-29710000D01*
X21025000Y-27790000D02*
X18165000Y-27790000D01*
%TO.C,D39*%
X13415000Y-29710000D02*
X16275000Y-29710000D01*
X13415000Y-27790000D02*
X13415000Y-29710000D01*
X16275000Y-27790000D02*
X13415000Y-27790000D01*
%TO.C,D38*%
X8635000Y-29710000D02*
X11495000Y-29710000D01*
X8635000Y-27790000D02*
X8635000Y-29710000D01*
X11495000Y-27790000D02*
X8635000Y-27790000D01*
%TO.C,D37*%
X3915000Y-29710000D02*
X6775000Y-29710000D01*
X3915000Y-27790000D02*
X3915000Y-29710000D01*
X6775000Y-27790000D02*
X3915000Y-27790000D01*
%TO.C,D36*%
X41915000Y-25210000D02*
X44775000Y-25210000D01*
X41915000Y-23290000D02*
X41915000Y-25210000D01*
X44775000Y-23290000D02*
X41915000Y-23290000D01*
%TO.C,D35*%
X37165000Y-25210000D02*
X40025000Y-25210000D01*
X37165000Y-23290000D02*
X37165000Y-25210000D01*
X40025000Y-23290000D02*
X37165000Y-23290000D01*
%TO.C,D34*%
X32415000Y-25210000D02*
X35275000Y-25210000D01*
X32415000Y-23290000D02*
X32415000Y-25210000D01*
X35275000Y-23290000D02*
X32415000Y-23290000D01*
%TO.C,D33*%
X27640000Y-25210000D02*
X30500000Y-25210000D01*
X27640000Y-23290000D02*
X27640000Y-25210000D01*
X30500000Y-23290000D02*
X27640000Y-23290000D01*
%TO.C,D32*%
X22890000Y-25210000D02*
X25750000Y-25210000D01*
X22890000Y-23290000D02*
X22890000Y-25210000D01*
X25750000Y-23290000D02*
X22890000Y-23290000D01*
%TO.C,D31*%
X18140000Y-25210000D02*
X21000000Y-25210000D01*
X18140000Y-23290000D02*
X18140000Y-25210000D01*
X21000000Y-23290000D02*
X18140000Y-23290000D01*
%TO.C,D30*%
X13390000Y-25210000D02*
X16250000Y-25210000D01*
X13390000Y-23290000D02*
X13390000Y-25210000D01*
X16250000Y-23290000D02*
X13390000Y-23290000D01*
%TO.C,D29*%
X8640000Y-25210000D02*
X11500000Y-25210000D01*
X8640000Y-23290000D02*
X8640000Y-25210000D01*
X11500000Y-23290000D02*
X8640000Y-23290000D01*
%TO.C,D28*%
X3890000Y-25210000D02*
X6750000Y-25210000D01*
X3890000Y-23290000D02*
X3890000Y-25210000D01*
X6750000Y-23290000D02*
X3890000Y-23290000D01*
%TO.C,D27*%
X41890000Y-20710000D02*
X44750000Y-20710000D01*
X41890000Y-18790000D02*
X41890000Y-20710000D01*
X44750000Y-18790000D02*
X41890000Y-18790000D01*
%TO.C,D26*%
X37140000Y-20710000D02*
X40000000Y-20710000D01*
X37140000Y-18790000D02*
X37140000Y-20710000D01*
X40000000Y-18790000D02*
X37140000Y-18790000D01*
%TO.C,D25*%
X32390000Y-20710000D02*
X35250000Y-20710000D01*
X32390000Y-18790000D02*
X32390000Y-20710000D01*
X35250000Y-18790000D02*
X32390000Y-18790000D01*
%TO.C,D24*%
X27640000Y-20710000D02*
X30500000Y-20710000D01*
X27640000Y-18790000D02*
X27640000Y-20710000D01*
X30500000Y-18790000D02*
X27640000Y-18790000D01*
%TO.C,D23*%
X22890000Y-20710000D02*
X25750000Y-20710000D01*
X22890000Y-18790000D02*
X22890000Y-20710000D01*
X25750000Y-18790000D02*
X22890000Y-18790000D01*
%TO.C,D22*%
X18140000Y-20710000D02*
X21000000Y-20710000D01*
X18140000Y-18790000D02*
X18140000Y-20710000D01*
X21000000Y-18790000D02*
X18140000Y-18790000D01*
%TO.C,D21*%
X13390000Y-20710000D02*
X16250000Y-20710000D01*
X13390000Y-18790000D02*
X13390000Y-20710000D01*
X16250000Y-18790000D02*
X13390000Y-18790000D01*
%TO.C,D20*%
X8640000Y-20710000D02*
X11500000Y-20710000D01*
X8640000Y-18790000D02*
X8640000Y-20710000D01*
X11500000Y-18790000D02*
X8640000Y-18790000D01*
%TO.C,D19*%
X3915000Y-20710000D02*
X6775000Y-20710000D01*
X3915000Y-18790000D02*
X3915000Y-20710000D01*
X6775000Y-18790000D02*
X3915000Y-18790000D01*
%TO.C,D18*%
X41915000Y-16210000D02*
X44775000Y-16210000D01*
X41915000Y-14290000D02*
X41915000Y-16210000D01*
X44775000Y-14290000D02*
X41915000Y-14290000D01*
%TO.C,D17*%
X37165000Y-16210000D02*
X40025000Y-16210000D01*
X37165000Y-14290000D02*
X37165000Y-16210000D01*
X40025000Y-14290000D02*
X37165000Y-14290000D01*
%TO.C,D16*%
X32415000Y-16210000D02*
X35275000Y-16210000D01*
X32415000Y-14290000D02*
X32415000Y-16210000D01*
X35275000Y-14290000D02*
X32415000Y-14290000D01*
%TO.C,D14*%
X22915000Y-16210000D02*
X25775000Y-16210000D01*
X22915000Y-14290000D02*
X22915000Y-16210000D01*
X25775000Y-14290000D02*
X22915000Y-14290000D01*
%TO.C,D13*%
X18165000Y-16210000D02*
X21025000Y-16210000D01*
X18165000Y-14290000D02*
X18165000Y-16210000D01*
X21025000Y-14290000D02*
X18165000Y-14290000D01*
%TO.C,D12*%
X13415000Y-16210000D02*
X16275000Y-16210000D01*
X13415000Y-14290000D02*
X13415000Y-16210000D01*
X16275000Y-14290000D02*
X13415000Y-14290000D01*
%TO.C,D11*%
X8640000Y-16210000D02*
X11500000Y-16210000D01*
X8640000Y-14290000D02*
X8640000Y-16210000D01*
X11500000Y-14290000D02*
X8640000Y-14290000D01*
%TO.C,D10*%
X3915000Y-16210000D02*
X6775000Y-16210000D01*
X3915000Y-14290000D02*
X3915000Y-16210000D01*
X6775000Y-14290000D02*
X3915000Y-14290000D01*
%TO.C,D9*%
X41890000Y-11710000D02*
X44750000Y-11710000D01*
X41890000Y-9790000D02*
X41890000Y-11710000D01*
X44750000Y-9790000D02*
X41890000Y-9790000D01*
%TO.C,D8*%
X37140000Y-11710000D02*
X40000000Y-11710000D01*
X37140000Y-9790000D02*
X37140000Y-11710000D01*
X40000000Y-9790000D02*
X37140000Y-9790000D01*
%TO.C,D7*%
X32390000Y-11710000D02*
X35250000Y-11710000D01*
X32390000Y-9790000D02*
X32390000Y-11710000D01*
X35250000Y-9790000D02*
X32390000Y-9790000D01*
%TO.C,D6*%
X27640000Y-11710000D02*
X30500000Y-11710000D01*
X27640000Y-9790000D02*
X27640000Y-11710000D01*
X30500000Y-9790000D02*
X27640000Y-9790000D01*
%TO.C,D5*%
X22890000Y-11710000D02*
X25750000Y-11710000D01*
X22890000Y-9790000D02*
X22890000Y-11710000D01*
X25750000Y-9790000D02*
X22890000Y-9790000D01*
%TO.C,D4*%
X18140000Y-11710000D02*
X21000000Y-11710000D01*
X18140000Y-9790000D02*
X18140000Y-11710000D01*
X21000000Y-9790000D02*
X18140000Y-9790000D01*
%TO.C,D3*%
X13390000Y-11710000D02*
X16250000Y-11710000D01*
X13390000Y-9790000D02*
X13390000Y-11710000D01*
X16250000Y-9790000D02*
X13390000Y-9790000D01*
%TO.C,D2*%
X8640000Y-11710000D02*
X11500000Y-11710000D01*
X8640000Y-9790000D02*
X8640000Y-11710000D01*
X11500000Y-9790000D02*
X8640000Y-9790000D01*
%TO.C,D1*%
X3890000Y-11710000D02*
X6750000Y-11710000D01*
X3890000Y-9790000D02*
X3890000Y-11710000D01*
X6750000Y-9790000D02*
X3890000Y-9790000D01*
%TO.C,D15*%
D11*
X28310714Y-14052380D02*
X28310714Y-13052380D01*
X28548809Y-13052380D01*
X28691666Y-13100000D01*
X28786904Y-13195238D01*
X28834523Y-13290476D01*
X28882142Y-13480952D01*
X28882142Y-13623809D01*
X28834523Y-13814285D01*
X28786904Y-13909523D01*
X28691666Y-14004761D01*
X28548809Y-14052380D01*
X28310714Y-14052380D01*
X29834523Y-14052380D02*
X29263095Y-14052380D01*
X29548809Y-14052380D02*
X29548809Y-13052380D01*
X29453571Y-13195238D01*
X29358333Y-13290476D01*
X29263095Y-13338095D01*
X30739285Y-13052380D02*
X30263095Y-13052380D01*
X30215476Y-13528571D01*
X30263095Y-13480952D01*
X30358333Y-13433333D01*
X30596428Y-13433333D01*
X30691666Y-13480952D01*
X30739285Y-13528571D01*
X30786904Y-13623809D01*
X30786904Y-13861904D01*
X30739285Y-13957142D01*
X30691666Y-14004761D01*
X30596428Y-14052380D01*
X30358333Y-14052380D01*
X30263095Y-14004761D01*
X30215476Y-13957142D01*
%TO.C,D81*%
X42535714Y-45552380D02*
X42535714Y-44552380D01*
X42773809Y-44552380D01*
X42916666Y-44600000D01*
X43011904Y-44695238D01*
X43059523Y-44790476D01*
X43107142Y-44980952D01*
X43107142Y-45123809D01*
X43059523Y-45314285D01*
X43011904Y-45409523D01*
X42916666Y-45504761D01*
X42773809Y-45552380D01*
X42535714Y-45552380D01*
X43678571Y-44980952D02*
X43583333Y-44933333D01*
X43535714Y-44885714D01*
X43488095Y-44790476D01*
X43488095Y-44742857D01*
X43535714Y-44647619D01*
X43583333Y-44600000D01*
X43678571Y-44552380D01*
X43869047Y-44552380D01*
X43964285Y-44600000D01*
X44011904Y-44647619D01*
X44059523Y-44742857D01*
X44059523Y-44790476D01*
X44011904Y-44885714D01*
X43964285Y-44933333D01*
X43869047Y-44980952D01*
X43678571Y-44980952D01*
X43583333Y-45028571D01*
X43535714Y-45076190D01*
X43488095Y-45171428D01*
X43488095Y-45361904D01*
X43535714Y-45457142D01*
X43583333Y-45504761D01*
X43678571Y-45552380D01*
X43869047Y-45552380D01*
X43964285Y-45504761D01*
X44011904Y-45457142D01*
X44059523Y-45361904D01*
X44059523Y-45171428D01*
X44011904Y-45076190D01*
X43964285Y-45028571D01*
X43869047Y-44980952D01*
X45011904Y-45552380D02*
X44440476Y-45552380D01*
X44726190Y-45552380D02*
X44726190Y-44552380D01*
X44630952Y-44695238D01*
X44535714Y-44790476D01*
X44440476Y-44838095D01*
%TO.C,D80*%
X37785714Y-45552380D02*
X37785714Y-44552380D01*
X38023809Y-44552380D01*
X38166666Y-44600000D01*
X38261904Y-44695238D01*
X38309523Y-44790476D01*
X38357142Y-44980952D01*
X38357142Y-45123809D01*
X38309523Y-45314285D01*
X38261904Y-45409523D01*
X38166666Y-45504761D01*
X38023809Y-45552380D01*
X37785714Y-45552380D01*
X38928571Y-44980952D02*
X38833333Y-44933333D01*
X38785714Y-44885714D01*
X38738095Y-44790476D01*
X38738095Y-44742857D01*
X38785714Y-44647619D01*
X38833333Y-44600000D01*
X38928571Y-44552380D01*
X39119047Y-44552380D01*
X39214285Y-44600000D01*
X39261904Y-44647619D01*
X39309523Y-44742857D01*
X39309523Y-44790476D01*
X39261904Y-44885714D01*
X39214285Y-44933333D01*
X39119047Y-44980952D01*
X38928571Y-44980952D01*
X38833333Y-45028571D01*
X38785714Y-45076190D01*
X38738095Y-45171428D01*
X38738095Y-45361904D01*
X38785714Y-45457142D01*
X38833333Y-45504761D01*
X38928571Y-45552380D01*
X39119047Y-45552380D01*
X39214285Y-45504761D01*
X39261904Y-45457142D01*
X39309523Y-45361904D01*
X39309523Y-45171428D01*
X39261904Y-45076190D01*
X39214285Y-45028571D01*
X39119047Y-44980952D01*
X39928571Y-44552380D02*
X40023809Y-44552380D01*
X40119047Y-44600000D01*
X40166666Y-44647619D01*
X40214285Y-44742857D01*
X40261904Y-44933333D01*
X40261904Y-45171428D01*
X40214285Y-45361904D01*
X40166666Y-45457142D01*
X40119047Y-45504761D01*
X40023809Y-45552380D01*
X39928571Y-45552380D01*
X39833333Y-45504761D01*
X39785714Y-45457142D01*
X39738095Y-45361904D01*
X39690476Y-45171428D01*
X39690476Y-44933333D01*
X39738095Y-44742857D01*
X39785714Y-44647619D01*
X39833333Y-44600000D01*
X39928571Y-44552380D01*
%TO.C,D79*%
X33035714Y-45552380D02*
X33035714Y-44552380D01*
X33273809Y-44552380D01*
X33416666Y-44600000D01*
X33511904Y-44695238D01*
X33559523Y-44790476D01*
X33607142Y-44980952D01*
X33607142Y-45123809D01*
X33559523Y-45314285D01*
X33511904Y-45409523D01*
X33416666Y-45504761D01*
X33273809Y-45552380D01*
X33035714Y-45552380D01*
X33940476Y-44552380D02*
X34607142Y-44552380D01*
X34178571Y-45552380D01*
X35035714Y-45552380D02*
X35226190Y-45552380D01*
X35321428Y-45504761D01*
X35369047Y-45457142D01*
X35464285Y-45314285D01*
X35511904Y-45123809D01*
X35511904Y-44742857D01*
X35464285Y-44647619D01*
X35416666Y-44600000D01*
X35321428Y-44552380D01*
X35130952Y-44552380D01*
X35035714Y-44600000D01*
X34988095Y-44647619D01*
X34940476Y-44742857D01*
X34940476Y-44980952D01*
X34988095Y-45076190D01*
X35035714Y-45123809D01*
X35130952Y-45171428D01*
X35321428Y-45171428D01*
X35416666Y-45123809D01*
X35464285Y-45076190D01*
X35511904Y-44980952D01*
%TO.C,D78*%
X28285714Y-45552380D02*
X28285714Y-44552380D01*
X28523809Y-44552380D01*
X28666666Y-44600000D01*
X28761904Y-44695238D01*
X28809523Y-44790476D01*
X28857142Y-44980952D01*
X28857142Y-45123809D01*
X28809523Y-45314285D01*
X28761904Y-45409523D01*
X28666666Y-45504761D01*
X28523809Y-45552380D01*
X28285714Y-45552380D01*
X29190476Y-44552380D02*
X29857142Y-44552380D01*
X29428571Y-45552380D01*
X30380952Y-44980952D02*
X30285714Y-44933333D01*
X30238095Y-44885714D01*
X30190476Y-44790476D01*
X30190476Y-44742857D01*
X30238095Y-44647619D01*
X30285714Y-44600000D01*
X30380952Y-44552380D01*
X30571428Y-44552380D01*
X30666666Y-44600000D01*
X30714285Y-44647619D01*
X30761904Y-44742857D01*
X30761904Y-44790476D01*
X30714285Y-44885714D01*
X30666666Y-44933333D01*
X30571428Y-44980952D01*
X30380952Y-44980952D01*
X30285714Y-45028571D01*
X30238095Y-45076190D01*
X30190476Y-45171428D01*
X30190476Y-45361904D01*
X30238095Y-45457142D01*
X30285714Y-45504761D01*
X30380952Y-45552380D01*
X30571428Y-45552380D01*
X30666666Y-45504761D01*
X30714285Y-45457142D01*
X30761904Y-45361904D01*
X30761904Y-45171428D01*
X30714285Y-45076190D01*
X30666666Y-45028571D01*
X30571428Y-44980952D01*
%TO.C,D77*%
X23535714Y-45552380D02*
X23535714Y-44552380D01*
X23773809Y-44552380D01*
X23916666Y-44600000D01*
X24011904Y-44695238D01*
X24059523Y-44790476D01*
X24107142Y-44980952D01*
X24107142Y-45123809D01*
X24059523Y-45314285D01*
X24011904Y-45409523D01*
X23916666Y-45504761D01*
X23773809Y-45552380D01*
X23535714Y-45552380D01*
X24440476Y-44552380D02*
X25107142Y-44552380D01*
X24678571Y-45552380D01*
X25392857Y-44552380D02*
X26059523Y-44552380D01*
X25630952Y-45552380D01*
%TO.C,D76*%
X18785714Y-45552380D02*
X18785714Y-44552380D01*
X19023809Y-44552380D01*
X19166666Y-44600000D01*
X19261904Y-44695238D01*
X19309523Y-44790476D01*
X19357142Y-44980952D01*
X19357142Y-45123809D01*
X19309523Y-45314285D01*
X19261904Y-45409523D01*
X19166666Y-45504761D01*
X19023809Y-45552380D01*
X18785714Y-45552380D01*
X19690476Y-44552380D02*
X20357142Y-44552380D01*
X19928571Y-45552380D01*
X21166666Y-44552380D02*
X20976190Y-44552380D01*
X20880952Y-44600000D01*
X20833333Y-44647619D01*
X20738095Y-44790476D01*
X20690476Y-44980952D01*
X20690476Y-45361904D01*
X20738095Y-45457142D01*
X20785714Y-45504761D01*
X20880952Y-45552380D01*
X21071428Y-45552380D01*
X21166666Y-45504761D01*
X21214285Y-45457142D01*
X21261904Y-45361904D01*
X21261904Y-45123809D01*
X21214285Y-45028571D01*
X21166666Y-44980952D01*
X21071428Y-44933333D01*
X20880952Y-44933333D01*
X20785714Y-44980952D01*
X20738095Y-45028571D01*
X20690476Y-45123809D01*
%TO.C,D75*%
X14035714Y-45552380D02*
X14035714Y-44552380D01*
X14273809Y-44552380D01*
X14416666Y-44600000D01*
X14511904Y-44695238D01*
X14559523Y-44790476D01*
X14607142Y-44980952D01*
X14607142Y-45123809D01*
X14559523Y-45314285D01*
X14511904Y-45409523D01*
X14416666Y-45504761D01*
X14273809Y-45552380D01*
X14035714Y-45552380D01*
X14940476Y-44552380D02*
X15607142Y-44552380D01*
X15178571Y-45552380D01*
X16464285Y-44552380D02*
X15988095Y-44552380D01*
X15940476Y-45028571D01*
X15988095Y-44980952D01*
X16083333Y-44933333D01*
X16321428Y-44933333D01*
X16416666Y-44980952D01*
X16464285Y-45028571D01*
X16511904Y-45123809D01*
X16511904Y-45361904D01*
X16464285Y-45457142D01*
X16416666Y-45504761D01*
X16321428Y-45552380D01*
X16083333Y-45552380D01*
X15988095Y-45504761D01*
X15940476Y-45457142D01*
%TO.C,D74*%
X9285714Y-45552380D02*
X9285714Y-44552380D01*
X9523809Y-44552380D01*
X9666666Y-44600000D01*
X9761904Y-44695238D01*
X9809523Y-44790476D01*
X9857142Y-44980952D01*
X9857142Y-45123809D01*
X9809523Y-45314285D01*
X9761904Y-45409523D01*
X9666666Y-45504761D01*
X9523809Y-45552380D01*
X9285714Y-45552380D01*
X10190476Y-44552380D02*
X10857142Y-44552380D01*
X10428571Y-45552380D01*
X11666666Y-44885714D02*
X11666666Y-45552380D01*
X11428571Y-44504761D02*
X11190476Y-45219047D01*
X11809523Y-45219047D01*
%TO.C,D73*%
X4535714Y-45552380D02*
X4535714Y-44552380D01*
X4773809Y-44552380D01*
X4916666Y-44600000D01*
X5011904Y-44695238D01*
X5059523Y-44790476D01*
X5107142Y-44980952D01*
X5107142Y-45123809D01*
X5059523Y-45314285D01*
X5011904Y-45409523D01*
X4916666Y-45504761D01*
X4773809Y-45552380D01*
X4535714Y-45552380D01*
X5440476Y-44552380D02*
X6107142Y-44552380D01*
X5678571Y-45552380D01*
X6392857Y-44552380D02*
X7011904Y-44552380D01*
X6678571Y-44933333D01*
X6821428Y-44933333D01*
X6916666Y-44980952D01*
X6964285Y-45028571D01*
X7011904Y-45123809D01*
X7011904Y-45361904D01*
X6964285Y-45457142D01*
X6916666Y-45504761D01*
X6821428Y-45552380D01*
X6535714Y-45552380D01*
X6440476Y-45504761D01*
X6392857Y-45457142D01*
%TO.C,D72*%
X42535714Y-41052380D02*
X42535714Y-40052380D01*
X42773809Y-40052380D01*
X42916666Y-40100000D01*
X43011904Y-40195238D01*
X43059523Y-40290476D01*
X43107142Y-40480952D01*
X43107142Y-40623809D01*
X43059523Y-40814285D01*
X43011904Y-40909523D01*
X42916666Y-41004761D01*
X42773809Y-41052380D01*
X42535714Y-41052380D01*
X43440476Y-40052380D02*
X44107142Y-40052380D01*
X43678571Y-41052380D01*
X44440476Y-40147619D02*
X44488095Y-40100000D01*
X44583333Y-40052380D01*
X44821428Y-40052380D01*
X44916666Y-40100000D01*
X44964285Y-40147619D01*
X45011904Y-40242857D01*
X45011904Y-40338095D01*
X44964285Y-40480952D01*
X44392857Y-41052380D01*
X45011904Y-41052380D01*
%TO.C,D71*%
X37785714Y-41052380D02*
X37785714Y-40052380D01*
X38023809Y-40052380D01*
X38166666Y-40100000D01*
X38261904Y-40195238D01*
X38309523Y-40290476D01*
X38357142Y-40480952D01*
X38357142Y-40623809D01*
X38309523Y-40814285D01*
X38261904Y-40909523D01*
X38166666Y-41004761D01*
X38023809Y-41052380D01*
X37785714Y-41052380D01*
X38690476Y-40052380D02*
X39357142Y-40052380D01*
X38928571Y-41052380D01*
X40261904Y-41052380D02*
X39690476Y-41052380D01*
X39976190Y-41052380D02*
X39976190Y-40052380D01*
X39880952Y-40195238D01*
X39785714Y-40290476D01*
X39690476Y-40338095D01*
%TO.C,D70*%
X33035714Y-41052380D02*
X33035714Y-40052380D01*
X33273809Y-40052380D01*
X33416666Y-40100000D01*
X33511904Y-40195238D01*
X33559523Y-40290476D01*
X33607142Y-40480952D01*
X33607142Y-40623809D01*
X33559523Y-40814285D01*
X33511904Y-40909523D01*
X33416666Y-41004761D01*
X33273809Y-41052380D01*
X33035714Y-41052380D01*
X33940476Y-40052380D02*
X34607142Y-40052380D01*
X34178571Y-41052380D01*
X35178571Y-40052380D02*
X35273809Y-40052380D01*
X35369047Y-40100000D01*
X35416666Y-40147619D01*
X35464285Y-40242857D01*
X35511904Y-40433333D01*
X35511904Y-40671428D01*
X35464285Y-40861904D01*
X35416666Y-40957142D01*
X35369047Y-41004761D01*
X35273809Y-41052380D01*
X35178571Y-41052380D01*
X35083333Y-41004761D01*
X35035714Y-40957142D01*
X34988095Y-40861904D01*
X34940476Y-40671428D01*
X34940476Y-40433333D01*
X34988095Y-40242857D01*
X35035714Y-40147619D01*
X35083333Y-40100000D01*
X35178571Y-40052380D01*
%TO.C,D69*%
X28285714Y-41052380D02*
X28285714Y-40052380D01*
X28523809Y-40052380D01*
X28666666Y-40100000D01*
X28761904Y-40195238D01*
X28809523Y-40290476D01*
X28857142Y-40480952D01*
X28857142Y-40623809D01*
X28809523Y-40814285D01*
X28761904Y-40909523D01*
X28666666Y-41004761D01*
X28523809Y-41052380D01*
X28285714Y-41052380D01*
X29714285Y-40052380D02*
X29523809Y-40052380D01*
X29428571Y-40100000D01*
X29380952Y-40147619D01*
X29285714Y-40290476D01*
X29238095Y-40480952D01*
X29238095Y-40861904D01*
X29285714Y-40957142D01*
X29333333Y-41004761D01*
X29428571Y-41052380D01*
X29619047Y-41052380D01*
X29714285Y-41004761D01*
X29761904Y-40957142D01*
X29809523Y-40861904D01*
X29809523Y-40623809D01*
X29761904Y-40528571D01*
X29714285Y-40480952D01*
X29619047Y-40433333D01*
X29428571Y-40433333D01*
X29333333Y-40480952D01*
X29285714Y-40528571D01*
X29238095Y-40623809D01*
X30285714Y-41052380D02*
X30476190Y-41052380D01*
X30571428Y-41004761D01*
X30619047Y-40957142D01*
X30714285Y-40814285D01*
X30761904Y-40623809D01*
X30761904Y-40242857D01*
X30714285Y-40147619D01*
X30666666Y-40100000D01*
X30571428Y-40052380D01*
X30380952Y-40052380D01*
X30285714Y-40100000D01*
X30238095Y-40147619D01*
X30190476Y-40242857D01*
X30190476Y-40480952D01*
X30238095Y-40576190D01*
X30285714Y-40623809D01*
X30380952Y-40671428D01*
X30571428Y-40671428D01*
X30666666Y-40623809D01*
X30714285Y-40576190D01*
X30761904Y-40480952D01*
%TO.C,D68*%
X23535714Y-41052380D02*
X23535714Y-40052380D01*
X23773809Y-40052380D01*
X23916666Y-40100000D01*
X24011904Y-40195238D01*
X24059523Y-40290476D01*
X24107142Y-40480952D01*
X24107142Y-40623809D01*
X24059523Y-40814285D01*
X24011904Y-40909523D01*
X23916666Y-41004761D01*
X23773809Y-41052380D01*
X23535714Y-41052380D01*
X24964285Y-40052380D02*
X24773809Y-40052380D01*
X24678571Y-40100000D01*
X24630952Y-40147619D01*
X24535714Y-40290476D01*
X24488095Y-40480952D01*
X24488095Y-40861904D01*
X24535714Y-40957142D01*
X24583333Y-41004761D01*
X24678571Y-41052380D01*
X24869047Y-41052380D01*
X24964285Y-41004761D01*
X25011904Y-40957142D01*
X25059523Y-40861904D01*
X25059523Y-40623809D01*
X25011904Y-40528571D01*
X24964285Y-40480952D01*
X24869047Y-40433333D01*
X24678571Y-40433333D01*
X24583333Y-40480952D01*
X24535714Y-40528571D01*
X24488095Y-40623809D01*
X25630952Y-40480952D02*
X25535714Y-40433333D01*
X25488095Y-40385714D01*
X25440476Y-40290476D01*
X25440476Y-40242857D01*
X25488095Y-40147619D01*
X25535714Y-40100000D01*
X25630952Y-40052380D01*
X25821428Y-40052380D01*
X25916666Y-40100000D01*
X25964285Y-40147619D01*
X26011904Y-40242857D01*
X26011904Y-40290476D01*
X25964285Y-40385714D01*
X25916666Y-40433333D01*
X25821428Y-40480952D01*
X25630952Y-40480952D01*
X25535714Y-40528571D01*
X25488095Y-40576190D01*
X25440476Y-40671428D01*
X25440476Y-40861904D01*
X25488095Y-40957142D01*
X25535714Y-41004761D01*
X25630952Y-41052380D01*
X25821428Y-41052380D01*
X25916666Y-41004761D01*
X25964285Y-40957142D01*
X26011904Y-40861904D01*
X26011904Y-40671428D01*
X25964285Y-40576190D01*
X25916666Y-40528571D01*
X25821428Y-40480952D01*
%TO.C,D67*%
X18785714Y-41052380D02*
X18785714Y-40052380D01*
X19023809Y-40052380D01*
X19166666Y-40100000D01*
X19261904Y-40195238D01*
X19309523Y-40290476D01*
X19357142Y-40480952D01*
X19357142Y-40623809D01*
X19309523Y-40814285D01*
X19261904Y-40909523D01*
X19166666Y-41004761D01*
X19023809Y-41052380D01*
X18785714Y-41052380D01*
X20214285Y-40052380D02*
X20023809Y-40052380D01*
X19928571Y-40100000D01*
X19880952Y-40147619D01*
X19785714Y-40290476D01*
X19738095Y-40480952D01*
X19738095Y-40861904D01*
X19785714Y-40957142D01*
X19833333Y-41004761D01*
X19928571Y-41052380D01*
X20119047Y-41052380D01*
X20214285Y-41004761D01*
X20261904Y-40957142D01*
X20309523Y-40861904D01*
X20309523Y-40623809D01*
X20261904Y-40528571D01*
X20214285Y-40480952D01*
X20119047Y-40433333D01*
X19928571Y-40433333D01*
X19833333Y-40480952D01*
X19785714Y-40528571D01*
X19738095Y-40623809D01*
X20642857Y-40052380D02*
X21309523Y-40052380D01*
X20880952Y-41052380D01*
%TO.C,D66*%
X14035714Y-41052380D02*
X14035714Y-40052380D01*
X14273809Y-40052380D01*
X14416666Y-40100000D01*
X14511904Y-40195238D01*
X14559523Y-40290476D01*
X14607142Y-40480952D01*
X14607142Y-40623809D01*
X14559523Y-40814285D01*
X14511904Y-40909523D01*
X14416666Y-41004761D01*
X14273809Y-41052380D01*
X14035714Y-41052380D01*
X15464285Y-40052380D02*
X15273809Y-40052380D01*
X15178571Y-40100000D01*
X15130952Y-40147619D01*
X15035714Y-40290476D01*
X14988095Y-40480952D01*
X14988095Y-40861904D01*
X15035714Y-40957142D01*
X15083333Y-41004761D01*
X15178571Y-41052380D01*
X15369047Y-41052380D01*
X15464285Y-41004761D01*
X15511904Y-40957142D01*
X15559523Y-40861904D01*
X15559523Y-40623809D01*
X15511904Y-40528571D01*
X15464285Y-40480952D01*
X15369047Y-40433333D01*
X15178571Y-40433333D01*
X15083333Y-40480952D01*
X15035714Y-40528571D01*
X14988095Y-40623809D01*
X16416666Y-40052380D02*
X16226190Y-40052380D01*
X16130952Y-40100000D01*
X16083333Y-40147619D01*
X15988095Y-40290476D01*
X15940476Y-40480952D01*
X15940476Y-40861904D01*
X15988095Y-40957142D01*
X16035714Y-41004761D01*
X16130952Y-41052380D01*
X16321428Y-41052380D01*
X16416666Y-41004761D01*
X16464285Y-40957142D01*
X16511904Y-40861904D01*
X16511904Y-40623809D01*
X16464285Y-40528571D01*
X16416666Y-40480952D01*
X16321428Y-40433333D01*
X16130952Y-40433333D01*
X16035714Y-40480952D01*
X15988095Y-40528571D01*
X15940476Y-40623809D01*
%TO.C,D65*%
X9285714Y-41052380D02*
X9285714Y-40052380D01*
X9523809Y-40052380D01*
X9666666Y-40100000D01*
X9761904Y-40195238D01*
X9809523Y-40290476D01*
X9857142Y-40480952D01*
X9857142Y-40623809D01*
X9809523Y-40814285D01*
X9761904Y-40909523D01*
X9666666Y-41004761D01*
X9523809Y-41052380D01*
X9285714Y-41052380D01*
X10714285Y-40052380D02*
X10523809Y-40052380D01*
X10428571Y-40100000D01*
X10380952Y-40147619D01*
X10285714Y-40290476D01*
X10238095Y-40480952D01*
X10238095Y-40861904D01*
X10285714Y-40957142D01*
X10333333Y-41004761D01*
X10428571Y-41052380D01*
X10619047Y-41052380D01*
X10714285Y-41004761D01*
X10761904Y-40957142D01*
X10809523Y-40861904D01*
X10809523Y-40623809D01*
X10761904Y-40528571D01*
X10714285Y-40480952D01*
X10619047Y-40433333D01*
X10428571Y-40433333D01*
X10333333Y-40480952D01*
X10285714Y-40528571D01*
X10238095Y-40623809D01*
X11714285Y-40052380D02*
X11238095Y-40052380D01*
X11190476Y-40528571D01*
X11238095Y-40480952D01*
X11333333Y-40433333D01*
X11571428Y-40433333D01*
X11666666Y-40480952D01*
X11714285Y-40528571D01*
X11761904Y-40623809D01*
X11761904Y-40861904D01*
X11714285Y-40957142D01*
X11666666Y-41004761D01*
X11571428Y-41052380D01*
X11333333Y-41052380D01*
X11238095Y-41004761D01*
X11190476Y-40957142D01*
%TO.C,D64*%
X4535714Y-41052380D02*
X4535714Y-40052380D01*
X4773809Y-40052380D01*
X4916666Y-40100000D01*
X5011904Y-40195238D01*
X5059523Y-40290476D01*
X5107142Y-40480952D01*
X5107142Y-40623809D01*
X5059523Y-40814285D01*
X5011904Y-40909523D01*
X4916666Y-41004761D01*
X4773809Y-41052380D01*
X4535714Y-41052380D01*
X5964285Y-40052380D02*
X5773809Y-40052380D01*
X5678571Y-40100000D01*
X5630952Y-40147619D01*
X5535714Y-40290476D01*
X5488095Y-40480952D01*
X5488095Y-40861904D01*
X5535714Y-40957142D01*
X5583333Y-41004761D01*
X5678571Y-41052380D01*
X5869047Y-41052380D01*
X5964285Y-41004761D01*
X6011904Y-40957142D01*
X6059523Y-40861904D01*
X6059523Y-40623809D01*
X6011904Y-40528571D01*
X5964285Y-40480952D01*
X5869047Y-40433333D01*
X5678571Y-40433333D01*
X5583333Y-40480952D01*
X5535714Y-40528571D01*
X5488095Y-40623809D01*
X6916666Y-40385714D02*
X6916666Y-41052380D01*
X6678571Y-40004761D02*
X6440476Y-40719047D01*
X7059523Y-40719047D01*
%TO.C,D63*%
X42535714Y-36552380D02*
X42535714Y-35552380D01*
X42773809Y-35552380D01*
X42916666Y-35600000D01*
X43011904Y-35695238D01*
X43059523Y-35790476D01*
X43107142Y-35980952D01*
X43107142Y-36123809D01*
X43059523Y-36314285D01*
X43011904Y-36409523D01*
X42916666Y-36504761D01*
X42773809Y-36552380D01*
X42535714Y-36552380D01*
X43964285Y-35552380D02*
X43773809Y-35552380D01*
X43678571Y-35600000D01*
X43630952Y-35647619D01*
X43535714Y-35790476D01*
X43488095Y-35980952D01*
X43488095Y-36361904D01*
X43535714Y-36457142D01*
X43583333Y-36504761D01*
X43678571Y-36552380D01*
X43869047Y-36552380D01*
X43964285Y-36504761D01*
X44011904Y-36457142D01*
X44059523Y-36361904D01*
X44059523Y-36123809D01*
X44011904Y-36028571D01*
X43964285Y-35980952D01*
X43869047Y-35933333D01*
X43678571Y-35933333D01*
X43583333Y-35980952D01*
X43535714Y-36028571D01*
X43488095Y-36123809D01*
X44392857Y-35552380D02*
X45011904Y-35552380D01*
X44678571Y-35933333D01*
X44821428Y-35933333D01*
X44916666Y-35980952D01*
X44964285Y-36028571D01*
X45011904Y-36123809D01*
X45011904Y-36361904D01*
X44964285Y-36457142D01*
X44916666Y-36504761D01*
X44821428Y-36552380D01*
X44535714Y-36552380D01*
X44440476Y-36504761D01*
X44392857Y-36457142D01*
%TO.C,D62*%
X37810714Y-36552380D02*
X37810714Y-35552380D01*
X38048809Y-35552380D01*
X38191666Y-35600000D01*
X38286904Y-35695238D01*
X38334523Y-35790476D01*
X38382142Y-35980952D01*
X38382142Y-36123809D01*
X38334523Y-36314285D01*
X38286904Y-36409523D01*
X38191666Y-36504761D01*
X38048809Y-36552380D01*
X37810714Y-36552380D01*
X39239285Y-35552380D02*
X39048809Y-35552380D01*
X38953571Y-35600000D01*
X38905952Y-35647619D01*
X38810714Y-35790476D01*
X38763095Y-35980952D01*
X38763095Y-36361904D01*
X38810714Y-36457142D01*
X38858333Y-36504761D01*
X38953571Y-36552380D01*
X39144047Y-36552380D01*
X39239285Y-36504761D01*
X39286904Y-36457142D01*
X39334523Y-36361904D01*
X39334523Y-36123809D01*
X39286904Y-36028571D01*
X39239285Y-35980952D01*
X39144047Y-35933333D01*
X38953571Y-35933333D01*
X38858333Y-35980952D01*
X38810714Y-36028571D01*
X38763095Y-36123809D01*
X39715476Y-35647619D02*
X39763095Y-35600000D01*
X39858333Y-35552380D01*
X40096428Y-35552380D01*
X40191666Y-35600000D01*
X40239285Y-35647619D01*
X40286904Y-35742857D01*
X40286904Y-35838095D01*
X40239285Y-35980952D01*
X39667857Y-36552380D01*
X40286904Y-36552380D01*
%TO.C,D61*%
X33035714Y-36552380D02*
X33035714Y-35552380D01*
X33273809Y-35552380D01*
X33416666Y-35600000D01*
X33511904Y-35695238D01*
X33559523Y-35790476D01*
X33607142Y-35980952D01*
X33607142Y-36123809D01*
X33559523Y-36314285D01*
X33511904Y-36409523D01*
X33416666Y-36504761D01*
X33273809Y-36552380D01*
X33035714Y-36552380D01*
X34464285Y-35552380D02*
X34273809Y-35552380D01*
X34178571Y-35600000D01*
X34130952Y-35647619D01*
X34035714Y-35790476D01*
X33988095Y-35980952D01*
X33988095Y-36361904D01*
X34035714Y-36457142D01*
X34083333Y-36504761D01*
X34178571Y-36552380D01*
X34369047Y-36552380D01*
X34464285Y-36504761D01*
X34511904Y-36457142D01*
X34559523Y-36361904D01*
X34559523Y-36123809D01*
X34511904Y-36028571D01*
X34464285Y-35980952D01*
X34369047Y-35933333D01*
X34178571Y-35933333D01*
X34083333Y-35980952D01*
X34035714Y-36028571D01*
X33988095Y-36123809D01*
X35511904Y-36552380D02*
X34940476Y-36552380D01*
X35226190Y-36552380D02*
X35226190Y-35552380D01*
X35130952Y-35695238D01*
X35035714Y-35790476D01*
X34940476Y-35838095D01*
%TO.C,D60*%
X28285714Y-36552380D02*
X28285714Y-35552380D01*
X28523809Y-35552380D01*
X28666666Y-35600000D01*
X28761904Y-35695238D01*
X28809523Y-35790476D01*
X28857142Y-35980952D01*
X28857142Y-36123809D01*
X28809523Y-36314285D01*
X28761904Y-36409523D01*
X28666666Y-36504761D01*
X28523809Y-36552380D01*
X28285714Y-36552380D01*
X29714285Y-35552380D02*
X29523809Y-35552380D01*
X29428571Y-35600000D01*
X29380952Y-35647619D01*
X29285714Y-35790476D01*
X29238095Y-35980952D01*
X29238095Y-36361904D01*
X29285714Y-36457142D01*
X29333333Y-36504761D01*
X29428571Y-36552380D01*
X29619047Y-36552380D01*
X29714285Y-36504761D01*
X29761904Y-36457142D01*
X29809523Y-36361904D01*
X29809523Y-36123809D01*
X29761904Y-36028571D01*
X29714285Y-35980952D01*
X29619047Y-35933333D01*
X29428571Y-35933333D01*
X29333333Y-35980952D01*
X29285714Y-36028571D01*
X29238095Y-36123809D01*
X30428571Y-35552380D02*
X30523809Y-35552380D01*
X30619047Y-35600000D01*
X30666666Y-35647619D01*
X30714285Y-35742857D01*
X30761904Y-35933333D01*
X30761904Y-36171428D01*
X30714285Y-36361904D01*
X30666666Y-36457142D01*
X30619047Y-36504761D01*
X30523809Y-36552380D01*
X30428571Y-36552380D01*
X30333333Y-36504761D01*
X30285714Y-36457142D01*
X30238095Y-36361904D01*
X30190476Y-36171428D01*
X30190476Y-35933333D01*
X30238095Y-35742857D01*
X30285714Y-35647619D01*
X30333333Y-35600000D01*
X30428571Y-35552380D01*
%TO.C,D59*%
X23535714Y-36552380D02*
X23535714Y-35552380D01*
X23773809Y-35552380D01*
X23916666Y-35600000D01*
X24011904Y-35695238D01*
X24059523Y-35790476D01*
X24107142Y-35980952D01*
X24107142Y-36123809D01*
X24059523Y-36314285D01*
X24011904Y-36409523D01*
X23916666Y-36504761D01*
X23773809Y-36552380D01*
X23535714Y-36552380D01*
X25011904Y-35552380D02*
X24535714Y-35552380D01*
X24488095Y-36028571D01*
X24535714Y-35980952D01*
X24630952Y-35933333D01*
X24869047Y-35933333D01*
X24964285Y-35980952D01*
X25011904Y-36028571D01*
X25059523Y-36123809D01*
X25059523Y-36361904D01*
X25011904Y-36457142D01*
X24964285Y-36504761D01*
X24869047Y-36552380D01*
X24630952Y-36552380D01*
X24535714Y-36504761D01*
X24488095Y-36457142D01*
X25535714Y-36552380D02*
X25726190Y-36552380D01*
X25821428Y-36504761D01*
X25869047Y-36457142D01*
X25964285Y-36314285D01*
X26011904Y-36123809D01*
X26011904Y-35742857D01*
X25964285Y-35647619D01*
X25916666Y-35600000D01*
X25821428Y-35552380D01*
X25630952Y-35552380D01*
X25535714Y-35600000D01*
X25488095Y-35647619D01*
X25440476Y-35742857D01*
X25440476Y-35980952D01*
X25488095Y-36076190D01*
X25535714Y-36123809D01*
X25630952Y-36171428D01*
X25821428Y-36171428D01*
X25916666Y-36123809D01*
X25964285Y-36076190D01*
X26011904Y-35980952D01*
%TO.C,D58*%
X18785714Y-36552380D02*
X18785714Y-35552380D01*
X19023809Y-35552380D01*
X19166666Y-35600000D01*
X19261904Y-35695238D01*
X19309523Y-35790476D01*
X19357142Y-35980952D01*
X19357142Y-36123809D01*
X19309523Y-36314285D01*
X19261904Y-36409523D01*
X19166666Y-36504761D01*
X19023809Y-36552380D01*
X18785714Y-36552380D01*
X20261904Y-35552380D02*
X19785714Y-35552380D01*
X19738095Y-36028571D01*
X19785714Y-35980952D01*
X19880952Y-35933333D01*
X20119047Y-35933333D01*
X20214285Y-35980952D01*
X20261904Y-36028571D01*
X20309523Y-36123809D01*
X20309523Y-36361904D01*
X20261904Y-36457142D01*
X20214285Y-36504761D01*
X20119047Y-36552380D01*
X19880952Y-36552380D01*
X19785714Y-36504761D01*
X19738095Y-36457142D01*
X20880952Y-35980952D02*
X20785714Y-35933333D01*
X20738095Y-35885714D01*
X20690476Y-35790476D01*
X20690476Y-35742857D01*
X20738095Y-35647619D01*
X20785714Y-35600000D01*
X20880952Y-35552380D01*
X21071428Y-35552380D01*
X21166666Y-35600000D01*
X21214285Y-35647619D01*
X21261904Y-35742857D01*
X21261904Y-35790476D01*
X21214285Y-35885714D01*
X21166666Y-35933333D01*
X21071428Y-35980952D01*
X20880952Y-35980952D01*
X20785714Y-36028571D01*
X20738095Y-36076190D01*
X20690476Y-36171428D01*
X20690476Y-36361904D01*
X20738095Y-36457142D01*
X20785714Y-36504761D01*
X20880952Y-36552380D01*
X21071428Y-36552380D01*
X21166666Y-36504761D01*
X21214285Y-36457142D01*
X21261904Y-36361904D01*
X21261904Y-36171428D01*
X21214285Y-36076190D01*
X21166666Y-36028571D01*
X21071428Y-35980952D01*
%TO.C,D57*%
X14035714Y-36552380D02*
X14035714Y-35552380D01*
X14273809Y-35552380D01*
X14416666Y-35600000D01*
X14511904Y-35695238D01*
X14559523Y-35790476D01*
X14607142Y-35980952D01*
X14607142Y-36123809D01*
X14559523Y-36314285D01*
X14511904Y-36409523D01*
X14416666Y-36504761D01*
X14273809Y-36552380D01*
X14035714Y-36552380D01*
X15511904Y-35552380D02*
X15035714Y-35552380D01*
X14988095Y-36028571D01*
X15035714Y-35980952D01*
X15130952Y-35933333D01*
X15369047Y-35933333D01*
X15464285Y-35980952D01*
X15511904Y-36028571D01*
X15559523Y-36123809D01*
X15559523Y-36361904D01*
X15511904Y-36457142D01*
X15464285Y-36504761D01*
X15369047Y-36552380D01*
X15130952Y-36552380D01*
X15035714Y-36504761D01*
X14988095Y-36457142D01*
X15892857Y-35552380D02*
X16559523Y-35552380D01*
X16130952Y-36552380D01*
%TO.C,D56*%
X9285714Y-36552380D02*
X9285714Y-35552380D01*
X9523809Y-35552380D01*
X9666666Y-35600000D01*
X9761904Y-35695238D01*
X9809523Y-35790476D01*
X9857142Y-35980952D01*
X9857142Y-36123809D01*
X9809523Y-36314285D01*
X9761904Y-36409523D01*
X9666666Y-36504761D01*
X9523809Y-36552380D01*
X9285714Y-36552380D01*
X10761904Y-35552380D02*
X10285714Y-35552380D01*
X10238095Y-36028571D01*
X10285714Y-35980952D01*
X10380952Y-35933333D01*
X10619047Y-35933333D01*
X10714285Y-35980952D01*
X10761904Y-36028571D01*
X10809523Y-36123809D01*
X10809523Y-36361904D01*
X10761904Y-36457142D01*
X10714285Y-36504761D01*
X10619047Y-36552380D01*
X10380952Y-36552380D01*
X10285714Y-36504761D01*
X10238095Y-36457142D01*
X11666666Y-35552380D02*
X11476190Y-35552380D01*
X11380952Y-35600000D01*
X11333333Y-35647619D01*
X11238095Y-35790476D01*
X11190476Y-35980952D01*
X11190476Y-36361904D01*
X11238095Y-36457142D01*
X11285714Y-36504761D01*
X11380952Y-36552380D01*
X11571428Y-36552380D01*
X11666666Y-36504761D01*
X11714285Y-36457142D01*
X11761904Y-36361904D01*
X11761904Y-36123809D01*
X11714285Y-36028571D01*
X11666666Y-35980952D01*
X11571428Y-35933333D01*
X11380952Y-35933333D01*
X11285714Y-35980952D01*
X11238095Y-36028571D01*
X11190476Y-36123809D01*
%TO.C,D55*%
X4535714Y-36552380D02*
X4535714Y-35552380D01*
X4773809Y-35552380D01*
X4916666Y-35600000D01*
X5011904Y-35695238D01*
X5059523Y-35790476D01*
X5107142Y-35980952D01*
X5107142Y-36123809D01*
X5059523Y-36314285D01*
X5011904Y-36409523D01*
X4916666Y-36504761D01*
X4773809Y-36552380D01*
X4535714Y-36552380D01*
X6011904Y-35552380D02*
X5535714Y-35552380D01*
X5488095Y-36028571D01*
X5535714Y-35980952D01*
X5630952Y-35933333D01*
X5869047Y-35933333D01*
X5964285Y-35980952D01*
X6011904Y-36028571D01*
X6059523Y-36123809D01*
X6059523Y-36361904D01*
X6011904Y-36457142D01*
X5964285Y-36504761D01*
X5869047Y-36552380D01*
X5630952Y-36552380D01*
X5535714Y-36504761D01*
X5488095Y-36457142D01*
X6964285Y-35552380D02*
X6488095Y-35552380D01*
X6440476Y-36028571D01*
X6488095Y-35980952D01*
X6583333Y-35933333D01*
X6821428Y-35933333D01*
X6916666Y-35980952D01*
X6964285Y-36028571D01*
X7011904Y-36123809D01*
X7011904Y-36361904D01*
X6964285Y-36457142D01*
X6916666Y-36504761D01*
X6821428Y-36552380D01*
X6583333Y-36552380D01*
X6488095Y-36504761D01*
X6440476Y-36457142D01*
%TO.C,D54*%
X42535714Y-32052380D02*
X42535714Y-31052380D01*
X42773809Y-31052380D01*
X42916666Y-31100000D01*
X43011904Y-31195238D01*
X43059523Y-31290476D01*
X43107142Y-31480952D01*
X43107142Y-31623809D01*
X43059523Y-31814285D01*
X43011904Y-31909523D01*
X42916666Y-32004761D01*
X42773809Y-32052380D01*
X42535714Y-32052380D01*
X44011904Y-31052380D02*
X43535714Y-31052380D01*
X43488095Y-31528571D01*
X43535714Y-31480952D01*
X43630952Y-31433333D01*
X43869047Y-31433333D01*
X43964285Y-31480952D01*
X44011904Y-31528571D01*
X44059523Y-31623809D01*
X44059523Y-31861904D01*
X44011904Y-31957142D01*
X43964285Y-32004761D01*
X43869047Y-32052380D01*
X43630952Y-32052380D01*
X43535714Y-32004761D01*
X43488095Y-31957142D01*
X44916666Y-31385714D02*
X44916666Y-32052380D01*
X44678571Y-31004761D02*
X44440476Y-31719047D01*
X45059523Y-31719047D01*
%TO.C,D53*%
X37785714Y-32052380D02*
X37785714Y-31052380D01*
X38023809Y-31052380D01*
X38166666Y-31100000D01*
X38261904Y-31195238D01*
X38309523Y-31290476D01*
X38357142Y-31480952D01*
X38357142Y-31623809D01*
X38309523Y-31814285D01*
X38261904Y-31909523D01*
X38166666Y-32004761D01*
X38023809Y-32052380D01*
X37785714Y-32052380D01*
X39261904Y-31052380D02*
X38785714Y-31052380D01*
X38738095Y-31528571D01*
X38785714Y-31480952D01*
X38880952Y-31433333D01*
X39119047Y-31433333D01*
X39214285Y-31480952D01*
X39261904Y-31528571D01*
X39309523Y-31623809D01*
X39309523Y-31861904D01*
X39261904Y-31957142D01*
X39214285Y-32004761D01*
X39119047Y-32052380D01*
X38880952Y-32052380D01*
X38785714Y-32004761D01*
X38738095Y-31957142D01*
X39642857Y-31052380D02*
X40261904Y-31052380D01*
X39928571Y-31433333D01*
X40071428Y-31433333D01*
X40166666Y-31480952D01*
X40214285Y-31528571D01*
X40261904Y-31623809D01*
X40261904Y-31861904D01*
X40214285Y-31957142D01*
X40166666Y-32004761D01*
X40071428Y-32052380D01*
X39785714Y-32052380D01*
X39690476Y-32004761D01*
X39642857Y-31957142D01*
%TO.C,D52*%
X33035714Y-32052380D02*
X33035714Y-31052380D01*
X33273809Y-31052380D01*
X33416666Y-31100000D01*
X33511904Y-31195238D01*
X33559523Y-31290476D01*
X33607142Y-31480952D01*
X33607142Y-31623809D01*
X33559523Y-31814285D01*
X33511904Y-31909523D01*
X33416666Y-32004761D01*
X33273809Y-32052380D01*
X33035714Y-32052380D01*
X34511904Y-31052380D02*
X34035714Y-31052380D01*
X33988095Y-31528571D01*
X34035714Y-31480952D01*
X34130952Y-31433333D01*
X34369047Y-31433333D01*
X34464285Y-31480952D01*
X34511904Y-31528571D01*
X34559523Y-31623809D01*
X34559523Y-31861904D01*
X34511904Y-31957142D01*
X34464285Y-32004761D01*
X34369047Y-32052380D01*
X34130952Y-32052380D01*
X34035714Y-32004761D01*
X33988095Y-31957142D01*
X34940476Y-31147619D02*
X34988095Y-31100000D01*
X35083333Y-31052380D01*
X35321428Y-31052380D01*
X35416666Y-31100000D01*
X35464285Y-31147619D01*
X35511904Y-31242857D01*
X35511904Y-31338095D01*
X35464285Y-31480952D01*
X34892857Y-32052380D01*
X35511904Y-32052380D01*
%TO.C,D51*%
X28285714Y-32052380D02*
X28285714Y-31052380D01*
X28523809Y-31052380D01*
X28666666Y-31100000D01*
X28761904Y-31195238D01*
X28809523Y-31290476D01*
X28857142Y-31480952D01*
X28857142Y-31623809D01*
X28809523Y-31814285D01*
X28761904Y-31909523D01*
X28666666Y-32004761D01*
X28523809Y-32052380D01*
X28285714Y-32052380D01*
X29761904Y-31052380D02*
X29285714Y-31052380D01*
X29238095Y-31528571D01*
X29285714Y-31480952D01*
X29380952Y-31433333D01*
X29619047Y-31433333D01*
X29714285Y-31480952D01*
X29761904Y-31528571D01*
X29809523Y-31623809D01*
X29809523Y-31861904D01*
X29761904Y-31957142D01*
X29714285Y-32004761D01*
X29619047Y-32052380D01*
X29380952Y-32052380D01*
X29285714Y-32004761D01*
X29238095Y-31957142D01*
X30761904Y-32052380D02*
X30190476Y-32052380D01*
X30476190Y-32052380D02*
X30476190Y-31052380D01*
X30380952Y-31195238D01*
X30285714Y-31290476D01*
X30190476Y-31338095D01*
%TO.C,D50*%
X23535714Y-32052380D02*
X23535714Y-31052380D01*
X23773809Y-31052380D01*
X23916666Y-31100000D01*
X24011904Y-31195238D01*
X24059523Y-31290476D01*
X24107142Y-31480952D01*
X24107142Y-31623809D01*
X24059523Y-31814285D01*
X24011904Y-31909523D01*
X23916666Y-32004761D01*
X23773809Y-32052380D01*
X23535714Y-32052380D01*
X25011904Y-31052380D02*
X24535714Y-31052380D01*
X24488095Y-31528571D01*
X24535714Y-31480952D01*
X24630952Y-31433333D01*
X24869047Y-31433333D01*
X24964285Y-31480952D01*
X25011904Y-31528571D01*
X25059523Y-31623809D01*
X25059523Y-31861904D01*
X25011904Y-31957142D01*
X24964285Y-32004761D01*
X24869047Y-32052380D01*
X24630952Y-32052380D01*
X24535714Y-32004761D01*
X24488095Y-31957142D01*
X25678571Y-31052380D02*
X25773809Y-31052380D01*
X25869047Y-31100000D01*
X25916666Y-31147619D01*
X25964285Y-31242857D01*
X26011904Y-31433333D01*
X26011904Y-31671428D01*
X25964285Y-31861904D01*
X25916666Y-31957142D01*
X25869047Y-32004761D01*
X25773809Y-32052380D01*
X25678571Y-32052380D01*
X25583333Y-32004761D01*
X25535714Y-31957142D01*
X25488095Y-31861904D01*
X25440476Y-31671428D01*
X25440476Y-31433333D01*
X25488095Y-31242857D01*
X25535714Y-31147619D01*
X25583333Y-31100000D01*
X25678571Y-31052380D01*
%TO.C,D49*%
X18785714Y-32052380D02*
X18785714Y-31052380D01*
X19023809Y-31052380D01*
X19166666Y-31100000D01*
X19261904Y-31195238D01*
X19309523Y-31290476D01*
X19357142Y-31480952D01*
X19357142Y-31623809D01*
X19309523Y-31814285D01*
X19261904Y-31909523D01*
X19166666Y-32004761D01*
X19023809Y-32052380D01*
X18785714Y-32052380D01*
X20214285Y-31385714D02*
X20214285Y-32052380D01*
X19976190Y-31004761D02*
X19738095Y-31719047D01*
X20357142Y-31719047D01*
X20785714Y-32052380D02*
X20976190Y-32052380D01*
X21071428Y-32004761D01*
X21119047Y-31957142D01*
X21214285Y-31814285D01*
X21261904Y-31623809D01*
X21261904Y-31242857D01*
X21214285Y-31147619D01*
X21166666Y-31100000D01*
X21071428Y-31052380D01*
X20880952Y-31052380D01*
X20785714Y-31100000D01*
X20738095Y-31147619D01*
X20690476Y-31242857D01*
X20690476Y-31480952D01*
X20738095Y-31576190D01*
X20785714Y-31623809D01*
X20880952Y-31671428D01*
X21071428Y-31671428D01*
X21166666Y-31623809D01*
X21214285Y-31576190D01*
X21261904Y-31480952D01*
%TO.C,D48*%
X14035714Y-32052380D02*
X14035714Y-31052380D01*
X14273809Y-31052380D01*
X14416666Y-31100000D01*
X14511904Y-31195238D01*
X14559523Y-31290476D01*
X14607142Y-31480952D01*
X14607142Y-31623809D01*
X14559523Y-31814285D01*
X14511904Y-31909523D01*
X14416666Y-32004761D01*
X14273809Y-32052380D01*
X14035714Y-32052380D01*
X15464285Y-31385714D02*
X15464285Y-32052380D01*
X15226190Y-31004761D02*
X14988095Y-31719047D01*
X15607142Y-31719047D01*
X16130952Y-31480952D02*
X16035714Y-31433333D01*
X15988095Y-31385714D01*
X15940476Y-31290476D01*
X15940476Y-31242857D01*
X15988095Y-31147619D01*
X16035714Y-31100000D01*
X16130952Y-31052380D01*
X16321428Y-31052380D01*
X16416666Y-31100000D01*
X16464285Y-31147619D01*
X16511904Y-31242857D01*
X16511904Y-31290476D01*
X16464285Y-31385714D01*
X16416666Y-31433333D01*
X16321428Y-31480952D01*
X16130952Y-31480952D01*
X16035714Y-31528571D01*
X15988095Y-31576190D01*
X15940476Y-31671428D01*
X15940476Y-31861904D01*
X15988095Y-31957142D01*
X16035714Y-32004761D01*
X16130952Y-32052380D01*
X16321428Y-32052380D01*
X16416666Y-32004761D01*
X16464285Y-31957142D01*
X16511904Y-31861904D01*
X16511904Y-31671428D01*
X16464285Y-31576190D01*
X16416666Y-31528571D01*
X16321428Y-31480952D01*
%TO.C,D47*%
X9285714Y-32052380D02*
X9285714Y-31052380D01*
X9523809Y-31052380D01*
X9666666Y-31100000D01*
X9761904Y-31195238D01*
X9809523Y-31290476D01*
X9857142Y-31480952D01*
X9857142Y-31623809D01*
X9809523Y-31814285D01*
X9761904Y-31909523D01*
X9666666Y-32004761D01*
X9523809Y-32052380D01*
X9285714Y-32052380D01*
X10714285Y-31385714D02*
X10714285Y-32052380D01*
X10476190Y-31004761D02*
X10238095Y-31719047D01*
X10857142Y-31719047D01*
X11142857Y-31052380D02*
X11809523Y-31052380D01*
X11380952Y-32052380D01*
%TO.C,D46*%
X4535714Y-32052380D02*
X4535714Y-31052380D01*
X4773809Y-31052380D01*
X4916666Y-31100000D01*
X5011904Y-31195238D01*
X5059523Y-31290476D01*
X5107142Y-31480952D01*
X5107142Y-31623809D01*
X5059523Y-31814285D01*
X5011904Y-31909523D01*
X4916666Y-32004761D01*
X4773809Y-32052380D01*
X4535714Y-32052380D01*
X5964285Y-31385714D02*
X5964285Y-32052380D01*
X5726190Y-31004761D02*
X5488095Y-31719047D01*
X6107142Y-31719047D01*
X6916666Y-31052380D02*
X6726190Y-31052380D01*
X6630952Y-31100000D01*
X6583333Y-31147619D01*
X6488095Y-31290476D01*
X6440476Y-31480952D01*
X6440476Y-31861904D01*
X6488095Y-31957142D01*
X6535714Y-32004761D01*
X6630952Y-32052380D01*
X6821428Y-32052380D01*
X6916666Y-32004761D01*
X6964285Y-31957142D01*
X7011904Y-31861904D01*
X7011904Y-31623809D01*
X6964285Y-31528571D01*
X6916666Y-31480952D01*
X6821428Y-31433333D01*
X6630952Y-31433333D01*
X6535714Y-31480952D01*
X6488095Y-31528571D01*
X6440476Y-31623809D01*
%TO.C,D45*%
X42560714Y-27552380D02*
X42560714Y-26552380D01*
X42798809Y-26552380D01*
X42941666Y-26600000D01*
X43036904Y-26695238D01*
X43084523Y-26790476D01*
X43132142Y-26980952D01*
X43132142Y-27123809D01*
X43084523Y-27314285D01*
X43036904Y-27409523D01*
X42941666Y-27504761D01*
X42798809Y-27552380D01*
X42560714Y-27552380D01*
X43989285Y-26885714D02*
X43989285Y-27552380D01*
X43751190Y-26504761D02*
X43513095Y-27219047D01*
X44132142Y-27219047D01*
X44989285Y-26552380D02*
X44513095Y-26552380D01*
X44465476Y-27028571D01*
X44513095Y-26980952D01*
X44608333Y-26933333D01*
X44846428Y-26933333D01*
X44941666Y-26980952D01*
X44989285Y-27028571D01*
X45036904Y-27123809D01*
X45036904Y-27361904D01*
X44989285Y-27457142D01*
X44941666Y-27504761D01*
X44846428Y-27552380D01*
X44608333Y-27552380D01*
X44513095Y-27504761D01*
X44465476Y-27457142D01*
%TO.C,D44*%
X37785714Y-27552380D02*
X37785714Y-26552380D01*
X38023809Y-26552380D01*
X38166666Y-26600000D01*
X38261904Y-26695238D01*
X38309523Y-26790476D01*
X38357142Y-26980952D01*
X38357142Y-27123809D01*
X38309523Y-27314285D01*
X38261904Y-27409523D01*
X38166666Y-27504761D01*
X38023809Y-27552380D01*
X37785714Y-27552380D01*
X39214285Y-26885714D02*
X39214285Y-27552380D01*
X38976190Y-26504761D02*
X38738095Y-27219047D01*
X39357142Y-27219047D01*
X40166666Y-26885714D02*
X40166666Y-27552380D01*
X39928571Y-26504761D02*
X39690476Y-27219047D01*
X40309523Y-27219047D01*
%TO.C,D43*%
X33035714Y-27552380D02*
X33035714Y-26552380D01*
X33273809Y-26552380D01*
X33416666Y-26600000D01*
X33511904Y-26695238D01*
X33559523Y-26790476D01*
X33607142Y-26980952D01*
X33607142Y-27123809D01*
X33559523Y-27314285D01*
X33511904Y-27409523D01*
X33416666Y-27504761D01*
X33273809Y-27552380D01*
X33035714Y-27552380D01*
X34464285Y-26885714D02*
X34464285Y-27552380D01*
X34226190Y-26504761D02*
X33988095Y-27219047D01*
X34607142Y-27219047D01*
X34892857Y-26552380D02*
X35511904Y-26552380D01*
X35178571Y-26933333D01*
X35321428Y-26933333D01*
X35416666Y-26980952D01*
X35464285Y-27028571D01*
X35511904Y-27123809D01*
X35511904Y-27361904D01*
X35464285Y-27457142D01*
X35416666Y-27504761D01*
X35321428Y-27552380D01*
X35035714Y-27552380D01*
X34940476Y-27504761D01*
X34892857Y-27457142D01*
%TO.C,D42*%
X28310714Y-27552380D02*
X28310714Y-26552380D01*
X28548809Y-26552380D01*
X28691666Y-26600000D01*
X28786904Y-26695238D01*
X28834523Y-26790476D01*
X28882142Y-26980952D01*
X28882142Y-27123809D01*
X28834523Y-27314285D01*
X28786904Y-27409523D01*
X28691666Y-27504761D01*
X28548809Y-27552380D01*
X28310714Y-27552380D01*
X29739285Y-26885714D02*
X29739285Y-27552380D01*
X29501190Y-26504761D02*
X29263095Y-27219047D01*
X29882142Y-27219047D01*
X30215476Y-26647619D02*
X30263095Y-26600000D01*
X30358333Y-26552380D01*
X30596428Y-26552380D01*
X30691666Y-26600000D01*
X30739285Y-26647619D01*
X30786904Y-26742857D01*
X30786904Y-26838095D01*
X30739285Y-26980952D01*
X30167857Y-27552380D01*
X30786904Y-27552380D01*
%TO.C,D41*%
X23535714Y-27552380D02*
X23535714Y-26552380D01*
X23773809Y-26552380D01*
X23916666Y-26600000D01*
X24011904Y-26695238D01*
X24059523Y-26790476D01*
X24107142Y-26980952D01*
X24107142Y-27123809D01*
X24059523Y-27314285D01*
X24011904Y-27409523D01*
X23916666Y-27504761D01*
X23773809Y-27552380D01*
X23535714Y-27552380D01*
X24964285Y-26885714D02*
X24964285Y-27552380D01*
X24726190Y-26504761D02*
X24488095Y-27219047D01*
X25107142Y-27219047D01*
X26011904Y-27552380D02*
X25440476Y-27552380D01*
X25726190Y-27552380D02*
X25726190Y-26552380D01*
X25630952Y-26695238D01*
X25535714Y-26790476D01*
X25440476Y-26838095D01*
%TO.C,D40*%
X18810714Y-27552380D02*
X18810714Y-26552380D01*
X19048809Y-26552380D01*
X19191666Y-26600000D01*
X19286904Y-26695238D01*
X19334523Y-26790476D01*
X19382142Y-26980952D01*
X19382142Y-27123809D01*
X19334523Y-27314285D01*
X19286904Y-27409523D01*
X19191666Y-27504761D01*
X19048809Y-27552380D01*
X18810714Y-27552380D01*
X20239285Y-26885714D02*
X20239285Y-27552380D01*
X20001190Y-26504761D02*
X19763095Y-27219047D01*
X20382142Y-27219047D01*
X20953571Y-26552380D02*
X21048809Y-26552380D01*
X21144047Y-26600000D01*
X21191666Y-26647619D01*
X21239285Y-26742857D01*
X21286904Y-26933333D01*
X21286904Y-27171428D01*
X21239285Y-27361904D01*
X21191666Y-27457142D01*
X21144047Y-27504761D01*
X21048809Y-27552380D01*
X20953571Y-27552380D01*
X20858333Y-27504761D01*
X20810714Y-27457142D01*
X20763095Y-27361904D01*
X20715476Y-27171428D01*
X20715476Y-26933333D01*
X20763095Y-26742857D01*
X20810714Y-26647619D01*
X20858333Y-26600000D01*
X20953571Y-26552380D01*
%TO.C,D39*%
X14060714Y-27552380D02*
X14060714Y-26552380D01*
X14298809Y-26552380D01*
X14441666Y-26600000D01*
X14536904Y-26695238D01*
X14584523Y-26790476D01*
X14632142Y-26980952D01*
X14632142Y-27123809D01*
X14584523Y-27314285D01*
X14536904Y-27409523D01*
X14441666Y-27504761D01*
X14298809Y-27552380D01*
X14060714Y-27552380D01*
X14965476Y-26552380D02*
X15584523Y-26552380D01*
X15251190Y-26933333D01*
X15394047Y-26933333D01*
X15489285Y-26980952D01*
X15536904Y-27028571D01*
X15584523Y-27123809D01*
X15584523Y-27361904D01*
X15536904Y-27457142D01*
X15489285Y-27504761D01*
X15394047Y-27552380D01*
X15108333Y-27552380D01*
X15013095Y-27504761D01*
X14965476Y-27457142D01*
X16060714Y-27552380D02*
X16251190Y-27552380D01*
X16346428Y-27504761D01*
X16394047Y-27457142D01*
X16489285Y-27314285D01*
X16536904Y-27123809D01*
X16536904Y-26742857D01*
X16489285Y-26647619D01*
X16441666Y-26600000D01*
X16346428Y-26552380D01*
X16155952Y-26552380D01*
X16060714Y-26600000D01*
X16013095Y-26647619D01*
X15965476Y-26742857D01*
X15965476Y-26980952D01*
X16013095Y-27076190D01*
X16060714Y-27123809D01*
X16155952Y-27171428D01*
X16346428Y-27171428D01*
X16441666Y-27123809D01*
X16489285Y-27076190D01*
X16536904Y-26980952D01*
%TO.C,D38*%
X9280714Y-27552380D02*
X9280714Y-26552380D01*
X9518809Y-26552380D01*
X9661666Y-26600000D01*
X9756904Y-26695238D01*
X9804523Y-26790476D01*
X9852142Y-26980952D01*
X9852142Y-27123809D01*
X9804523Y-27314285D01*
X9756904Y-27409523D01*
X9661666Y-27504761D01*
X9518809Y-27552380D01*
X9280714Y-27552380D01*
X10185476Y-26552380D02*
X10804523Y-26552380D01*
X10471190Y-26933333D01*
X10614047Y-26933333D01*
X10709285Y-26980952D01*
X10756904Y-27028571D01*
X10804523Y-27123809D01*
X10804523Y-27361904D01*
X10756904Y-27457142D01*
X10709285Y-27504761D01*
X10614047Y-27552380D01*
X10328333Y-27552380D01*
X10233095Y-27504761D01*
X10185476Y-27457142D01*
X11375952Y-26980952D02*
X11280714Y-26933333D01*
X11233095Y-26885714D01*
X11185476Y-26790476D01*
X11185476Y-26742857D01*
X11233095Y-26647619D01*
X11280714Y-26600000D01*
X11375952Y-26552380D01*
X11566428Y-26552380D01*
X11661666Y-26600000D01*
X11709285Y-26647619D01*
X11756904Y-26742857D01*
X11756904Y-26790476D01*
X11709285Y-26885714D01*
X11661666Y-26933333D01*
X11566428Y-26980952D01*
X11375952Y-26980952D01*
X11280714Y-27028571D01*
X11233095Y-27076190D01*
X11185476Y-27171428D01*
X11185476Y-27361904D01*
X11233095Y-27457142D01*
X11280714Y-27504761D01*
X11375952Y-27552380D01*
X11566428Y-27552380D01*
X11661666Y-27504761D01*
X11709285Y-27457142D01*
X11756904Y-27361904D01*
X11756904Y-27171428D01*
X11709285Y-27076190D01*
X11661666Y-27028571D01*
X11566428Y-26980952D01*
%TO.C,D37*%
X4560714Y-27552380D02*
X4560714Y-26552380D01*
X4798809Y-26552380D01*
X4941666Y-26600000D01*
X5036904Y-26695238D01*
X5084523Y-26790476D01*
X5132142Y-26980952D01*
X5132142Y-27123809D01*
X5084523Y-27314285D01*
X5036904Y-27409523D01*
X4941666Y-27504761D01*
X4798809Y-27552380D01*
X4560714Y-27552380D01*
X5465476Y-26552380D02*
X6084523Y-26552380D01*
X5751190Y-26933333D01*
X5894047Y-26933333D01*
X5989285Y-26980952D01*
X6036904Y-27028571D01*
X6084523Y-27123809D01*
X6084523Y-27361904D01*
X6036904Y-27457142D01*
X5989285Y-27504761D01*
X5894047Y-27552380D01*
X5608333Y-27552380D01*
X5513095Y-27504761D01*
X5465476Y-27457142D01*
X6417857Y-26552380D02*
X7084523Y-26552380D01*
X6655952Y-27552380D01*
%TO.C,D36*%
X42560714Y-23052380D02*
X42560714Y-22052380D01*
X42798809Y-22052380D01*
X42941666Y-22100000D01*
X43036904Y-22195238D01*
X43084523Y-22290476D01*
X43132142Y-22480952D01*
X43132142Y-22623809D01*
X43084523Y-22814285D01*
X43036904Y-22909523D01*
X42941666Y-23004761D01*
X42798809Y-23052380D01*
X42560714Y-23052380D01*
X43465476Y-22052380D02*
X44084523Y-22052380D01*
X43751190Y-22433333D01*
X43894047Y-22433333D01*
X43989285Y-22480952D01*
X44036904Y-22528571D01*
X44084523Y-22623809D01*
X44084523Y-22861904D01*
X44036904Y-22957142D01*
X43989285Y-23004761D01*
X43894047Y-23052380D01*
X43608333Y-23052380D01*
X43513095Y-23004761D01*
X43465476Y-22957142D01*
X44941666Y-22052380D02*
X44751190Y-22052380D01*
X44655952Y-22100000D01*
X44608333Y-22147619D01*
X44513095Y-22290476D01*
X44465476Y-22480952D01*
X44465476Y-22861904D01*
X44513095Y-22957142D01*
X44560714Y-23004761D01*
X44655952Y-23052380D01*
X44846428Y-23052380D01*
X44941666Y-23004761D01*
X44989285Y-22957142D01*
X45036904Y-22861904D01*
X45036904Y-22623809D01*
X44989285Y-22528571D01*
X44941666Y-22480952D01*
X44846428Y-22433333D01*
X44655952Y-22433333D01*
X44560714Y-22480952D01*
X44513095Y-22528571D01*
X44465476Y-22623809D01*
%TO.C,D35*%
X37810714Y-23052380D02*
X37810714Y-22052380D01*
X38048809Y-22052380D01*
X38191666Y-22100000D01*
X38286904Y-22195238D01*
X38334523Y-22290476D01*
X38382142Y-22480952D01*
X38382142Y-22623809D01*
X38334523Y-22814285D01*
X38286904Y-22909523D01*
X38191666Y-23004761D01*
X38048809Y-23052380D01*
X37810714Y-23052380D01*
X38715476Y-22052380D02*
X39334523Y-22052380D01*
X39001190Y-22433333D01*
X39144047Y-22433333D01*
X39239285Y-22480952D01*
X39286904Y-22528571D01*
X39334523Y-22623809D01*
X39334523Y-22861904D01*
X39286904Y-22957142D01*
X39239285Y-23004761D01*
X39144047Y-23052380D01*
X38858333Y-23052380D01*
X38763095Y-23004761D01*
X38715476Y-22957142D01*
X40239285Y-22052380D02*
X39763095Y-22052380D01*
X39715476Y-22528571D01*
X39763095Y-22480952D01*
X39858333Y-22433333D01*
X40096428Y-22433333D01*
X40191666Y-22480952D01*
X40239285Y-22528571D01*
X40286904Y-22623809D01*
X40286904Y-22861904D01*
X40239285Y-22957142D01*
X40191666Y-23004761D01*
X40096428Y-23052380D01*
X39858333Y-23052380D01*
X39763095Y-23004761D01*
X39715476Y-22957142D01*
%TO.C,D34*%
X33060714Y-23052380D02*
X33060714Y-22052380D01*
X33298809Y-22052380D01*
X33441666Y-22100000D01*
X33536904Y-22195238D01*
X33584523Y-22290476D01*
X33632142Y-22480952D01*
X33632142Y-22623809D01*
X33584523Y-22814285D01*
X33536904Y-22909523D01*
X33441666Y-23004761D01*
X33298809Y-23052380D01*
X33060714Y-23052380D01*
X33965476Y-22052380D02*
X34584523Y-22052380D01*
X34251190Y-22433333D01*
X34394047Y-22433333D01*
X34489285Y-22480952D01*
X34536904Y-22528571D01*
X34584523Y-22623809D01*
X34584523Y-22861904D01*
X34536904Y-22957142D01*
X34489285Y-23004761D01*
X34394047Y-23052380D01*
X34108333Y-23052380D01*
X34013095Y-23004761D01*
X33965476Y-22957142D01*
X35441666Y-22385714D02*
X35441666Y-23052380D01*
X35203571Y-22004761D02*
X34965476Y-22719047D01*
X35584523Y-22719047D01*
%TO.C,D33*%
X28285714Y-23052380D02*
X28285714Y-22052380D01*
X28523809Y-22052380D01*
X28666666Y-22100000D01*
X28761904Y-22195238D01*
X28809523Y-22290476D01*
X28857142Y-22480952D01*
X28857142Y-22623809D01*
X28809523Y-22814285D01*
X28761904Y-22909523D01*
X28666666Y-23004761D01*
X28523809Y-23052380D01*
X28285714Y-23052380D01*
X29190476Y-22052380D02*
X29809523Y-22052380D01*
X29476190Y-22433333D01*
X29619047Y-22433333D01*
X29714285Y-22480952D01*
X29761904Y-22528571D01*
X29809523Y-22623809D01*
X29809523Y-22861904D01*
X29761904Y-22957142D01*
X29714285Y-23004761D01*
X29619047Y-23052380D01*
X29333333Y-23052380D01*
X29238095Y-23004761D01*
X29190476Y-22957142D01*
X30142857Y-22052380D02*
X30761904Y-22052380D01*
X30428571Y-22433333D01*
X30571428Y-22433333D01*
X30666666Y-22480952D01*
X30714285Y-22528571D01*
X30761904Y-22623809D01*
X30761904Y-22861904D01*
X30714285Y-22957142D01*
X30666666Y-23004761D01*
X30571428Y-23052380D01*
X30285714Y-23052380D01*
X30190476Y-23004761D01*
X30142857Y-22957142D01*
%TO.C,D32*%
X23535714Y-23052380D02*
X23535714Y-22052380D01*
X23773809Y-22052380D01*
X23916666Y-22100000D01*
X24011904Y-22195238D01*
X24059523Y-22290476D01*
X24107142Y-22480952D01*
X24107142Y-22623809D01*
X24059523Y-22814285D01*
X24011904Y-22909523D01*
X23916666Y-23004761D01*
X23773809Y-23052380D01*
X23535714Y-23052380D01*
X24440476Y-22052380D02*
X25059523Y-22052380D01*
X24726190Y-22433333D01*
X24869047Y-22433333D01*
X24964285Y-22480952D01*
X25011904Y-22528571D01*
X25059523Y-22623809D01*
X25059523Y-22861904D01*
X25011904Y-22957142D01*
X24964285Y-23004761D01*
X24869047Y-23052380D01*
X24583333Y-23052380D01*
X24488095Y-23004761D01*
X24440476Y-22957142D01*
X25440476Y-22147619D02*
X25488095Y-22100000D01*
X25583333Y-22052380D01*
X25821428Y-22052380D01*
X25916666Y-22100000D01*
X25964285Y-22147619D01*
X26011904Y-22242857D01*
X26011904Y-22338095D01*
X25964285Y-22480952D01*
X25392857Y-23052380D01*
X26011904Y-23052380D01*
%TO.C,D31*%
X18785714Y-23052380D02*
X18785714Y-22052380D01*
X19023809Y-22052380D01*
X19166666Y-22100000D01*
X19261904Y-22195238D01*
X19309523Y-22290476D01*
X19357142Y-22480952D01*
X19357142Y-22623809D01*
X19309523Y-22814285D01*
X19261904Y-22909523D01*
X19166666Y-23004761D01*
X19023809Y-23052380D01*
X18785714Y-23052380D01*
X19690476Y-22052380D02*
X20309523Y-22052380D01*
X19976190Y-22433333D01*
X20119047Y-22433333D01*
X20214285Y-22480952D01*
X20261904Y-22528571D01*
X20309523Y-22623809D01*
X20309523Y-22861904D01*
X20261904Y-22957142D01*
X20214285Y-23004761D01*
X20119047Y-23052380D01*
X19833333Y-23052380D01*
X19738095Y-23004761D01*
X19690476Y-22957142D01*
X21261904Y-23052380D02*
X20690476Y-23052380D01*
X20976190Y-23052380D02*
X20976190Y-22052380D01*
X20880952Y-22195238D01*
X20785714Y-22290476D01*
X20690476Y-22338095D01*
%TO.C,D30*%
X14035714Y-23052380D02*
X14035714Y-22052380D01*
X14273809Y-22052380D01*
X14416666Y-22100000D01*
X14511904Y-22195238D01*
X14559523Y-22290476D01*
X14607142Y-22480952D01*
X14607142Y-22623809D01*
X14559523Y-22814285D01*
X14511904Y-22909523D01*
X14416666Y-23004761D01*
X14273809Y-23052380D01*
X14035714Y-23052380D01*
X14940476Y-22052380D02*
X15559523Y-22052380D01*
X15226190Y-22433333D01*
X15369047Y-22433333D01*
X15464285Y-22480952D01*
X15511904Y-22528571D01*
X15559523Y-22623809D01*
X15559523Y-22861904D01*
X15511904Y-22957142D01*
X15464285Y-23004761D01*
X15369047Y-23052380D01*
X15083333Y-23052380D01*
X14988095Y-23004761D01*
X14940476Y-22957142D01*
X16178571Y-22052380D02*
X16273809Y-22052380D01*
X16369047Y-22100000D01*
X16416666Y-22147619D01*
X16464285Y-22242857D01*
X16511904Y-22433333D01*
X16511904Y-22671428D01*
X16464285Y-22861904D01*
X16416666Y-22957142D01*
X16369047Y-23004761D01*
X16273809Y-23052380D01*
X16178571Y-23052380D01*
X16083333Y-23004761D01*
X16035714Y-22957142D01*
X15988095Y-22861904D01*
X15940476Y-22671428D01*
X15940476Y-22433333D01*
X15988095Y-22242857D01*
X16035714Y-22147619D01*
X16083333Y-22100000D01*
X16178571Y-22052380D01*
%TO.C,D29*%
X9285714Y-23052380D02*
X9285714Y-22052380D01*
X9523809Y-22052380D01*
X9666666Y-22100000D01*
X9761904Y-22195238D01*
X9809523Y-22290476D01*
X9857142Y-22480952D01*
X9857142Y-22623809D01*
X9809523Y-22814285D01*
X9761904Y-22909523D01*
X9666666Y-23004761D01*
X9523809Y-23052380D01*
X9285714Y-23052380D01*
X10238095Y-22147619D02*
X10285714Y-22100000D01*
X10380952Y-22052380D01*
X10619047Y-22052380D01*
X10714285Y-22100000D01*
X10761904Y-22147619D01*
X10809523Y-22242857D01*
X10809523Y-22338095D01*
X10761904Y-22480952D01*
X10190476Y-23052380D01*
X10809523Y-23052380D01*
X11285714Y-23052380D02*
X11476190Y-23052380D01*
X11571428Y-23004761D01*
X11619047Y-22957142D01*
X11714285Y-22814285D01*
X11761904Y-22623809D01*
X11761904Y-22242857D01*
X11714285Y-22147619D01*
X11666666Y-22100000D01*
X11571428Y-22052380D01*
X11380952Y-22052380D01*
X11285714Y-22100000D01*
X11238095Y-22147619D01*
X11190476Y-22242857D01*
X11190476Y-22480952D01*
X11238095Y-22576190D01*
X11285714Y-22623809D01*
X11380952Y-22671428D01*
X11571428Y-22671428D01*
X11666666Y-22623809D01*
X11714285Y-22576190D01*
X11761904Y-22480952D01*
%TO.C,D28*%
X4535714Y-23052380D02*
X4535714Y-22052380D01*
X4773809Y-22052380D01*
X4916666Y-22100000D01*
X5011904Y-22195238D01*
X5059523Y-22290476D01*
X5107142Y-22480952D01*
X5107142Y-22623809D01*
X5059523Y-22814285D01*
X5011904Y-22909523D01*
X4916666Y-23004761D01*
X4773809Y-23052380D01*
X4535714Y-23052380D01*
X5488095Y-22147619D02*
X5535714Y-22100000D01*
X5630952Y-22052380D01*
X5869047Y-22052380D01*
X5964285Y-22100000D01*
X6011904Y-22147619D01*
X6059523Y-22242857D01*
X6059523Y-22338095D01*
X6011904Y-22480952D01*
X5440476Y-23052380D01*
X6059523Y-23052380D01*
X6630952Y-22480952D02*
X6535714Y-22433333D01*
X6488095Y-22385714D01*
X6440476Y-22290476D01*
X6440476Y-22242857D01*
X6488095Y-22147619D01*
X6535714Y-22100000D01*
X6630952Y-22052380D01*
X6821428Y-22052380D01*
X6916666Y-22100000D01*
X6964285Y-22147619D01*
X7011904Y-22242857D01*
X7011904Y-22290476D01*
X6964285Y-22385714D01*
X6916666Y-22433333D01*
X6821428Y-22480952D01*
X6630952Y-22480952D01*
X6535714Y-22528571D01*
X6488095Y-22576190D01*
X6440476Y-22671428D01*
X6440476Y-22861904D01*
X6488095Y-22957142D01*
X6535714Y-23004761D01*
X6630952Y-23052380D01*
X6821428Y-23052380D01*
X6916666Y-23004761D01*
X6964285Y-22957142D01*
X7011904Y-22861904D01*
X7011904Y-22671428D01*
X6964285Y-22576190D01*
X6916666Y-22528571D01*
X6821428Y-22480952D01*
%TO.C,D27*%
X42535714Y-18552380D02*
X42535714Y-17552380D01*
X42773809Y-17552380D01*
X42916666Y-17600000D01*
X43011904Y-17695238D01*
X43059523Y-17790476D01*
X43107142Y-17980952D01*
X43107142Y-18123809D01*
X43059523Y-18314285D01*
X43011904Y-18409523D01*
X42916666Y-18504761D01*
X42773809Y-18552380D01*
X42535714Y-18552380D01*
X43488095Y-17647619D02*
X43535714Y-17600000D01*
X43630952Y-17552380D01*
X43869047Y-17552380D01*
X43964285Y-17600000D01*
X44011904Y-17647619D01*
X44059523Y-17742857D01*
X44059523Y-17838095D01*
X44011904Y-17980952D01*
X43440476Y-18552380D01*
X44059523Y-18552380D01*
X44392857Y-17552380D02*
X45059523Y-17552380D01*
X44630952Y-18552380D01*
%TO.C,D26*%
X37785714Y-18552380D02*
X37785714Y-17552380D01*
X38023809Y-17552380D01*
X38166666Y-17600000D01*
X38261904Y-17695238D01*
X38309523Y-17790476D01*
X38357142Y-17980952D01*
X38357142Y-18123809D01*
X38309523Y-18314285D01*
X38261904Y-18409523D01*
X38166666Y-18504761D01*
X38023809Y-18552380D01*
X37785714Y-18552380D01*
X38738095Y-17647619D02*
X38785714Y-17600000D01*
X38880952Y-17552380D01*
X39119047Y-17552380D01*
X39214285Y-17600000D01*
X39261904Y-17647619D01*
X39309523Y-17742857D01*
X39309523Y-17838095D01*
X39261904Y-17980952D01*
X38690476Y-18552380D01*
X39309523Y-18552380D01*
X40166666Y-17552380D02*
X39976190Y-17552380D01*
X39880952Y-17600000D01*
X39833333Y-17647619D01*
X39738095Y-17790476D01*
X39690476Y-17980952D01*
X39690476Y-18361904D01*
X39738095Y-18457142D01*
X39785714Y-18504761D01*
X39880952Y-18552380D01*
X40071428Y-18552380D01*
X40166666Y-18504761D01*
X40214285Y-18457142D01*
X40261904Y-18361904D01*
X40261904Y-18123809D01*
X40214285Y-18028571D01*
X40166666Y-17980952D01*
X40071428Y-17933333D01*
X39880952Y-17933333D01*
X39785714Y-17980952D01*
X39738095Y-18028571D01*
X39690476Y-18123809D01*
%TO.C,D25*%
X33035714Y-18552380D02*
X33035714Y-17552380D01*
X33273809Y-17552380D01*
X33416666Y-17600000D01*
X33511904Y-17695238D01*
X33559523Y-17790476D01*
X33607142Y-17980952D01*
X33607142Y-18123809D01*
X33559523Y-18314285D01*
X33511904Y-18409523D01*
X33416666Y-18504761D01*
X33273809Y-18552380D01*
X33035714Y-18552380D01*
X33988095Y-17647619D02*
X34035714Y-17600000D01*
X34130952Y-17552380D01*
X34369047Y-17552380D01*
X34464285Y-17600000D01*
X34511904Y-17647619D01*
X34559523Y-17742857D01*
X34559523Y-17838095D01*
X34511904Y-17980952D01*
X33940476Y-18552380D01*
X34559523Y-18552380D01*
X35464285Y-17552380D02*
X34988095Y-17552380D01*
X34940476Y-18028571D01*
X34988095Y-17980952D01*
X35083333Y-17933333D01*
X35321428Y-17933333D01*
X35416666Y-17980952D01*
X35464285Y-18028571D01*
X35511904Y-18123809D01*
X35511904Y-18361904D01*
X35464285Y-18457142D01*
X35416666Y-18504761D01*
X35321428Y-18552380D01*
X35083333Y-18552380D01*
X34988095Y-18504761D01*
X34940476Y-18457142D01*
%TO.C,D24*%
X28285714Y-18552380D02*
X28285714Y-17552380D01*
X28523809Y-17552380D01*
X28666666Y-17600000D01*
X28761904Y-17695238D01*
X28809523Y-17790476D01*
X28857142Y-17980952D01*
X28857142Y-18123809D01*
X28809523Y-18314285D01*
X28761904Y-18409523D01*
X28666666Y-18504761D01*
X28523809Y-18552380D01*
X28285714Y-18552380D01*
X29238095Y-17647619D02*
X29285714Y-17600000D01*
X29380952Y-17552380D01*
X29619047Y-17552380D01*
X29714285Y-17600000D01*
X29761904Y-17647619D01*
X29809523Y-17742857D01*
X29809523Y-17838095D01*
X29761904Y-17980952D01*
X29190476Y-18552380D01*
X29809523Y-18552380D01*
X30666666Y-17885714D02*
X30666666Y-18552380D01*
X30428571Y-17504761D02*
X30190476Y-18219047D01*
X30809523Y-18219047D01*
%TO.C,D23*%
X23535714Y-18552380D02*
X23535714Y-17552380D01*
X23773809Y-17552380D01*
X23916666Y-17600000D01*
X24011904Y-17695238D01*
X24059523Y-17790476D01*
X24107142Y-17980952D01*
X24107142Y-18123809D01*
X24059523Y-18314285D01*
X24011904Y-18409523D01*
X23916666Y-18504761D01*
X23773809Y-18552380D01*
X23535714Y-18552380D01*
X24488095Y-17647619D02*
X24535714Y-17600000D01*
X24630952Y-17552380D01*
X24869047Y-17552380D01*
X24964285Y-17600000D01*
X25011904Y-17647619D01*
X25059523Y-17742857D01*
X25059523Y-17838095D01*
X25011904Y-17980952D01*
X24440476Y-18552380D01*
X25059523Y-18552380D01*
X25392857Y-17552380D02*
X26011904Y-17552380D01*
X25678571Y-17933333D01*
X25821428Y-17933333D01*
X25916666Y-17980952D01*
X25964285Y-18028571D01*
X26011904Y-18123809D01*
X26011904Y-18361904D01*
X25964285Y-18457142D01*
X25916666Y-18504761D01*
X25821428Y-18552380D01*
X25535714Y-18552380D01*
X25440476Y-18504761D01*
X25392857Y-18457142D01*
%TO.C,D22*%
X18785714Y-18552380D02*
X18785714Y-17552380D01*
X19023809Y-17552380D01*
X19166666Y-17600000D01*
X19261904Y-17695238D01*
X19309523Y-17790476D01*
X19357142Y-17980952D01*
X19357142Y-18123809D01*
X19309523Y-18314285D01*
X19261904Y-18409523D01*
X19166666Y-18504761D01*
X19023809Y-18552380D01*
X18785714Y-18552380D01*
X19738095Y-17647619D02*
X19785714Y-17600000D01*
X19880952Y-17552380D01*
X20119047Y-17552380D01*
X20214285Y-17600000D01*
X20261904Y-17647619D01*
X20309523Y-17742857D01*
X20309523Y-17838095D01*
X20261904Y-17980952D01*
X19690476Y-18552380D01*
X20309523Y-18552380D01*
X20690476Y-17647619D02*
X20738095Y-17600000D01*
X20833333Y-17552380D01*
X21071428Y-17552380D01*
X21166666Y-17600000D01*
X21214285Y-17647619D01*
X21261904Y-17742857D01*
X21261904Y-17838095D01*
X21214285Y-17980952D01*
X20642857Y-18552380D01*
X21261904Y-18552380D01*
%TO.C,D21*%
X14035714Y-18552380D02*
X14035714Y-17552380D01*
X14273809Y-17552380D01*
X14416666Y-17600000D01*
X14511904Y-17695238D01*
X14559523Y-17790476D01*
X14607142Y-17980952D01*
X14607142Y-18123809D01*
X14559523Y-18314285D01*
X14511904Y-18409523D01*
X14416666Y-18504761D01*
X14273809Y-18552380D01*
X14035714Y-18552380D01*
X14988095Y-17647619D02*
X15035714Y-17600000D01*
X15130952Y-17552380D01*
X15369047Y-17552380D01*
X15464285Y-17600000D01*
X15511904Y-17647619D01*
X15559523Y-17742857D01*
X15559523Y-17838095D01*
X15511904Y-17980952D01*
X14940476Y-18552380D01*
X15559523Y-18552380D01*
X16511904Y-18552380D02*
X15940476Y-18552380D01*
X16226190Y-18552380D02*
X16226190Y-17552380D01*
X16130952Y-17695238D01*
X16035714Y-17790476D01*
X15940476Y-17838095D01*
%TO.C,D20*%
X9285714Y-18552380D02*
X9285714Y-17552380D01*
X9523809Y-17552380D01*
X9666666Y-17600000D01*
X9761904Y-17695238D01*
X9809523Y-17790476D01*
X9857142Y-17980952D01*
X9857142Y-18123809D01*
X9809523Y-18314285D01*
X9761904Y-18409523D01*
X9666666Y-18504761D01*
X9523809Y-18552380D01*
X9285714Y-18552380D01*
X10238095Y-17647619D02*
X10285714Y-17600000D01*
X10380952Y-17552380D01*
X10619047Y-17552380D01*
X10714285Y-17600000D01*
X10761904Y-17647619D01*
X10809523Y-17742857D01*
X10809523Y-17838095D01*
X10761904Y-17980952D01*
X10190476Y-18552380D01*
X10809523Y-18552380D01*
X11428571Y-17552380D02*
X11523809Y-17552380D01*
X11619047Y-17600000D01*
X11666666Y-17647619D01*
X11714285Y-17742857D01*
X11761904Y-17933333D01*
X11761904Y-18171428D01*
X11714285Y-18361904D01*
X11666666Y-18457142D01*
X11619047Y-18504761D01*
X11523809Y-18552380D01*
X11428571Y-18552380D01*
X11333333Y-18504761D01*
X11285714Y-18457142D01*
X11238095Y-18361904D01*
X11190476Y-18171428D01*
X11190476Y-17933333D01*
X11238095Y-17742857D01*
X11285714Y-17647619D01*
X11333333Y-17600000D01*
X11428571Y-17552380D01*
%TO.C,D19*%
X4560714Y-18552380D02*
X4560714Y-17552380D01*
X4798809Y-17552380D01*
X4941666Y-17600000D01*
X5036904Y-17695238D01*
X5084523Y-17790476D01*
X5132142Y-17980952D01*
X5132142Y-18123809D01*
X5084523Y-18314285D01*
X5036904Y-18409523D01*
X4941666Y-18504761D01*
X4798809Y-18552380D01*
X4560714Y-18552380D01*
X6084523Y-18552380D02*
X5513095Y-18552380D01*
X5798809Y-18552380D02*
X5798809Y-17552380D01*
X5703571Y-17695238D01*
X5608333Y-17790476D01*
X5513095Y-17838095D01*
X6560714Y-18552380D02*
X6751190Y-18552380D01*
X6846428Y-18504761D01*
X6894047Y-18457142D01*
X6989285Y-18314285D01*
X7036904Y-18123809D01*
X7036904Y-17742857D01*
X6989285Y-17647619D01*
X6941666Y-17600000D01*
X6846428Y-17552380D01*
X6655952Y-17552380D01*
X6560714Y-17600000D01*
X6513095Y-17647619D01*
X6465476Y-17742857D01*
X6465476Y-17980952D01*
X6513095Y-18076190D01*
X6560714Y-18123809D01*
X6655952Y-18171428D01*
X6846428Y-18171428D01*
X6941666Y-18123809D01*
X6989285Y-18076190D01*
X7036904Y-17980952D01*
%TO.C,D18*%
X42560714Y-14052380D02*
X42560714Y-13052380D01*
X42798809Y-13052380D01*
X42941666Y-13100000D01*
X43036904Y-13195238D01*
X43084523Y-13290476D01*
X43132142Y-13480952D01*
X43132142Y-13623809D01*
X43084523Y-13814285D01*
X43036904Y-13909523D01*
X42941666Y-14004761D01*
X42798809Y-14052380D01*
X42560714Y-14052380D01*
X44084523Y-14052380D02*
X43513095Y-14052380D01*
X43798809Y-14052380D02*
X43798809Y-13052380D01*
X43703571Y-13195238D01*
X43608333Y-13290476D01*
X43513095Y-13338095D01*
X44655952Y-13480952D02*
X44560714Y-13433333D01*
X44513095Y-13385714D01*
X44465476Y-13290476D01*
X44465476Y-13242857D01*
X44513095Y-13147619D01*
X44560714Y-13100000D01*
X44655952Y-13052380D01*
X44846428Y-13052380D01*
X44941666Y-13100000D01*
X44989285Y-13147619D01*
X45036904Y-13242857D01*
X45036904Y-13290476D01*
X44989285Y-13385714D01*
X44941666Y-13433333D01*
X44846428Y-13480952D01*
X44655952Y-13480952D01*
X44560714Y-13528571D01*
X44513095Y-13576190D01*
X44465476Y-13671428D01*
X44465476Y-13861904D01*
X44513095Y-13957142D01*
X44560714Y-14004761D01*
X44655952Y-14052380D01*
X44846428Y-14052380D01*
X44941666Y-14004761D01*
X44989285Y-13957142D01*
X45036904Y-13861904D01*
X45036904Y-13671428D01*
X44989285Y-13576190D01*
X44941666Y-13528571D01*
X44846428Y-13480952D01*
%TO.C,D17*%
X37810714Y-14052380D02*
X37810714Y-13052380D01*
X38048809Y-13052380D01*
X38191666Y-13100000D01*
X38286904Y-13195238D01*
X38334523Y-13290476D01*
X38382142Y-13480952D01*
X38382142Y-13623809D01*
X38334523Y-13814285D01*
X38286904Y-13909523D01*
X38191666Y-14004761D01*
X38048809Y-14052380D01*
X37810714Y-14052380D01*
X39334523Y-14052380D02*
X38763095Y-14052380D01*
X39048809Y-14052380D02*
X39048809Y-13052380D01*
X38953571Y-13195238D01*
X38858333Y-13290476D01*
X38763095Y-13338095D01*
X39667857Y-13052380D02*
X40334523Y-13052380D01*
X39905952Y-14052380D01*
%TO.C,D16*%
X33060714Y-14052380D02*
X33060714Y-13052380D01*
X33298809Y-13052380D01*
X33441666Y-13100000D01*
X33536904Y-13195238D01*
X33584523Y-13290476D01*
X33632142Y-13480952D01*
X33632142Y-13623809D01*
X33584523Y-13814285D01*
X33536904Y-13909523D01*
X33441666Y-14004761D01*
X33298809Y-14052380D01*
X33060714Y-14052380D01*
X34584523Y-14052380D02*
X34013095Y-14052380D01*
X34298809Y-14052380D02*
X34298809Y-13052380D01*
X34203571Y-13195238D01*
X34108333Y-13290476D01*
X34013095Y-13338095D01*
X35441666Y-13052380D02*
X35251190Y-13052380D01*
X35155952Y-13100000D01*
X35108333Y-13147619D01*
X35013095Y-13290476D01*
X34965476Y-13480952D01*
X34965476Y-13861904D01*
X35013095Y-13957142D01*
X35060714Y-14004761D01*
X35155952Y-14052380D01*
X35346428Y-14052380D01*
X35441666Y-14004761D01*
X35489285Y-13957142D01*
X35536904Y-13861904D01*
X35536904Y-13623809D01*
X35489285Y-13528571D01*
X35441666Y-13480952D01*
X35346428Y-13433333D01*
X35155952Y-13433333D01*
X35060714Y-13480952D01*
X35013095Y-13528571D01*
X34965476Y-13623809D01*
%TO.C,D14*%
X23560714Y-14052380D02*
X23560714Y-13052380D01*
X23798809Y-13052380D01*
X23941666Y-13100000D01*
X24036904Y-13195238D01*
X24084523Y-13290476D01*
X24132142Y-13480952D01*
X24132142Y-13623809D01*
X24084523Y-13814285D01*
X24036904Y-13909523D01*
X23941666Y-14004761D01*
X23798809Y-14052380D01*
X23560714Y-14052380D01*
X25084523Y-14052380D02*
X24513095Y-14052380D01*
X24798809Y-14052380D02*
X24798809Y-13052380D01*
X24703571Y-13195238D01*
X24608333Y-13290476D01*
X24513095Y-13338095D01*
X25941666Y-13385714D02*
X25941666Y-14052380D01*
X25703571Y-13004761D02*
X25465476Y-13719047D01*
X26084523Y-13719047D01*
%TO.C,D13*%
X18810714Y-14052380D02*
X18810714Y-13052380D01*
X19048809Y-13052380D01*
X19191666Y-13100000D01*
X19286904Y-13195238D01*
X19334523Y-13290476D01*
X19382142Y-13480952D01*
X19382142Y-13623809D01*
X19334523Y-13814285D01*
X19286904Y-13909523D01*
X19191666Y-14004761D01*
X19048809Y-14052380D01*
X18810714Y-14052380D01*
X20334523Y-14052380D02*
X19763095Y-14052380D01*
X20048809Y-14052380D02*
X20048809Y-13052380D01*
X19953571Y-13195238D01*
X19858333Y-13290476D01*
X19763095Y-13338095D01*
X20667857Y-13052380D02*
X21286904Y-13052380D01*
X20953571Y-13433333D01*
X21096428Y-13433333D01*
X21191666Y-13480952D01*
X21239285Y-13528571D01*
X21286904Y-13623809D01*
X21286904Y-13861904D01*
X21239285Y-13957142D01*
X21191666Y-14004761D01*
X21096428Y-14052380D01*
X20810714Y-14052380D01*
X20715476Y-14004761D01*
X20667857Y-13957142D01*
%TO.C,D12*%
X14060714Y-14052380D02*
X14060714Y-13052380D01*
X14298809Y-13052380D01*
X14441666Y-13100000D01*
X14536904Y-13195238D01*
X14584523Y-13290476D01*
X14632142Y-13480952D01*
X14632142Y-13623809D01*
X14584523Y-13814285D01*
X14536904Y-13909523D01*
X14441666Y-14004761D01*
X14298809Y-14052380D01*
X14060714Y-14052380D01*
X15584523Y-14052380D02*
X15013095Y-14052380D01*
X15298809Y-14052380D02*
X15298809Y-13052380D01*
X15203571Y-13195238D01*
X15108333Y-13290476D01*
X15013095Y-13338095D01*
X15965476Y-13147619D02*
X16013095Y-13100000D01*
X16108333Y-13052380D01*
X16346428Y-13052380D01*
X16441666Y-13100000D01*
X16489285Y-13147619D01*
X16536904Y-13242857D01*
X16536904Y-13338095D01*
X16489285Y-13480952D01*
X15917857Y-14052380D01*
X16536904Y-14052380D01*
%TO.C,D11*%
X9285714Y-14052380D02*
X9285714Y-13052380D01*
X9523809Y-13052380D01*
X9666666Y-13100000D01*
X9761904Y-13195238D01*
X9809523Y-13290476D01*
X9857142Y-13480952D01*
X9857142Y-13623809D01*
X9809523Y-13814285D01*
X9761904Y-13909523D01*
X9666666Y-14004761D01*
X9523809Y-14052380D01*
X9285714Y-14052380D01*
X10809523Y-14052380D02*
X10238095Y-14052380D01*
X10523809Y-14052380D02*
X10523809Y-13052380D01*
X10428571Y-13195238D01*
X10333333Y-13290476D01*
X10238095Y-13338095D01*
X11761904Y-14052380D02*
X11190476Y-14052380D01*
X11476190Y-14052380D02*
X11476190Y-13052380D01*
X11380952Y-13195238D01*
X11285714Y-13290476D01*
X11190476Y-13338095D01*
%TO.C,D10*%
X4560714Y-14052380D02*
X4560714Y-13052380D01*
X4798809Y-13052380D01*
X4941666Y-13100000D01*
X5036904Y-13195238D01*
X5084523Y-13290476D01*
X5132142Y-13480952D01*
X5132142Y-13623809D01*
X5084523Y-13814285D01*
X5036904Y-13909523D01*
X4941666Y-14004761D01*
X4798809Y-14052380D01*
X4560714Y-14052380D01*
X6084523Y-14052380D02*
X5513095Y-14052380D01*
X5798809Y-14052380D02*
X5798809Y-13052380D01*
X5703571Y-13195238D01*
X5608333Y-13290476D01*
X5513095Y-13338095D01*
X6703571Y-13052380D02*
X6798809Y-13052380D01*
X6894047Y-13100000D01*
X6941666Y-13147619D01*
X6989285Y-13242857D01*
X7036904Y-13433333D01*
X7036904Y-13671428D01*
X6989285Y-13861904D01*
X6941666Y-13957142D01*
X6894047Y-14004761D01*
X6798809Y-14052380D01*
X6703571Y-14052380D01*
X6608333Y-14004761D01*
X6560714Y-13957142D01*
X6513095Y-13861904D01*
X6465476Y-13671428D01*
X6465476Y-13433333D01*
X6513095Y-13242857D01*
X6560714Y-13147619D01*
X6608333Y-13100000D01*
X6703571Y-13052380D01*
%TO.C,D9*%
X43011904Y-9552380D02*
X43011904Y-8552380D01*
X43250000Y-8552380D01*
X43392857Y-8600000D01*
X43488095Y-8695238D01*
X43535714Y-8790476D01*
X43583333Y-8980952D01*
X43583333Y-9123809D01*
X43535714Y-9314285D01*
X43488095Y-9409523D01*
X43392857Y-9504761D01*
X43250000Y-9552380D01*
X43011904Y-9552380D01*
X44059523Y-9552380D02*
X44250000Y-9552380D01*
X44345238Y-9504761D01*
X44392857Y-9457142D01*
X44488095Y-9314285D01*
X44535714Y-9123809D01*
X44535714Y-8742857D01*
X44488095Y-8647619D01*
X44440476Y-8600000D01*
X44345238Y-8552380D01*
X44154761Y-8552380D01*
X44059523Y-8600000D01*
X44011904Y-8647619D01*
X43964285Y-8742857D01*
X43964285Y-8980952D01*
X44011904Y-9076190D01*
X44059523Y-9123809D01*
X44154761Y-9171428D01*
X44345238Y-9171428D01*
X44440476Y-9123809D01*
X44488095Y-9076190D01*
X44535714Y-8980952D01*
%TO.C,D8*%
X38261904Y-9552380D02*
X38261904Y-8552380D01*
X38500000Y-8552380D01*
X38642857Y-8600000D01*
X38738095Y-8695238D01*
X38785714Y-8790476D01*
X38833333Y-8980952D01*
X38833333Y-9123809D01*
X38785714Y-9314285D01*
X38738095Y-9409523D01*
X38642857Y-9504761D01*
X38500000Y-9552380D01*
X38261904Y-9552380D01*
X39404761Y-8980952D02*
X39309523Y-8933333D01*
X39261904Y-8885714D01*
X39214285Y-8790476D01*
X39214285Y-8742857D01*
X39261904Y-8647619D01*
X39309523Y-8600000D01*
X39404761Y-8552380D01*
X39595238Y-8552380D01*
X39690476Y-8600000D01*
X39738095Y-8647619D01*
X39785714Y-8742857D01*
X39785714Y-8790476D01*
X39738095Y-8885714D01*
X39690476Y-8933333D01*
X39595238Y-8980952D01*
X39404761Y-8980952D01*
X39309523Y-9028571D01*
X39261904Y-9076190D01*
X39214285Y-9171428D01*
X39214285Y-9361904D01*
X39261904Y-9457142D01*
X39309523Y-9504761D01*
X39404761Y-9552380D01*
X39595238Y-9552380D01*
X39690476Y-9504761D01*
X39738095Y-9457142D01*
X39785714Y-9361904D01*
X39785714Y-9171428D01*
X39738095Y-9076190D01*
X39690476Y-9028571D01*
X39595238Y-8980952D01*
%TO.C,D7*%
X33511904Y-9552380D02*
X33511904Y-8552380D01*
X33750000Y-8552380D01*
X33892857Y-8600000D01*
X33988095Y-8695238D01*
X34035714Y-8790476D01*
X34083333Y-8980952D01*
X34083333Y-9123809D01*
X34035714Y-9314285D01*
X33988095Y-9409523D01*
X33892857Y-9504761D01*
X33750000Y-9552380D01*
X33511904Y-9552380D01*
X34416666Y-8552380D02*
X35083333Y-8552380D01*
X34654761Y-9552380D01*
%TO.C,D6*%
X28761904Y-9552380D02*
X28761904Y-8552380D01*
X29000000Y-8552380D01*
X29142857Y-8600000D01*
X29238095Y-8695238D01*
X29285714Y-8790476D01*
X29333333Y-8980952D01*
X29333333Y-9123809D01*
X29285714Y-9314285D01*
X29238095Y-9409523D01*
X29142857Y-9504761D01*
X29000000Y-9552380D01*
X28761904Y-9552380D01*
X30190476Y-8552380D02*
X30000000Y-8552380D01*
X29904761Y-8600000D01*
X29857142Y-8647619D01*
X29761904Y-8790476D01*
X29714285Y-8980952D01*
X29714285Y-9361904D01*
X29761904Y-9457142D01*
X29809523Y-9504761D01*
X29904761Y-9552380D01*
X30095238Y-9552380D01*
X30190476Y-9504761D01*
X30238095Y-9457142D01*
X30285714Y-9361904D01*
X30285714Y-9123809D01*
X30238095Y-9028571D01*
X30190476Y-8980952D01*
X30095238Y-8933333D01*
X29904761Y-8933333D01*
X29809523Y-8980952D01*
X29761904Y-9028571D01*
X29714285Y-9123809D01*
%TO.C,D5*%
X24011904Y-9552380D02*
X24011904Y-8552380D01*
X24250000Y-8552380D01*
X24392857Y-8600000D01*
X24488095Y-8695238D01*
X24535714Y-8790476D01*
X24583333Y-8980952D01*
X24583333Y-9123809D01*
X24535714Y-9314285D01*
X24488095Y-9409523D01*
X24392857Y-9504761D01*
X24250000Y-9552380D01*
X24011904Y-9552380D01*
X25488095Y-8552380D02*
X25011904Y-8552380D01*
X24964285Y-9028571D01*
X25011904Y-8980952D01*
X25107142Y-8933333D01*
X25345238Y-8933333D01*
X25440476Y-8980952D01*
X25488095Y-9028571D01*
X25535714Y-9123809D01*
X25535714Y-9361904D01*
X25488095Y-9457142D01*
X25440476Y-9504761D01*
X25345238Y-9552380D01*
X25107142Y-9552380D01*
X25011904Y-9504761D01*
X24964285Y-9457142D01*
%TO.C,D4*%
X19261904Y-9552380D02*
X19261904Y-8552380D01*
X19500000Y-8552380D01*
X19642857Y-8600000D01*
X19738095Y-8695238D01*
X19785714Y-8790476D01*
X19833333Y-8980952D01*
X19833333Y-9123809D01*
X19785714Y-9314285D01*
X19738095Y-9409523D01*
X19642857Y-9504761D01*
X19500000Y-9552380D01*
X19261904Y-9552380D01*
X20690476Y-8885714D02*
X20690476Y-9552380D01*
X20452380Y-8504761D02*
X20214285Y-9219047D01*
X20833333Y-9219047D01*
%TO.C,D3*%
X14511904Y-9552380D02*
X14511904Y-8552380D01*
X14750000Y-8552380D01*
X14892857Y-8600000D01*
X14988095Y-8695238D01*
X15035714Y-8790476D01*
X15083333Y-8980952D01*
X15083333Y-9123809D01*
X15035714Y-9314285D01*
X14988095Y-9409523D01*
X14892857Y-9504761D01*
X14750000Y-9552380D01*
X14511904Y-9552380D01*
X15416666Y-8552380D02*
X16035714Y-8552380D01*
X15702380Y-8933333D01*
X15845238Y-8933333D01*
X15940476Y-8980952D01*
X15988095Y-9028571D01*
X16035714Y-9123809D01*
X16035714Y-9361904D01*
X15988095Y-9457142D01*
X15940476Y-9504761D01*
X15845238Y-9552380D01*
X15559523Y-9552380D01*
X15464285Y-9504761D01*
X15416666Y-9457142D01*
%TO.C,D2*%
X9761904Y-9552380D02*
X9761904Y-8552380D01*
X10000000Y-8552380D01*
X10142857Y-8600000D01*
X10238095Y-8695238D01*
X10285714Y-8790476D01*
X10333333Y-8980952D01*
X10333333Y-9123809D01*
X10285714Y-9314285D01*
X10238095Y-9409523D01*
X10142857Y-9504761D01*
X10000000Y-9552380D01*
X9761904Y-9552380D01*
X10714285Y-8647619D02*
X10761904Y-8600000D01*
X10857142Y-8552380D01*
X11095238Y-8552380D01*
X11190476Y-8600000D01*
X11238095Y-8647619D01*
X11285714Y-8742857D01*
X11285714Y-8838095D01*
X11238095Y-8980952D01*
X10666666Y-9552380D01*
X11285714Y-9552380D01*
%TO.C,D1*%
X5011904Y-9552380D02*
X5011904Y-8552380D01*
X5250000Y-8552380D01*
X5392857Y-8600000D01*
X5488095Y-8695238D01*
X5535714Y-8790476D01*
X5583333Y-8980952D01*
X5583333Y-9123809D01*
X5535714Y-9314285D01*
X5488095Y-9409523D01*
X5392857Y-9504761D01*
X5250000Y-9552380D01*
X5011904Y-9552380D01*
X6535714Y-9552380D02*
X5964285Y-9552380D01*
X6250000Y-9552380D02*
X6250000Y-8552380D01*
X6154761Y-8695238D01*
X6059523Y-8790476D01*
X5964285Y-8838095D01*
%TD*%
M02*
