%TF.GenerationSoftware,KiCad,Pcbnew,5.1.6*%
%TF.CreationDate,2020-08-08T21:56:00+02:00*%
%TF.ProjectId,unibatch-9x9,756e6962-6174-4636-982d-3978392e6b69,rev?*%
%TF.SameCoordinates,Original*%
%TF.FileFunction,Copper,L2,Bot*%
%TF.FilePolarity,Positive*%
%FSLAX46Y46*%
G04 Gerber Fmt 4.6, Leading zero omitted, Abs format (unit mm)*
G04 Created by KiCad (PCBNEW 5.1.6) date 2020-08-08 21:56:00*
%MOMM*%
%LPD*%
G01*
G04 APERTURE LIST*
%TA.AperFunction,SMDPad,CuDef*%
%ADD10R,1.300000X0.800000*%
%TD*%
%TA.AperFunction,SMDPad,CuDef*%
%ADD11R,1.950000X1.100000*%
%TD*%
%TA.AperFunction,SMDPad,CuDef*%
%ADD12R,0.900000X0.800000*%
%TD*%
%TA.AperFunction,ComponentPad*%
%ADD13O,1.700000X1.700000*%
%TD*%
%TA.AperFunction,ComponentPad*%
%ADD14R,1.700000X1.700000*%
%TD*%
%TA.AperFunction,ViaPad*%
%ADD15C,0.800000*%
%TD*%
%TA.AperFunction,Conductor*%
%ADD16C,0.250000*%
%TD*%
%TA.AperFunction,Conductor*%
%ADD17C,0.177800*%
%TD*%
G04 APERTURE END LIST*
D10*
%TO.P,U2,16*%
%TO.N,VS*%
X22850000Y-22050000D03*
%TO.P,U2,15*%
%TO.N,Net-(U2-Pad11)*%
X22850000Y-23330000D03*
%TO.P,U2,14*%
%TO.N,Net-(U1-Pad3)*%
X22850000Y-24590000D03*
%TO.P,U2,13*%
%TO.N,Net-(U2-Pad13)*%
X22850000Y-25860000D03*
%TO.P,U2,12*%
%TO.N,Net-(U2-Pad12)*%
X22850000Y-27140000D03*
%TO.P,U2,11*%
%TO.N,Net-(U2-Pad11)*%
X22850000Y-28410000D03*
%TO.P,U2,10*%
%TO.N,Net-(Q5-Pad1)*%
X22850000Y-29670000D03*
%TO.P,U2,9*%
%TO.N,Net-(Q9-Pad1)*%
X22850000Y-30950000D03*
%TO.P,U2,8*%
%TO.N,GND*%
X29150000Y-30950000D03*
%TO.P,U2,7*%
%TO.N,Net-(Q4-Pad1)*%
X29150000Y-29670000D03*
%TO.P,U2,6*%
%TO.N,Net-(Q8-Pad1)*%
X29150000Y-28410000D03*
%TO.P,U2,5*%
%TO.N,Net-(Q7-Pad1)*%
X29150000Y-27140000D03*
%TO.P,U2,4*%
%TO.N,Net-(Q3-Pad1)*%
X29150000Y-25860000D03*
%TO.P,U2,3*%
%TO.N,Net-(Q1-Pad1)*%
X29150000Y-24590000D03*
%TO.P,U2,2*%
%TO.N,Net-(Q2-Pad1)*%
X29150000Y-23330000D03*
%TO.P,U2,1*%
%TO.N,Net-(Q6-Pad1)*%
X29150000Y-22050000D03*
%TD*%
%TO.P,U1,8*%
%TO.N,VS*%
%TA.AperFunction,SMDPad,CuDef*%
G36*
G01*
X7000000Y-21445000D02*
X7000000Y-21745000D01*
G75*
G02*
X6850000Y-21895000I-150000J0D01*
G01*
X5200000Y-21895000D01*
G75*
G02*
X5050000Y-21745000I0J150000D01*
G01*
X5050000Y-21445000D01*
G75*
G02*
X5200000Y-21295000I150000J0D01*
G01*
X6850000Y-21295000D01*
G75*
G02*
X7000000Y-21445000I0J-150000D01*
G01*
G37*
%TD.AperFunction*%
%TO.P,U1,7*%
%TO.N,Net-(R1-Pad2)*%
%TA.AperFunction,SMDPad,CuDef*%
G36*
G01*
X7000000Y-22715000D02*
X7000000Y-23015000D01*
G75*
G02*
X6850000Y-23165000I-150000J0D01*
G01*
X5200000Y-23165000D01*
G75*
G02*
X5050000Y-23015000I0J150000D01*
G01*
X5050000Y-22715000D01*
G75*
G02*
X5200000Y-22565000I150000J0D01*
G01*
X6850000Y-22565000D01*
G75*
G02*
X7000000Y-22715000I0J-150000D01*
G01*
G37*
%TD.AperFunction*%
%TO.P,U1,6*%
%TO.N,Net-(C3-Pad2)*%
%TA.AperFunction,SMDPad,CuDef*%
G36*
G01*
X7000000Y-23985000D02*
X7000000Y-24285000D01*
G75*
G02*
X6850000Y-24435000I-150000J0D01*
G01*
X5200000Y-24435000D01*
G75*
G02*
X5050000Y-24285000I0J150000D01*
G01*
X5050000Y-23985000D01*
G75*
G02*
X5200000Y-23835000I150000J0D01*
G01*
X6850000Y-23835000D01*
G75*
G02*
X7000000Y-23985000I0J-150000D01*
G01*
G37*
%TD.AperFunction*%
%TO.P,U1,5*%
%TO.N,Net-(C2-Pad1)*%
%TA.AperFunction,SMDPad,CuDef*%
G36*
G01*
X7000000Y-25255000D02*
X7000000Y-25555000D01*
G75*
G02*
X6850000Y-25705000I-150000J0D01*
G01*
X5200000Y-25705000D01*
G75*
G02*
X5050000Y-25555000I0J150000D01*
G01*
X5050000Y-25255000D01*
G75*
G02*
X5200000Y-25105000I150000J0D01*
G01*
X6850000Y-25105000D01*
G75*
G02*
X7000000Y-25255000I0J-150000D01*
G01*
G37*
%TD.AperFunction*%
%TO.P,U1,4*%
%TO.N,VS*%
%TA.AperFunction,SMDPad,CuDef*%
G36*
G01*
X11950000Y-25255000D02*
X11950000Y-25555000D01*
G75*
G02*
X11800000Y-25705000I-150000J0D01*
G01*
X10150000Y-25705000D01*
G75*
G02*
X10000000Y-25555000I0J150000D01*
G01*
X10000000Y-25255000D01*
G75*
G02*
X10150000Y-25105000I150000J0D01*
G01*
X11800000Y-25105000D01*
G75*
G02*
X11950000Y-25255000I0J-150000D01*
G01*
G37*
%TD.AperFunction*%
%TO.P,U1,3*%
%TO.N,Net-(U1-Pad3)*%
%TA.AperFunction,SMDPad,CuDef*%
G36*
G01*
X11950000Y-23985000D02*
X11950000Y-24285000D01*
G75*
G02*
X11800000Y-24435000I-150000J0D01*
G01*
X10150000Y-24435000D01*
G75*
G02*
X10000000Y-24285000I0J150000D01*
G01*
X10000000Y-23985000D01*
G75*
G02*
X10150000Y-23835000I150000J0D01*
G01*
X11800000Y-23835000D01*
G75*
G02*
X11950000Y-23985000I0J-150000D01*
G01*
G37*
%TD.AperFunction*%
%TO.P,U1,2*%
%TO.N,Net-(C3-Pad2)*%
%TA.AperFunction,SMDPad,CuDef*%
G36*
G01*
X11950000Y-22715000D02*
X11950000Y-23015000D01*
G75*
G02*
X11800000Y-23165000I-150000J0D01*
G01*
X10150000Y-23165000D01*
G75*
G02*
X10000000Y-23015000I0J150000D01*
G01*
X10000000Y-22715000D01*
G75*
G02*
X10150000Y-22565000I150000J0D01*
G01*
X11800000Y-22565000D01*
G75*
G02*
X11950000Y-22715000I0J-150000D01*
G01*
G37*
%TD.AperFunction*%
%TO.P,U1,1*%
%TO.N,GND*%
%TA.AperFunction,SMDPad,CuDef*%
G36*
G01*
X11950000Y-21445000D02*
X11950000Y-21745000D01*
G75*
G02*
X11800000Y-21895000I-150000J0D01*
G01*
X10150000Y-21895000D01*
G75*
G02*
X10000000Y-21745000I0J150000D01*
G01*
X10000000Y-21445000D01*
G75*
G02*
X10150000Y-21295000I150000J0D01*
G01*
X11800000Y-21295000D01*
G75*
G02*
X11950000Y-21445000I0J-150000D01*
G01*
G37*
%TD.AperFunction*%
%TD*%
D11*
%TO.P,SW1,2*%
%TO.N,+3V3*%
X12150000Y-44500000D03*
%TO.P,SW1,1*%
%TO.N,VS*%
X12150000Y-42000000D03*
%TO.P,SW1,3*%
%TO.N,Net-(SW1-Pad3)*%
X12150000Y-47000000D03*
X6500000Y-47000000D03*
%TO.P,SW1,2*%
%TO.N,+3V3*%
X6500000Y-44500000D03*
%TO.P,SW1,1*%
%TO.N,VS*%
X6500000Y-42000000D03*
%TD*%
%TO.P,R11,2*%
%TO.N,Net-(Q9-Pad3)*%
%TA.AperFunction,SMDPad,CuDef*%
G36*
G01*
X40300000Y-45799999D02*
X40300000Y-46700001D01*
G75*
G02*
X40050001Y-46950000I-249999J0D01*
G01*
X39399999Y-46950000D01*
G75*
G02*
X39150000Y-46700001I0J249999D01*
G01*
X39150000Y-45799999D01*
G75*
G02*
X39399999Y-45550000I249999J0D01*
G01*
X40050001Y-45550000D01*
G75*
G02*
X40300000Y-45799999I0J-249999D01*
G01*
G37*
%TD.AperFunction*%
%TO.P,R11,1*%
%TO.N,Net-(D73-Pad1)*%
%TA.AperFunction,SMDPad,CuDef*%
G36*
G01*
X42350000Y-45799999D02*
X42350000Y-46700001D01*
G75*
G02*
X42100001Y-46950000I-249999J0D01*
G01*
X41449999Y-46950000D01*
G75*
G02*
X41200000Y-46700001I0J249999D01*
G01*
X41200000Y-45799999D01*
G75*
G02*
X41449999Y-45550000I249999J0D01*
G01*
X42100001Y-45550000D01*
G75*
G02*
X42350000Y-45799999I0J-249999D01*
G01*
G37*
%TD.AperFunction*%
%TD*%
%TO.P,R10,2*%
%TO.N,Net-(Q8-Pad3)*%
%TA.AperFunction,SMDPad,CuDef*%
G36*
G01*
X40300000Y-40299999D02*
X40300000Y-41200001D01*
G75*
G02*
X40050001Y-41450000I-249999J0D01*
G01*
X39399999Y-41450000D01*
G75*
G02*
X39150000Y-41200001I0J249999D01*
G01*
X39150000Y-40299999D01*
G75*
G02*
X39399999Y-40050000I249999J0D01*
G01*
X40050001Y-40050000D01*
G75*
G02*
X40300000Y-40299999I0J-249999D01*
G01*
G37*
%TD.AperFunction*%
%TO.P,R10,1*%
%TO.N,Net-(D64-Pad1)*%
%TA.AperFunction,SMDPad,CuDef*%
G36*
G01*
X42350000Y-40299999D02*
X42350000Y-41200001D01*
G75*
G02*
X42100001Y-41450000I-249999J0D01*
G01*
X41449999Y-41450000D01*
G75*
G02*
X41200000Y-41200001I0J249999D01*
G01*
X41200000Y-40299999D01*
G75*
G02*
X41449999Y-40050000I249999J0D01*
G01*
X42100001Y-40050000D01*
G75*
G02*
X42350000Y-40299999I0J-249999D01*
G01*
G37*
%TD.AperFunction*%
%TD*%
%TO.P,R9,2*%
%TO.N,Net-(Q7-Pad3)*%
%TA.AperFunction,SMDPad,CuDef*%
G36*
G01*
X40300000Y-35049999D02*
X40300000Y-35950001D01*
G75*
G02*
X40050001Y-36200000I-249999J0D01*
G01*
X39399999Y-36200000D01*
G75*
G02*
X39150000Y-35950001I0J249999D01*
G01*
X39150000Y-35049999D01*
G75*
G02*
X39399999Y-34800000I249999J0D01*
G01*
X40050001Y-34800000D01*
G75*
G02*
X40300000Y-35049999I0J-249999D01*
G01*
G37*
%TD.AperFunction*%
%TO.P,R9,1*%
%TO.N,Net-(D55-Pad1)*%
%TA.AperFunction,SMDPad,CuDef*%
G36*
G01*
X42350000Y-35049999D02*
X42350000Y-35950001D01*
G75*
G02*
X42100001Y-36200000I-249999J0D01*
G01*
X41449999Y-36200000D01*
G75*
G02*
X41200000Y-35950001I0J249999D01*
G01*
X41200000Y-35049999D01*
G75*
G02*
X41449999Y-34800000I249999J0D01*
G01*
X42100001Y-34800000D01*
G75*
G02*
X42350000Y-35049999I0J-249999D01*
G01*
G37*
%TD.AperFunction*%
%TD*%
%TO.P,R8,2*%
%TO.N,Net-(Q6-Pad3)*%
%TA.AperFunction,SMDPad,CuDef*%
G36*
G01*
X40325000Y-29799999D02*
X40325000Y-30700001D01*
G75*
G02*
X40075001Y-30950000I-249999J0D01*
G01*
X39424999Y-30950000D01*
G75*
G02*
X39175000Y-30700001I0J249999D01*
G01*
X39175000Y-29799999D01*
G75*
G02*
X39424999Y-29550000I249999J0D01*
G01*
X40075001Y-29550000D01*
G75*
G02*
X40325000Y-29799999I0J-249999D01*
G01*
G37*
%TD.AperFunction*%
%TO.P,R8,1*%
%TO.N,Net-(D46-Pad1)*%
%TA.AperFunction,SMDPad,CuDef*%
G36*
G01*
X42375000Y-29799999D02*
X42375000Y-30700001D01*
G75*
G02*
X42125001Y-30950000I-249999J0D01*
G01*
X41474999Y-30950000D01*
G75*
G02*
X41225000Y-30700001I0J249999D01*
G01*
X41225000Y-29799999D01*
G75*
G02*
X41474999Y-29550000I249999J0D01*
G01*
X42125001Y-29550000D01*
G75*
G02*
X42375000Y-29799999I0J-249999D01*
G01*
G37*
%TD.AperFunction*%
%TD*%
%TO.P,R7,2*%
%TO.N,Net-(Q5-Pad3)*%
%TA.AperFunction,SMDPad,CuDef*%
G36*
G01*
X40325000Y-24549999D02*
X40325000Y-25450001D01*
G75*
G02*
X40075001Y-25700000I-249999J0D01*
G01*
X39424999Y-25700000D01*
G75*
G02*
X39175000Y-25450001I0J249999D01*
G01*
X39175000Y-24549999D01*
G75*
G02*
X39424999Y-24300000I249999J0D01*
G01*
X40075001Y-24300000D01*
G75*
G02*
X40325000Y-24549999I0J-249999D01*
G01*
G37*
%TD.AperFunction*%
%TO.P,R7,1*%
%TO.N,Net-(D37-Pad1)*%
%TA.AperFunction,SMDPad,CuDef*%
G36*
G01*
X42375000Y-24549999D02*
X42375000Y-25450001D01*
G75*
G02*
X42125001Y-25700000I-249999J0D01*
G01*
X41474999Y-25700000D01*
G75*
G02*
X41225000Y-25450001I0J249999D01*
G01*
X41225000Y-24549999D01*
G75*
G02*
X41474999Y-24300000I249999J0D01*
G01*
X42125001Y-24300000D01*
G75*
G02*
X42375000Y-24549999I0J-249999D01*
G01*
G37*
%TD.AperFunction*%
%TD*%
%TO.P,R6,2*%
%TO.N,Net-(Q4-Pad3)*%
%TA.AperFunction,SMDPad,CuDef*%
G36*
G01*
X40300000Y-19299999D02*
X40300000Y-20200001D01*
G75*
G02*
X40050001Y-20450000I-249999J0D01*
G01*
X39399999Y-20450000D01*
G75*
G02*
X39150000Y-20200001I0J249999D01*
G01*
X39150000Y-19299999D01*
G75*
G02*
X39399999Y-19050000I249999J0D01*
G01*
X40050001Y-19050000D01*
G75*
G02*
X40300000Y-19299999I0J-249999D01*
G01*
G37*
%TD.AperFunction*%
%TO.P,R6,1*%
%TO.N,Net-(D28-Pad1)*%
%TA.AperFunction,SMDPad,CuDef*%
G36*
G01*
X42350000Y-19299999D02*
X42350000Y-20200001D01*
G75*
G02*
X42100001Y-20450000I-249999J0D01*
G01*
X41449999Y-20450000D01*
G75*
G02*
X41200000Y-20200001I0J249999D01*
G01*
X41200000Y-19299999D01*
G75*
G02*
X41449999Y-19050000I249999J0D01*
G01*
X42100001Y-19050000D01*
G75*
G02*
X42350000Y-19299999I0J-249999D01*
G01*
G37*
%TD.AperFunction*%
%TD*%
%TO.P,R5,2*%
%TO.N,Net-(Q3-Pad3)*%
%TA.AperFunction,SMDPad,CuDef*%
G36*
G01*
X40300000Y-14049999D02*
X40300000Y-14950001D01*
G75*
G02*
X40050001Y-15200000I-249999J0D01*
G01*
X39399999Y-15200000D01*
G75*
G02*
X39150000Y-14950001I0J249999D01*
G01*
X39150000Y-14049999D01*
G75*
G02*
X39399999Y-13800000I249999J0D01*
G01*
X40050001Y-13800000D01*
G75*
G02*
X40300000Y-14049999I0J-249999D01*
G01*
G37*
%TD.AperFunction*%
%TO.P,R5,1*%
%TO.N,Net-(D19-Pad1)*%
%TA.AperFunction,SMDPad,CuDef*%
G36*
G01*
X42350000Y-14049999D02*
X42350000Y-14950001D01*
G75*
G02*
X42100001Y-15200000I-249999J0D01*
G01*
X41449999Y-15200000D01*
G75*
G02*
X41200000Y-14950001I0J249999D01*
G01*
X41200000Y-14049999D01*
G75*
G02*
X41449999Y-13800000I249999J0D01*
G01*
X42100001Y-13800000D01*
G75*
G02*
X42350000Y-14049999I0J-249999D01*
G01*
G37*
%TD.AperFunction*%
%TD*%
%TO.P,R4,2*%
%TO.N,Net-(Q2-Pad3)*%
%TA.AperFunction,SMDPad,CuDef*%
G36*
G01*
X40275000Y-8799999D02*
X40275000Y-9700001D01*
G75*
G02*
X40025001Y-9950000I-249999J0D01*
G01*
X39374999Y-9950000D01*
G75*
G02*
X39125000Y-9700001I0J249999D01*
G01*
X39125000Y-8799999D01*
G75*
G02*
X39374999Y-8550000I249999J0D01*
G01*
X40025001Y-8550000D01*
G75*
G02*
X40275000Y-8799999I0J-249999D01*
G01*
G37*
%TD.AperFunction*%
%TO.P,R4,1*%
%TO.N,Net-(D10-Pad1)*%
%TA.AperFunction,SMDPad,CuDef*%
G36*
G01*
X42325000Y-8799999D02*
X42325000Y-9700001D01*
G75*
G02*
X42075001Y-9950000I-249999J0D01*
G01*
X41424999Y-9950000D01*
G75*
G02*
X41175000Y-9700001I0J249999D01*
G01*
X41175000Y-8799999D01*
G75*
G02*
X41424999Y-8550000I249999J0D01*
G01*
X42075001Y-8550000D01*
G75*
G02*
X42325000Y-8799999I0J-249999D01*
G01*
G37*
%TD.AperFunction*%
%TD*%
%TO.P,R3,2*%
%TO.N,Net-(Q1-Pad3)*%
%TA.AperFunction,SMDPad,CuDef*%
G36*
G01*
X40300000Y-3549999D02*
X40300000Y-4450001D01*
G75*
G02*
X40050001Y-4700000I-249999J0D01*
G01*
X39399999Y-4700000D01*
G75*
G02*
X39150000Y-4450001I0J249999D01*
G01*
X39150000Y-3549999D01*
G75*
G02*
X39399999Y-3300000I249999J0D01*
G01*
X40050001Y-3300000D01*
G75*
G02*
X40300000Y-3549999I0J-249999D01*
G01*
G37*
%TD.AperFunction*%
%TO.P,R3,1*%
%TO.N,Net-(D1-Pad1)*%
%TA.AperFunction,SMDPad,CuDef*%
G36*
G01*
X42350000Y-3549999D02*
X42350000Y-4450001D01*
G75*
G02*
X42100001Y-4700000I-249999J0D01*
G01*
X41449999Y-4700000D01*
G75*
G02*
X41200000Y-4450001I0J249999D01*
G01*
X41200000Y-3549999D01*
G75*
G02*
X41449999Y-3300000I249999J0D01*
G01*
X42100001Y-3300000D01*
G75*
G02*
X42350000Y-3549999I0J-249999D01*
G01*
G37*
%TD.AperFunction*%
%TD*%
%TO.P,R2,2*%
%TO.N,Net-(C3-Pad2)*%
%TA.AperFunction,SMDPad,CuDef*%
G36*
G01*
X11950000Y-34450001D02*
X11950000Y-33549999D01*
G75*
G02*
X12199999Y-33300000I249999J0D01*
G01*
X12850001Y-33300000D01*
G75*
G02*
X13100000Y-33549999I0J-249999D01*
G01*
X13100000Y-34450001D01*
G75*
G02*
X12850001Y-34700000I-249999J0D01*
G01*
X12199999Y-34700000D01*
G75*
G02*
X11950000Y-34450001I0J249999D01*
G01*
G37*
%TD.AperFunction*%
%TO.P,R2,1*%
%TO.N,Net-(R1-Pad2)*%
%TA.AperFunction,SMDPad,CuDef*%
G36*
G01*
X9900000Y-34450001D02*
X9900000Y-33549999D01*
G75*
G02*
X10149999Y-33300000I249999J0D01*
G01*
X10800001Y-33300000D01*
G75*
G02*
X11050000Y-33549999I0J-249999D01*
G01*
X11050000Y-34450001D01*
G75*
G02*
X10800001Y-34700000I-249999J0D01*
G01*
X10149999Y-34700000D01*
G75*
G02*
X9900000Y-34450001I0J249999D01*
G01*
G37*
%TD.AperFunction*%
%TD*%
%TO.P,R1,2*%
%TO.N,Net-(R1-Pad2)*%
%TA.AperFunction,SMDPad,CuDef*%
G36*
G01*
X11050000Y-37049999D02*
X11050000Y-37950001D01*
G75*
G02*
X10800001Y-38200000I-249999J0D01*
G01*
X10149999Y-38200000D01*
G75*
G02*
X9900000Y-37950001I0J249999D01*
G01*
X9900000Y-37049999D01*
G75*
G02*
X10149999Y-36800000I249999J0D01*
G01*
X10800001Y-36800000D01*
G75*
G02*
X11050000Y-37049999I0J-249999D01*
G01*
G37*
%TD.AperFunction*%
%TO.P,R1,1*%
%TO.N,VS*%
%TA.AperFunction,SMDPad,CuDef*%
G36*
G01*
X13100000Y-37049999D02*
X13100000Y-37950001D01*
G75*
G02*
X12850001Y-38200000I-249999J0D01*
G01*
X12199999Y-38200000D01*
G75*
G02*
X11950000Y-37950001I0J249999D01*
G01*
X11950000Y-37049999D01*
G75*
G02*
X12199999Y-36800000I249999J0D01*
G01*
X12850001Y-36800000D01*
G75*
G02*
X13100000Y-37049999I0J-249999D01*
G01*
G37*
%TD.AperFunction*%
%TD*%
D12*
%TO.P,Q9,3*%
%TO.N,Net-(Q9-Pad3)*%
X36250000Y-46250000D03*
%TO.P,Q9,2*%
%TO.N,GND*%
X34250000Y-45300000D03*
%TO.P,Q9,1*%
%TO.N,Net-(Q9-Pad1)*%
X34250000Y-47200000D03*
%TD*%
%TO.P,Q8,3*%
%TO.N,Net-(Q8-Pad3)*%
X36250000Y-40750000D03*
%TO.P,Q8,2*%
%TO.N,GND*%
X34250000Y-39800000D03*
%TO.P,Q8,1*%
%TO.N,Net-(Q8-Pad1)*%
X34250000Y-41700000D03*
%TD*%
%TO.P,Q7,3*%
%TO.N,Net-(Q7-Pad3)*%
X36250000Y-35500000D03*
%TO.P,Q7,2*%
%TO.N,GND*%
X34250000Y-34550000D03*
%TO.P,Q7,1*%
%TO.N,Net-(Q7-Pad1)*%
X34250000Y-36450000D03*
%TD*%
%TO.P,Q6,3*%
%TO.N,Net-(Q6-Pad3)*%
X36250000Y-30250000D03*
%TO.P,Q6,2*%
%TO.N,GND*%
X34250000Y-29300000D03*
%TO.P,Q6,1*%
%TO.N,Net-(Q6-Pad1)*%
X34250000Y-31200000D03*
%TD*%
%TO.P,Q5,3*%
%TO.N,Net-(Q5-Pad3)*%
X36250000Y-25000000D03*
%TO.P,Q5,2*%
%TO.N,GND*%
X34250000Y-24050000D03*
%TO.P,Q5,1*%
%TO.N,Net-(Q5-Pad1)*%
X34250000Y-25950000D03*
%TD*%
%TO.P,Q4,3*%
%TO.N,Net-(Q4-Pad3)*%
X36250000Y-19750000D03*
%TO.P,Q4,2*%
%TO.N,GND*%
X34250000Y-18800000D03*
%TO.P,Q4,1*%
%TO.N,Net-(Q4-Pad1)*%
X34250000Y-20700000D03*
%TD*%
%TO.P,Q3,3*%
%TO.N,Net-(Q3-Pad3)*%
X36250000Y-14500000D03*
%TO.P,Q3,2*%
%TO.N,GND*%
X34250000Y-13550000D03*
%TO.P,Q3,1*%
%TO.N,Net-(Q3-Pad1)*%
X34250000Y-15450000D03*
%TD*%
%TO.P,Q2,3*%
%TO.N,Net-(Q2-Pad3)*%
X36250000Y-9250000D03*
%TO.P,Q2,2*%
%TO.N,GND*%
X34250000Y-8300000D03*
%TO.P,Q2,1*%
%TO.N,Net-(Q2-Pad1)*%
X34250000Y-10200000D03*
%TD*%
%TO.P,Q1,3*%
%TO.N,Net-(Q1-Pad3)*%
X36250000Y-4000000D03*
%TO.P,Q1,2*%
%TO.N,GND*%
X34250000Y-3050000D03*
%TO.P,Q1,1*%
%TO.N,Net-(Q1-Pad1)*%
X34250000Y-4950000D03*
%TD*%
%TO.P,C3,2*%
%TO.N,Net-(C3-Pad2)*%
%TA.AperFunction,SMDPad,CuDef*%
G36*
G01*
X11950000Y-30950001D02*
X11950000Y-30049999D01*
G75*
G02*
X12199999Y-29800000I249999J0D01*
G01*
X12850001Y-29800000D01*
G75*
G02*
X13100000Y-30049999I0J-249999D01*
G01*
X13100000Y-30950001D01*
G75*
G02*
X12850001Y-31200000I-249999J0D01*
G01*
X12199999Y-31200000D01*
G75*
G02*
X11950000Y-30950001I0J249999D01*
G01*
G37*
%TD.AperFunction*%
%TO.P,C3,1*%
%TO.N,GND*%
%TA.AperFunction,SMDPad,CuDef*%
G36*
G01*
X9900000Y-30950001D02*
X9900000Y-30049999D01*
G75*
G02*
X10149999Y-29800000I249999J0D01*
G01*
X10800001Y-29800000D01*
G75*
G02*
X11050000Y-30049999I0J-249999D01*
G01*
X11050000Y-30950001D01*
G75*
G02*
X10800001Y-31200000I-249999J0D01*
G01*
X10149999Y-31200000D01*
G75*
G02*
X9900000Y-30950001I0J249999D01*
G01*
G37*
%TD.AperFunction*%
%TD*%
%TO.P,C2,2*%
%TO.N,GND*%
%TA.AperFunction,SMDPad,CuDef*%
G36*
G01*
X4550000Y-31049999D02*
X4550000Y-31950001D01*
G75*
G02*
X4300001Y-32200000I-249999J0D01*
G01*
X3649999Y-32200000D01*
G75*
G02*
X3400000Y-31950001I0J249999D01*
G01*
X3400000Y-31049999D01*
G75*
G02*
X3649999Y-30800000I249999J0D01*
G01*
X4300001Y-30800000D01*
G75*
G02*
X4550000Y-31049999I0J-249999D01*
G01*
G37*
%TD.AperFunction*%
%TO.P,C2,1*%
%TO.N,Net-(C2-Pad1)*%
%TA.AperFunction,SMDPad,CuDef*%
G36*
G01*
X6600000Y-31049999D02*
X6600000Y-31950001D01*
G75*
G02*
X6350001Y-32200000I-249999J0D01*
G01*
X5699999Y-32200000D01*
G75*
G02*
X5450000Y-31950001I0J249999D01*
G01*
X5450000Y-31049999D01*
G75*
G02*
X5699999Y-30800000I249999J0D01*
G01*
X6350001Y-30800000D01*
G75*
G02*
X6600000Y-31049999I0J-249999D01*
G01*
G37*
%TD.AperFunction*%
%TD*%
%TO.P,C1,2*%
%TO.N,VS*%
%TA.AperFunction,SMDPad,CuDef*%
G36*
G01*
X5450000Y-36450001D02*
X5450000Y-35549999D01*
G75*
G02*
X5699999Y-35300000I249999J0D01*
G01*
X6350001Y-35300000D01*
G75*
G02*
X6600000Y-35549999I0J-249999D01*
G01*
X6600000Y-36450001D01*
G75*
G02*
X6350001Y-36700000I-249999J0D01*
G01*
X5699999Y-36700000D01*
G75*
G02*
X5450000Y-36450001I0J249999D01*
G01*
G37*
%TD.AperFunction*%
%TO.P,C1,1*%
%TO.N,GND*%
%TA.AperFunction,SMDPad,CuDef*%
G36*
G01*
X3400000Y-36450001D02*
X3400000Y-35549999D01*
G75*
G02*
X3649999Y-35300000I249999J0D01*
G01*
X4300001Y-35300000D01*
G75*
G02*
X4550000Y-35549999I0J-249999D01*
G01*
X4550000Y-36450001D01*
G75*
G02*
X4300001Y-36700000I-249999J0D01*
G01*
X3649999Y-36700000D01*
G75*
G02*
X3400000Y-36450001I0J249999D01*
G01*
G37*
%TD.AperFunction*%
%TD*%
D13*
%TO.P,BT1,2*%
%TO.N,GND*%
X2000000Y-44460000D03*
D14*
%TO.P,BT1,1*%
%TO.N,+3V3*%
X2000000Y-47000000D03*
%TD*%
D15*
%TO.N,VS*%
X4500000Y-18000000D03*
%TO.N,Net-(D1-Pad1)*%
X47000000Y-12750000D03*
%TO.N,Net-(D10-Pad1)*%
X47000000Y-17500000D03*
%TO.N,Net-(D19-Pad1)*%
X47000000Y-22000000D03*
%TO.N,Net-(D28-Pad1)*%
X47000000Y-26500000D03*
%TO.N,Net-(D37-Pad1)*%
X47000000Y-31000000D03*
%TO.N,Net-(D46-Pad1)*%
X47000000Y-35500000D03*
%TO.N,Net-(D55-Pad1)*%
X47000000Y-40000000D03*
%TO.N,Net-(D64-Pad1)*%
X47000000Y-44500000D03*
%TO.N,Net-(D73-Pad1)*%
X47000000Y-49000000D03*
%TO.N,Net-(Q4-Pad1)*%
X31000000Y-30275000D03*
X32000000Y-28000000D03*
%TO.N,Net-(Q5-Pad1)*%
X27500000Y-27225000D03*
X33640876Y-27269827D03*
%TO.N,Net-(Q6-Pad1)*%
X31177347Y-21177347D03*
X36500000Y-21275000D03*
%TD*%
D16*
%TO.N,GND*%
X34300000Y-13500000D02*
X34250000Y-13550000D01*
%TO.N,+3V3*%
X4000000Y-47000000D02*
X6500000Y-44500000D01*
X2000000Y-47000000D02*
X4000000Y-47000000D01*
X6500000Y-44500000D02*
X12150000Y-44500000D01*
%TO.N,VS*%
X6500000Y-42000000D02*
X12150000Y-42000000D01*
X12150000Y-37875000D02*
X12525000Y-37500000D01*
X12150000Y-42000000D02*
X12150000Y-37875000D01*
X13425010Y-36599990D02*
X12525000Y-37500000D01*
X13425010Y-27855010D02*
X13425010Y-36599990D01*
X10975000Y-25405000D02*
X13425010Y-27855010D01*
X6025000Y-41525000D02*
X6500000Y-42000000D01*
X6025000Y-37500000D02*
X6025000Y-41525000D01*
X6650010Y-22220010D02*
X6025000Y-21595000D01*
X22679990Y-22220010D02*
X6650010Y-22220010D01*
X22850000Y-22050000D02*
X22679990Y-22220010D01*
X6025000Y-21595000D02*
X5050000Y-21595000D01*
X4500000Y-20070000D02*
X6025000Y-21595000D01*
X4500000Y-18000000D02*
X4500000Y-20070000D01*
X6025000Y-37500000D02*
X6025000Y-36000000D01*
%TO.N,Net-(C2-Pad1)*%
X6025000Y-32000000D02*
X6025000Y-25405000D01*
%TO.N,Net-(C3-Pad2)*%
X12525000Y-34000000D02*
X12525000Y-30500000D01*
X10000000Y-22865000D02*
X10975000Y-22865000D01*
X5648232Y-24135000D02*
X6025000Y-24135000D01*
X6025000Y-24135000D02*
X7000000Y-24135000D01*
X12525000Y-29525000D02*
X7135000Y-24135000D01*
X7135000Y-24135000D02*
X6025000Y-24135000D01*
X12525000Y-30500000D02*
X12525000Y-29525000D01*
X8270000Y-22865000D02*
X10975000Y-22865000D01*
X7000000Y-24135000D02*
X8270000Y-22865000D01*
%TO.N,Net-(D1-Pad1)*%
X46750000Y-8975000D02*
X41775000Y-4000000D01*
X46750000Y-12750000D02*
X46750000Y-8975000D01*
%TO.N,Net-(D10-Pad1)*%
X47000000Y-14500000D02*
X41750000Y-9250000D01*
X47000000Y-17500000D02*
X47000000Y-14500000D01*
%TO.N,Net-(D19-Pad1)*%
X47000000Y-19725000D02*
X41775000Y-14500000D01*
X47000000Y-22000000D02*
X47000000Y-19725000D01*
%TO.N,Net-(D28-Pad1)*%
X47000000Y-24975000D02*
X41775000Y-19750000D01*
X47000000Y-26500000D02*
X47000000Y-24975000D01*
%TO.N,Net-(D37-Pad1)*%
X47000000Y-30200000D02*
X41800000Y-25000000D01*
X47000000Y-31000000D02*
X47000000Y-30200000D01*
%TO.N,Net-(D46-Pad1)*%
X41800000Y-30300000D02*
X41800000Y-30250000D01*
X47000000Y-35500000D02*
X41800000Y-30300000D01*
%TO.N,Net-(D55-Pad1)*%
X46275000Y-40000000D02*
X41775000Y-35500000D01*
X47000000Y-40000000D02*
X46275000Y-40000000D01*
%TO.N,Net-(D64-Pad1)*%
X45525000Y-44500000D02*
X41775000Y-40750000D01*
X47000000Y-44500000D02*
X45525000Y-44500000D01*
%TO.N,Net-(D73-Pad1)*%
X44525000Y-49000000D02*
X41775000Y-46250000D01*
X47000000Y-49000000D02*
X44525000Y-49000000D01*
%TO.N,Net-(Q1-Pad3)*%
X36250000Y-4000000D02*
X39725000Y-4000000D01*
%TO.N,Net-(Q1-Pad1)*%
X28174999Y-11025001D02*
X34250000Y-4950000D01*
X28174999Y-24514999D02*
X28174999Y-11025001D01*
X28250000Y-24590000D02*
X28174999Y-24514999D01*
X29150000Y-24590000D02*
X28250000Y-24590000D01*
%TO.N,Net-(Q2-Pad3)*%
X36250000Y-9250000D02*
X39700000Y-9250000D01*
%TO.N,Net-(Q2-Pad1)*%
X30050000Y-23330000D02*
X32000000Y-21380000D01*
X29150000Y-23330000D02*
X30050000Y-23330000D01*
X32000000Y-21380000D02*
X32000000Y-12000000D01*
X33800000Y-10200000D02*
X34250000Y-10200000D01*
X32000000Y-12000000D02*
X33800000Y-10200000D01*
%TO.N,Net-(Q3-Pad3)*%
X36250000Y-14500000D02*
X39725000Y-14500000D01*
%TO.N,Net-(Q3-Pad1)*%
X33950000Y-15450000D02*
X34250000Y-15450000D01*
X30050000Y-25860000D02*
X32500000Y-23410000D01*
X29150000Y-25860000D02*
X30050000Y-25860000D01*
X32500000Y-17200000D02*
X34250000Y-15450000D01*
X32500000Y-23410000D02*
X32500000Y-17200000D01*
%TO.N,Net-(Q4-Pad3)*%
X36250000Y-19750000D02*
X39725000Y-19750000D01*
%TO.N,Net-(Q4-Pad1)*%
X30395000Y-29670000D02*
X31000000Y-30275000D01*
X29150000Y-29670000D02*
X30395000Y-29670000D01*
X32950009Y-27049991D02*
X32000000Y-28000000D01*
X32950009Y-21999991D02*
X32950009Y-27049991D01*
X34250000Y-20700000D02*
X32950009Y-21999991D01*
%TO.N,Net-(Q5-Pad3)*%
X36250000Y-25000000D02*
X39750000Y-25000000D01*
%TO.N,Net-(Q5-Pad1)*%
X25055000Y-29670000D02*
X27500000Y-27225000D01*
X22850000Y-29670000D02*
X25055000Y-29670000D01*
X33640876Y-26559124D02*
X34250000Y-25950000D01*
X33640876Y-27269827D02*
X33640876Y-26559124D01*
%TO.N,Net-(Q6-Pad3)*%
X36250000Y-30250000D02*
X39750000Y-30250000D01*
%TO.N,Net-(Q6-Pad1)*%
X30304694Y-22050000D02*
X31177347Y-21177347D01*
X29150000Y-22050000D02*
X30304694Y-22050000D01*
X34250000Y-30735002D02*
X34250000Y-31200000D01*
X35273913Y-29711089D02*
X34250000Y-30735002D01*
X35273913Y-22501087D02*
X36500000Y-21275000D01*
X35273913Y-29711089D02*
X35273913Y-22501087D01*
%TO.N,Net-(Q7-Pad3)*%
X36250000Y-35500000D02*
X39725000Y-35500000D01*
%TO.N,Net-(Q7-Pad1)*%
X30050000Y-27140000D02*
X32000000Y-29090000D01*
X29150000Y-27140000D02*
X30050000Y-27140000D01*
X32000000Y-34200000D02*
X34250000Y-36450000D01*
X32000000Y-29090000D02*
X32000000Y-34200000D01*
%TO.N,Net-(Q8-Pad3)*%
X36250000Y-40750000D02*
X39725000Y-40750000D01*
%TO.N,Net-(Q8-Pad1)*%
X28174999Y-35624999D02*
X34250000Y-41700000D01*
X28174999Y-28485001D02*
X28174999Y-35624999D01*
X28250000Y-28410000D02*
X28174999Y-28485001D01*
X29150000Y-28410000D02*
X28250000Y-28410000D01*
%TO.N,Net-(Q9-Pad3)*%
X39725000Y-46250000D02*
X36250000Y-46250000D01*
%TO.N,Net-(Q9-Pad1)*%
X22850000Y-30950000D02*
X22850000Y-32650000D01*
X22050000Y-35000000D02*
X34250000Y-47200000D01*
X22050000Y-33450000D02*
X22850000Y-32650000D01*
X22050000Y-35000000D02*
X22050000Y-33450000D01*
%TO.N,Net-(R1-Pad2)*%
X10475000Y-37500000D02*
X10475000Y-34000000D01*
X6401768Y-22865000D02*
X6025000Y-22865000D01*
X6936810Y-34000000D02*
X10475000Y-34000000D01*
X5124990Y-32188180D02*
X6936810Y-34000000D01*
X5124990Y-31061800D02*
X5124990Y-32188180D01*
X5050000Y-22865000D02*
X6025000Y-22865000D01*
X4724990Y-23190010D02*
X5050000Y-22865000D01*
X4724990Y-30661800D02*
X4724990Y-23190010D01*
X5124990Y-31061800D02*
X4724990Y-30661800D01*
%TO.N,Net-(SW1-Pad3)*%
X6500000Y-47000000D02*
X12150000Y-47000000D01*
%TO.N,Net-(U1-Pad3)*%
X11430000Y-24590000D02*
X10975000Y-24135000D01*
X22850000Y-24590000D02*
X11430000Y-24590000D01*
%TO.N,Net-(U2-Pad11)*%
X23750000Y-28410000D02*
X22850000Y-28410000D01*
X23825001Y-28334999D02*
X23750000Y-28410000D01*
X23825001Y-23405001D02*
X23825001Y-28334999D01*
X23750000Y-23330000D02*
X23825001Y-23405001D01*
X22850000Y-23330000D02*
X23750000Y-23330000D01*
%TD*%
D17*
%TO.N,GND*%
G36*
X48331619Y-325213D02*
G01*
X48650605Y-421520D01*
X48944807Y-577952D01*
X49203025Y-788550D01*
X49415417Y-1045287D01*
X49573899Y-1338392D01*
X49672432Y-1656701D01*
X49708701Y-2001777D01*
X49708700Y-46985750D01*
X49655742Y-47525853D01*
X49503027Y-48031671D01*
X49254969Y-48498202D01*
X48921024Y-48907658D01*
X48513906Y-49244455D01*
X48049123Y-49495762D01*
X47544380Y-49652007D01*
X47005172Y-49708680D01*
X46999559Y-49708700D01*
X2014250Y-49708700D01*
X1668379Y-49674787D01*
X1349399Y-49578481D01*
X1055194Y-49422050D01*
X796977Y-49211453D01*
X584583Y-48954713D01*
X426101Y-48661608D01*
X327568Y-48343298D01*
X291300Y-47998233D01*
X291300Y-46150000D01*
X859703Y-46150000D01*
X859703Y-47850000D01*
X865281Y-47906634D01*
X881801Y-47961092D01*
X908627Y-48011280D01*
X944729Y-48055271D01*
X988720Y-48091373D01*
X1038908Y-48118199D01*
X1093366Y-48134719D01*
X1150000Y-48140297D01*
X2850000Y-48140297D01*
X2906634Y-48134719D01*
X2961092Y-48118199D01*
X3011280Y-48091373D01*
X3055271Y-48055271D01*
X3091373Y-48011280D01*
X3118199Y-47961092D01*
X3134719Y-47906634D01*
X3140297Y-47850000D01*
X3140297Y-47413900D01*
X3979683Y-47413900D01*
X4000000Y-47415901D01*
X4020317Y-47413900D01*
X4020328Y-47413900D01*
X4081138Y-47407911D01*
X4159159Y-47384243D01*
X4231063Y-47345810D01*
X4294087Y-47294087D01*
X4307049Y-47278293D01*
X5268705Y-46316638D01*
X5256801Y-46338908D01*
X5240281Y-46393366D01*
X5234703Y-46450000D01*
X5234703Y-47550000D01*
X5240281Y-47606634D01*
X5256801Y-47661092D01*
X5283627Y-47711280D01*
X5319729Y-47755271D01*
X5363720Y-47791373D01*
X5413908Y-47818199D01*
X5468366Y-47834719D01*
X5525000Y-47840297D01*
X7475000Y-47840297D01*
X7531634Y-47834719D01*
X7586092Y-47818199D01*
X7636280Y-47791373D01*
X7680271Y-47755271D01*
X7716373Y-47711280D01*
X7743199Y-47661092D01*
X7759719Y-47606634D01*
X7765297Y-47550000D01*
X7765297Y-47413900D01*
X10884703Y-47413900D01*
X10884703Y-47550000D01*
X10890281Y-47606634D01*
X10906801Y-47661092D01*
X10933627Y-47711280D01*
X10969729Y-47755271D01*
X11013720Y-47791373D01*
X11063908Y-47818199D01*
X11118366Y-47834719D01*
X11175000Y-47840297D01*
X13125000Y-47840297D01*
X13181634Y-47834719D01*
X13236092Y-47818199D01*
X13286280Y-47791373D01*
X13330271Y-47755271D01*
X13366373Y-47711280D01*
X13393199Y-47661092D01*
X13409719Y-47606634D01*
X13415297Y-47550000D01*
X13415297Y-46450000D01*
X13409719Y-46393366D01*
X13393199Y-46338908D01*
X13366373Y-46288720D01*
X13330271Y-46244729D01*
X13286280Y-46208627D01*
X13236092Y-46181801D01*
X13181634Y-46165281D01*
X13125000Y-46159703D01*
X11175000Y-46159703D01*
X11118366Y-46165281D01*
X11063908Y-46181801D01*
X11013720Y-46208627D01*
X10969729Y-46244729D01*
X10933627Y-46288720D01*
X10906801Y-46338908D01*
X10890281Y-46393366D01*
X10884703Y-46450000D01*
X10884703Y-46586100D01*
X7765297Y-46586100D01*
X7765297Y-46450000D01*
X7759719Y-46393366D01*
X7743199Y-46338908D01*
X7716373Y-46288720D01*
X7680271Y-46244729D01*
X7636280Y-46208627D01*
X7586092Y-46181801D01*
X7531634Y-46165281D01*
X7475000Y-46159703D01*
X5525000Y-46159703D01*
X5468366Y-46165281D01*
X5413908Y-46181801D01*
X5391638Y-46193705D01*
X6245046Y-45340297D01*
X7475000Y-45340297D01*
X7531634Y-45334719D01*
X7586092Y-45318199D01*
X7636280Y-45291373D01*
X7680271Y-45255271D01*
X7716373Y-45211280D01*
X7743199Y-45161092D01*
X7759719Y-45106634D01*
X7765297Y-45050000D01*
X7765297Y-44913900D01*
X10884703Y-44913900D01*
X10884703Y-45050000D01*
X10890281Y-45106634D01*
X10906801Y-45161092D01*
X10933627Y-45211280D01*
X10969729Y-45255271D01*
X11013720Y-45291373D01*
X11063908Y-45318199D01*
X11118366Y-45334719D01*
X11175000Y-45340297D01*
X13125000Y-45340297D01*
X13181634Y-45334719D01*
X13236092Y-45318199D01*
X13286280Y-45291373D01*
X13330271Y-45255271D01*
X13366373Y-45211280D01*
X13393199Y-45161092D01*
X13409719Y-45106634D01*
X13415297Y-45050000D01*
X13415297Y-43950000D01*
X13409719Y-43893366D01*
X13393199Y-43838908D01*
X13366373Y-43788720D01*
X13330271Y-43744729D01*
X13286280Y-43708627D01*
X13236092Y-43681801D01*
X13181634Y-43665281D01*
X13125000Y-43659703D01*
X11175000Y-43659703D01*
X11118366Y-43665281D01*
X11063908Y-43681801D01*
X11013720Y-43708627D01*
X10969729Y-43744729D01*
X10933627Y-43788720D01*
X10906801Y-43838908D01*
X10890281Y-43893366D01*
X10884703Y-43950000D01*
X10884703Y-44086100D01*
X7765297Y-44086100D01*
X7765297Y-43950000D01*
X7759719Y-43893366D01*
X7743199Y-43838908D01*
X7716373Y-43788720D01*
X7680271Y-43744729D01*
X7636280Y-43708627D01*
X7586092Y-43681801D01*
X7531634Y-43665281D01*
X7475000Y-43659703D01*
X5525000Y-43659703D01*
X5468366Y-43665281D01*
X5413908Y-43681801D01*
X5363720Y-43708627D01*
X5319729Y-43744729D01*
X5283627Y-43788720D01*
X5256801Y-43838908D01*
X5240281Y-43893366D01*
X5234703Y-43950000D01*
X5234703Y-45050000D01*
X5240281Y-45106634D01*
X5256048Y-45158609D01*
X3828558Y-46586100D01*
X3140297Y-46586100D01*
X3140297Y-46150000D01*
X3134719Y-46093366D01*
X3118199Y-46038908D01*
X3091373Y-45988720D01*
X3055271Y-45944729D01*
X3011280Y-45908627D01*
X2961092Y-45881801D01*
X2906634Y-45865281D01*
X2850000Y-45859703D01*
X1150000Y-45859703D01*
X1093366Y-45865281D01*
X1038908Y-45881801D01*
X988720Y-45908627D01*
X944729Y-45944729D01*
X908627Y-45988720D01*
X881801Y-46038908D01*
X865281Y-46093366D01*
X859703Y-46150000D01*
X291300Y-46150000D01*
X291300Y-44795838D01*
X934997Y-44795838D01*
X1009449Y-44975602D01*
X1129071Y-45158942D01*
X1282163Y-45315422D01*
X1462841Y-45439028D01*
X1664161Y-45525011D01*
X1834900Y-45497761D01*
X1834900Y-44625100D01*
X2165100Y-44625100D01*
X2165100Y-45497761D01*
X2335839Y-45525011D01*
X2537159Y-45439028D01*
X2717837Y-45315422D01*
X2870929Y-45158942D01*
X2990551Y-44975602D01*
X3065003Y-44795838D01*
X3036964Y-44625100D01*
X2165100Y-44625100D01*
X1834900Y-44625100D01*
X963036Y-44625100D01*
X934997Y-44795838D01*
X291300Y-44795838D01*
X291300Y-44124162D01*
X934997Y-44124162D01*
X963036Y-44294900D01*
X1834900Y-44294900D01*
X1834900Y-43422239D01*
X2165100Y-43422239D01*
X2165100Y-44294900D01*
X3036964Y-44294900D01*
X3065003Y-44124162D01*
X2990551Y-43944398D01*
X2870929Y-43761058D01*
X2717837Y-43604578D01*
X2537159Y-43480972D01*
X2335839Y-43394989D01*
X2165100Y-43422239D01*
X1834900Y-43422239D01*
X1664161Y-43394989D01*
X1462841Y-43480972D01*
X1282163Y-43604578D01*
X1129071Y-43761058D01*
X1009449Y-43944398D01*
X934997Y-44124162D01*
X291300Y-44124162D01*
X291300Y-36700000D01*
X3132010Y-36700000D01*
X3137159Y-36752282D01*
X3152410Y-36802555D01*
X3177174Y-36848887D01*
X3210502Y-36889498D01*
X3251113Y-36922826D01*
X3297445Y-36947590D01*
X3347718Y-36962841D01*
X3400000Y-36967990D01*
X3743225Y-36966700D01*
X3809900Y-36900025D01*
X3809900Y-36165100D01*
X4140100Y-36165100D01*
X4140100Y-36900025D01*
X4206775Y-36966700D01*
X4550000Y-36967990D01*
X4602282Y-36962841D01*
X4652555Y-36947590D01*
X4698887Y-36922826D01*
X4739498Y-36889498D01*
X4772826Y-36848887D01*
X4797590Y-36802555D01*
X4812841Y-36752282D01*
X4817990Y-36700000D01*
X4816700Y-36231775D01*
X4750025Y-36165100D01*
X4140100Y-36165100D01*
X3809900Y-36165100D01*
X3199975Y-36165100D01*
X3133300Y-36231775D01*
X3132010Y-36700000D01*
X291300Y-36700000D01*
X291300Y-35300000D01*
X3132010Y-35300000D01*
X3133300Y-35768225D01*
X3199975Y-35834900D01*
X3809900Y-35834900D01*
X3809900Y-35099975D01*
X4140100Y-35099975D01*
X4140100Y-35834900D01*
X4750025Y-35834900D01*
X4816700Y-35768225D01*
X4817990Y-35300000D01*
X4812841Y-35247718D01*
X4797590Y-35197445D01*
X4772826Y-35151113D01*
X4739498Y-35110502D01*
X4698887Y-35077174D01*
X4652555Y-35052410D01*
X4602282Y-35037159D01*
X4550000Y-35032010D01*
X4206775Y-35033300D01*
X4140100Y-35099975D01*
X3809900Y-35099975D01*
X3743225Y-35033300D01*
X3400000Y-35032010D01*
X3347718Y-35037159D01*
X3297445Y-35052410D01*
X3251113Y-35077174D01*
X3210502Y-35110502D01*
X3177174Y-35151113D01*
X3152410Y-35197445D01*
X3137159Y-35247718D01*
X3132010Y-35300000D01*
X291300Y-35300000D01*
X291300Y-32200000D01*
X3132010Y-32200000D01*
X3137159Y-32252282D01*
X3152410Y-32302555D01*
X3177174Y-32348887D01*
X3210502Y-32389498D01*
X3251113Y-32422826D01*
X3297445Y-32447590D01*
X3347718Y-32462841D01*
X3400000Y-32467990D01*
X3743225Y-32466700D01*
X3809900Y-32400025D01*
X3809900Y-31665100D01*
X3199975Y-31665100D01*
X3133300Y-31731775D01*
X3132010Y-32200000D01*
X291300Y-32200000D01*
X291300Y-30800000D01*
X3132010Y-30800000D01*
X3133300Y-31268225D01*
X3199975Y-31334900D01*
X3809900Y-31334900D01*
X3809900Y-30599975D01*
X3743225Y-30533300D01*
X3400000Y-30532010D01*
X3347718Y-30537159D01*
X3297445Y-30552410D01*
X3251113Y-30577174D01*
X3210502Y-30610502D01*
X3177174Y-30651113D01*
X3152410Y-30697445D01*
X3137159Y-30747718D01*
X3132010Y-30800000D01*
X291300Y-30800000D01*
X291300Y-17932149D01*
X3811100Y-17932149D01*
X3811100Y-18067851D01*
X3837574Y-18200945D01*
X3889505Y-18326316D01*
X3964897Y-18439148D01*
X4060852Y-18535103D01*
X4086100Y-18551973D01*
X4086101Y-20049673D01*
X4084099Y-20070000D01*
X4092090Y-20151138D01*
X4115757Y-20229158D01*
X4132826Y-20261092D01*
X4154191Y-20301063D01*
X4205914Y-20364087D01*
X4221702Y-20377044D01*
X4937907Y-21093249D01*
X4888663Y-21133663D01*
X4833906Y-21200384D01*
X4799132Y-21265444D01*
X4755913Y-21300913D01*
X4704190Y-21363937D01*
X4665757Y-21435841D01*
X4642089Y-21513862D01*
X4634098Y-21595000D01*
X4642089Y-21676138D01*
X4665757Y-21754159D01*
X4704190Y-21826063D01*
X4755913Y-21889087D01*
X4799132Y-21924556D01*
X4833906Y-21989616D01*
X4888663Y-22056337D01*
X4955384Y-22111094D01*
X5031506Y-22151781D01*
X5114102Y-22176837D01*
X5200000Y-22185297D01*
X6029955Y-22185297D01*
X6119360Y-22274703D01*
X5200000Y-22274703D01*
X5114102Y-22283163D01*
X5031506Y-22308219D01*
X4955384Y-22348906D01*
X4888663Y-22403663D01*
X4833906Y-22470384D01*
X4799132Y-22535443D01*
X4771702Y-22557955D01*
X4755913Y-22570913D01*
X4742956Y-22586702D01*
X4446692Y-22882966D01*
X4430904Y-22895923D01*
X4417947Y-22911711D01*
X4417945Y-22911713D01*
X4379181Y-22958947D01*
X4340747Y-23030852D01*
X4330634Y-23064191D01*
X4317080Y-23108872D01*
X4313690Y-23143298D01*
X4309089Y-23190010D01*
X4311091Y-23210338D01*
X4311090Y-30532908D01*
X4206775Y-30533300D01*
X4140100Y-30599975D01*
X4140100Y-31334900D01*
X4160100Y-31334900D01*
X4160100Y-31665100D01*
X4140100Y-31665100D01*
X4140100Y-32400025D01*
X4206775Y-32466700D01*
X4550000Y-32467990D01*
X4602282Y-32462841D01*
X4652555Y-32447590D01*
X4698887Y-32422826D01*
X4739498Y-32389498D01*
X4753901Y-32371948D01*
X4779181Y-32419243D01*
X4782122Y-32422826D01*
X4830904Y-32482267D01*
X4846692Y-32495224D01*
X6629766Y-34278299D01*
X6642723Y-34294087D01*
X6705747Y-34345810D01*
X6777651Y-34384243D01*
X6855672Y-34407911D01*
X6916482Y-34413900D01*
X6916492Y-34413900D01*
X6936809Y-34415901D01*
X6957127Y-34413900D01*
X9609703Y-34413900D01*
X9609703Y-34450001D01*
X9620085Y-34555408D01*
X9650831Y-34656763D01*
X9700759Y-34750173D01*
X9767952Y-34832048D01*
X9849827Y-34899241D01*
X9943237Y-34949169D01*
X10044592Y-34979915D01*
X10061101Y-34981541D01*
X10061100Y-36518459D01*
X10044592Y-36520085D01*
X9943237Y-36550831D01*
X9849827Y-36600759D01*
X9767952Y-36667952D01*
X9700759Y-36749827D01*
X9650831Y-36843237D01*
X9620085Y-36944592D01*
X9609703Y-37049999D01*
X9609703Y-37950001D01*
X9620085Y-38055408D01*
X9650831Y-38156763D01*
X9700759Y-38250173D01*
X9767952Y-38332048D01*
X9849827Y-38399241D01*
X9943237Y-38449169D01*
X10044592Y-38479915D01*
X10149999Y-38490297D01*
X10800001Y-38490297D01*
X10905408Y-38479915D01*
X11006763Y-38449169D01*
X11100173Y-38399241D01*
X11182048Y-38332048D01*
X11249241Y-38250173D01*
X11299169Y-38156763D01*
X11329915Y-38055408D01*
X11340297Y-37950001D01*
X11340297Y-37049999D01*
X11329915Y-36944592D01*
X11299169Y-36843237D01*
X11249241Y-36749827D01*
X11182048Y-36667952D01*
X11100173Y-36600759D01*
X11006763Y-36550831D01*
X10905408Y-36520085D01*
X10888900Y-36518459D01*
X10888900Y-34981541D01*
X10905408Y-34979915D01*
X11006763Y-34949169D01*
X11100173Y-34899241D01*
X11182048Y-34832048D01*
X11249241Y-34750173D01*
X11299169Y-34656763D01*
X11329915Y-34555408D01*
X11340297Y-34450001D01*
X11340297Y-33549999D01*
X11329915Y-33444592D01*
X11299169Y-33343237D01*
X11249241Y-33249827D01*
X11182048Y-33167952D01*
X11100173Y-33100759D01*
X11006763Y-33050831D01*
X10905408Y-33020085D01*
X10800001Y-33009703D01*
X10149999Y-33009703D01*
X10044592Y-33020085D01*
X9943237Y-33050831D01*
X9849827Y-33100759D01*
X9767952Y-33167952D01*
X9700759Y-33249827D01*
X9650831Y-33343237D01*
X9620085Y-33444592D01*
X9609703Y-33549999D01*
X9609703Y-33586100D01*
X7108253Y-33586100D01*
X6012449Y-32490297D01*
X6350001Y-32490297D01*
X6455408Y-32479915D01*
X6556763Y-32449169D01*
X6650173Y-32399241D01*
X6732048Y-32332048D01*
X6799241Y-32250173D01*
X6849169Y-32156763D01*
X6879915Y-32055408D01*
X6890297Y-31950001D01*
X6890297Y-31200000D01*
X9632010Y-31200000D01*
X9637159Y-31252282D01*
X9652410Y-31302555D01*
X9677174Y-31348887D01*
X9710502Y-31389498D01*
X9751113Y-31422826D01*
X9797445Y-31447590D01*
X9847718Y-31462841D01*
X9900000Y-31467990D01*
X10243225Y-31466700D01*
X10309900Y-31400025D01*
X10309900Y-30665100D01*
X10640100Y-30665100D01*
X10640100Y-31400025D01*
X10706775Y-31466700D01*
X11050000Y-31467990D01*
X11102282Y-31462841D01*
X11152555Y-31447590D01*
X11198887Y-31422826D01*
X11239498Y-31389498D01*
X11272826Y-31348887D01*
X11297590Y-31302555D01*
X11312841Y-31252282D01*
X11317990Y-31200000D01*
X11316700Y-30731775D01*
X11250025Y-30665100D01*
X10640100Y-30665100D01*
X10309900Y-30665100D01*
X9699975Y-30665100D01*
X9633300Y-30731775D01*
X9632010Y-31200000D01*
X6890297Y-31200000D01*
X6890297Y-31049999D01*
X6879915Y-30944592D01*
X6849169Y-30843237D01*
X6799241Y-30749827D01*
X6732048Y-30667952D01*
X6650173Y-30600759D01*
X6556763Y-30550831D01*
X6455408Y-30520085D01*
X6438900Y-30518459D01*
X6438900Y-29800000D01*
X9632010Y-29800000D01*
X9633300Y-30268225D01*
X9699975Y-30334900D01*
X10309900Y-30334900D01*
X10309900Y-29599975D01*
X10640100Y-29599975D01*
X10640100Y-30334900D01*
X11250025Y-30334900D01*
X11316700Y-30268225D01*
X11317990Y-29800000D01*
X11312841Y-29747718D01*
X11297590Y-29697445D01*
X11272826Y-29651113D01*
X11239498Y-29610502D01*
X11198887Y-29577174D01*
X11152555Y-29552410D01*
X11102282Y-29537159D01*
X11050000Y-29532010D01*
X10706775Y-29533300D01*
X10640100Y-29599975D01*
X10309900Y-29599975D01*
X10243225Y-29533300D01*
X9900000Y-29532010D01*
X9847718Y-29537159D01*
X9797445Y-29552410D01*
X9751113Y-29577174D01*
X9710502Y-29610502D01*
X9677174Y-29651113D01*
X9652410Y-29697445D01*
X9637159Y-29747718D01*
X9632010Y-29800000D01*
X6438900Y-29800000D01*
X6438900Y-25995297D01*
X6850000Y-25995297D01*
X6935898Y-25986837D01*
X7018494Y-25961781D01*
X7094616Y-25921094D01*
X7161337Y-25866337D01*
X7216094Y-25799616D01*
X7256781Y-25723494D01*
X7281837Y-25640898D01*
X7290297Y-25555000D01*
X7290297Y-25255000D01*
X7281837Y-25169102D01*
X7256781Y-25086506D01*
X7216094Y-25010384D01*
X7161337Y-24943663D01*
X7094616Y-24888906D01*
X7018494Y-24848219D01*
X6935898Y-24823163D01*
X6850000Y-24814703D01*
X5200000Y-24814703D01*
X5138890Y-24820722D01*
X5138890Y-24719278D01*
X5200000Y-24725297D01*
X6850000Y-24725297D01*
X6935898Y-24716837D01*
X7018494Y-24691781D01*
X7075806Y-24661148D01*
X11975154Y-29560497D01*
X11899827Y-29600759D01*
X11817952Y-29667952D01*
X11750759Y-29749827D01*
X11700831Y-29843237D01*
X11670085Y-29944592D01*
X11659703Y-30049999D01*
X11659703Y-30950001D01*
X11670085Y-31055408D01*
X11700831Y-31156763D01*
X11750759Y-31250173D01*
X11817952Y-31332048D01*
X11899827Y-31399241D01*
X11993237Y-31449169D01*
X12094592Y-31479915D01*
X12111101Y-31481541D01*
X12111100Y-33018459D01*
X12094592Y-33020085D01*
X11993237Y-33050831D01*
X11899827Y-33100759D01*
X11817952Y-33167952D01*
X11750759Y-33249827D01*
X11700831Y-33343237D01*
X11670085Y-33444592D01*
X11659703Y-33549999D01*
X11659703Y-34450001D01*
X11670085Y-34555408D01*
X11700831Y-34656763D01*
X11750759Y-34750173D01*
X11817952Y-34832048D01*
X11899827Y-34899241D01*
X11993237Y-34949169D01*
X12094592Y-34979915D01*
X12199999Y-34990297D01*
X12850001Y-34990297D01*
X12955408Y-34979915D01*
X13011111Y-34963018D01*
X13011111Y-36428546D01*
X12922785Y-36516872D01*
X12850001Y-36509703D01*
X12199999Y-36509703D01*
X12094592Y-36520085D01*
X11993237Y-36550831D01*
X11899827Y-36600759D01*
X11817952Y-36667952D01*
X11750759Y-36749827D01*
X11700831Y-36843237D01*
X11670085Y-36944592D01*
X11659703Y-37049999D01*
X11659703Y-37950001D01*
X11670085Y-38055408D01*
X11700831Y-38156763D01*
X11736101Y-38222749D01*
X11736100Y-41159703D01*
X11175000Y-41159703D01*
X11118366Y-41165281D01*
X11063908Y-41181801D01*
X11013720Y-41208627D01*
X10969729Y-41244729D01*
X10933627Y-41288720D01*
X10906801Y-41338908D01*
X10890281Y-41393366D01*
X10884703Y-41450000D01*
X10884703Y-41586100D01*
X7765297Y-41586100D01*
X7765297Y-41450000D01*
X7759719Y-41393366D01*
X7743199Y-41338908D01*
X7716373Y-41288720D01*
X7680271Y-41244729D01*
X7636280Y-41208627D01*
X7586092Y-41181801D01*
X7531634Y-41165281D01*
X7475000Y-41159703D01*
X6438900Y-41159703D01*
X6438900Y-36981541D01*
X6455408Y-36979915D01*
X6556763Y-36949169D01*
X6650173Y-36899241D01*
X6732048Y-36832048D01*
X6799241Y-36750173D01*
X6849169Y-36656763D01*
X6879915Y-36555408D01*
X6890297Y-36450001D01*
X6890297Y-35549999D01*
X6879915Y-35444592D01*
X6849169Y-35343237D01*
X6799241Y-35249827D01*
X6732048Y-35167952D01*
X6650173Y-35100759D01*
X6556763Y-35050831D01*
X6455408Y-35020085D01*
X6350001Y-35009703D01*
X5699999Y-35009703D01*
X5594592Y-35020085D01*
X5493237Y-35050831D01*
X5399827Y-35100759D01*
X5317952Y-35167952D01*
X5250759Y-35249827D01*
X5200831Y-35343237D01*
X5170085Y-35444592D01*
X5159703Y-35549999D01*
X5159703Y-36450001D01*
X5170085Y-36555408D01*
X5200831Y-36656763D01*
X5250759Y-36750173D01*
X5317952Y-36832048D01*
X5399827Y-36899241D01*
X5493237Y-36949169D01*
X5594592Y-36979915D01*
X5611100Y-36981541D01*
X5611100Y-37479673D01*
X5611101Y-41159703D01*
X5525000Y-41159703D01*
X5468366Y-41165281D01*
X5413908Y-41181801D01*
X5363720Y-41208627D01*
X5319729Y-41244729D01*
X5283627Y-41288720D01*
X5256801Y-41338908D01*
X5240281Y-41393366D01*
X5234703Y-41450000D01*
X5234703Y-42550000D01*
X5240281Y-42606634D01*
X5256801Y-42661092D01*
X5283627Y-42711280D01*
X5319729Y-42755271D01*
X5363720Y-42791373D01*
X5413908Y-42818199D01*
X5468366Y-42834719D01*
X5525000Y-42840297D01*
X7475000Y-42840297D01*
X7531634Y-42834719D01*
X7586092Y-42818199D01*
X7636280Y-42791373D01*
X7680271Y-42755271D01*
X7716373Y-42711280D01*
X7743199Y-42661092D01*
X7759719Y-42606634D01*
X7765297Y-42550000D01*
X7765297Y-42413900D01*
X10884703Y-42413900D01*
X10884703Y-42550000D01*
X10890281Y-42606634D01*
X10906801Y-42661092D01*
X10933627Y-42711280D01*
X10969729Y-42755271D01*
X11013720Y-42791373D01*
X11063908Y-42818199D01*
X11118366Y-42834719D01*
X11175000Y-42840297D01*
X13125000Y-42840297D01*
X13181634Y-42834719D01*
X13236092Y-42818199D01*
X13286280Y-42791373D01*
X13330271Y-42755271D01*
X13366373Y-42711280D01*
X13393199Y-42661092D01*
X13409719Y-42606634D01*
X13415297Y-42550000D01*
X13415297Y-41450000D01*
X13409719Y-41393366D01*
X13393199Y-41338908D01*
X13366373Y-41288720D01*
X13330271Y-41244729D01*
X13286280Y-41208627D01*
X13236092Y-41181801D01*
X13181634Y-41165281D01*
X13125000Y-41159703D01*
X12563900Y-41159703D01*
X12563900Y-38490297D01*
X12850001Y-38490297D01*
X12955408Y-38479915D01*
X13056763Y-38449169D01*
X13150173Y-38399241D01*
X13232048Y-38332048D01*
X13299241Y-38250173D01*
X13349169Y-38156763D01*
X13379915Y-38055408D01*
X13390297Y-37950001D01*
X13390297Y-37220046D01*
X13703309Y-36907034D01*
X13719097Y-36894077D01*
X13770820Y-36831053D01*
X13809253Y-36759149D01*
X13832921Y-36681128D01*
X13838910Y-36620318D01*
X13838910Y-36620308D01*
X13840911Y-36599991D01*
X13838910Y-36579673D01*
X13838910Y-27875327D01*
X13840911Y-27855009D01*
X13838910Y-27834692D01*
X13838910Y-27834682D01*
X13832921Y-27773872D01*
X13809253Y-27695851D01*
X13770820Y-27623947D01*
X13719097Y-27560923D01*
X13703310Y-27547967D01*
X12062093Y-25906751D01*
X12111337Y-25866337D01*
X12166094Y-25799616D01*
X12206781Y-25723494D01*
X12231837Y-25640898D01*
X12240297Y-25555000D01*
X12240297Y-25255000D01*
X12231837Y-25169102D01*
X12206781Y-25086506D01*
X12166094Y-25010384D01*
X12160773Y-25003900D01*
X21911072Y-25003900D01*
X21915281Y-25046634D01*
X21931801Y-25101092D01*
X21958627Y-25151280D01*
X21994729Y-25195271D01*
X22030954Y-25225000D01*
X21994729Y-25254729D01*
X21958627Y-25298720D01*
X21931801Y-25348908D01*
X21915281Y-25403366D01*
X21909703Y-25460000D01*
X21909703Y-26260000D01*
X21915281Y-26316634D01*
X21931801Y-26371092D01*
X21958627Y-26421280D01*
X21994729Y-26465271D01*
X22037047Y-26500000D01*
X21994729Y-26534729D01*
X21958627Y-26578720D01*
X21931801Y-26628908D01*
X21915281Y-26683366D01*
X21909703Y-26740000D01*
X21909703Y-27540000D01*
X21915281Y-27596634D01*
X21931801Y-27651092D01*
X21958627Y-27701280D01*
X21994729Y-27745271D01*
X22030954Y-27775000D01*
X21994729Y-27804729D01*
X21958627Y-27848720D01*
X21931801Y-27898908D01*
X21915281Y-27953366D01*
X21909703Y-28010000D01*
X21909703Y-28810000D01*
X21915281Y-28866634D01*
X21931801Y-28921092D01*
X21958627Y-28971280D01*
X21994729Y-29015271D01*
X22024862Y-29040000D01*
X21994729Y-29064729D01*
X21958627Y-29108720D01*
X21931801Y-29158908D01*
X21915281Y-29213366D01*
X21909703Y-29270000D01*
X21909703Y-30070000D01*
X21915281Y-30126634D01*
X21931801Y-30181092D01*
X21958627Y-30231280D01*
X21994729Y-30275271D01*
X22037047Y-30310000D01*
X21994729Y-30344729D01*
X21958627Y-30388720D01*
X21931801Y-30438908D01*
X21915281Y-30493366D01*
X21909703Y-30550000D01*
X21909703Y-31350000D01*
X21915281Y-31406634D01*
X21931801Y-31461092D01*
X21958627Y-31511280D01*
X21994729Y-31555271D01*
X22038720Y-31591373D01*
X22088908Y-31618199D01*
X22143366Y-31634719D01*
X22200000Y-31640297D01*
X22436100Y-31640297D01*
X22436101Y-32478556D01*
X21771702Y-33142956D01*
X21755914Y-33155913D01*
X21742957Y-33171701D01*
X21742955Y-33171703D01*
X21704191Y-33218937D01*
X21665757Y-33290842D01*
X21642090Y-33368862D01*
X21634099Y-33450000D01*
X21636101Y-33470327D01*
X21636100Y-34979682D01*
X21634099Y-35000000D01*
X21636100Y-35020317D01*
X21636100Y-35020327D01*
X21642089Y-35081137D01*
X21665757Y-35159158D01*
X21704190Y-35231062D01*
X21755913Y-35294087D01*
X21771707Y-35307049D01*
X33509703Y-47045046D01*
X33509703Y-47600000D01*
X33515281Y-47656634D01*
X33531801Y-47711092D01*
X33558627Y-47761280D01*
X33594729Y-47805271D01*
X33638720Y-47841373D01*
X33688908Y-47868199D01*
X33743366Y-47884719D01*
X33800000Y-47890297D01*
X34700000Y-47890297D01*
X34756634Y-47884719D01*
X34811092Y-47868199D01*
X34861280Y-47841373D01*
X34905271Y-47805271D01*
X34941373Y-47761280D01*
X34968199Y-47711092D01*
X34984719Y-47656634D01*
X34990297Y-47600000D01*
X34990297Y-46800000D01*
X34984719Y-46743366D01*
X34968199Y-46688908D01*
X34941373Y-46638720D01*
X34905271Y-46594729D01*
X34861280Y-46558627D01*
X34811092Y-46531801D01*
X34756634Y-46515281D01*
X34700000Y-46509703D01*
X34145046Y-46509703D01*
X33335343Y-45700000D01*
X33532010Y-45700000D01*
X33537159Y-45752282D01*
X33552410Y-45802555D01*
X33577174Y-45848887D01*
X33610502Y-45889498D01*
X33651113Y-45922826D01*
X33697445Y-45947590D01*
X33747718Y-45962841D01*
X33800000Y-45967990D01*
X34018225Y-45966700D01*
X34084900Y-45900025D01*
X34084900Y-45465100D01*
X34415100Y-45465100D01*
X34415100Y-45900025D01*
X34481775Y-45966700D01*
X34700000Y-45967990D01*
X34752282Y-45962841D01*
X34802555Y-45947590D01*
X34848887Y-45922826D01*
X34889498Y-45889498D01*
X34921912Y-45850000D01*
X35509703Y-45850000D01*
X35509703Y-46650000D01*
X35515281Y-46706634D01*
X35531801Y-46761092D01*
X35558627Y-46811280D01*
X35594729Y-46855271D01*
X35638720Y-46891373D01*
X35688908Y-46918199D01*
X35743366Y-46934719D01*
X35800000Y-46940297D01*
X36700000Y-46940297D01*
X36756634Y-46934719D01*
X36811092Y-46918199D01*
X36861280Y-46891373D01*
X36905271Y-46855271D01*
X36941373Y-46811280D01*
X36968199Y-46761092D01*
X36984719Y-46706634D01*
X36988928Y-46663900D01*
X38859703Y-46663900D01*
X38859703Y-46700001D01*
X38870085Y-46805408D01*
X38900831Y-46906763D01*
X38950759Y-47000173D01*
X39017952Y-47082048D01*
X39099827Y-47149241D01*
X39193237Y-47199169D01*
X39294592Y-47229915D01*
X39399999Y-47240297D01*
X40050001Y-47240297D01*
X40155408Y-47229915D01*
X40256763Y-47199169D01*
X40350173Y-47149241D01*
X40432048Y-47082048D01*
X40499241Y-47000173D01*
X40549169Y-46906763D01*
X40579915Y-46805408D01*
X40590297Y-46700001D01*
X40590297Y-45799999D01*
X40909703Y-45799999D01*
X40909703Y-46700001D01*
X40920085Y-46805408D01*
X40950831Y-46906763D01*
X41000759Y-47000173D01*
X41067952Y-47082048D01*
X41149827Y-47149241D01*
X41243237Y-47199169D01*
X41344592Y-47229915D01*
X41449999Y-47240297D01*
X42100001Y-47240297D01*
X42172786Y-47233128D01*
X44217956Y-49278299D01*
X44230913Y-49294087D01*
X44293937Y-49345810D01*
X44365841Y-49384243D01*
X44443862Y-49407911D01*
X44504672Y-49413900D01*
X44504682Y-49413900D01*
X44524999Y-49415901D01*
X44545317Y-49413900D01*
X46448027Y-49413900D01*
X46464897Y-49439148D01*
X46560852Y-49535103D01*
X46673684Y-49610495D01*
X46799055Y-49662426D01*
X46932149Y-49688900D01*
X47067851Y-49688900D01*
X47200945Y-49662426D01*
X47326316Y-49610495D01*
X47439148Y-49535103D01*
X47535103Y-49439148D01*
X47610495Y-49326316D01*
X47662426Y-49200945D01*
X47688900Y-49067851D01*
X47688900Y-48932149D01*
X47662426Y-48799055D01*
X47610495Y-48673684D01*
X47535103Y-48560852D01*
X47439148Y-48464897D01*
X47326316Y-48389505D01*
X47200945Y-48337574D01*
X47067851Y-48311100D01*
X46932149Y-48311100D01*
X46799055Y-48337574D01*
X46673684Y-48389505D01*
X46560852Y-48464897D01*
X46464897Y-48560852D01*
X46448027Y-48586100D01*
X44696443Y-48586100D01*
X42640297Y-46529955D01*
X42640297Y-45799999D01*
X42629915Y-45694592D01*
X42599169Y-45593237D01*
X42549241Y-45499827D01*
X42482048Y-45417952D01*
X42400173Y-45350759D01*
X42306763Y-45300831D01*
X42205408Y-45270085D01*
X42100001Y-45259703D01*
X41449999Y-45259703D01*
X41344592Y-45270085D01*
X41243237Y-45300831D01*
X41149827Y-45350759D01*
X41067952Y-45417952D01*
X41000759Y-45499827D01*
X40950831Y-45593237D01*
X40920085Y-45694592D01*
X40909703Y-45799999D01*
X40590297Y-45799999D01*
X40579915Y-45694592D01*
X40549169Y-45593237D01*
X40499241Y-45499827D01*
X40432048Y-45417952D01*
X40350173Y-45350759D01*
X40256763Y-45300831D01*
X40155408Y-45270085D01*
X40050001Y-45259703D01*
X39399999Y-45259703D01*
X39294592Y-45270085D01*
X39193237Y-45300831D01*
X39099827Y-45350759D01*
X39017952Y-45417952D01*
X38950759Y-45499827D01*
X38900831Y-45593237D01*
X38870085Y-45694592D01*
X38859703Y-45799999D01*
X38859703Y-45836100D01*
X36988928Y-45836100D01*
X36984719Y-45793366D01*
X36968199Y-45738908D01*
X36941373Y-45688720D01*
X36905271Y-45644729D01*
X36861280Y-45608627D01*
X36811092Y-45581801D01*
X36756634Y-45565281D01*
X36700000Y-45559703D01*
X35800000Y-45559703D01*
X35743366Y-45565281D01*
X35688908Y-45581801D01*
X35638720Y-45608627D01*
X35594729Y-45644729D01*
X35558627Y-45688720D01*
X35531801Y-45738908D01*
X35515281Y-45793366D01*
X35509703Y-45850000D01*
X34921912Y-45850000D01*
X34922826Y-45848887D01*
X34947590Y-45802555D01*
X34962841Y-45752282D01*
X34967990Y-45700000D01*
X34966700Y-45531775D01*
X34900025Y-45465100D01*
X34415100Y-45465100D01*
X34084900Y-45465100D01*
X33599975Y-45465100D01*
X33533300Y-45531775D01*
X33532010Y-45700000D01*
X33335343Y-45700000D01*
X32535343Y-44900000D01*
X33532010Y-44900000D01*
X33533300Y-45068225D01*
X33599975Y-45134900D01*
X34084900Y-45134900D01*
X34084900Y-44699975D01*
X34415100Y-44699975D01*
X34415100Y-45134900D01*
X34900025Y-45134900D01*
X34966700Y-45068225D01*
X34967990Y-44900000D01*
X34962841Y-44847718D01*
X34947590Y-44797445D01*
X34922826Y-44751113D01*
X34889498Y-44710502D01*
X34848887Y-44677174D01*
X34802555Y-44652410D01*
X34752282Y-44637159D01*
X34700000Y-44632010D01*
X34481775Y-44633300D01*
X34415100Y-44699975D01*
X34084900Y-44699975D01*
X34018225Y-44633300D01*
X33800000Y-44632010D01*
X33747718Y-44637159D01*
X33697445Y-44652410D01*
X33651113Y-44677174D01*
X33610502Y-44710502D01*
X33577174Y-44751113D01*
X33552410Y-44797445D01*
X33537159Y-44847718D01*
X33532010Y-44900000D01*
X32535343Y-44900000D01*
X22463900Y-34828558D01*
X22463900Y-33621442D01*
X23128299Y-32957044D01*
X23144087Y-32944087D01*
X23195810Y-32881063D01*
X23234243Y-32809159D01*
X23257911Y-32731138D01*
X23263900Y-32670328D01*
X23263900Y-32670318D01*
X23265901Y-32650000D01*
X23263900Y-32629683D01*
X23263900Y-31640297D01*
X23500000Y-31640297D01*
X23556634Y-31634719D01*
X23611092Y-31618199D01*
X23661280Y-31591373D01*
X23705271Y-31555271D01*
X23741373Y-31511280D01*
X23768199Y-31461092D01*
X23784719Y-31406634D01*
X23790297Y-31350000D01*
X23790297Y-30550000D01*
X23784719Y-30493366D01*
X23768199Y-30438908D01*
X23741373Y-30388720D01*
X23705271Y-30344729D01*
X23662953Y-30310000D01*
X23705271Y-30275271D01*
X23741373Y-30231280D01*
X23768199Y-30181092D01*
X23784719Y-30126634D01*
X23788928Y-30083900D01*
X25034683Y-30083900D01*
X25055000Y-30085901D01*
X25075317Y-30083900D01*
X25075328Y-30083900D01*
X25136138Y-30077911D01*
X25214159Y-30054243D01*
X25286063Y-30015810D01*
X25349087Y-29964087D01*
X25362049Y-29948293D01*
X27402367Y-27907976D01*
X27432149Y-27913900D01*
X27567851Y-27913900D01*
X27700945Y-27887426D01*
X27826316Y-27835495D01*
X27939148Y-27760103D01*
X28035103Y-27664148D01*
X28110495Y-27551316D01*
X28162426Y-27425945D01*
X28188900Y-27292851D01*
X28188900Y-27157149D01*
X28162426Y-27024055D01*
X28110495Y-26898684D01*
X28035103Y-26785852D01*
X27939148Y-26689897D01*
X27826316Y-26614505D01*
X27700945Y-26562574D01*
X27567851Y-26536100D01*
X27432149Y-26536100D01*
X27299055Y-26562574D01*
X27173684Y-26614505D01*
X27060852Y-26689897D01*
X26964897Y-26785852D01*
X26889505Y-26898684D01*
X26837574Y-27024055D01*
X26811100Y-27157149D01*
X26811100Y-27292851D01*
X26817024Y-27322633D01*
X24883558Y-29256100D01*
X23788928Y-29256100D01*
X23784719Y-29213366D01*
X23768199Y-29158908D01*
X23741373Y-29108720D01*
X23705271Y-29064729D01*
X23675138Y-29040000D01*
X23705271Y-29015271D01*
X23741373Y-28971280D01*
X23768199Y-28921092D01*
X23784719Y-28866634D01*
X23789110Y-28822050D01*
X23831138Y-28817911D01*
X23909159Y-28794243D01*
X23981063Y-28755810D01*
X24044087Y-28704087D01*
X24057049Y-28688293D01*
X24103294Y-28642048D01*
X24119088Y-28629086D01*
X24170811Y-28566062D01*
X24209244Y-28494158D01*
X24232912Y-28416137D01*
X24238901Y-28355327D01*
X24238901Y-28355317D01*
X24240902Y-28335000D01*
X24238901Y-28314682D01*
X24238901Y-23425318D01*
X24240902Y-23405000D01*
X24238901Y-23384683D01*
X24238901Y-23384673D01*
X24232912Y-23323863D01*
X24209244Y-23245842D01*
X24170811Y-23173938D01*
X24119088Y-23110914D01*
X24103296Y-23097954D01*
X24057049Y-23051707D01*
X24044087Y-23035913D01*
X23981063Y-22984190D01*
X23909159Y-22945757D01*
X23831138Y-22922089D01*
X23789110Y-22917950D01*
X23784719Y-22873366D01*
X23768199Y-22818908D01*
X23741373Y-22768720D01*
X23705271Y-22724729D01*
X23662953Y-22690000D01*
X23705271Y-22655271D01*
X23741373Y-22611280D01*
X23768199Y-22561092D01*
X23784719Y-22506634D01*
X23790297Y-22450000D01*
X23790297Y-21650000D01*
X23784719Y-21593366D01*
X23768199Y-21538908D01*
X23741373Y-21488720D01*
X23705271Y-21444729D01*
X23661280Y-21408627D01*
X23611092Y-21381801D01*
X23556634Y-21365281D01*
X23500000Y-21359703D01*
X22200000Y-21359703D01*
X22143366Y-21365281D01*
X22088908Y-21381801D01*
X22038720Y-21408627D01*
X21994729Y-21444729D01*
X21958627Y-21488720D01*
X21931801Y-21538908D01*
X21915281Y-21593366D01*
X21909703Y-21650000D01*
X21909703Y-21806110D01*
X12196035Y-21806110D01*
X12150025Y-21760100D01*
X11140100Y-21760100D01*
X11140100Y-21780100D01*
X10809900Y-21780100D01*
X10809900Y-21760100D01*
X9799975Y-21760100D01*
X9753965Y-21806110D01*
X7284278Y-21806110D01*
X7290297Y-21745000D01*
X7290297Y-21445000D01*
X7281837Y-21359102D01*
X7262392Y-21295000D01*
X9732010Y-21295000D01*
X9733300Y-21363225D01*
X9799975Y-21429900D01*
X10809900Y-21429900D01*
X10809900Y-21094975D01*
X11140100Y-21094975D01*
X11140100Y-21429900D01*
X12150025Y-21429900D01*
X12216700Y-21363225D01*
X12217990Y-21295000D01*
X12212841Y-21242718D01*
X12197590Y-21192445D01*
X12172826Y-21146113D01*
X12139498Y-21105502D01*
X12098887Y-21072174D01*
X12052555Y-21047410D01*
X12002282Y-21032159D01*
X11950000Y-21027010D01*
X11206775Y-21028300D01*
X11140100Y-21094975D01*
X10809900Y-21094975D01*
X10743225Y-21028300D01*
X10000000Y-21027010D01*
X9947718Y-21032159D01*
X9897445Y-21047410D01*
X9851113Y-21072174D01*
X9810502Y-21105502D01*
X9777174Y-21146113D01*
X9752410Y-21192445D01*
X9737159Y-21242718D01*
X9732010Y-21295000D01*
X7262392Y-21295000D01*
X7256781Y-21276506D01*
X7216094Y-21200384D01*
X7161337Y-21133663D01*
X7094616Y-21078906D01*
X7018494Y-21038219D01*
X6935898Y-21013163D01*
X6850000Y-21004703D01*
X6020046Y-21004703D01*
X4913900Y-19898558D01*
X4913900Y-18551973D01*
X4939148Y-18535103D01*
X5035103Y-18439148D01*
X5110495Y-18326316D01*
X5162426Y-18200945D01*
X5188900Y-18067851D01*
X5188900Y-17932149D01*
X5162426Y-17799055D01*
X5110495Y-17673684D01*
X5035103Y-17560852D01*
X4939148Y-17464897D01*
X4826316Y-17389505D01*
X4700945Y-17337574D01*
X4567851Y-17311100D01*
X4432149Y-17311100D01*
X4299055Y-17337574D01*
X4173684Y-17389505D01*
X4060852Y-17464897D01*
X3964897Y-17560852D01*
X3889505Y-17673684D01*
X3837574Y-17799055D01*
X3811100Y-17932149D01*
X291300Y-17932149D01*
X291300Y-11025001D01*
X27759098Y-11025001D01*
X27761100Y-11045329D01*
X27761099Y-24494681D01*
X27759098Y-24514999D01*
X27761099Y-24535316D01*
X27761099Y-24535326D01*
X27767088Y-24596136D01*
X27790756Y-24674157D01*
X27829189Y-24746061D01*
X27880912Y-24809086D01*
X27896706Y-24822048D01*
X27942951Y-24868293D01*
X27955913Y-24884087D01*
X28018937Y-24935810D01*
X28090841Y-24974243D01*
X28168862Y-24997911D01*
X28210890Y-25002050D01*
X28215281Y-25046634D01*
X28231801Y-25101092D01*
X28258627Y-25151280D01*
X28294729Y-25195271D01*
X28330954Y-25225000D01*
X28294729Y-25254729D01*
X28258627Y-25298720D01*
X28231801Y-25348908D01*
X28215281Y-25403366D01*
X28209703Y-25460000D01*
X28209703Y-26260000D01*
X28215281Y-26316634D01*
X28231801Y-26371092D01*
X28258627Y-26421280D01*
X28294729Y-26465271D01*
X28337047Y-26500000D01*
X28294729Y-26534729D01*
X28258627Y-26578720D01*
X28231801Y-26628908D01*
X28215281Y-26683366D01*
X28209703Y-26740000D01*
X28209703Y-27540000D01*
X28215281Y-27596634D01*
X28231801Y-27651092D01*
X28258627Y-27701280D01*
X28294729Y-27745271D01*
X28330954Y-27775000D01*
X28294729Y-27804729D01*
X28258627Y-27848720D01*
X28231801Y-27898908D01*
X28215281Y-27953366D01*
X28210890Y-27997950D01*
X28168862Y-28002089D01*
X28090841Y-28025757D01*
X28018937Y-28064190D01*
X27955913Y-28115913D01*
X27942951Y-28131707D01*
X27896706Y-28177952D01*
X27880912Y-28190914D01*
X27829189Y-28253939D01*
X27790756Y-28325843D01*
X27767088Y-28403864D01*
X27761099Y-28464674D01*
X27761099Y-28464684D01*
X27759098Y-28485001D01*
X27761099Y-28505319D01*
X27761100Y-35604671D01*
X27759098Y-35624999D01*
X27767089Y-35706137D01*
X27790756Y-35784157D01*
X27817879Y-35834900D01*
X27829190Y-35856062D01*
X27880913Y-35919086D01*
X27896701Y-35932043D01*
X33509703Y-41545046D01*
X33509703Y-42100000D01*
X33515281Y-42156634D01*
X33531801Y-42211092D01*
X33558627Y-42261280D01*
X33594729Y-42305271D01*
X33638720Y-42341373D01*
X33688908Y-42368199D01*
X33743366Y-42384719D01*
X33800000Y-42390297D01*
X34700000Y-42390297D01*
X34756634Y-42384719D01*
X34811092Y-42368199D01*
X34861280Y-42341373D01*
X34905271Y-42305271D01*
X34941373Y-42261280D01*
X34968199Y-42211092D01*
X34984719Y-42156634D01*
X34990297Y-42100000D01*
X34990297Y-41300000D01*
X34984719Y-41243366D01*
X34968199Y-41188908D01*
X34941373Y-41138720D01*
X34905271Y-41094729D01*
X34861280Y-41058627D01*
X34811092Y-41031801D01*
X34756634Y-41015281D01*
X34700000Y-41009703D01*
X34145046Y-41009703D01*
X33335343Y-40200000D01*
X33532010Y-40200000D01*
X33537159Y-40252282D01*
X33552410Y-40302555D01*
X33577174Y-40348887D01*
X33610502Y-40389498D01*
X33651113Y-40422826D01*
X33697445Y-40447590D01*
X33747718Y-40462841D01*
X33800000Y-40467990D01*
X34018225Y-40466700D01*
X34084900Y-40400025D01*
X34084900Y-39965100D01*
X34415100Y-39965100D01*
X34415100Y-40400025D01*
X34481775Y-40466700D01*
X34700000Y-40467990D01*
X34752282Y-40462841D01*
X34802555Y-40447590D01*
X34848887Y-40422826D01*
X34889498Y-40389498D01*
X34921912Y-40350000D01*
X35509703Y-40350000D01*
X35509703Y-41150000D01*
X35515281Y-41206634D01*
X35531801Y-41261092D01*
X35558627Y-41311280D01*
X35594729Y-41355271D01*
X35638720Y-41391373D01*
X35688908Y-41418199D01*
X35743366Y-41434719D01*
X35800000Y-41440297D01*
X36700000Y-41440297D01*
X36756634Y-41434719D01*
X36811092Y-41418199D01*
X36861280Y-41391373D01*
X36905271Y-41355271D01*
X36941373Y-41311280D01*
X36968199Y-41261092D01*
X36984719Y-41206634D01*
X36988928Y-41163900D01*
X38859703Y-41163900D01*
X38859703Y-41200001D01*
X38870085Y-41305408D01*
X38900831Y-41406763D01*
X38950759Y-41500173D01*
X39017952Y-41582048D01*
X39099827Y-41649241D01*
X39193237Y-41699169D01*
X39294592Y-41729915D01*
X39399999Y-41740297D01*
X40050001Y-41740297D01*
X40155408Y-41729915D01*
X40256763Y-41699169D01*
X40350173Y-41649241D01*
X40432048Y-41582048D01*
X40499241Y-41500173D01*
X40549169Y-41406763D01*
X40579915Y-41305408D01*
X40590297Y-41200001D01*
X40590297Y-40299999D01*
X40909703Y-40299999D01*
X40909703Y-41200001D01*
X40920085Y-41305408D01*
X40950831Y-41406763D01*
X41000759Y-41500173D01*
X41067952Y-41582048D01*
X41149827Y-41649241D01*
X41243237Y-41699169D01*
X41344592Y-41729915D01*
X41449999Y-41740297D01*
X42100001Y-41740297D01*
X42172786Y-41733128D01*
X45217955Y-44778298D01*
X45230913Y-44794087D01*
X45293937Y-44845810D01*
X45365841Y-44884243D01*
X45443862Y-44907911D01*
X45504672Y-44913900D01*
X45504682Y-44913900D01*
X45525000Y-44915901D01*
X45545317Y-44913900D01*
X46448027Y-44913900D01*
X46464897Y-44939148D01*
X46560852Y-45035103D01*
X46673684Y-45110495D01*
X46799055Y-45162426D01*
X46932149Y-45188900D01*
X47067851Y-45188900D01*
X47200945Y-45162426D01*
X47326316Y-45110495D01*
X47439148Y-45035103D01*
X47535103Y-44939148D01*
X47610495Y-44826316D01*
X47662426Y-44700945D01*
X47688900Y-44567851D01*
X47688900Y-44432149D01*
X47662426Y-44299055D01*
X47610495Y-44173684D01*
X47535103Y-44060852D01*
X47439148Y-43964897D01*
X47326316Y-43889505D01*
X47200945Y-43837574D01*
X47067851Y-43811100D01*
X46932149Y-43811100D01*
X46799055Y-43837574D01*
X46673684Y-43889505D01*
X46560852Y-43964897D01*
X46464897Y-44060852D01*
X46448027Y-44086100D01*
X45696443Y-44086100D01*
X42640297Y-41029955D01*
X42640297Y-40299999D01*
X42629915Y-40194592D01*
X42599169Y-40093237D01*
X42549241Y-39999827D01*
X42482048Y-39917952D01*
X42400173Y-39850759D01*
X42306763Y-39800831D01*
X42205408Y-39770085D01*
X42100001Y-39759703D01*
X41449999Y-39759703D01*
X41344592Y-39770085D01*
X41243237Y-39800831D01*
X41149827Y-39850759D01*
X41067952Y-39917952D01*
X41000759Y-39999827D01*
X40950831Y-40093237D01*
X40920085Y-40194592D01*
X40909703Y-40299999D01*
X40590297Y-40299999D01*
X40579915Y-40194592D01*
X40549169Y-40093237D01*
X40499241Y-39999827D01*
X40432048Y-39917952D01*
X40350173Y-39850759D01*
X40256763Y-39800831D01*
X40155408Y-39770085D01*
X40050001Y-39759703D01*
X39399999Y-39759703D01*
X39294592Y-39770085D01*
X39193237Y-39800831D01*
X39099827Y-39850759D01*
X39017952Y-39917952D01*
X38950759Y-39999827D01*
X38900831Y-40093237D01*
X38870085Y-40194592D01*
X38859703Y-40299999D01*
X38859703Y-40336100D01*
X36988928Y-40336100D01*
X36984719Y-40293366D01*
X36968199Y-40238908D01*
X36941373Y-40188720D01*
X36905271Y-40144729D01*
X36861280Y-40108627D01*
X36811092Y-40081801D01*
X36756634Y-40065281D01*
X36700000Y-40059703D01*
X35800000Y-40059703D01*
X35743366Y-40065281D01*
X35688908Y-40081801D01*
X35638720Y-40108627D01*
X35594729Y-40144729D01*
X35558627Y-40188720D01*
X35531801Y-40238908D01*
X35515281Y-40293366D01*
X35509703Y-40350000D01*
X34921912Y-40350000D01*
X34922826Y-40348887D01*
X34947590Y-40302555D01*
X34962841Y-40252282D01*
X34967990Y-40200000D01*
X34966700Y-40031775D01*
X34900025Y-39965100D01*
X34415100Y-39965100D01*
X34084900Y-39965100D01*
X33599975Y-39965100D01*
X33533300Y-40031775D01*
X33532010Y-40200000D01*
X33335343Y-40200000D01*
X32535343Y-39400000D01*
X33532010Y-39400000D01*
X33533300Y-39568225D01*
X33599975Y-39634900D01*
X34084900Y-39634900D01*
X34084900Y-39199975D01*
X34415100Y-39199975D01*
X34415100Y-39634900D01*
X34900025Y-39634900D01*
X34966700Y-39568225D01*
X34967990Y-39400000D01*
X34962841Y-39347718D01*
X34947590Y-39297445D01*
X34922826Y-39251113D01*
X34889498Y-39210502D01*
X34848887Y-39177174D01*
X34802555Y-39152410D01*
X34752282Y-39137159D01*
X34700000Y-39132010D01*
X34481775Y-39133300D01*
X34415100Y-39199975D01*
X34084900Y-39199975D01*
X34018225Y-39133300D01*
X33800000Y-39132010D01*
X33747718Y-39137159D01*
X33697445Y-39152410D01*
X33651113Y-39177174D01*
X33610502Y-39210502D01*
X33577174Y-39251113D01*
X33552410Y-39297445D01*
X33537159Y-39347718D01*
X33532010Y-39400000D01*
X32535343Y-39400000D01*
X28588899Y-35453557D01*
X28588899Y-31617716D01*
X28918225Y-31616700D01*
X28984900Y-31550025D01*
X28984900Y-31115100D01*
X29315100Y-31115100D01*
X29315100Y-31550025D01*
X29381775Y-31616700D01*
X29800000Y-31617990D01*
X29852282Y-31612841D01*
X29902555Y-31597590D01*
X29948887Y-31572826D01*
X29989498Y-31539498D01*
X30022826Y-31498887D01*
X30047590Y-31452555D01*
X30062841Y-31402282D01*
X30067990Y-31350000D01*
X30066700Y-31181775D01*
X30000025Y-31115100D01*
X29315100Y-31115100D01*
X28984900Y-31115100D01*
X28964900Y-31115100D01*
X28964900Y-30784900D01*
X28984900Y-30784900D01*
X28984900Y-30764900D01*
X29315100Y-30764900D01*
X29315100Y-30784900D01*
X30000025Y-30784900D01*
X30066700Y-30718225D01*
X30067990Y-30550000D01*
X30062841Y-30497718D01*
X30047590Y-30447445D01*
X30022826Y-30401113D01*
X29989498Y-30360502D01*
X29948887Y-30327174D01*
X29940303Y-30322586D01*
X29961280Y-30311373D01*
X30005271Y-30275271D01*
X30041373Y-30231280D01*
X30068199Y-30181092D01*
X30084719Y-30126634D01*
X30088928Y-30083900D01*
X30223558Y-30083900D01*
X30317024Y-30177366D01*
X30311100Y-30207149D01*
X30311100Y-30342851D01*
X30337574Y-30475945D01*
X30389505Y-30601316D01*
X30464897Y-30714148D01*
X30560852Y-30810103D01*
X30673684Y-30885495D01*
X30799055Y-30937426D01*
X30932149Y-30963900D01*
X31067851Y-30963900D01*
X31200945Y-30937426D01*
X31326316Y-30885495D01*
X31439148Y-30810103D01*
X31535103Y-30714148D01*
X31586100Y-30637825D01*
X31586101Y-34179672D01*
X31584099Y-34200000D01*
X31592090Y-34281138D01*
X31615757Y-34359158D01*
X31641816Y-34407911D01*
X31654191Y-34431063D01*
X31705914Y-34494087D01*
X31721702Y-34507044D01*
X33509703Y-36295046D01*
X33509703Y-36850000D01*
X33515281Y-36906634D01*
X33531801Y-36961092D01*
X33558627Y-37011280D01*
X33594729Y-37055271D01*
X33638720Y-37091373D01*
X33688908Y-37118199D01*
X33743366Y-37134719D01*
X33800000Y-37140297D01*
X34700000Y-37140297D01*
X34756634Y-37134719D01*
X34811092Y-37118199D01*
X34861280Y-37091373D01*
X34905271Y-37055271D01*
X34941373Y-37011280D01*
X34968199Y-36961092D01*
X34984719Y-36906634D01*
X34990297Y-36850000D01*
X34990297Y-36050000D01*
X34984719Y-35993366D01*
X34968199Y-35938908D01*
X34941373Y-35888720D01*
X34905271Y-35844729D01*
X34861280Y-35808627D01*
X34811092Y-35781801D01*
X34756634Y-35765281D01*
X34700000Y-35759703D01*
X34145046Y-35759703D01*
X33335343Y-34950000D01*
X33532010Y-34950000D01*
X33537159Y-35002282D01*
X33552410Y-35052555D01*
X33577174Y-35098887D01*
X33610502Y-35139498D01*
X33651113Y-35172826D01*
X33697445Y-35197590D01*
X33747718Y-35212841D01*
X33800000Y-35217990D01*
X34018225Y-35216700D01*
X34084900Y-35150025D01*
X34084900Y-34715100D01*
X34415100Y-34715100D01*
X34415100Y-35150025D01*
X34481775Y-35216700D01*
X34700000Y-35217990D01*
X34752282Y-35212841D01*
X34802555Y-35197590D01*
X34848887Y-35172826D01*
X34889498Y-35139498D01*
X34921912Y-35100000D01*
X35509703Y-35100000D01*
X35509703Y-35900000D01*
X35515281Y-35956634D01*
X35531801Y-36011092D01*
X35558627Y-36061280D01*
X35594729Y-36105271D01*
X35638720Y-36141373D01*
X35688908Y-36168199D01*
X35743366Y-36184719D01*
X35800000Y-36190297D01*
X36700000Y-36190297D01*
X36756634Y-36184719D01*
X36811092Y-36168199D01*
X36861280Y-36141373D01*
X36905271Y-36105271D01*
X36941373Y-36061280D01*
X36968199Y-36011092D01*
X36984719Y-35956634D01*
X36988928Y-35913900D01*
X38859703Y-35913900D01*
X38859703Y-35950001D01*
X38870085Y-36055408D01*
X38900831Y-36156763D01*
X38950759Y-36250173D01*
X39017952Y-36332048D01*
X39099827Y-36399241D01*
X39193237Y-36449169D01*
X39294592Y-36479915D01*
X39399999Y-36490297D01*
X40050001Y-36490297D01*
X40155408Y-36479915D01*
X40256763Y-36449169D01*
X40350173Y-36399241D01*
X40432048Y-36332048D01*
X40499241Y-36250173D01*
X40549169Y-36156763D01*
X40579915Y-36055408D01*
X40590297Y-35950001D01*
X40590297Y-35049999D01*
X40909703Y-35049999D01*
X40909703Y-35950001D01*
X40920085Y-36055408D01*
X40950831Y-36156763D01*
X41000759Y-36250173D01*
X41067952Y-36332048D01*
X41149827Y-36399241D01*
X41243237Y-36449169D01*
X41344592Y-36479915D01*
X41449999Y-36490297D01*
X42100001Y-36490297D01*
X42172786Y-36483128D01*
X45967956Y-40278299D01*
X45980913Y-40294087D01*
X46043937Y-40345810D01*
X46115841Y-40384243D01*
X46193862Y-40407911D01*
X46254672Y-40413900D01*
X46254682Y-40413900D01*
X46274999Y-40415901D01*
X46295317Y-40413900D01*
X46448027Y-40413900D01*
X46464897Y-40439148D01*
X46560852Y-40535103D01*
X46673684Y-40610495D01*
X46799055Y-40662426D01*
X46932149Y-40688900D01*
X47067851Y-40688900D01*
X47200945Y-40662426D01*
X47326316Y-40610495D01*
X47439148Y-40535103D01*
X47535103Y-40439148D01*
X47610495Y-40326316D01*
X47662426Y-40200945D01*
X47688900Y-40067851D01*
X47688900Y-39932149D01*
X47662426Y-39799055D01*
X47610495Y-39673684D01*
X47535103Y-39560852D01*
X47439148Y-39464897D01*
X47326316Y-39389505D01*
X47200945Y-39337574D01*
X47067851Y-39311100D01*
X46932149Y-39311100D01*
X46799055Y-39337574D01*
X46673684Y-39389505D01*
X46560852Y-39464897D01*
X46464897Y-39560852D01*
X46448027Y-39586100D01*
X46446443Y-39586100D01*
X42640297Y-35779955D01*
X42640297Y-35049999D01*
X42629915Y-34944592D01*
X42599169Y-34843237D01*
X42549241Y-34749827D01*
X42482048Y-34667952D01*
X42400173Y-34600759D01*
X42306763Y-34550831D01*
X42205408Y-34520085D01*
X42100001Y-34509703D01*
X41449999Y-34509703D01*
X41344592Y-34520085D01*
X41243237Y-34550831D01*
X41149827Y-34600759D01*
X41067952Y-34667952D01*
X41000759Y-34749827D01*
X40950831Y-34843237D01*
X40920085Y-34944592D01*
X40909703Y-35049999D01*
X40590297Y-35049999D01*
X40579915Y-34944592D01*
X40549169Y-34843237D01*
X40499241Y-34749827D01*
X40432048Y-34667952D01*
X40350173Y-34600759D01*
X40256763Y-34550831D01*
X40155408Y-34520085D01*
X40050001Y-34509703D01*
X39399999Y-34509703D01*
X39294592Y-34520085D01*
X39193237Y-34550831D01*
X39099827Y-34600759D01*
X39017952Y-34667952D01*
X38950759Y-34749827D01*
X38900831Y-34843237D01*
X38870085Y-34944592D01*
X38859703Y-35049999D01*
X38859703Y-35086100D01*
X36988928Y-35086100D01*
X36984719Y-35043366D01*
X36968199Y-34988908D01*
X36941373Y-34938720D01*
X36905271Y-34894729D01*
X36861280Y-34858627D01*
X36811092Y-34831801D01*
X36756634Y-34815281D01*
X36700000Y-34809703D01*
X35800000Y-34809703D01*
X35743366Y-34815281D01*
X35688908Y-34831801D01*
X35638720Y-34858627D01*
X35594729Y-34894729D01*
X35558627Y-34938720D01*
X35531801Y-34988908D01*
X35515281Y-35043366D01*
X35509703Y-35100000D01*
X34921912Y-35100000D01*
X34922826Y-35098887D01*
X34947590Y-35052555D01*
X34962841Y-35002282D01*
X34967990Y-34950000D01*
X34966700Y-34781775D01*
X34900025Y-34715100D01*
X34415100Y-34715100D01*
X34084900Y-34715100D01*
X33599975Y-34715100D01*
X33533300Y-34781775D01*
X33532010Y-34950000D01*
X33335343Y-34950000D01*
X32535343Y-34150000D01*
X33532010Y-34150000D01*
X33533300Y-34318225D01*
X33599975Y-34384900D01*
X34084900Y-34384900D01*
X34084900Y-33949975D01*
X34415100Y-33949975D01*
X34415100Y-34384900D01*
X34900025Y-34384900D01*
X34966700Y-34318225D01*
X34967990Y-34150000D01*
X34962841Y-34097718D01*
X34947590Y-34047445D01*
X34922826Y-34001113D01*
X34889498Y-33960502D01*
X34848887Y-33927174D01*
X34802555Y-33902410D01*
X34752282Y-33887159D01*
X34700000Y-33882010D01*
X34481775Y-33883300D01*
X34415100Y-33949975D01*
X34084900Y-33949975D01*
X34018225Y-33883300D01*
X33800000Y-33882010D01*
X33747718Y-33887159D01*
X33697445Y-33902410D01*
X33651113Y-33927174D01*
X33610502Y-33960502D01*
X33577174Y-34001113D01*
X33552410Y-34047445D01*
X33537159Y-34097718D01*
X33532010Y-34150000D01*
X32535343Y-34150000D01*
X32413900Y-34028558D01*
X32413900Y-29700000D01*
X33532010Y-29700000D01*
X33537159Y-29752282D01*
X33552410Y-29802555D01*
X33577174Y-29848887D01*
X33610502Y-29889498D01*
X33651113Y-29922826D01*
X33697445Y-29947590D01*
X33747718Y-29962841D01*
X33800000Y-29967990D01*
X34018225Y-29966700D01*
X34084900Y-29900025D01*
X34084900Y-29465100D01*
X33599975Y-29465100D01*
X33533300Y-29531775D01*
X33532010Y-29700000D01*
X32413900Y-29700000D01*
X32413900Y-29110317D01*
X32415901Y-29089999D01*
X32413900Y-29069682D01*
X32413900Y-29069672D01*
X32407911Y-29008862D01*
X32384243Y-28930841D01*
X32367759Y-28900000D01*
X33532010Y-28900000D01*
X33533300Y-29068225D01*
X33599975Y-29134900D01*
X34084900Y-29134900D01*
X34084900Y-28699975D01*
X34018225Y-28633300D01*
X33800000Y-28632010D01*
X33747718Y-28637159D01*
X33697445Y-28652410D01*
X33651113Y-28677174D01*
X33610502Y-28710502D01*
X33577174Y-28751113D01*
X33552410Y-28797445D01*
X33537159Y-28847718D01*
X33532010Y-28900000D01*
X32367759Y-28900000D01*
X32345810Y-28858937D01*
X32317056Y-28823900D01*
X32307045Y-28811702D01*
X32307044Y-28811701D01*
X32294087Y-28795913D01*
X32278300Y-28782957D01*
X32164932Y-28669589D01*
X32200945Y-28662426D01*
X32326316Y-28610495D01*
X32439148Y-28535103D01*
X32535103Y-28439148D01*
X32610495Y-28326316D01*
X32662426Y-28200945D01*
X32688900Y-28067851D01*
X32688900Y-27932149D01*
X32682976Y-27902367D01*
X33018319Y-27567024D01*
X33030381Y-27596143D01*
X33105773Y-27708975D01*
X33201728Y-27804930D01*
X33314560Y-27880322D01*
X33439931Y-27932253D01*
X33573025Y-27958727D01*
X33708727Y-27958727D01*
X33841821Y-27932253D01*
X33967192Y-27880322D01*
X34080024Y-27804930D01*
X34175979Y-27708975D01*
X34251371Y-27596143D01*
X34303302Y-27470772D01*
X34329776Y-27337678D01*
X34329776Y-27201976D01*
X34303302Y-27068882D01*
X34251371Y-26943511D01*
X34175979Y-26830679D01*
X34080024Y-26734724D01*
X34062397Y-26722946D01*
X34145045Y-26640297D01*
X34700000Y-26640297D01*
X34756634Y-26634719D01*
X34811092Y-26618199D01*
X34860013Y-26592050D01*
X34860013Y-28686305D01*
X34848887Y-28677174D01*
X34802555Y-28652410D01*
X34752282Y-28637159D01*
X34700000Y-28632010D01*
X34481775Y-28633300D01*
X34415100Y-28699975D01*
X34415100Y-29134900D01*
X34435100Y-29134900D01*
X34435100Y-29465100D01*
X34415100Y-29465100D01*
X34415100Y-29900025D01*
X34457367Y-29942292D01*
X33971706Y-30427953D01*
X33955913Y-30440915D01*
X33904190Y-30503940D01*
X33901110Y-30509703D01*
X33800000Y-30509703D01*
X33743366Y-30515281D01*
X33688908Y-30531801D01*
X33638720Y-30558627D01*
X33594729Y-30594729D01*
X33558627Y-30638720D01*
X33531801Y-30688908D01*
X33515281Y-30743366D01*
X33509703Y-30800000D01*
X33509703Y-31600000D01*
X33515281Y-31656634D01*
X33531801Y-31711092D01*
X33558627Y-31761280D01*
X33594729Y-31805271D01*
X33638720Y-31841373D01*
X33688908Y-31868199D01*
X33743366Y-31884719D01*
X33800000Y-31890297D01*
X34700000Y-31890297D01*
X34756634Y-31884719D01*
X34811092Y-31868199D01*
X34861280Y-31841373D01*
X34905271Y-31805271D01*
X34941373Y-31761280D01*
X34968199Y-31711092D01*
X34984719Y-31656634D01*
X34990297Y-31600000D01*
X34990297Y-30800000D01*
X34984719Y-30743366D01*
X34968199Y-30688908D01*
X34941373Y-30638720D01*
X34936979Y-30633366D01*
X35509703Y-30060642D01*
X35509703Y-30650000D01*
X35515281Y-30706634D01*
X35531801Y-30761092D01*
X35558627Y-30811280D01*
X35594729Y-30855271D01*
X35638720Y-30891373D01*
X35688908Y-30918199D01*
X35743366Y-30934719D01*
X35800000Y-30940297D01*
X36700000Y-30940297D01*
X36756634Y-30934719D01*
X36811092Y-30918199D01*
X36861280Y-30891373D01*
X36905271Y-30855271D01*
X36941373Y-30811280D01*
X36968199Y-30761092D01*
X36984719Y-30706634D01*
X36988928Y-30663900D01*
X38884703Y-30663900D01*
X38884703Y-30700001D01*
X38895085Y-30805408D01*
X38925831Y-30906763D01*
X38975759Y-31000173D01*
X39042952Y-31082048D01*
X39124827Y-31149241D01*
X39218237Y-31199169D01*
X39319592Y-31229915D01*
X39424999Y-31240297D01*
X40075001Y-31240297D01*
X40180408Y-31229915D01*
X40281763Y-31199169D01*
X40375173Y-31149241D01*
X40457048Y-31082048D01*
X40524241Y-31000173D01*
X40574169Y-30906763D01*
X40604915Y-30805408D01*
X40615297Y-30700001D01*
X40615297Y-29799999D01*
X40934703Y-29799999D01*
X40934703Y-30700001D01*
X40945085Y-30805408D01*
X40975831Y-30906763D01*
X41025759Y-31000173D01*
X41092952Y-31082048D01*
X41174827Y-31149241D01*
X41268237Y-31199169D01*
X41369592Y-31229915D01*
X41474999Y-31240297D01*
X42125001Y-31240297D01*
X42152269Y-31237611D01*
X46317024Y-35402367D01*
X46311100Y-35432149D01*
X46311100Y-35567851D01*
X46337574Y-35700945D01*
X46389505Y-35826316D01*
X46464897Y-35939148D01*
X46560852Y-36035103D01*
X46673684Y-36110495D01*
X46799055Y-36162426D01*
X46932149Y-36188900D01*
X47067851Y-36188900D01*
X47200945Y-36162426D01*
X47326316Y-36110495D01*
X47439148Y-36035103D01*
X47535103Y-35939148D01*
X47610495Y-35826316D01*
X47662426Y-35700945D01*
X47688900Y-35567851D01*
X47688900Y-35432149D01*
X47662426Y-35299055D01*
X47610495Y-35173684D01*
X47535103Y-35060852D01*
X47439148Y-34964897D01*
X47326316Y-34889505D01*
X47200945Y-34837574D01*
X47067851Y-34811100D01*
X46932149Y-34811100D01*
X46902367Y-34817024D01*
X42665297Y-30579955D01*
X42665297Y-29799999D01*
X42654915Y-29694592D01*
X42624169Y-29593237D01*
X42574241Y-29499827D01*
X42507048Y-29417952D01*
X42425173Y-29350759D01*
X42331763Y-29300831D01*
X42230408Y-29270085D01*
X42125001Y-29259703D01*
X41474999Y-29259703D01*
X41369592Y-29270085D01*
X41268237Y-29300831D01*
X41174827Y-29350759D01*
X41092952Y-29417952D01*
X41025759Y-29499827D01*
X40975831Y-29593237D01*
X40945085Y-29694592D01*
X40934703Y-29799999D01*
X40615297Y-29799999D01*
X40604915Y-29694592D01*
X40574169Y-29593237D01*
X40524241Y-29499827D01*
X40457048Y-29417952D01*
X40375173Y-29350759D01*
X40281763Y-29300831D01*
X40180408Y-29270085D01*
X40075001Y-29259703D01*
X39424999Y-29259703D01*
X39319592Y-29270085D01*
X39218237Y-29300831D01*
X39124827Y-29350759D01*
X39042952Y-29417952D01*
X38975759Y-29499827D01*
X38925831Y-29593237D01*
X38895085Y-29694592D01*
X38884703Y-29799999D01*
X38884703Y-29836100D01*
X36988928Y-29836100D01*
X36984719Y-29793366D01*
X36968199Y-29738908D01*
X36941373Y-29688720D01*
X36905271Y-29644729D01*
X36861280Y-29608627D01*
X36811092Y-29581801D01*
X36756634Y-29565281D01*
X36700000Y-29559703D01*
X35800000Y-29559703D01*
X35743366Y-29565281D01*
X35688908Y-29581801D01*
X35687813Y-29582386D01*
X35687813Y-25667614D01*
X35688908Y-25668199D01*
X35743366Y-25684719D01*
X35800000Y-25690297D01*
X36700000Y-25690297D01*
X36756634Y-25684719D01*
X36811092Y-25668199D01*
X36861280Y-25641373D01*
X36905271Y-25605271D01*
X36941373Y-25561280D01*
X36968199Y-25511092D01*
X36984719Y-25456634D01*
X36988928Y-25413900D01*
X38884703Y-25413900D01*
X38884703Y-25450001D01*
X38895085Y-25555408D01*
X38925831Y-25656763D01*
X38975759Y-25750173D01*
X39042952Y-25832048D01*
X39124827Y-25899241D01*
X39218237Y-25949169D01*
X39319592Y-25979915D01*
X39424999Y-25990297D01*
X40075001Y-25990297D01*
X40180408Y-25979915D01*
X40281763Y-25949169D01*
X40375173Y-25899241D01*
X40457048Y-25832048D01*
X40524241Y-25750173D01*
X40574169Y-25656763D01*
X40604915Y-25555408D01*
X40615297Y-25450001D01*
X40615297Y-24549999D01*
X40934703Y-24549999D01*
X40934703Y-25450001D01*
X40945085Y-25555408D01*
X40975831Y-25656763D01*
X41025759Y-25750173D01*
X41092952Y-25832048D01*
X41174827Y-25899241D01*
X41268237Y-25949169D01*
X41369592Y-25979915D01*
X41474999Y-25990297D01*
X42125001Y-25990297D01*
X42197786Y-25983128D01*
X46586101Y-30371444D01*
X46586101Y-30448026D01*
X46560852Y-30464897D01*
X46464897Y-30560852D01*
X46389505Y-30673684D01*
X46337574Y-30799055D01*
X46311100Y-30932149D01*
X46311100Y-31067851D01*
X46337574Y-31200945D01*
X46389505Y-31326316D01*
X46464897Y-31439148D01*
X46560852Y-31535103D01*
X46673684Y-31610495D01*
X46799055Y-31662426D01*
X46932149Y-31688900D01*
X47067851Y-31688900D01*
X47200945Y-31662426D01*
X47326316Y-31610495D01*
X47439148Y-31535103D01*
X47535103Y-31439148D01*
X47610495Y-31326316D01*
X47662426Y-31200945D01*
X47688900Y-31067851D01*
X47688900Y-30932149D01*
X47662426Y-30799055D01*
X47610495Y-30673684D01*
X47535103Y-30560852D01*
X47439148Y-30464897D01*
X47413900Y-30448027D01*
X47413900Y-30220328D01*
X47415902Y-30200000D01*
X47407911Y-30118861D01*
X47384243Y-30040841D01*
X47345810Y-29968936D01*
X47307045Y-29921702D01*
X47307044Y-29921701D01*
X47294087Y-29905913D01*
X47278299Y-29892956D01*
X42665297Y-25279955D01*
X42665297Y-24549999D01*
X42654915Y-24444592D01*
X42624169Y-24343237D01*
X42574241Y-24249827D01*
X42507048Y-24167952D01*
X42425173Y-24100759D01*
X42331763Y-24050831D01*
X42230408Y-24020085D01*
X42125001Y-24009703D01*
X41474999Y-24009703D01*
X41369592Y-24020085D01*
X41268237Y-24050831D01*
X41174827Y-24100759D01*
X41092952Y-24167952D01*
X41025759Y-24249827D01*
X40975831Y-24343237D01*
X40945085Y-24444592D01*
X40934703Y-24549999D01*
X40615297Y-24549999D01*
X40604915Y-24444592D01*
X40574169Y-24343237D01*
X40524241Y-24249827D01*
X40457048Y-24167952D01*
X40375173Y-24100759D01*
X40281763Y-24050831D01*
X40180408Y-24020085D01*
X40075001Y-24009703D01*
X39424999Y-24009703D01*
X39319592Y-24020085D01*
X39218237Y-24050831D01*
X39124827Y-24100759D01*
X39042952Y-24167952D01*
X38975759Y-24249827D01*
X38925831Y-24343237D01*
X38895085Y-24444592D01*
X38884703Y-24549999D01*
X38884703Y-24586100D01*
X36988928Y-24586100D01*
X36984719Y-24543366D01*
X36968199Y-24488908D01*
X36941373Y-24438720D01*
X36905271Y-24394729D01*
X36861280Y-24358627D01*
X36811092Y-24331801D01*
X36756634Y-24315281D01*
X36700000Y-24309703D01*
X35800000Y-24309703D01*
X35743366Y-24315281D01*
X35688908Y-24331801D01*
X35687813Y-24332386D01*
X35687813Y-22672529D01*
X36402367Y-21957976D01*
X36432149Y-21963900D01*
X36567851Y-21963900D01*
X36700945Y-21937426D01*
X36826316Y-21885495D01*
X36939148Y-21810103D01*
X37035103Y-21714148D01*
X37110495Y-21601316D01*
X37162426Y-21475945D01*
X37188900Y-21342851D01*
X37188900Y-21207149D01*
X37162426Y-21074055D01*
X37110495Y-20948684D01*
X37035103Y-20835852D01*
X36939148Y-20739897D01*
X36826316Y-20664505D01*
X36700945Y-20612574D01*
X36567851Y-20586100D01*
X36432149Y-20586100D01*
X36299055Y-20612574D01*
X36173684Y-20664505D01*
X36060852Y-20739897D01*
X35964897Y-20835852D01*
X35889505Y-20948684D01*
X35837574Y-21074055D01*
X35811100Y-21207149D01*
X35811100Y-21342851D01*
X35817024Y-21372633D01*
X34995615Y-22194043D01*
X34979827Y-22207000D01*
X34966870Y-22222788D01*
X34966868Y-22222790D01*
X34928104Y-22270024D01*
X34889670Y-22341929D01*
X34866003Y-22419949D01*
X34858012Y-22501087D01*
X34860014Y-22521415D01*
X34860014Y-23436305D01*
X34848887Y-23427174D01*
X34802555Y-23402410D01*
X34752282Y-23387159D01*
X34700000Y-23382010D01*
X34481775Y-23383300D01*
X34415100Y-23449975D01*
X34415100Y-23884900D01*
X34435100Y-23884900D01*
X34435100Y-24215100D01*
X34415100Y-24215100D01*
X34415100Y-24650025D01*
X34481775Y-24716700D01*
X34700000Y-24717990D01*
X34752282Y-24712841D01*
X34802555Y-24697590D01*
X34848887Y-24672826D01*
X34860014Y-24663695D01*
X34860014Y-25307950D01*
X34811092Y-25281801D01*
X34756634Y-25265281D01*
X34700000Y-25259703D01*
X33800000Y-25259703D01*
X33743366Y-25265281D01*
X33688908Y-25281801D01*
X33638720Y-25308627D01*
X33594729Y-25344729D01*
X33558627Y-25388720D01*
X33531801Y-25438908D01*
X33515281Y-25493366D01*
X33509703Y-25550000D01*
X33509703Y-26104955D01*
X33363909Y-26250749D01*
X33363909Y-24450000D01*
X33532010Y-24450000D01*
X33537159Y-24502282D01*
X33552410Y-24552555D01*
X33577174Y-24598887D01*
X33610502Y-24639498D01*
X33651113Y-24672826D01*
X33697445Y-24697590D01*
X33747718Y-24712841D01*
X33800000Y-24717990D01*
X34018225Y-24716700D01*
X34084900Y-24650025D01*
X34084900Y-24215100D01*
X33599975Y-24215100D01*
X33533300Y-24281775D01*
X33532010Y-24450000D01*
X33363909Y-24450000D01*
X33363909Y-23650000D01*
X33532010Y-23650000D01*
X33533300Y-23818225D01*
X33599975Y-23884900D01*
X34084900Y-23884900D01*
X34084900Y-23449975D01*
X34018225Y-23383300D01*
X33800000Y-23382010D01*
X33747718Y-23387159D01*
X33697445Y-23402410D01*
X33651113Y-23427174D01*
X33610502Y-23460502D01*
X33577174Y-23501113D01*
X33552410Y-23547445D01*
X33537159Y-23597718D01*
X33532010Y-23650000D01*
X33363909Y-23650000D01*
X33363909Y-22171433D01*
X34145046Y-21390297D01*
X34700000Y-21390297D01*
X34756634Y-21384719D01*
X34811092Y-21368199D01*
X34861280Y-21341373D01*
X34905271Y-21305271D01*
X34941373Y-21261280D01*
X34968199Y-21211092D01*
X34984719Y-21156634D01*
X34990297Y-21100000D01*
X34990297Y-20300000D01*
X34984719Y-20243366D01*
X34968199Y-20188908D01*
X34941373Y-20138720D01*
X34905271Y-20094729D01*
X34861280Y-20058627D01*
X34811092Y-20031801D01*
X34756634Y-20015281D01*
X34700000Y-20009703D01*
X33800000Y-20009703D01*
X33743366Y-20015281D01*
X33688908Y-20031801D01*
X33638720Y-20058627D01*
X33594729Y-20094729D01*
X33558627Y-20138720D01*
X33531801Y-20188908D01*
X33515281Y-20243366D01*
X33509703Y-20300000D01*
X33509703Y-20854954D01*
X32913900Y-21450758D01*
X32913900Y-19200000D01*
X33532010Y-19200000D01*
X33537159Y-19252282D01*
X33552410Y-19302555D01*
X33577174Y-19348887D01*
X33610502Y-19389498D01*
X33651113Y-19422826D01*
X33697445Y-19447590D01*
X33747718Y-19462841D01*
X33800000Y-19467990D01*
X34018225Y-19466700D01*
X34084900Y-19400025D01*
X34084900Y-18965100D01*
X34415100Y-18965100D01*
X34415100Y-19400025D01*
X34481775Y-19466700D01*
X34700000Y-19467990D01*
X34752282Y-19462841D01*
X34802555Y-19447590D01*
X34848887Y-19422826D01*
X34889498Y-19389498D01*
X34921912Y-19350000D01*
X35509703Y-19350000D01*
X35509703Y-20150000D01*
X35515281Y-20206634D01*
X35531801Y-20261092D01*
X35558627Y-20311280D01*
X35594729Y-20355271D01*
X35638720Y-20391373D01*
X35688908Y-20418199D01*
X35743366Y-20434719D01*
X35800000Y-20440297D01*
X36700000Y-20440297D01*
X36756634Y-20434719D01*
X36811092Y-20418199D01*
X36861280Y-20391373D01*
X36905271Y-20355271D01*
X36941373Y-20311280D01*
X36968199Y-20261092D01*
X36984719Y-20206634D01*
X36988928Y-20163900D01*
X38859703Y-20163900D01*
X38859703Y-20200001D01*
X38870085Y-20305408D01*
X38900831Y-20406763D01*
X38950759Y-20500173D01*
X39017952Y-20582048D01*
X39099827Y-20649241D01*
X39193237Y-20699169D01*
X39294592Y-20729915D01*
X39399999Y-20740297D01*
X40050001Y-20740297D01*
X40155408Y-20729915D01*
X40256763Y-20699169D01*
X40350173Y-20649241D01*
X40432048Y-20582048D01*
X40499241Y-20500173D01*
X40549169Y-20406763D01*
X40579915Y-20305408D01*
X40590297Y-20200001D01*
X40590297Y-19299999D01*
X40909703Y-19299999D01*
X40909703Y-20200001D01*
X40920085Y-20305408D01*
X40950831Y-20406763D01*
X41000759Y-20500173D01*
X41067952Y-20582048D01*
X41149827Y-20649241D01*
X41243237Y-20699169D01*
X41344592Y-20729915D01*
X41449999Y-20740297D01*
X42100001Y-20740297D01*
X42172786Y-20733128D01*
X46586101Y-25146444D01*
X46586100Y-25948027D01*
X46560852Y-25964897D01*
X46464897Y-26060852D01*
X46389505Y-26173684D01*
X46337574Y-26299055D01*
X46311100Y-26432149D01*
X46311100Y-26567851D01*
X46337574Y-26700945D01*
X46389505Y-26826316D01*
X46464897Y-26939148D01*
X46560852Y-27035103D01*
X46673684Y-27110495D01*
X46799055Y-27162426D01*
X46932149Y-27188900D01*
X47067851Y-27188900D01*
X47200945Y-27162426D01*
X47326316Y-27110495D01*
X47439148Y-27035103D01*
X47535103Y-26939148D01*
X47610495Y-26826316D01*
X47662426Y-26700945D01*
X47688900Y-26567851D01*
X47688900Y-26432149D01*
X47662426Y-26299055D01*
X47610495Y-26173684D01*
X47535103Y-26060852D01*
X47439148Y-25964897D01*
X47413900Y-25948027D01*
X47413900Y-24995317D01*
X47415901Y-24975000D01*
X47413900Y-24954682D01*
X47413900Y-24954672D01*
X47407911Y-24893862D01*
X47384243Y-24815841D01*
X47345810Y-24743937D01*
X47294087Y-24680913D01*
X47278299Y-24667956D01*
X42640297Y-20029955D01*
X42640297Y-19299999D01*
X42629915Y-19194592D01*
X42599169Y-19093237D01*
X42549241Y-18999827D01*
X42482048Y-18917952D01*
X42400173Y-18850759D01*
X42306763Y-18800831D01*
X42205408Y-18770085D01*
X42100001Y-18759703D01*
X41449999Y-18759703D01*
X41344592Y-18770085D01*
X41243237Y-18800831D01*
X41149827Y-18850759D01*
X41067952Y-18917952D01*
X41000759Y-18999827D01*
X40950831Y-19093237D01*
X40920085Y-19194592D01*
X40909703Y-19299999D01*
X40590297Y-19299999D01*
X40579915Y-19194592D01*
X40549169Y-19093237D01*
X40499241Y-18999827D01*
X40432048Y-18917952D01*
X40350173Y-18850759D01*
X40256763Y-18800831D01*
X40155408Y-18770085D01*
X40050001Y-18759703D01*
X39399999Y-18759703D01*
X39294592Y-18770085D01*
X39193237Y-18800831D01*
X39099827Y-18850759D01*
X39017952Y-18917952D01*
X38950759Y-18999827D01*
X38900831Y-19093237D01*
X38870085Y-19194592D01*
X38859703Y-19299999D01*
X38859703Y-19336100D01*
X36988928Y-19336100D01*
X36984719Y-19293366D01*
X36968199Y-19238908D01*
X36941373Y-19188720D01*
X36905271Y-19144729D01*
X36861280Y-19108627D01*
X36811092Y-19081801D01*
X36756634Y-19065281D01*
X36700000Y-19059703D01*
X35800000Y-19059703D01*
X35743366Y-19065281D01*
X35688908Y-19081801D01*
X35638720Y-19108627D01*
X35594729Y-19144729D01*
X35558627Y-19188720D01*
X35531801Y-19238908D01*
X35515281Y-19293366D01*
X35509703Y-19350000D01*
X34921912Y-19350000D01*
X34922826Y-19348887D01*
X34947590Y-19302555D01*
X34962841Y-19252282D01*
X34967990Y-19200000D01*
X34966700Y-19031775D01*
X34900025Y-18965100D01*
X34415100Y-18965100D01*
X34084900Y-18965100D01*
X33599975Y-18965100D01*
X33533300Y-19031775D01*
X33532010Y-19200000D01*
X32913900Y-19200000D01*
X32913900Y-18400000D01*
X33532010Y-18400000D01*
X33533300Y-18568225D01*
X33599975Y-18634900D01*
X34084900Y-18634900D01*
X34084900Y-18199975D01*
X34415100Y-18199975D01*
X34415100Y-18634900D01*
X34900025Y-18634900D01*
X34966700Y-18568225D01*
X34967990Y-18400000D01*
X34962841Y-18347718D01*
X34947590Y-18297445D01*
X34922826Y-18251113D01*
X34889498Y-18210502D01*
X34848887Y-18177174D01*
X34802555Y-18152410D01*
X34752282Y-18137159D01*
X34700000Y-18132010D01*
X34481775Y-18133300D01*
X34415100Y-18199975D01*
X34084900Y-18199975D01*
X34018225Y-18133300D01*
X33800000Y-18132010D01*
X33747718Y-18137159D01*
X33697445Y-18152410D01*
X33651113Y-18177174D01*
X33610502Y-18210502D01*
X33577174Y-18251113D01*
X33552410Y-18297445D01*
X33537159Y-18347718D01*
X33532010Y-18400000D01*
X32913900Y-18400000D01*
X32913900Y-17371442D01*
X34145046Y-16140297D01*
X34700000Y-16140297D01*
X34756634Y-16134719D01*
X34811092Y-16118199D01*
X34861280Y-16091373D01*
X34905271Y-16055271D01*
X34941373Y-16011280D01*
X34968199Y-15961092D01*
X34984719Y-15906634D01*
X34990297Y-15850000D01*
X34990297Y-15050000D01*
X34984719Y-14993366D01*
X34968199Y-14938908D01*
X34941373Y-14888720D01*
X34905271Y-14844729D01*
X34861280Y-14808627D01*
X34811092Y-14781801D01*
X34756634Y-14765281D01*
X34700000Y-14759703D01*
X33800000Y-14759703D01*
X33743366Y-14765281D01*
X33688908Y-14781801D01*
X33638720Y-14808627D01*
X33594729Y-14844729D01*
X33558627Y-14888720D01*
X33531801Y-14938908D01*
X33515281Y-14993366D01*
X33509703Y-15050000D01*
X33509703Y-15604954D01*
X32413900Y-16700758D01*
X32413900Y-13950000D01*
X33532010Y-13950000D01*
X33537159Y-14002282D01*
X33552410Y-14052555D01*
X33577174Y-14098887D01*
X33610502Y-14139498D01*
X33651113Y-14172826D01*
X33697445Y-14197590D01*
X33747718Y-14212841D01*
X33800000Y-14217990D01*
X34018225Y-14216700D01*
X34084900Y-14150025D01*
X34084900Y-13715100D01*
X34415100Y-13715100D01*
X34415100Y-14150025D01*
X34481775Y-14216700D01*
X34700000Y-14217990D01*
X34752282Y-14212841D01*
X34802555Y-14197590D01*
X34848887Y-14172826D01*
X34889498Y-14139498D01*
X34921912Y-14100000D01*
X35509703Y-14100000D01*
X35509703Y-14900000D01*
X35515281Y-14956634D01*
X35531801Y-15011092D01*
X35558627Y-15061280D01*
X35594729Y-15105271D01*
X35638720Y-15141373D01*
X35688908Y-15168199D01*
X35743366Y-15184719D01*
X35800000Y-15190297D01*
X36700000Y-15190297D01*
X36756634Y-15184719D01*
X36811092Y-15168199D01*
X36861280Y-15141373D01*
X36905271Y-15105271D01*
X36941373Y-15061280D01*
X36968199Y-15011092D01*
X36984719Y-14956634D01*
X36988928Y-14913900D01*
X38859703Y-14913900D01*
X38859703Y-14950001D01*
X38870085Y-15055408D01*
X38900831Y-15156763D01*
X38950759Y-15250173D01*
X39017952Y-15332048D01*
X39099827Y-15399241D01*
X39193237Y-15449169D01*
X39294592Y-15479915D01*
X39399999Y-15490297D01*
X40050001Y-15490297D01*
X40155408Y-15479915D01*
X40256763Y-15449169D01*
X40350173Y-15399241D01*
X40432048Y-15332048D01*
X40499241Y-15250173D01*
X40549169Y-15156763D01*
X40579915Y-15055408D01*
X40590297Y-14950001D01*
X40590297Y-14049999D01*
X40909703Y-14049999D01*
X40909703Y-14950001D01*
X40920085Y-15055408D01*
X40950831Y-15156763D01*
X41000759Y-15250173D01*
X41067952Y-15332048D01*
X41149827Y-15399241D01*
X41243237Y-15449169D01*
X41344592Y-15479915D01*
X41449999Y-15490297D01*
X42100001Y-15490297D01*
X42172786Y-15483128D01*
X46586101Y-19896444D01*
X46586100Y-21448027D01*
X46560852Y-21464897D01*
X46464897Y-21560852D01*
X46389505Y-21673684D01*
X46337574Y-21799055D01*
X46311100Y-21932149D01*
X46311100Y-22067851D01*
X46337574Y-22200945D01*
X46389505Y-22326316D01*
X46464897Y-22439148D01*
X46560852Y-22535103D01*
X46673684Y-22610495D01*
X46799055Y-22662426D01*
X46932149Y-22688900D01*
X47067851Y-22688900D01*
X47200945Y-22662426D01*
X47326316Y-22610495D01*
X47439148Y-22535103D01*
X47535103Y-22439148D01*
X47610495Y-22326316D01*
X47662426Y-22200945D01*
X47688900Y-22067851D01*
X47688900Y-21932149D01*
X47662426Y-21799055D01*
X47610495Y-21673684D01*
X47535103Y-21560852D01*
X47439148Y-21464897D01*
X47413900Y-21448027D01*
X47413900Y-19745317D01*
X47415901Y-19725000D01*
X47413900Y-19704682D01*
X47413900Y-19704672D01*
X47407911Y-19643862D01*
X47384243Y-19565841D01*
X47345810Y-19493937D01*
X47294087Y-19430913D01*
X47278299Y-19417956D01*
X42640297Y-14779955D01*
X42640297Y-14049999D01*
X42629915Y-13944592D01*
X42599169Y-13843237D01*
X42549241Y-13749827D01*
X42482048Y-13667952D01*
X42400173Y-13600759D01*
X42306763Y-13550831D01*
X42205408Y-13520085D01*
X42100001Y-13509703D01*
X41449999Y-13509703D01*
X41344592Y-13520085D01*
X41243237Y-13550831D01*
X41149827Y-13600759D01*
X41067952Y-13667952D01*
X41000759Y-13749827D01*
X40950831Y-13843237D01*
X40920085Y-13944592D01*
X40909703Y-14049999D01*
X40590297Y-14049999D01*
X40579915Y-13944592D01*
X40549169Y-13843237D01*
X40499241Y-13749827D01*
X40432048Y-13667952D01*
X40350173Y-13600759D01*
X40256763Y-13550831D01*
X40155408Y-13520085D01*
X40050001Y-13509703D01*
X39399999Y-13509703D01*
X39294592Y-13520085D01*
X39193237Y-13550831D01*
X39099827Y-13600759D01*
X39017952Y-13667952D01*
X38950759Y-13749827D01*
X38900831Y-13843237D01*
X38870085Y-13944592D01*
X38859703Y-14049999D01*
X38859703Y-14086100D01*
X36988928Y-14086100D01*
X36984719Y-14043366D01*
X36968199Y-13988908D01*
X36941373Y-13938720D01*
X36905271Y-13894729D01*
X36861280Y-13858627D01*
X36811092Y-13831801D01*
X36756634Y-13815281D01*
X36700000Y-13809703D01*
X35800000Y-13809703D01*
X35743366Y-13815281D01*
X35688908Y-13831801D01*
X35638720Y-13858627D01*
X35594729Y-13894729D01*
X35558627Y-13938720D01*
X35531801Y-13988908D01*
X35515281Y-14043366D01*
X35509703Y-14100000D01*
X34921912Y-14100000D01*
X34922826Y-14098887D01*
X34947590Y-14052555D01*
X34962841Y-14002282D01*
X34967990Y-13950000D01*
X34966700Y-13781775D01*
X34900025Y-13715100D01*
X34415100Y-13715100D01*
X34084900Y-13715100D01*
X33599975Y-13715100D01*
X33533300Y-13781775D01*
X33532010Y-13950000D01*
X32413900Y-13950000D01*
X32413900Y-13150000D01*
X33532010Y-13150000D01*
X33533300Y-13318225D01*
X33599975Y-13384900D01*
X34084900Y-13384900D01*
X34084900Y-12949975D01*
X34415100Y-12949975D01*
X34415100Y-13384900D01*
X34900025Y-13384900D01*
X34966700Y-13318225D01*
X34967990Y-13150000D01*
X34962841Y-13097718D01*
X34947590Y-13047445D01*
X34922826Y-13001113D01*
X34889498Y-12960502D01*
X34848887Y-12927174D01*
X34802555Y-12902410D01*
X34752282Y-12887159D01*
X34700000Y-12882010D01*
X34481775Y-12883300D01*
X34415100Y-12949975D01*
X34084900Y-12949975D01*
X34018225Y-12883300D01*
X33800000Y-12882010D01*
X33747718Y-12887159D01*
X33697445Y-12902410D01*
X33651113Y-12927174D01*
X33610502Y-12960502D01*
X33577174Y-13001113D01*
X33552410Y-13047445D01*
X33537159Y-13097718D01*
X33532010Y-13150000D01*
X32413900Y-13150000D01*
X32413900Y-12171442D01*
X33710572Y-10874771D01*
X33743366Y-10884719D01*
X33800000Y-10890297D01*
X34700000Y-10890297D01*
X34756634Y-10884719D01*
X34811092Y-10868199D01*
X34861280Y-10841373D01*
X34905271Y-10805271D01*
X34941373Y-10761280D01*
X34968199Y-10711092D01*
X34984719Y-10656634D01*
X34990297Y-10600000D01*
X34990297Y-9800000D01*
X34984719Y-9743366D01*
X34968199Y-9688908D01*
X34941373Y-9638720D01*
X34905271Y-9594729D01*
X34861280Y-9558627D01*
X34811092Y-9531801D01*
X34756634Y-9515281D01*
X34700000Y-9509703D01*
X33800000Y-9509703D01*
X33743366Y-9515281D01*
X33688908Y-9531801D01*
X33638720Y-9558627D01*
X33594729Y-9594729D01*
X33558627Y-9638720D01*
X33531801Y-9688908D01*
X33515281Y-9743366D01*
X33509703Y-9800000D01*
X33509703Y-9902803D01*
X33505913Y-9905913D01*
X33492956Y-9921701D01*
X31721702Y-11692956D01*
X31705914Y-11705913D01*
X31692957Y-11721701D01*
X31692955Y-11721703D01*
X31654191Y-11768937D01*
X31615757Y-11840842D01*
X31592090Y-11918862D01*
X31584099Y-12000000D01*
X31586101Y-12020328D01*
X31586100Y-20621935D01*
X31503663Y-20566852D01*
X31378292Y-20514921D01*
X31245198Y-20488447D01*
X31109496Y-20488447D01*
X30976402Y-20514921D01*
X30851031Y-20566852D01*
X30738199Y-20642244D01*
X30642244Y-20738199D01*
X30566852Y-20851031D01*
X30514921Y-20976402D01*
X30488447Y-21109496D01*
X30488447Y-21245198D01*
X30494371Y-21274980D01*
X30133252Y-21636100D01*
X30088928Y-21636100D01*
X30084719Y-21593366D01*
X30068199Y-21538908D01*
X30041373Y-21488720D01*
X30005271Y-21444729D01*
X29961280Y-21408627D01*
X29911092Y-21381801D01*
X29856634Y-21365281D01*
X29800000Y-21359703D01*
X28588899Y-21359703D01*
X28588899Y-11196443D01*
X31085342Y-8700000D01*
X33532010Y-8700000D01*
X33537159Y-8752282D01*
X33552410Y-8802555D01*
X33577174Y-8848887D01*
X33610502Y-8889498D01*
X33651113Y-8922826D01*
X33697445Y-8947590D01*
X33747718Y-8962841D01*
X33800000Y-8967990D01*
X34018225Y-8966700D01*
X34084900Y-8900025D01*
X34084900Y-8465100D01*
X34415100Y-8465100D01*
X34415100Y-8900025D01*
X34481775Y-8966700D01*
X34700000Y-8967990D01*
X34752282Y-8962841D01*
X34802555Y-8947590D01*
X34848887Y-8922826D01*
X34889498Y-8889498D01*
X34921912Y-8850000D01*
X35509703Y-8850000D01*
X35509703Y-9650000D01*
X35515281Y-9706634D01*
X35531801Y-9761092D01*
X35558627Y-9811280D01*
X35594729Y-9855271D01*
X35638720Y-9891373D01*
X35688908Y-9918199D01*
X35743366Y-9934719D01*
X35800000Y-9940297D01*
X36700000Y-9940297D01*
X36756634Y-9934719D01*
X36811092Y-9918199D01*
X36861280Y-9891373D01*
X36905271Y-9855271D01*
X36941373Y-9811280D01*
X36968199Y-9761092D01*
X36984719Y-9706634D01*
X36988928Y-9663900D01*
X38834703Y-9663900D01*
X38834703Y-9700001D01*
X38845085Y-9805408D01*
X38875831Y-9906763D01*
X38925759Y-10000173D01*
X38992952Y-10082048D01*
X39074827Y-10149241D01*
X39168237Y-10199169D01*
X39269592Y-10229915D01*
X39374999Y-10240297D01*
X40025001Y-10240297D01*
X40130408Y-10229915D01*
X40231763Y-10199169D01*
X40325173Y-10149241D01*
X40407048Y-10082048D01*
X40474241Y-10000173D01*
X40524169Y-9906763D01*
X40554915Y-9805408D01*
X40565297Y-9700001D01*
X40565297Y-8799999D01*
X40884703Y-8799999D01*
X40884703Y-9700001D01*
X40895085Y-9805408D01*
X40925831Y-9906763D01*
X40975759Y-10000173D01*
X41042952Y-10082048D01*
X41124827Y-10149241D01*
X41218237Y-10199169D01*
X41319592Y-10229915D01*
X41424999Y-10240297D01*
X42075001Y-10240297D01*
X42147786Y-10233128D01*
X46586101Y-14671444D01*
X46586100Y-16948027D01*
X46560852Y-16964897D01*
X46464897Y-17060852D01*
X46389505Y-17173684D01*
X46337574Y-17299055D01*
X46311100Y-17432149D01*
X46311100Y-17567851D01*
X46337574Y-17700945D01*
X46389505Y-17826316D01*
X46464897Y-17939148D01*
X46560852Y-18035103D01*
X46673684Y-18110495D01*
X46799055Y-18162426D01*
X46932149Y-18188900D01*
X47067851Y-18188900D01*
X47200945Y-18162426D01*
X47326316Y-18110495D01*
X47439148Y-18035103D01*
X47535103Y-17939148D01*
X47610495Y-17826316D01*
X47662426Y-17700945D01*
X47688900Y-17567851D01*
X47688900Y-17432149D01*
X47662426Y-17299055D01*
X47610495Y-17173684D01*
X47535103Y-17060852D01*
X47439148Y-16964897D01*
X47413900Y-16948027D01*
X47413900Y-14520317D01*
X47415901Y-14499999D01*
X47413900Y-14479682D01*
X47413900Y-14479672D01*
X47407911Y-14418862D01*
X47384243Y-14340841D01*
X47345810Y-14268937D01*
X47294087Y-14205913D01*
X47278298Y-14192955D01*
X42615297Y-9529955D01*
X42615297Y-8799999D01*
X42604915Y-8694592D01*
X42574169Y-8593237D01*
X42524241Y-8499827D01*
X42457048Y-8417952D01*
X42375173Y-8350759D01*
X42281763Y-8300831D01*
X42180408Y-8270085D01*
X42075001Y-8259703D01*
X41424999Y-8259703D01*
X41319592Y-8270085D01*
X41218237Y-8300831D01*
X41124827Y-8350759D01*
X41042952Y-8417952D01*
X40975759Y-8499827D01*
X40925831Y-8593237D01*
X40895085Y-8694592D01*
X40884703Y-8799999D01*
X40565297Y-8799999D01*
X40554915Y-8694592D01*
X40524169Y-8593237D01*
X40474241Y-8499827D01*
X40407048Y-8417952D01*
X40325173Y-8350759D01*
X40231763Y-8300831D01*
X40130408Y-8270085D01*
X40025001Y-8259703D01*
X39374999Y-8259703D01*
X39269592Y-8270085D01*
X39168237Y-8300831D01*
X39074827Y-8350759D01*
X38992952Y-8417952D01*
X38925759Y-8499827D01*
X38875831Y-8593237D01*
X38845085Y-8694592D01*
X38834703Y-8799999D01*
X38834703Y-8836100D01*
X36988928Y-8836100D01*
X36984719Y-8793366D01*
X36968199Y-8738908D01*
X36941373Y-8688720D01*
X36905271Y-8644729D01*
X36861280Y-8608627D01*
X36811092Y-8581801D01*
X36756634Y-8565281D01*
X36700000Y-8559703D01*
X35800000Y-8559703D01*
X35743366Y-8565281D01*
X35688908Y-8581801D01*
X35638720Y-8608627D01*
X35594729Y-8644729D01*
X35558627Y-8688720D01*
X35531801Y-8738908D01*
X35515281Y-8793366D01*
X35509703Y-8850000D01*
X34921912Y-8850000D01*
X34922826Y-8848887D01*
X34947590Y-8802555D01*
X34962841Y-8752282D01*
X34967990Y-8700000D01*
X34966700Y-8531775D01*
X34900025Y-8465100D01*
X34415100Y-8465100D01*
X34084900Y-8465100D01*
X33599975Y-8465100D01*
X33533300Y-8531775D01*
X33532010Y-8700000D01*
X31085342Y-8700000D01*
X31885342Y-7900000D01*
X33532010Y-7900000D01*
X33533300Y-8068225D01*
X33599975Y-8134900D01*
X34084900Y-8134900D01*
X34084900Y-7699975D01*
X34415100Y-7699975D01*
X34415100Y-8134900D01*
X34900025Y-8134900D01*
X34966700Y-8068225D01*
X34967990Y-7900000D01*
X34962841Y-7847718D01*
X34947590Y-7797445D01*
X34922826Y-7751113D01*
X34889498Y-7710502D01*
X34848887Y-7677174D01*
X34802555Y-7652410D01*
X34752282Y-7637159D01*
X34700000Y-7632010D01*
X34481775Y-7633300D01*
X34415100Y-7699975D01*
X34084900Y-7699975D01*
X34018225Y-7633300D01*
X33800000Y-7632010D01*
X33747718Y-7637159D01*
X33697445Y-7652410D01*
X33651113Y-7677174D01*
X33610502Y-7710502D01*
X33577174Y-7751113D01*
X33552410Y-7797445D01*
X33537159Y-7847718D01*
X33532010Y-7900000D01*
X31885342Y-7900000D01*
X34145046Y-5640297D01*
X34700000Y-5640297D01*
X34756634Y-5634719D01*
X34811092Y-5618199D01*
X34861280Y-5591373D01*
X34905271Y-5555271D01*
X34941373Y-5511280D01*
X34968199Y-5461092D01*
X34984719Y-5406634D01*
X34990297Y-5350000D01*
X34990297Y-4550000D01*
X34984719Y-4493366D01*
X34968199Y-4438908D01*
X34941373Y-4388720D01*
X34905271Y-4344729D01*
X34861280Y-4308627D01*
X34811092Y-4281801D01*
X34756634Y-4265281D01*
X34700000Y-4259703D01*
X33800000Y-4259703D01*
X33743366Y-4265281D01*
X33688908Y-4281801D01*
X33638720Y-4308627D01*
X33594729Y-4344729D01*
X33558627Y-4388720D01*
X33531801Y-4438908D01*
X33515281Y-4493366D01*
X33509703Y-4550000D01*
X33509703Y-5104954D01*
X27896701Y-10717957D01*
X27880913Y-10730914D01*
X27867956Y-10746702D01*
X27867954Y-10746704D01*
X27829190Y-10793938D01*
X27790756Y-10865843D01*
X27767089Y-10943863D01*
X27759098Y-11025001D01*
X291300Y-11025001D01*
X291300Y-3368130D01*
X2161100Y-3368130D01*
X2161100Y-3631870D01*
X2212554Y-3890543D01*
X2313483Y-4134207D01*
X2460009Y-4353499D01*
X2646501Y-4539991D01*
X2865793Y-4686517D01*
X3109457Y-4787446D01*
X3368130Y-4838900D01*
X3631870Y-4838900D01*
X3890543Y-4787446D01*
X4134207Y-4686517D01*
X4353499Y-4539991D01*
X4539991Y-4353499D01*
X4686517Y-4134207D01*
X4787446Y-3890543D01*
X4838900Y-3631870D01*
X4838900Y-3450000D01*
X33532010Y-3450000D01*
X33537159Y-3502282D01*
X33552410Y-3552555D01*
X33577174Y-3598887D01*
X33610502Y-3639498D01*
X33651113Y-3672826D01*
X33697445Y-3697590D01*
X33747718Y-3712841D01*
X33800000Y-3717990D01*
X34018225Y-3716700D01*
X34084900Y-3650025D01*
X34084900Y-3215100D01*
X34415100Y-3215100D01*
X34415100Y-3650025D01*
X34481775Y-3716700D01*
X34700000Y-3717990D01*
X34752282Y-3712841D01*
X34802555Y-3697590D01*
X34848887Y-3672826D01*
X34889498Y-3639498D01*
X34921912Y-3600000D01*
X35509703Y-3600000D01*
X35509703Y-4400000D01*
X35515281Y-4456634D01*
X35531801Y-4511092D01*
X35558627Y-4561280D01*
X35594729Y-4605271D01*
X35638720Y-4641373D01*
X35688908Y-4668199D01*
X35743366Y-4684719D01*
X35800000Y-4690297D01*
X36700000Y-4690297D01*
X36756634Y-4684719D01*
X36811092Y-4668199D01*
X36861280Y-4641373D01*
X36905271Y-4605271D01*
X36941373Y-4561280D01*
X36968199Y-4511092D01*
X36984719Y-4456634D01*
X36988928Y-4413900D01*
X38859703Y-4413900D01*
X38859703Y-4450001D01*
X38870085Y-4555408D01*
X38900831Y-4656763D01*
X38950759Y-4750173D01*
X39017952Y-4832048D01*
X39099827Y-4899241D01*
X39193237Y-4949169D01*
X39294592Y-4979915D01*
X39399999Y-4990297D01*
X40050001Y-4990297D01*
X40155408Y-4979915D01*
X40256763Y-4949169D01*
X40350173Y-4899241D01*
X40432048Y-4832048D01*
X40499241Y-4750173D01*
X40549169Y-4656763D01*
X40579915Y-4555408D01*
X40590297Y-4450001D01*
X40590297Y-3549999D01*
X40909703Y-3549999D01*
X40909703Y-4450001D01*
X40920085Y-4555408D01*
X40950831Y-4656763D01*
X41000759Y-4750173D01*
X41067952Y-4832048D01*
X41149827Y-4899241D01*
X41243237Y-4949169D01*
X41344592Y-4979915D01*
X41449999Y-4990297D01*
X42100001Y-4990297D01*
X42172786Y-4983128D01*
X46336101Y-9146444D01*
X46336100Y-12556465D01*
X46311100Y-12682149D01*
X46311100Y-12817851D01*
X46337574Y-12950945D01*
X46389505Y-13076316D01*
X46464897Y-13189148D01*
X46560852Y-13285103D01*
X46673684Y-13360495D01*
X46799055Y-13412426D01*
X46932149Y-13438900D01*
X47067851Y-13438900D01*
X47200945Y-13412426D01*
X47326316Y-13360495D01*
X47439148Y-13285103D01*
X47535103Y-13189148D01*
X47610495Y-13076316D01*
X47662426Y-12950945D01*
X47688900Y-12817851D01*
X47688900Y-12682149D01*
X47662426Y-12549055D01*
X47610495Y-12423684D01*
X47535103Y-12310852D01*
X47439148Y-12214897D01*
X47326316Y-12139505D01*
X47200945Y-12087574D01*
X47163900Y-12080205D01*
X47163900Y-8995317D01*
X47165901Y-8974999D01*
X47163900Y-8954682D01*
X47163900Y-8954672D01*
X47157911Y-8893862D01*
X47134243Y-8815841D01*
X47095810Y-8743937D01*
X47075756Y-8719502D01*
X47057045Y-8696702D01*
X47057044Y-8696701D01*
X47044087Y-8680913D01*
X47028299Y-8667956D01*
X42640297Y-4279955D01*
X42640297Y-3549999D01*
X42629915Y-3444592D01*
X42606721Y-3368130D01*
X45161100Y-3368130D01*
X45161100Y-3631870D01*
X45212554Y-3890543D01*
X45313483Y-4134207D01*
X45460009Y-4353499D01*
X45646501Y-4539991D01*
X45865793Y-4686517D01*
X46109457Y-4787446D01*
X46368130Y-4838900D01*
X46631870Y-4838900D01*
X46890543Y-4787446D01*
X47134207Y-4686517D01*
X47353499Y-4539991D01*
X47539991Y-4353499D01*
X47686517Y-4134207D01*
X47787446Y-3890543D01*
X47838900Y-3631870D01*
X47838900Y-3368130D01*
X47787446Y-3109457D01*
X47686517Y-2865793D01*
X47539991Y-2646501D01*
X47353499Y-2460009D01*
X47134207Y-2313483D01*
X46890543Y-2212554D01*
X46631870Y-2161100D01*
X46368130Y-2161100D01*
X46109457Y-2212554D01*
X45865793Y-2313483D01*
X45646501Y-2460009D01*
X45460009Y-2646501D01*
X45313483Y-2865793D01*
X45212554Y-3109457D01*
X45161100Y-3368130D01*
X42606721Y-3368130D01*
X42599169Y-3343237D01*
X42549241Y-3249827D01*
X42482048Y-3167952D01*
X42400173Y-3100759D01*
X42306763Y-3050831D01*
X42205408Y-3020085D01*
X42100001Y-3009703D01*
X41449999Y-3009703D01*
X41344592Y-3020085D01*
X41243237Y-3050831D01*
X41149827Y-3100759D01*
X41067952Y-3167952D01*
X41000759Y-3249827D01*
X40950831Y-3343237D01*
X40920085Y-3444592D01*
X40909703Y-3549999D01*
X40590297Y-3549999D01*
X40579915Y-3444592D01*
X40549169Y-3343237D01*
X40499241Y-3249827D01*
X40432048Y-3167952D01*
X40350173Y-3100759D01*
X40256763Y-3050831D01*
X40155408Y-3020085D01*
X40050001Y-3009703D01*
X39399999Y-3009703D01*
X39294592Y-3020085D01*
X39193237Y-3050831D01*
X39099827Y-3100759D01*
X39017952Y-3167952D01*
X38950759Y-3249827D01*
X38900831Y-3343237D01*
X38870085Y-3444592D01*
X38859703Y-3549999D01*
X38859703Y-3586100D01*
X36988928Y-3586100D01*
X36984719Y-3543366D01*
X36968199Y-3488908D01*
X36941373Y-3438720D01*
X36905271Y-3394729D01*
X36861280Y-3358627D01*
X36811092Y-3331801D01*
X36756634Y-3315281D01*
X36700000Y-3309703D01*
X35800000Y-3309703D01*
X35743366Y-3315281D01*
X35688908Y-3331801D01*
X35638720Y-3358627D01*
X35594729Y-3394729D01*
X35558627Y-3438720D01*
X35531801Y-3488908D01*
X35515281Y-3543366D01*
X35509703Y-3600000D01*
X34921912Y-3600000D01*
X34922826Y-3598887D01*
X34947590Y-3552555D01*
X34962841Y-3502282D01*
X34967990Y-3450000D01*
X34966700Y-3281775D01*
X34900025Y-3215100D01*
X34415100Y-3215100D01*
X34084900Y-3215100D01*
X33599975Y-3215100D01*
X33533300Y-3281775D01*
X33532010Y-3450000D01*
X4838900Y-3450000D01*
X4838900Y-3368130D01*
X4787446Y-3109457D01*
X4686517Y-2865793D01*
X4542329Y-2650000D01*
X33532010Y-2650000D01*
X33533300Y-2818225D01*
X33599975Y-2884900D01*
X34084900Y-2884900D01*
X34084900Y-2449975D01*
X34415100Y-2449975D01*
X34415100Y-2884900D01*
X34900025Y-2884900D01*
X34966700Y-2818225D01*
X34967990Y-2650000D01*
X34962841Y-2597718D01*
X34947590Y-2547445D01*
X34922826Y-2501113D01*
X34889498Y-2460502D01*
X34848887Y-2427174D01*
X34802555Y-2402410D01*
X34752282Y-2387159D01*
X34700000Y-2382010D01*
X34481775Y-2383300D01*
X34415100Y-2449975D01*
X34084900Y-2449975D01*
X34018225Y-2383300D01*
X33800000Y-2382010D01*
X33747718Y-2387159D01*
X33697445Y-2402410D01*
X33651113Y-2427174D01*
X33610502Y-2460502D01*
X33577174Y-2501113D01*
X33552410Y-2547445D01*
X33537159Y-2597718D01*
X33532010Y-2650000D01*
X4542329Y-2650000D01*
X4539991Y-2646501D01*
X4353499Y-2460009D01*
X4134207Y-2313483D01*
X3890543Y-2212554D01*
X3631870Y-2161100D01*
X3368130Y-2161100D01*
X3109457Y-2212554D01*
X2865793Y-2313483D01*
X2646501Y-2460009D01*
X2460009Y-2646501D01*
X2313483Y-2865793D01*
X2212554Y-3109457D01*
X2161100Y-3368130D01*
X291300Y-3368130D01*
X291300Y-2014250D01*
X325213Y-1668381D01*
X421520Y-1349395D01*
X577952Y-1055193D01*
X788550Y-796975D01*
X1045287Y-584583D01*
X1338392Y-426101D01*
X1656701Y-327568D01*
X2001767Y-291300D01*
X47985750Y-291300D01*
X48331619Y-325213D01*
G37*
X48331619Y-325213D02*
X48650605Y-421520D01*
X48944807Y-577952D01*
X49203025Y-788550D01*
X49415417Y-1045287D01*
X49573899Y-1338392D01*
X49672432Y-1656701D01*
X49708701Y-2001777D01*
X49708700Y-46985750D01*
X49655742Y-47525853D01*
X49503027Y-48031671D01*
X49254969Y-48498202D01*
X48921024Y-48907658D01*
X48513906Y-49244455D01*
X48049123Y-49495762D01*
X47544380Y-49652007D01*
X47005172Y-49708680D01*
X46999559Y-49708700D01*
X2014250Y-49708700D01*
X1668379Y-49674787D01*
X1349399Y-49578481D01*
X1055194Y-49422050D01*
X796977Y-49211453D01*
X584583Y-48954713D01*
X426101Y-48661608D01*
X327568Y-48343298D01*
X291300Y-47998233D01*
X291300Y-46150000D01*
X859703Y-46150000D01*
X859703Y-47850000D01*
X865281Y-47906634D01*
X881801Y-47961092D01*
X908627Y-48011280D01*
X944729Y-48055271D01*
X988720Y-48091373D01*
X1038908Y-48118199D01*
X1093366Y-48134719D01*
X1150000Y-48140297D01*
X2850000Y-48140297D01*
X2906634Y-48134719D01*
X2961092Y-48118199D01*
X3011280Y-48091373D01*
X3055271Y-48055271D01*
X3091373Y-48011280D01*
X3118199Y-47961092D01*
X3134719Y-47906634D01*
X3140297Y-47850000D01*
X3140297Y-47413900D01*
X3979683Y-47413900D01*
X4000000Y-47415901D01*
X4020317Y-47413900D01*
X4020328Y-47413900D01*
X4081138Y-47407911D01*
X4159159Y-47384243D01*
X4231063Y-47345810D01*
X4294087Y-47294087D01*
X4307049Y-47278293D01*
X5268705Y-46316638D01*
X5256801Y-46338908D01*
X5240281Y-46393366D01*
X5234703Y-46450000D01*
X5234703Y-47550000D01*
X5240281Y-47606634D01*
X5256801Y-47661092D01*
X5283627Y-47711280D01*
X5319729Y-47755271D01*
X5363720Y-47791373D01*
X5413908Y-47818199D01*
X5468366Y-47834719D01*
X5525000Y-47840297D01*
X7475000Y-47840297D01*
X7531634Y-47834719D01*
X7586092Y-47818199D01*
X7636280Y-47791373D01*
X7680271Y-47755271D01*
X7716373Y-47711280D01*
X7743199Y-47661092D01*
X7759719Y-47606634D01*
X7765297Y-47550000D01*
X7765297Y-47413900D01*
X10884703Y-47413900D01*
X10884703Y-47550000D01*
X10890281Y-47606634D01*
X10906801Y-47661092D01*
X10933627Y-47711280D01*
X10969729Y-47755271D01*
X11013720Y-47791373D01*
X11063908Y-47818199D01*
X11118366Y-47834719D01*
X11175000Y-47840297D01*
X13125000Y-47840297D01*
X13181634Y-47834719D01*
X13236092Y-47818199D01*
X13286280Y-47791373D01*
X13330271Y-47755271D01*
X13366373Y-47711280D01*
X13393199Y-47661092D01*
X13409719Y-47606634D01*
X13415297Y-47550000D01*
X13415297Y-46450000D01*
X13409719Y-46393366D01*
X13393199Y-46338908D01*
X13366373Y-46288720D01*
X13330271Y-46244729D01*
X13286280Y-46208627D01*
X13236092Y-46181801D01*
X13181634Y-46165281D01*
X13125000Y-46159703D01*
X11175000Y-46159703D01*
X11118366Y-46165281D01*
X11063908Y-46181801D01*
X11013720Y-46208627D01*
X10969729Y-46244729D01*
X10933627Y-46288720D01*
X10906801Y-46338908D01*
X10890281Y-46393366D01*
X10884703Y-46450000D01*
X10884703Y-46586100D01*
X7765297Y-46586100D01*
X7765297Y-46450000D01*
X7759719Y-46393366D01*
X7743199Y-46338908D01*
X7716373Y-46288720D01*
X7680271Y-46244729D01*
X7636280Y-46208627D01*
X7586092Y-46181801D01*
X7531634Y-46165281D01*
X7475000Y-46159703D01*
X5525000Y-46159703D01*
X5468366Y-46165281D01*
X5413908Y-46181801D01*
X5391638Y-46193705D01*
X6245046Y-45340297D01*
X7475000Y-45340297D01*
X7531634Y-45334719D01*
X7586092Y-45318199D01*
X7636280Y-45291373D01*
X7680271Y-45255271D01*
X7716373Y-45211280D01*
X7743199Y-45161092D01*
X7759719Y-45106634D01*
X7765297Y-45050000D01*
X7765297Y-44913900D01*
X10884703Y-44913900D01*
X10884703Y-45050000D01*
X10890281Y-45106634D01*
X10906801Y-45161092D01*
X10933627Y-45211280D01*
X10969729Y-45255271D01*
X11013720Y-45291373D01*
X11063908Y-45318199D01*
X11118366Y-45334719D01*
X11175000Y-45340297D01*
X13125000Y-45340297D01*
X13181634Y-45334719D01*
X13236092Y-45318199D01*
X13286280Y-45291373D01*
X13330271Y-45255271D01*
X13366373Y-45211280D01*
X13393199Y-45161092D01*
X13409719Y-45106634D01*
X13415297Y-45050000D01*
X13415297Y-43950000D01*
X13409719Y-43893366D01*
X13393199Y-43838908D01*
X13366373Y-43788720D01*
X13330271Y-43744729D01*
X13286280Y-43708627D01*
X13236092Y-43681801D01*
X13181634Y-43665281D01*
X13125000Y-43659703D01*
X11175000Y-43659703D01*
X11118366Y-43665281D01*
X11063908Y-43681801D01*
X11013720Y-43708627D01*
X10969729Y-43744729D01*
X10933627Y-43788720D01*
X10906801Y-43838908D01*
X10890281Y-43893366D01*
X10884703Y-43950000D01*
X10884703Y-44086100D01*
X7765297Y-44086100D01*
X7765297Y-43950000D01*
X7759719Y-43893366D01*
X7743199Y-43838908D01*
X7716373Y-43788720D01*
X7680271Y-43744729D01*
X7636280Y-43708627D01*
X7586092Y-43681801D01*
X7531634Y-43665281D01*
X7475000Y-43659703D01*
X5525000Y-43659703D01*
X5468366Y-43665281D01*
X5413908Y-43681801D01*
X5363720Y-43708627D01*
X5319729Y-43744729D01*
X5283627Y-43788720D01*
X5256801Y-43838908D01*
X5240281Y-43893366D01*
X5234703Y-43950000D01*
X5234703Y-45050000D01*
X5240281Y-45106634D01*
X5256048Y-45158609D01*
X3828558Y-46586100D01*
X3140297Y-46586100D01*
X3140297Y-46150000D01*
X3134719Y-46093366D01*
X3118199Y-46038908D01*
X3091373Y-45988720D01*
X3055271Y-45944729D01*
X3011280Y-45908627D01*
X2961092Y-45881801D01*
X2906634Y-45865281D01*
X2850000Y-45859703D01*
X1150000Y-45859703D01*
X1093366Y-45865281D01*
X1038908Y-45881801D01*
X988720Y-45908627D01*
X944729Y-45944729D01*
X908627Y-45988720D01*
X881801Y-46038908D01*
X865281Y-46093366D01*
X859703Y-46150000D01*
X291300Y-46150000D01*
X291300Y-44795838D01*
X934997Y-44795838D01*
X1009449Y-44975602D01*
X1129071Y-45158942D01*
X1282163Y-45315422D01*
X1462841Y-45439028D01*
X1664161Y-45525011D01*
X1834900Y-45497761D01*
X1834900Y-44625100D01*
X2165100Y-44625100D01*
X2165100Y-45497761D01*
X2335839Y-45525011D01*
X2537159Y-45439028D01*
X2717837Y-45315422D01*
X2870929Y-45158942D01*
X2990551Y-44975602D01*
X3065003Y-44795838D01*
X3036964Y-44625100D01*
X2165100Y-44625100D01*
X1834900Y-44625100D01*
X963036Y-44625100D01*
X934997Y-44795838D01*
X291300Y-44795838D01*
X291300Y-44124162D01*
X934997Y-44124162D01*
X963036Y-44294900D01*
X1834900Y-44294900D01*
X1834900Y-43422239D01*
X2165100Y-43422239D01*
X2165100Y-44294900D01*
X3036964Y-44294900D01*
X3065003Y-44124162D01*
X2990551Y-43944398D01*
X2870929Y-43761058D01*
X2717837Y-43604578D01*
X2537159Y-43480972D01*
X2335839Y-43394989D01*
X2165100Y-43422239D01*
X1834900Y-43422239D01*
X1664161Y-43394989D01*
X1462841Y-43480972D01*
X1282163Y-43604578D01*
X1129071Y-43761058D01*
X1009449Y-43944398D01*
X934997Y-44124162D01*
X291300Y-44124162D01*
X291300Y-36700000D01*
X3132010Y-36700000D01*
X3137159Y-36752282D01*
X3152410Y-36802555D01*
X3177174Y-36848887D01*
X3210502Y-36889498D01*
X3251113Y-36922826D01*
X3297445Y-36947590D01*
X3347718Y-36962841D01*
X3400000Y-36967990D01*
X3743225Y-36966700D01*
X3809900Y-36900025D01*
X3809900Y-36165100D01*
X4140100Y-36165100D01*
X4140100Y-36900025D01*
X4206775Y-36966700D01*
X4550000Y-36967990D01*
X4602282Y-36962841D01*
X4652555Y-36947590D01*
X4698887Y-36922826D01*
X4739498Y-36889498D01*
X4772826Y-36848887D01*
X4797590Y-36802555D01*
X4812841Y-36752282D01*
X4817990Y-36700000D01*
X4816700Y-36231775D01*
X4750025Y-36165100D01*
X4140100Y-36165100D01*
X3809900Y-36165100D01*
X3199975Y-36165100D01*
X3133300Y-36231775D01*
X3132010Y-36700000D01*
X291300Y-36700000D01*
X291300Y-35300000D01*
X3132010Y-35300000D01*
X3133300Y-35768225D01*
X3199975Y-35834900D01*
X3809900Y-35834900D01*
X3809900Y-35099975D01*
X4140100Y-35099975D01*
X4140100Y-35834900D01*
X4750025Y-35834900D01*
X4816700Y-35768225D01*
X4817990Y-35300000D01*
X4812841Y-35247718D01*
X4797590Y-35197445D01*
X4772826Y-35151113D01*
X4739498Y-35110502D01*
X4698887Y-35077174D01*
X4652555Y-35052410D01*
X4602282Y-35037159D01*
X4550000Y-35032010D01*
X4206775Y-35033300D01*
X4140100Y-35099975D01*
X3809900Y-35099975D01*
X3743225Y-35033300D01*
X3400000Y-35032010D01*
X3347718Y-35037159D01*
X3297445Y-35052410D01*
X3251113Y-35077174D01*
X3210502Y-35110502D01*
X3177174Y-35151113D01*
X3152410Y-35197445D01*
X3137159Y-35247718D01*
X3132010Y-35300000D01*
X291300Y-35300000D01*
X291300Y-32200000D01*
X3132010Y-32200000D01*
X3137159Y-32252282D01*
X3152410Y-32302555D01*
X3177174Y-32348887D01*
X3210502Y-32389498D01*
X3251113Y-32422826D01*
X3297445Y-32447590D01*
X3347718Y-32462841D01*
X3400000Y-32467990D01*
X3743225Y-32466700D01*
X3809900Y-32400025D01*
X3809900Y-31665100D01*
X3199975Y-31665100D01*
X3133300Y-31731775D01*
X3132010Y-32200000D01*
X291300Y-32200000D01*
X291300Y-30800000D01*
X3132010Y-30800000D01*
X3133300Y-31268225D01*
X3199975Y-31334900D01*
X3809900Y-31334900D01*
X3809900Y-30599975D01*
X3743225Y-30533300D01*
X3400000Y-30532010D01*
X3347718Y-30537159D01*
X3297445Y-30552410D01*
X3251113Y-30577174D01*
X3210502Y-30610502D01*
X3177174Y-30651113D01*
X3152410Y-30697445D01*
X3137159Y-30747718D01*
X3132010Y-30800000D01*
X291300Y-30800000D01*
X291300Y-17932149D01*
X3811100Y-17932149D01*
X3811100Y-18067851D01*
X3837574Y-18200945D01*
X3889505Y-18326316D01*
X3964897Y-18439148D01*
X4060852Y-18535103D01*
X4086100Y-18551973D01*
X4086101Y-20049673D01*
X4084099Y-20070000D01*
X4092090Y-20151138D01*
X4115757Y-20229158D01*
X4132826Y-20261092D01*
X4154191Y-20301063D01*
X4205914Y-20364087D01*
X4221702Y-20377044D01*
X4937907Y-21093249D01*
X4888663Y-21133663D01*
X4833906Y-21200384D01*
X4799132Y-21265444D01*
X4755913Y-21300913D01*
X4704190Y-21363937D01*
X4665757Y-21435841D01*
X4642089Y-21513862D01*
X4634098Y-21595000D01*
X4642089Y-21676138D01*
X4665757Y-21754159D01*
X4704190Y-21826063D01*
X4755913Y-21889087D01*
X4799132Y-21924556D01*
X4833906Y-21989616D01*
X4888663Y-22056337D01*
X4955384Y-22111094D01*
X5031506Y-22151781D01*
X5114102Y-22176837D01*
X5200000Y-22185297D01*
X6029955Y-22185297D01*
X6119360Y-22274703D01*
X5200000Y-22274703D01*
X5114102Y-22283163D01*
X5031506Y-22308219D01*
X4955384Y-22348906D01*
X4888663Y-22403663D01*
X4833906Y-22470384D01*
X4799132Y-22535443D01*
X4771702Y-22557955D01*
X4755913Y-22570913D01*
X4742956Y-22586702D01*
X4446692Y-22882966D01*
X4430904Y-22895923D01*
X4417947Y-22911711D01*
X4417945Y-22911713D01*
X4379181Y-22958947D01*
X4340747Y-23030852D01*
X4330634Y-23064191D01*
X4317080Y-23108872D01*
X4313690Y-23143298D01*
X4309089Y-23190010D01*
X4311091Y-23210338D01*
X4311090Y-30532908D01*
X4206775Y-30533300D01*
X4140100Y-30599975D01*
X4140100Y-31334900D01*
X4160100Y-31334900D01*
X4160100Y-31665100D01*
X4140100Y-31665100D01*
X4140100Y-32400025D01*
X4206775Y-32466700D01*
X4550000Y-32467990D01*
X4602282Y-32462841D01*
X4652555Y-32447590D01*
X4698887Y-32422826D01*
X4739498Y-32389498D01*
X4753901Y-32371948D01*
X4779181Y-32419243D01*
X4782122Y-32422826D01*
X4830904Y-32482267D01*
X4846692Y-32495224D01*
X6629766Y-34278299D01*
X6642723Y-34294087D01*
X6705747Y-34345810D01*
X6777651Y-34384243D01*
X6855672Y-34407911D01*
X6916482Y-34413900D01*
X6916492Y-34413900D01*
X6936809Y-34415901D01*
X6957127Y-34413900D01*
X9609703Y-34413900D01*
X9609703Y-34450001D01*
X9620085Y-34555408D01*
X9650831Y-34656763D01*
X9700759Y-34750173D01*
X9767952Y-34832048D01*
X9849827Y-34899241D01*
X9943237Y-34949169D01*
X10044592Y-34979915D01*
X10061101Y-34981541D01*
X10061100Y-36518459D01*
X10044592Y-36520085D01*
X9943237Y-36550831D01*
X9849827Y-36600759D01*
X9767952Y-36667952D01*
X9700759Y-36749827D01*
X9650831Y-36843237D01*
X9620085Y-36944592D01*
X9609703Y-37049999D01*
X9609703Y-37950001D01*
X9620085Y-38055408D01*
X9650831Y-38156763D01*
X9700759Y-38250173D01*
X9767952Y-38332048D01*
X9849827Y-38399241D01*
X9943237Y-38449169D01*
X10044592Y-38479915D01*
X10149999Y-38490297D01*
X10800001Y-38490297D01*
X10905408Y-38479915D01*
X11006763Y-38449169D01*
X11100173Y-38399241D01*
X11182048Y-38332048D01*
X11249241Y-38250173D01*
X11299169Y-38156763D01*
X11329915Y-38055408D01*
X11340297Y-37950001D01*
X11340297Y-37049999D01*
X11329915Y-36944592D01*
X11299169Y-36843237D01*
X11249241Y-36749827D01*
X11182048Y-36667952D01*
X11100173Y-36600759D01*
X11006763Y-36550831D01*
X10905408Y-36520085D01*
X10888900Y-36518459D01*
X10888900Y-34981541D01*
X10905408Y-34979915D01*
X11006763Y-34949169D01*
X11100173Y-34899241D01*
X11182048Y-34832048D01*
X11249241Y-34750173D01*
X11299169Y-34656763D01*
X11329915Y-34555408D01*
X11340297Y-34450001D01*
X11340297Y-33549999D01*
X11329915Y-33444592D01*
X11299169Y-33343237D01*
X11249241Y-33249827D01*
X11182048Y-33167952D01*
X11100173Y-33100759D01*
X11006763Y-33050831D01*
X10905408Y-33020085D01*
X10800001Y-33009703D01*
X10149999Y-33009703D01*
X10044592Y-33020085D01*
X9943237Y-33050831D01*
X9849827Y-33100759D01*
X9767952Y-33167952D01*
X9700759Y-33249827D01*
X9650831Y-33343237D01*
X9620085Y-33444592D01*
X9609703Y-33549999D01*
X9609703Y-33586100D01*
X7108253Y-33586100D01*
X6012449Y-32490297D01*
X6350001Y-32490297D01*
X6455408Y-32479915D01*
X6556763Y-32449169D01*
X6650173Y-32399241D01*
X6732048Y-32332048D01*
X6799241Y-32250173D01*
X6849169Y-32156763D01*
X6879915Y-32055408D01*
X6890297Y-31950001D01*
X6890297Y-31200000D01*
X9632010Y-31200000D01*
X9637159Y-31252282D01*
X9652410Y-31302555D01*
X9677174Y-31348887D01*
X9710502Y-31389498D01*
X9751113Y-31422826D01*
X9797445Y-31447590D01*
X9847718Y-31462841D01*
X9900000Y-31467990D01*
X10243225Y-31466700D01*
X10309900Y-31400025D01*
X10309900Y-30665100D01*
X10640100Y-30665100D01*
X10640100Y-31400025D01*
X10706775Y-31466700D01*
X11050000Y-31467990D01*
X11102282Y-31462841D01*
X11152555Y-31447590D01*
X11198887Y-31422826D01*
X11239498Y-31389498D01*
X11272826Y-31348887D01*
X11297590Y-31302555D01*
X11312841Y-31252282D01*
X11317990Y-31200000D01*
X11316700Y-30731775D01*
X11250025Y-30665100D01*
X10640100Y-30665100D01*
X10309900Y-30665100D01*
X9699975Y-30665100D01*
X9633300Y-30731775D01*
X9632010Y-31200000D01*
X6890297Y-31200000D01*
X6890297Y-31049999D01*
X6879915Y-30944592D01*
X6849169Y-30843237D01*
X6799241Y-30749827D01*
X6732048Y-30667952D01*
X6650173Y-30600759D01*
X6556763Y-30550831D01*
X6455408Y-30520085D01*
X6438900Y-30518459D01*
X6438900Y-29800000D01*
X9632010Y-29800000D01*
X9633300Y-30268225D01*
X9699975Y-30334900D01*
X10309900Y-30334900D01*
X10309900Y-29599975D01*
X10640100Y-29599975D01*
X10640100Y-30334900D01*
X11250025Y-30334900D01*
X11316700Y-30268225D01*
X11317990Y-29800000D01*
X11312841Y-29747718D01*
X11297590Y-29697445D01*
X11272826Y-29651113D01*
X11239498Y-29610502D01*
X11198887Y-29577174D01*
X11152555Y-29552410D01*
X11102282Y-29537159D01*
X11050000Y-29532010D01*
X10706775Y-29533300D01*
X10640100Y-29599975D01*
X10309900Y-29599975D01*
X10243225Y-29533300D01*
X9900000Y-29532010D01*
X9847718Y-29537159D01*
X9797445Y-29552410D01*
X9751113Y-29577174D01*
X9710502Y-29610502D01*
X9677174Y-29651113D01*
X9652410Y-29697445D01*
X9637159Y-29747718D01*
X9632010Y-29800000D01*
X6438900Y-29800000D01*
X6438900Y-25995297D01*
X6850000Y-25995297D01*
X6935898Y-25986837D01*
X7018494Y-25961781D01*
X7094616Y-25921094D01*
X7161337Y-25866337D01*
X7216094Y-25799616D01*
X7256781Y-25723494D01*
X7281837Y-25640898D01*
X7290297Y-25555000D01*
X7290297Y-25255000D01*
X7281837Y-25169102D01*
X7256781Y-25086506D01*
X7216094Y-25010384D01*
X7161337Y-24943663D01*
X7094616Y-24888906D01*
X7018494Y-24848219D01*
X6935898Y-24823163D01*
X6850000Y-24814703D01*
X5200000Y-24814703D01*
X5138890Y-24820722D01*
X5138890Y-24719278D01*
X5200000Y-24725297D01*
X6850000Y-24725297D01*
X6935898Y-24716837D01*
X7018494Y-24691781D01*
X7075806Y-24661148D01*
X11975154Y-29560497D01*
X11899827Y-29600759D01*
X11817952Y-29667952D01*
X11750759Y-29749827D01*
X11700831Y-29843237D01*
X11670085Y-29944592D01*
X11659703Y-30049999D01*
X11659703Y-30950001D01*
X11670085Y-31055408D01*
X11700831Y-31156763D01*
X11750759Y-31250173D01*
X11817952Y-31332048D01*
X11899827Y-31399241D01*
X11993237Y-31449169D01*
X12094592Y-31479915D01*
X12111101Y-31481541D01*
X12111100Y-33018459D01*
X12094592Y-33020085D01*
X11993237Y-33050831D01*
X11899827Y-33100759D01*
X11817952Y-33167952D01*
X11750759Y-33249827D01*
X11700831Y-33343237D01*
X11670085Y-33444592D01*
X11659703Y-33549999D01*
X11659703Y-34450001D01*
X11670085Y-34555408D01*
X11700831Y-34656763D01*
X11750759Y-34750173D01*
X11817952Y-34832048D01*
X11899827Y-34899241D01*
X11993237Y-34949169D01*
X12094592Y-34979915D01*
X12199999Y-34990297D01*
X12850001Y-34990297D01*
X12955408Y-34979915D01*
X13011111Y-34963018D01*
X13011111Y-36428546D01*
X12922785Y-36516872D01*
X12850001Y-36509703D01*
X12199999Y-36509703D01*
X12094592Y-36520085D01*
X11993237Y-36550831D01*
X11899827Y-36600759D01*
X11817952Y-36667952D01*
X11750759Y-36749827D01*
X11700831Y-36843237D01*
X11670085Y-36944592D01*
X11659703Y-37049999D01*
X11659703Y-37950001D01*
X11670085Y-38055408D01*
X11700831Y-38156763D01*
X11736101Y-38222749D01*
X11736100Y-41159703D01*
X11175000Y-41159703D01*
X11118366Y-41165281D01*
X11063908Y-41181801D01*
X11013720Y-41208627D01*
X10969729Y-41244729D01*
X10933627Y-41288720D01*
X10906801Y-41338908D01*
X10890281Y-41393366D01*
X10884703Y-41450000D01*
X10884703Y-41586100D01*
X7765297Y-41586100D01*
X7765297Y-41450000D01*
X7759719Y-41393366D01*
X7743199Y-41338908D01*
X7716373Y-41288720D01*
X7680271Y-41244729D01*
X7636280Y-41208627D01*
X7586092Y-41181801D01*
X7531634Y-41165281D01*
X7475000Y-41159703D01*
X6438900Y-41159703D01*
X6438900Y-36981541D01*
X6455408Y-36979915D01*
X6556763Y-36949169D01*
X6650173Y-36899241D01*
X6732048Y-36832048D01*
X6799241Y-36750173D01*
X6849169Y-36656763D01*
X6879915Y-36555408D01*
X6890297Y-36450001D01*
X6890297Y-35549999D01*
X6879915Y-35444592D01*
X6849169Y-35343237D01*
X6799241Y-35249827D01*
X6732048Y-35167952D01*
X6650173Y-35100759D01*
X6556763Y-35050831D01*
X6455408Y-35020085D01*
X6350001Y-35009703D01*
X5699999Y-35009703D01*
X5594592Y-35020085D01*
X5493237Y-35050831D01*
X5399827Y-35100759D01*
X5317952Y-35167952D01*
X5250759Y-35249827D01*
X5200831Y-35343237D01*
X5170085Y-35444592D01*
X5159703Y-35549999D01*
X5159703Y-36450001D01*
X5170085Y-36555408D01*
X5200831Y-36656763D01*
X5250759Y-36750173D01*
X5317952Y-36832048D01*
X5399827Y-36899241D01*
X5493237Y-36949169D01*
X5594592Y-36979915D01*
X5611100Y-36981541D01*
X5611100Y-37479673D01*
X5611101Y-41159703D01*
X5525000Y-41159703D01*
X5468366Y-41165281D01*
X5413908Y-41181801D01*
X5363720Y-41208627D01*
X5319729Y-41244729D01*
X5283627Y-41288720D01*
X5256801Y-41338908D01*
X5240281Y-41393366D01*
X5234703Y-41450000D01*
X5234703Y-42550000D01*
X5240281Y-42606634D01*
X5256801Y-42661092D01*
X5283627Y-42711280D01*
X5319729Y-42755271D01*
X5363720Y-42791373D01*
X5413908Y-42818199D01*
X5468366Y-42834719D01*
X5525000Y-42840297D01*
X7475000Y-42840297D01*
X7531634Y-42834719D01*
X7586092Y-42818199D01*
X7636280Y-42791373D01*
X7680271Y-42755271D01*
X7716373Y-42711280D01*
X7743199Y-42661092D01*
X7759719Y-42606634D01*
X7765297Y-42550000D01*
X7765297Y-42413900D01*
X10884703Y-42413900D01*
X10884703Y-42550000D01*
X10890281Y-42606634D01*
X10906801Y-42661092D01*
X10933627Y-42711280D01*
X10969729Y-42755271D01*
X11013720Y-42791373D01*
X11063908Y-42818199D01*
X11118366Y-42834719D01*
X11175000Y-42840297D01*
X13125000Y-42840297D01*
X13181634Y-42834719D01*
X13236092Y-42818199D01*
X13286280Y-42791373D01*
X13330271Y-42755271D01*
X13366373Y-42711280D01*
X13393199Y-42661092D01*
X13409719Y-42606634D01*
X13415297Y-42550000D01*
X13415297Y-41450000D01*
X13409719Y-41393366D01*
X13393199Y-41338908D01*
X13366373Y-41288720D01*
X13330271Y-41244729D01*
X13286280Y-41208627D01*
X13236092Y-41181801D01*
X13181634Y-41165281D01*
X13125000Y-41159703D01*
X12563900Y-41159703D01*
X12563900Y-38490297D01*
X12850001Y-38490297D01*
X12955408Y-38479915D01*
X13056763Y-38449169D01*
X13150173Y-38399241D01*
X13232048Y-38332048D01*
X13299241Y-38250173D01*
X13349169Y-38156763D01*
X13379915Y-38055408D01*
X13390297Y-37950001D01*
X13390297Y-37220046D01*
X13703309Y-36907034D01*
X13719097Y-36894077D01*
X13770820Y-36831053D01*
X13809253Y-36759149D01*
X13832921Y-36681128D01*
X13838910Y-36620318D01*
X13838910Y-36620308D01*
X13840911Y-36599991D01*
X13838910Y-36579673D01*
X13838910Y-27875327D01*
X13840911Y-27855009D01*
X13838910Y-27834692D01*
X13838910Y-27834682D01*
X13832921Y-27773872D01*
X13809253Y-27695851D01*
X13770820Y-27623947D01*
X13719097Y-27560923D01*
X13703310Y-27547967D01*
X12062093Y-25906751D01*
X12111337Y-25866337D01*
X12166094Y-25799616D01*
X12206781Y-25723494D01*
X12231837Y-25640898D01*
X12240297Y-25555000D01*
X12240297Y-25255000D01*
X12231837Y-25169102D01*
X12206781Y-25086506D01*
X12166094Y-25010384D01*
X12160773Y-25003900D01*
X21911072Y-25003900D01*
X21915281Y-25046634D01*
X21931801Y-25101092D01*
X21958627Y-25151280D01*
X21994729Y-25195271D01*
X22030954Y-25225000D01*
X21994729Y-25254729D01*
X21958627Y-25298720D01*
X21931801Y-25348908D01*
X21915281Y-25403366D01*
X21909703Y-25460000D01*
X21909703Y-26260000D01*
X21915281Y-26316634D01*
X21931801Y-26371092D01*
X21958627Y-26421280D01*
X21994729Y-26465271D01*
X22037047Y-26500000D01*
X21994729Y-26534729D01*
X21958627Y-26578720D01*
X21931801Y-26628908D01*
X21915281Y-26683366D01*
X21909703Y-26740000D01*
X21909703Y-27540000D01*
X21915281Y-27596634D01*
X21931801Y-27651092D01*
X21958627Y-27701280D01*
X21994729Y-27745271D01*
X22030954Y-27775000D01*
X21994729Y-27804729D01*
X21958627Y-27848720D01*
X21931801Y-27898908D01*
X21915281Y-27953366D01*
X21909703Y-28010000D01*
X21909703Y-28810000D01*
X21915281Y-28866634D01*
X21931801Y-28921092D01*
X21958627Y-28971280D01*
X21994729Y-29015271D01*
X22024862Y-29040000D01*
X21994729Y-29064729D01*
X21958627Y-29108720D01*
X21931801Y-29158908D01*
X21915281Y-29213366D01*
X21909703Y-29270000D01*
X21909703Y-30070000D01*
X21915281Y-30126634D01*
X21931801Y-30181092D01*
X21958627Y-30231280D01*
X21994729Y-30275271D01*
X22037047Y-30310000D01*
X21994729Y-30344729D01*
X21958627Y-30388720D01*
X21931801Y-30438908D01*
X21915281Y-30493366D01*
X21909703Y-30550000D01*
X21909703Y-31350000D01*
X21915281Y-31406634D01*
X21931801Y-31461092D01*
X21958627Y-31511280D01*
X21994729Y-31555271D01*
X22038720Y-31591373D01*
X22088908Y-31618199D01*
X22143366Y-31634719D01*
X22200000Y-31640297D01*
X22436100Y-31640297D01*
X22436101Y-32478556D01*
X21771702Y-33142956D01*
X21755914Y-33155913D01*
X21742957Y-33171701D01*
X21742955Y-33171703D01*
X21704191Y-33218937D01*
X21665757Y-33290842D01*
X21642090Y-33368862D01*
X21634099Y-33450000D01*
X21636101Y-33470327D01*
X21636100Y-34979682D01*
X21634099Y-35000000D01*
X21636100Y-35020317D01*
X21636100Y-35020327D01*
X21642089Y-35081137D01*
X21665757Y-35159158D01*
X21704190Y-35231062D01*
X21755913Y-35294087D01*
X21771707Y-35307049D01*
X33509703Y-47045046D01*
X33509703Y-47600000D01*
X33515281Y-47656634D01*
X33531801Y-47711092D01*
X33558627Y-47761280D01*
X33594729Y-47805271D01*
X33638720Y-47841373D01*
X33688908Y-47868199D01*
X33743366Y-47884719D01*
X33800000Y-47890297D01*
X34700000Y-47890297D01*
X34756634Y-47884719D01*
X34811092Y-47868199D01*
X34861280Y-47841373D01*
X34905271Y-47805271D01*
X34941373Y-47761280D01*
X34968199Y-47711092D01*
X34984719Y-47656634D01*
X34990297Y-47600000D01*
X34990297Y-46800000D01*
X34984719Y-46743366D01*
X34968199Y-46688908D01*
X34941373Y-46638720D01*
X34905271Y-46594729D01*
X34861280Y-46558627D01*
X34811092Y-46531801D01*
X34756634Y-46515281D01*
X34700000Y-46509703D01*
X34145046Y-46509703D01*
X33335343Y-45700000D01*
X33532010Y-45700000D01*
X33537159Y-45752282D01*
X33552410Y-45802555D01*
X33577174Y-45848887D01*
X33610502Y-45889498D01*
X33651113Y-45922826D01*
X33697445Y-45947590D01*
X33747718Y-45962841D01*
X33800000Y-45967990D01*
X34018225Y-45966700D01*
X34084900Y-45900025D01*
X34084900Y-45465100D01*
X34415100Y-45465100D01*
X34415100Y-45900025D01*
X34481775Y-45966700D01*
X34700000Y-45967990D01*
X34752282Y-45962841D01*
X34802555Y-45947590D01*
X34848887Y-45922826D01*
X34889498Y-45889498D01*
X34921912Y-45850000D01*
X35509703Y-45850000D01*
X35509703Y-46650000D01*
X35515281Y-46706634D01*
X35531801Y-46761092D01*
X35558627Y-46811280D01*
X35594729Y-46855271D01*
X35638720Y-46891373D01*
X35688908Y-46918199D01*
X35743366Y-46934719D01*
X35800000Y-46940297D01*
X36700000Y-46940297D01*
X36756634Y-46934719D01*
X36811092Y-46918199D01*
X36861280Y-46891373D01*
X36905271Y-46855271D01*
X36941373Y-46811280D01*
X36968199Y-46761092D01*
X36984719Y-46706634D01*
X36988928Y-46663900D01*
X38859703Y-46663900D01*
X38859703Y-46700001D01*
X38870085Y-46805408D01*
X38900831Y-46906763D01*
X38950759Y-47000173D01*
X39017952Y-47082048D01*
X39099827Y-47149241D01*
X39193237Y-47199169D01*
X39294592Y-47229915D01*
X39399999Y-47240297D01*
X40050001Y-47240297D01*
X40155408Y-47229915D01*
X40256763Y-47199169D01*
X40350173Y-47149241D01*
X40432048Y-47082048D01*
X40499241Y-47000173D01*
X40549169Y-46906763D01*
X40579915Y-46805408D01*
X40590297Y-46700001D01*
X40590297Y-45799999D01*
X40909703Y-45799999D01*
X40909703Y-46700001D01*
X40920085Y-46805408D01*
X40950831Y-46906763D01*
X41000759Y-47000173D01*
X41067952Y-47082048D01*
X41149827Y-47149241D01*
X41243237Y-47199169D01*
X41344592Y-47229915D01*
X41449999Y-47240297D01*
X42100001Y-47240297D01*
X42172786Y-47233128D01*
X44217956Y-49278299D01*
X44230913Y-49294087D01*
X44293937Y-49345810D01*
X44365841Y-49384243D01*
X44443862Y-49407911D01*
X44504672Y-49413900D01*
X44504682Y-49413900D01*
X44524999Y-49415901D01*
X44545317Y-49413900D01*
X46448027Y-49413900D01*
X46464897Y-49439148D01*
X46560852Y-49535103D01*
X46673684Y-49610495D01*
X46799055Y-49662426D01*
X46932149Y-49688900D01*
X47067851Y-49688900D01*
X47200945Y-49662426D01*
X47326316Y-49610495D01*
X47439148Y-49535103D01*
X47535103Y-49439148D01*
X47610495Y-49326316D01*
X47662426Y-49200945D01*
X47688900Y-49067851D01*
X47688900Y-48932149D01*
X47662426Y-48799055D01*
X47610495Y-48673684D01*
X47535103Y-48560852D01*
X47439148Y-48464897D01*
X47326316Y-48389505D01*
X47200945Y-48337574D01*
X47067851Y-48311100D01*
X46932149Y-48311100D01*
X46799055Y-48337574D01*
X46673684Y-48389505D01*
X46560852Y-48464897D01*
X46464897Y-48560852D01*
X46448027Y-48586100D01*
X44696443Y-48586100D01*
X42640297Y-46529955D01*
X42640297Y-45799999D01*
X42629915Y-45694592D01*
X42599169Y-45593237D01*
X42549241Y-45499827D01*
X42482048Y-45417952D01*
X42400173Y-45350759D01*
X42306763Y-45300831D01*
X42205408Y-45270085D01*
X42100001Y-45259703D01*
X41449999Y-45259703D01*
X41344592Y-45270085D01*
X41243237Y-45300831D01*
X41149827Y-45350759D01*
X41067952Y-45417952D01*
X41000759Y-45499827D01*
X40950831Y-45593237D01*
X40920085Y-45694592D01*
X40909703Y-45799999D01*
X40590297Y-45799999D01*
X40579915Y-45694592D01*
X40549169Y-45593237D01*
X40499241Y-45499827D01*
X40432048Y-45417952D01*
X40350173Y-45350759D01*
X40256763Y-45300831D01*
X40155408Y-45270085D01*
X40050001Y-45259703D01*
X39399999Y-45259703D01*
X39294592Y-45270085D01*
X39193237Y-45300831D01*
X39099827Y-45350759D01*
X39017952Y-45417952D01*
X38950759Y-45499827D01*
X38900831Y-45593237D01*
X38870085Y-45694592D01*
X38859703Y-45799999D01*
X38859703Y-45836100D01*
X36988928Y-45836100D01*
X36984719Y-45793366D01*
X36968199Y-45738908D01*
X36941373Y-45688720D01*
X36905271Y-45644729D01*
X36861280Y-45608627D01*
X36811092Y-45581801D01*
X36756634Y-45565281D01*
X36700000Y-45559703D01*
X35800000Y-45559703D01*
X35743366Y-45565281D01*
X35688908Y-45581801D01*
X35638720Y-45608627D01*
X35594729Y-45644729D01*
X35558627Y-45688720D01*
X35531801Y-45738908D01*
X35515281Y-45793366D01*
X35509703Y-45850000D01*
X34921912Y-45850000D01*
X34922826Y-45848887D01*
X34947590Y-45802555D01*
X34962841Y-45752282D01*
X34967990Y-45700000D01*
X34966700Y-45531775D01*
X34900025Y-45465100D01*
X34415100Y-45465100D01*
X34084900Y-45465100D01*
X33599975Y-45465100D01*
X33533300Y-45531775D01*
X33532010Y-45700000D01*
X33335343Y-45700000D01*
X32535343Y-44900000D01*
X33532010Y-44900000D01*
X33533300Y-45068225D01*
X33599975Y-45134900D01*
X34084900Y-45134900D01*
X34084900Y-44699975D01*
X34415100Y-44699975D01*
X34415100Y-45134900D01*
X34900025Y-45134900D01*
X34966700Y-45068225D01*
X34967990Y-44900000D01*
X34962841Y-44847718D01*
X34947590Y-44797445D01*
X34922826Y-44751113D01*
X34889498Y-44710502D01*
X34848887Y-44677174D01*
X34802555Y-44652410D01*
X34752282Y-44637159D01*
X34700000Y-44632010D01*
X34481775Y-44633300D01*
X34415100Y-44699975D01*
X34084900Y-44699975D01*
X34018225Y-44633300D01*
X33800000Y-44632010D01*
X33747718Y-44637159D01*
X33697445Y-44652410D01*
X33651113Y-44677174D01*
X33610502Y-44710502D01*
X33577174Y-44751113D01*
X33552410Y-44797445D01*
X33537159Y-44847718D01*
X33532010Y-44900000D01*
X32535343Y-44900000D01*
X22463900Y-34828558D01*
X22463900Y-33621442D01*
X23128299Y-32957044D01*
X23144087Y-32944087D01*
X23195810Y-32881063D01*
X23234243Y-32809159D01*
X23257911Y-32731138D01*
X23263900Y-32670328D01*
X23263900Y-32670318D01*
X23265901Y-32650000D01*
X23263900Y-32629683D01*
X23263900Y-31640297D01*
X23500000Y-31640297D01*
X23556634Y-31634719D01*
X23611092Y-31618199D01*
X23661280Y-31591373D01*
X23705271Y-31555271D01*
X23741373Y-31511280D01*
X23768199Y-31461092D01*
X23784719Y-31406634D01*
X23790297Y-31350000D01*
X23790297Y-30550000D01*
X23784719Y-30493366D01*
X23768199Y-30438908D01*
X23741373Y-30388720D01*
X23705271Y-30344729D01*
X23662953Y-30310000D01*
X23705271Y-30275271D01*
X23741373Y-30231280D01*
X23768199Y-30181092D01*
X23784719Y-30126634D01*
X23788928Y-30083900D01*
X25034683Y-30083900D01*
X25055000Y-30085901D01*
X25075317Y-30083900D01*
X25075328Y-30083900D01*
X25136138Y-30077911D01*
X25214159Y-30054243D01*
X25286063Y-30015810D01*
X25349087Y-29964087D01*
X25362049Y-29948293D01*
X27402367Y-27907976D01*
X27432149Y-27913900D01*
X27567851Y-27913900D01*
X27700945Y-27887426D01*
X27826316Y-27835495D01*
X27939148Y-27760103D01*
X28035103Y-27664148D01*
X28110495Y-27551316D01*
X28162426Y-27425945D01*
X28188900Y-27292851D01*
X28188900Y-27157149D01*
X28162426Y-27024055D01*
X28110495Y-26898684D01*
X28035103Y-26785852D01*
X27939148Y-26689897D01*
X27826316Y-26614505D01*
X27700945Y-26562574D01*
X27567851Y-26536100D01*
X27432149Y-26536100D01*
X27299055Y-26562574D01*
X27173684Y-26614505D01*
X27060852Y-26689897D01*
X26964897Y-26785852D01*
X26889505Y-26898684D01*
X26837574Y-27024055D01*
X26811100Y-27157149D01*
X26811100Y-27292851D01*
X26817024Y-27322633D01*
X24883558Y-29256100D01*
X23788928Y-29256100D01*
X23784719Y-29213366D01*
X23768199Y-29158908D01*
X23741373Y-29108720D01*
X23705271Y-29064729D01*
X23675138Y-29040000D01*
X23705271Y-29015271D01*
X23741373Y-28971280D01*
X23768199Y-28921092D01*
X23784719Y-28866634D01*
X23789110Y-28822050D01*
X23831138Y-28817911D01*
X23909159Y-28794243D01*
X23981063Y-28755810D01*
X24044087Y-28704087D01*
X24057049Y-28688293D01*
X24103294Y-28642048D01*
X24119088Y-28629086D01*
X24170811Y-28566062D01*
X24209244Y-28494158D01*
X24232912Y-28416137D01*
X24238901Y-28355327D01*
X24238901Y-28355317D01*
X24240902Y-28335000D01*
X24238901Y-28314682D01*
X24238901Y-23425318D01*
X24240902Y-23405000D01*
X24238901Y-23384683D01*
X24238901Y-23384673D01*
X24232912Y-23323863D01*
X24209244Y-23245842D01*
X24170811Y-23173938D01*
X24119088Y-23110914D01*
X24103296Y-23097954D01*
X24057049Y-23051707D01*
X24044087Y-23035913D01*
X23981063Y-22984190D01*
X23909159Y-22945757D01*
X23831138Y-22922089D01*
X23789110Y-22917950D01*
X23784719Y-22873366D01*
X23768199Y-22818908D01*
X23741373Y-22768720D01*
X23705271Y-22724729D01*
X23662953Y-22690000D01*
X23705271Y-22655271D01*
X23741373Y-22611280D01*
X23768199Y-22561092D01*
X23784719Y-22506634D01*
X23790297Y-22450000D01*
X23790297Y-21650000D01*
X23784719Y-21593366D01*
X23768199Y-21538908D01*
X23741373Y-21488720D01*
X23705271Y-21444729D01*
X23661280Y-21408627D01*
X23611092Y-21381801D01*
X23556634Y-21365281D01*
X23500000Y-21359703D01*
X22200000Y-21359703D01*
X22143366Y-21365281D01*
X22088908Y-21381801D01*
X22038720Y-21408627D01*
X21994729Y-21444729D01*
X21958627Y-21488720D01*
X21931801Y-21538908D01*
X21915281Y-21593366D01*
X21909703Y-21650000D01*
X21909703Y-21806110D01*
X12196035Y-21806110D01*
X12150025Y-21760100D01*
X11140100Y-21760100D01*
X11140100Y-21780100D01*
X10809900Y-21780100D01*
X10809900Y-21760100D01*
X9799975Y-21760100D01*
X9753965Y-21806110D01*
X7284278Y-21806110D01*
X7290297Y-21745000D01*
X7290297Y-21445000D01*
X7281837Y-21359102D01*
X7262392Y-21295000D01*
X9732010Y-21295000D01*
X9733300Y-21363225D01*
X9799975Y-21429900D01*
X10809900Y-21429900D01*
X10809900Y-21094975D01*
X11140100Y-21094975D01*
X11140100Y-21429900D01*
X12150025Y-21429900D01*
X12216700Y-21363225D01*
X12217990Y-21295000D01*
X12212841Y-21242718D01*
X12197590Y-21192445D01*
X12172826Y-21146113D01*
X12139498Y-21105502D01*
X12098887Y-21072174D01*
X12052555Y-21047410D01*
X12002282Y-21032159D01*
X11950000Y-21027010D01*
X11206775Y-21028300D01*
X11140100Y-21094975D01*
X10809900Y-21094975D01*
X10743225Y-21028300D01*
X10000000Y-21027010D01*
X9947718Y-21032159D01*
X9897445Y-21047410D01*
X9851113Y-21072174D01*
X9810502Y-21105502D01*
X9777174Y-21146113D01*
X9752410Y-21192445D01*
X9737159Y-21242718D01*
X9732010Y-21295000D01*
X7262392Y-21295000D01*
X7256781Y-21276506D01*
X7216094Y-21200384D01*
X7161337Y-21133663D01*
X7094616Y-21078906D01*
X7018494Y-21038219D01*
X6935898Y-21013163D01*
X6850000Y-21004703D01*
X6020046Y-21004703D01*
X4913900Y-19898558D01*
X4913900Y-18551973D01*
X4939148Y-18535103D01*
X5035103Y-18439148D01*
X5110495Y-18326316D01*
X5162426Y-18200945D01*
X5188900Y-18067851D01*
X5188900Y-17932149D01*
X5162426Y-17799055D01*
X5110495Y-17673684D01*
X5035103Y-17560852D01*
X4939148Y-17464897D01*
X4826316Y-17389505D01*
X4700945Y-17337574D01*
X4567851Y-17311100D01*
X4432149Y-17311100D01*
X4299055Y-17337574D01*
X4173684Y-17389505D01*
X4060852Y-17464897D01*
X3964897Y-17560852D01*
X3889505Y-17673684D01*
X3837574Y-17799055D01*
X3811100Y-17932149D01*
X291300Y-17932149D01*
X291300Y-11025001D01*
X27759098Y-11025001D01*
X27761100Y-11045329D01*
X27761099Y-24494681D01*
X27759098Y-24514999D01*
X27761099Y-24535316D01*
X27761099Y-24535326D01*
X27767088Y-24596136D01*
X27790756Y-24674157D01*
X27829189Y-24746061D01*
X27880912Y-24809086D01*
X27896706Y-24822048D01*
X27942951Y-24868293D01*
X27955913Y-24884087D01*
X28018937Y-24935810D01*
X28090841Y-24974243D01*
X28168862Y-24997911D01*
X28210890Y-25002050D01*
X28215281Y-25046634D01*
X28231801Y-25101092D01*
X28258627Y-25151280D01*
X28294729Y-25195271D01*
X28330954Y-25225000D01*
X28294729Y-25254729D01*
X28258627Y-25298720D01*
X28231801Y-25348908D01*
X28215281Y-25403366D01*
X28209703Y-25460000D01*
X28209703Y-26260000D01*
X28215281Y-26316634D01*
X28231801Y-26371092D01*
X28258627Y-26421280D01*
X28294729Y-26465271D01*
X28337047Y-26500000D01*
X28294729Y-26534729D01*
X28258627Y-26578720D01*
X28231801Y-26628908D01*
X28215281Y-26683366D01*
X28209703Y-26740000D01*
X28209703Y-27540000D01*
X28215281Y-27596634D01*
X28231801Y-27651092D01*
X28258627Y-27701280D01*
X28294729Y-27745271D01*
X28330954Y-27775000D01*
X28294729Y-27804729D01*
X28258627Y-27848720D01*
X28231801Y-27898908D01*
X28215281Y-27953366D01*
X28210890Y-27997950D01*
X28168862Y-28002089D01*
X28090841Y-28025757D01*
X28018937Y-28064190D01*
X27955913Y-28115913D01*
X27942951Y-28131707D01*
X27896706Y-28177952D01*
X27880912Y-28190914D01*
X27829189Y-28253939D01*
X27790756Y-28325843D01*
X27767088Y-28403864D01*
X27761099Y-28464674D01*
X27761099Y-28464684D01*
X27759098Y-28485001D01*
X27761099Y-28505319D01*
X27761100Y-35604671D01*
X27759098Y-35624999D01*
X27767089Y-35706137D01*
X27790756Y-35784157D01*
X27817879Y-35834900D01*
X27829190Y-35856062D01*
X27880913Y-35919086D01*
X27896701Y-35932043D01*
X33509703Y-41545046D01*
X33509703Y-42100000D01*
X33515281Y-42156634D01*
X33531801Y-42211092D01*
X33558627Y-42261280D01*
X33594729Y-42305271D01*
X33638720Y-42341373D01*
X33688908Y-42368199D01*
X33743366Y-42384719D01*
X33800000Y-42390297D01*
X34700000Y-42390297D01*
X34756634Y-42384719D01*
X34811092Y-42368199D01*
X34861280Y-42341373D01*
X34905271Y-42305271D01*
X34941373Y-42261280D01*
X34968199Y-42211092D01*
X34984719Y-42156634D01*
X34990297Y-42100000D01*
X34990297Y-41300000D01*
X34984719Y-41243366D01*
X34968199Y-41188908D01*
X34941373Y-41138720D01*
X34905271Y-41094729D01*
X34861280Y-41058627D01*
X34811092Y-41031801D01*
X34756634Y-41015281D01*
X34700000Y-41009703D01*
X34145046Y-41009703D01*
X33335343Y-40200000D01*
X33532010Y-40200000D01*
X33537159Y-40252282D01*
X33552410Y-40302555D01*
X33577174Y-40348887D01*
X33610502Y-40389498D01*
X33651113Y-40422826D01*
X33697445Y-40447590D01*
X33747718Y-40462841D01*
X33800000Y-40467990D01*
X34018225Y-40466700D01*
X34084900Y-40400025D01*
X34084900Y-39965100D01*
X34415100Y-39965100D01*
X34415100Y-40400025D01*
X34481775Y-40466700D01*
X34700000Y-40467990D01*
X34752282Y-40462841D01*
X34802555Y-40447590D01*
X34848887Y-40422826D01*
X34889498Y-40389498D01*
X34921912Y-40350000D01*
X35509703Y-40350000D01*
X35509703Y-41150000D01*
X35515281Y-41206634D01*
X35531801Y-41261092D01*
X35558627Y-41311280D01*
X35594729Y-41355271D01*
X35638720Y-41391373D01*
X35688908Y-41418199D01*
X35743366Y-41434719D01*
X35800000Y-41440297D01*
X36700000Y-41440297D01*
X36756634Y-41434719D01*
X36811092Y-41418199D01*
X36861280Y-41391373D01*
X36905271Y-41355271D01*
X36941373Y-41311280D01*
X36968199Y-41261092D01*
X36984719Y-41206634D01*
X36988928Y-41163900D01*
X38859703Y-41163900D01*
X38859703Y-41200001D01*
X38870085Y-41305408D01*
X38900831Y-41406763D01*
X38950759Y-41500173D01*
X39017952Y-41582048D01*
X39099827Y-41649241D01*
X39193237Y-41699169D01*
X39294592Y-41729915D01*
X39399999Y-41740297D01*
X40050001Y-41740297D01*
X40155408Y-41729915D01*
X40256763Y-41699169D01*
X40350173Y-41649241D01*
X40432048Y-41582048D01*
X40499241Y-41500173D01*
X40549169Y-41406763D01*
X40579915Y-41305408D01*
X40590297Y-41200001D01*
X40590297Y-40299999D01*
X40909703Y-40299999D01*
X40909703Y-41200001D01*
X40920085Y-41305408D01*
X40950831Y-41406763D01*
X41000759Y-41500173D01*
X41067952Y-41582048D01*
X41149827Y-41649241D01*
X41243237Y-41699169D01*
X41344592Y-41729915D01*
X41449999Y-41740297D01*
X42100001Y-41740297D01*
X42172786Y-41733128D01*
X45217955Y-44778298D01*
X45230913Y-44794087D01*
X45293937Y-44845810D01*
X45365841Y-44884243D01*
X45443862Y-44907911D01*
X45504672Y-44913900D01*
X45504682Y-44913900D01*
X45525000Y-44915901D01*
X45545317Y-44913900D01*
X46448027Y-44913900D01*
X46464897Y-44939148D01*
X46560852Y-45035103D01*
X46673684Y-45110495D01*
X46799055Y-45162426D01*
X46932149Y-45188900D01*
X47067851Y-45188900D01*
X47200945Y-45162426D01*
X47326316Y-45110495D01*
X47439148Y-45035103D01*
X47535103Y-44939148D01*
X47610495Y-44826316D01*
X47662426Y-44700945D01*
X47688900Y-44567851D01*
X47688900Y-44432149D01*
X47662426Y-44299055D01*
X47610495Y-44173684D01*
X47535103Y-44060852D01*
X47439148Y-43964897D01*
X47326316Y-43889505D01*
X47200945Y-43837574D01*
X47067851Y-43811100D01*
X46932149Y-43811100D01*
X46799055Y-43837574D01*
X46673684Y-43889505D01*
X46560852Y-43964897D01*
X46464897Y-44060852D01*
X46448027Y-44086100D01*
X45696443Y-44086100D01*
X42640297Y-41029955D01*
X42640297Y-40299999D01*
X42629915Y-40194592D01*
X42599169Y-40093237D01*
X42549241Y-39999827D01*
X42482048Y-39917952D01*
X42400173Y-39850759D01*
X42306763Y-39800831D01*
X42205408Y-39770085D01*
X42100001Y-39759703D01*
X41449999Y-39759703D01*
X41344592Y-39770085D01*
X41243237Y-39800831D01*
X41149827Y-39850759D01*
X41067952Y-39917952D01*
X41000759Y-39999827D01*
X40950831Y-40093237D01*
X40920085Y-40194592D01*
X40909703Y-40299999D01*
X40590297Y-40299999D01*
X40579915Y-40194592D01*
X40549169Y-40093237D01*
X40499241Y-39999827D01*
X40432048Y-39917952D01*
X40350173Y-39850759D01*
X40256763Y-39800831D01*
X40155408Y-39770085D01*
X40050001Y-39759703D01*
X39399999Y-39759703D01*
X39294592Y-39770085D01*
X39193237Y-39800831D01*
X39099827Y-39850759D01*
X39017952Y-39917952D01*
X38950759Y-39999827D01*
X38900831Y-40093237D01*
X38870085Y-40194592D01*
X38859703Y-40299999D01*
X38859703Y-40336100D01*
X36988928Y-40336100D01*
X36984719Y-40293366D01*
X36968199Y-40238908D01*
X36941373Y-40188720D01*
X36905271Y-40144729D01*
X36861280Y-40108627D01*
X36811092Y-40081801D01*
X36756634Y-40065281D01*
X36700000Y-40059703D01*
X35800000Y-40059703D01*
X35743366Y-40065281D01*
X35688908Y-40081801D01*
X35638720Y-40108627D01*
X35594729Y-40144729D01*
X35558627Y-40188720D01*
X35531801Y-40238908D01*
X35515281Y-40293366D01*
X35509703Y-40350000D01*
X34921912Y-40350000D01*
X34922826Y-40348887D01*
X34947590Y-40302555D01*
X34962841Y-40252282D01*
X34967990Y-40200000D01*
X34966700Y-40031775D01*
X34900025Y-39965100D01*
X34415100Y-39965100D01*
X34084900Y-39965100D01*
X33599975Y-39965100D01*
X33533300Y-40031775D01*
X33532010Y-40200000D01*
X33335343Y-40200000D01*
X32535343Y-39400000D01*
X33532010Y-39400000D01*
X33533300Y-39568225D01*
X33599975Y-39634900D01*
X34084900Y-39634900D01*
X34084900Y-39199975D01*
X34415100Y-39199975D01*
X34415100Y-39634900D01*
X34900025Y-39634900D01*
X34966700Y-39568225D01*
X34967990Y-39400000D01*
X34962841Y-39347718D01*
X34947590Y-39297445D01*
X34922826Y-39251113D01*
X34889498Y-39210502D01*
X34848887Y-39177174D01*
X34802555Y-39152410D01*
X34752282Y-39137159D01*
X34700000Y-39132010D01*
X34481775Y-39133300D01*
X34415100Y-39199975D01*
X34084900Y-39199975D01*
X34018225Y-39133300D01*
X33800000Y-39132010D01*
X33747718Y-39137159D01*
X33697445Y-39152410D01*
X33651113Y-39177174D01*
X33610502Y-39210502D01*
X33577174Y-39251113D01*
X33552410Y-39297445D01*
X33537159Y-39347718D01*
X33532010Y-39400000D01*
X32535343Y-39400000D01*
X28588899Y-35453557D01*
X28588899Y-31617716D01*
X28918225Y-31616700D01*
X28984900Y-31550025D01*
X28984900Y-31115100D01*
X29315100Y-31115100D01*
X29315100Y-31550025D01*
X29381775Y-31616700D01*
X29800000Y-31617990D01*
X29852282Y-31612841D01*
X29902555Y-31597590D01*
X29948887Y-31572826D01*
X29989498Y-31539498D01*
X30022826Y-31498887D01*
X30047590Y-31452555D01*
X30062841Y-31402282D01*
X30067990Y-31350000D01*
X30066700Y-31181775D01*
X30000025Y-31115100D01*
X29315100Y-31115100D01*
X28984900Y-31115100D01*
X28964900Y-31115100D01*
X28964900Y-30784900D01*
X28984900Y-30784900D01*
X28984900Y-30764900D01*
X29315100Y-30764900D01*
X29315100Y-30784900D01*
X30000025Y-30784900D01*
X30066700Y-30718225D01*
X30067990Y-30550000D01*
X30062841Y-30497718D01*
X30047590Y-30447445D01*
X30022826Y-30401113D01*
X29989498Y-30360502D01*
X29948887Y-30327174D01*
X29940303Y-30322586D01*
X29961280Y-30311373D01*
X30005271Y-30275271D01*
X30041373Y-30231280D01*
X30068199Y-30181092D01*
X30084719Y-30126634D01*
X30088928Y-30083900D01*
X30223558Y-30083900D01*
X30317024Y-30177366D01*
X30311100Y-30207149D01*
X30311100Y-30342851D01*
X30337574Y-30475945D01*
X30389505Y-30601316D01*
X30464897Y-30714148D01*
X30560852Y-30810103D01*
X30673684Y-30885495D01*
X30799055Y-30937426D01*
X30932149Y-30963900D01*
X31067851Y-30963900D01*
X31200945Y-30937426D01*
X31326316Y-30885495D01*
X31439148Y-30810103D01*
X31535103Y-30714148D01*
X31586100Y-30637825D01*
X31586101Y-34179672D01*
X31584099Y-34200000D01*
X31592090Y-34281138D01*
X31615757Y-34359158D01*
X31641816Y-34407911D01*
X31654191Y-34431063D01*
X31705914Y-34494087D01*
X31721702Y-34507044D01*
X33509703Y-36295046D01*
X33509703Y-36850000D01*
X33515281Y-36906634D01*
X33531801Y-36961092D01*
X33558627Y-37011280D01*
X33594729Y-37055271D01*
X33638720Y-37091373D01*
X33688908Y-37118199D01*
X33743366Y-37134719D01*
X33800000Y-37140297D01*
X34700000Y-37140297D01*
X34756634Y-37134719D01*
X34811092Y-37118199D01*
X34861280Y-37091373D01*
X34905271Y-37055271D01*
X34941373Y-37011280D01*
X34968199Y-36961092D01*
X34984719Y-36906634D01*
X34990297Y-36850000D01*
X34990297Y-36050000D01*
X34984719Y-35993366D01*
X34968199Y-35938908D01*
X34941373Y-35888720D01*
X34905271Y-35844729D01*
X34861280Y-35808627D01*
X34811092Y-35781801D01*
X34756634Y-35765281D01*
X34700000Y-35759703D01*
X34145046Y-35759703D01*
X33335343Y-34950000D01*
X33532010Y-34950000D01*
X33537159Y-35002282D01*
X33552410Y-35052555D01*
X33577174Y-35098887D01*
X33610502Y-35139498D01*
X33651113Y-35172826D01*
X33697445Y-35197590D01*
X33747718Y-35212841D01*
X33800000Y-35217990D01*
X34018225Y-35216700D01*
X34084900Y-35150025D01*
X34084900Y-34715100D01*
X34415100Y-34715100D01*
X34415100Y-35150025D01*
X34481775Y-35216700D01*
X34700000Y-35217990D01*
X34752282Y-35212841D01*
X34802555Y-35197590D01*
X34848887Y-35172826D01*
X34889498Y-35139498D01*
X34921912Y-35100000D01*
X35509703Y-35100000D01*
X35509703Y-35900000D01*
X35515281Y-35956634D01*
X35531801Y-36011092D01*
X35558627Y-36061280D01*
X35594729Y-36105271D01*
X35638720Y-36141373D01*
X35688908Y-36168199D01*
X35743366Y-36184719D01*
X35800000Y-36190297D01*
X36700000Y-36190297D01*
X36756634Y-36184719D01*
X36811092Y-36168199D01*
X36861280Y-36141373D01*
X36905271Y-36105271D01*
X36941373Y-36061280D01*
X36968199Y-36011092D01*
X36984719Y-35956634D01*
X36988928Y-35913900D01*
X38859703Y-35913900D01*
X38859703Y-35950001D01*
X38870085Y-36055408D01*
X38900831Y-36156763D01*
X38950759Y-36250173D01*
X39017952Y-36332048D01*
X39099827Y-36399241D01*
X39193237Y-36449169D01*
X39294592Y-36479915D01*
X39399999Y-36490297D01*
X40050001Y-36490297D01*
X40155408Y-36479915D01*
X40256763Y-36449169D01*
X40350173Y-36399241D01*
X40432048Y-36332048D01*
X40499241Y-36250173D01*
X40549169Y-36156763D01*
X40579915Y-36055408D01*
X40590297Y-35950001D01*
X40590297Y-35049999D01*
X40909703Y-35049999D01*
X40909703Y-35950001D01*
X40920085Y-36055408D01*
X40950831Y-36156763D01*
X41000759Y-36250173D01*
X41067952Y-36332048D01*
X41149827Y-36399241D01*
X41243237Y-36449169D01*
X41344592Y-36479915D01*
X41449999Y-36490297D01*
X42100001Y-36490297D01*
X42172786Y-36483128D01*
X45967956Y-40278299D01*
X45980913Y-40294087D01*
X46043937Y-40345810D01*
X46115841Y-40384243D01*
X46193862Y-40407911D01*
X46254672Y-40413900D01*
X46254682Y-40413900D01*
X46274999Y-40415901D01*
X46295317Y-40413900D01*
X46448027Y-40413900D01*
X46464897Y-40439148D01*
X46560852Y-40535103D01*
X46673684Y-40610495D01*
X46799055Y-40662426D01*
X46932149Y-40688900D01*
X47067851Y-40688900D01*
X47200945Y-40662426D01*
X47326316Y-40610495D01*
X47439148Y-40535103D01*
X47535103Y-40439148D01*
X47610495Y-40326316D01*
X47662426Y-40200945D01*
X47688900Y-40067851D01*
X47688900Y-39932149D01*
X47662426Y-39799055D01*
X47610495Y-39673684D01*
X47535103Y-39560852D01*
X47439148Y-39464897D01*
X47326316Y-39389505D01*
X47200945Y-39337574D01*
X47067851Y-39311100D01*
X46932149Y-39311100D01*
X46799055Y-39337574D01*
X46673684Y-39389505D01*
X46560852Y-39464897D01*
X46464897Y-39560852D01*
X46448027Y-39586100D01*
X46446443Y-39586100D01*
X42640297Y-35779955D01*
X42640297Y-35049999D01*
X42629915Y-34944592D01*
X42599169Y-34843237D01*
X42549241Y-34749827D01*
X42482048Y-34667952D01*
X42400173Y-34600759D01*
X42306763Y-34550831D01*
X42205408Y-34520085D01*
X42100001Y-34509703D01*
X41449999Y-34509703D01*
X41344592Y-34520085D01*
X41243237Y-34550831D01*
X41149827Y-34600759D01*
X41067952Y-34667952D01*
X41000759Y-34749827D01*
X40950831Y-34843237D01*
X40920085Y-34944592D01*
X40909703Y-35049999D01*
X40590297Y-35049999D01*
X40579915Y-34944592D01*
X40549169Y-34843237D01*
X40499241Y-34749827D01*
X40432048Y-34667952D01*
X40350173Y-34600759D01*
X40256763Y-34550831D01*
X40155408Y-34520085D01*
X40050001Y-34509703D01*
X39399999Y-34509703D01*
X39294592Y-34520085D01*
X39193237Y-34550831D01*
X39099827Y-34600759D01*
X39017952Y-34667952D01*
X38950759Y-34749827D01*
X38900831Y-34843237D01*
X38870085Y-34944592D01*
X38859703Y-35049999D01*
X38859703Y-35086100D01*
X36988928Y-35086100D01*
X36984719Y-35043366D01*
X36968199Y-34988908D01*
X36941373Y-34938720D01*
X36905271Y-34894729D01*
X36861280Y-34858627D01*
X36811092Y-34831801D01*
X36756634Y-34815281D01*
X36700000Y-34809703D01*
X35800000Y-34809703D01*
X35743366Y-34815281D01*
X35688908Y-34831801D01*
X35638720Y-34858627D01*
X35594729Y-34894729D01*
X35558627Y-34938720D01*
X35531801Y-34988908D01*
X35515281Y-35043366D01*
X35509703Y-35100000D01*
X34921912Y-35100000D01*
X34922826Y-35098887D01*
X34947590Y-35052555D01*
X34962841Y-35002282D01*
X34967990Y-34950000D01*
X34966700Y-34781775D01*
X34900025Y-34715100D01*
X34415100Y-34715100D01*
X34084900Y-34715100D01*
X33599975Y-34715100D01*
X33533300Y-34781775D01*
X33532010Y-34950000D01*
X33335343Y-34950000D01*
X32535343Y-34150000D01*
X33532010Y-34150000D01*
X33533300Y-34318225D01*
X33599975Y-34384900D01*
X34084900Y-34384900D01*
X34084900Y-33949975D01*
X34415100Y-33949975D01*
X34415100Y-34384900D01*
X34900025Y-34384900D01*
X34966700Y-34318225D01*
X34967990Y-34150000D01*
X34962841Y-34097718D01*
X34947590Y-34047445D01*
X34922826Y-34001113D01*
X34889498Y-33960502D01*
X34848887Y-33927174D01*
X34802555Y-33902410D01*
X34752282Y-33887159D01*
X34700000Y-33882010D01*
X34481775Y-33883300D01*
X34415100Y-33949975D01*
X34084900Y-33949975D01*
X34018225Y-33883300D01*
X33800000Y-33882010D01*
X33747718Y-33887159D01*
X33697445Y-33902410D01*
X33651113Y-33927174D01*
X33610502Y-33960502D01*
X33577174Y-34001113D01*
X33552410Y-34047445D01*
X33537159Y-34097718D01*
X33532010Y-34150000D01*
X32535343Y-34150000D01*
X32413900Y-34028558D01*
X32413900Y-29700000D01*
X33532010Y-29700000D01*
X33537159Y-29752282D01*
X33552410Y-29802555D01*
X33577174Y-29848887D01*
X33610502Y-29889498D01*
X33651113Y-29922826D01*
X33697445Y-29947590D01*
X33747718Y-29962841D01*
X33800000Y-29967990D01*
X34018225Y-29966700D01*
X34084900Y-29900025D01*
X34084900Y-29465100D01*
X33599975Y-29465100D01*
X33533300Y-29531775D01*
X33532010Y-29700000D01*
X32413900Y-29700000D01*
X32413900Y-29110317D01*
X32415901Y-29089999D01*
X32413900Y-29069682D01*
X32413900Y-29069672D01*
X32407911Y-29008862D01*
X32384243Y-28930841D01*
X32367759Y-28900000D01*
X33532010Y-28900000D01*
X33533300Y-29068225D01*
X33599975Y-29134900D01*
X34084900Y-29134900D01*
X34084900Y-28699975D01*
X34018225Y-28633300D01*
X33800000Y-28632010D01*
X33747718Y-28637159D01*
X33697445Y-28652410D01*
X33651113Y-28677174D01*
X33610502Y-28710502D01*
X33577174Y-28751113D01*
X33552410Y-28797445D01*
X33537159Y-28847718D01*
X33532010Y-28900000D01*
X32367759Y-28900000D01*
X32345810Y-28858937D01*
X32317056Y-28823900D01*
X32307045Y-28811702D01*
X32307044Y-28811701D01*
X32294087Y-28795913D01*
X32278300Y-28782957D01*
X32164932Y-28669589D01*
X32200945Y-28662426D01*
X32326316Y-28610495D01*
X32439148Y-28535103D01*
X32535103Y-28439148D01*
X32610495Y-28326316D01*
X32662426Y-28200945D01*
X32688900Y-28067851D01*
X32688900Y-27932149D01*
X32682976Y-27902367D01*
X33018319Y-27567024D01*
X33030381Y-27596143D01*
X33105773Y-27708975D01*
X33201728Y-27804930D01*
X33314560Y-27880322D01*
X33439931Y-27932253D01*
X33573025Y-27958727D01*
X33708727Y-27958727D01*
X33841821Y-27932253D01*
X33967192Y-27880322D01*
X34080024Y-27804930D01*
X34175979Y-27708975D01*
X34251371Y-27596143D01*
X34303302Y-27470772D01*
X34329776Y-27337678D01*
X34329776Y-27201976D01*
X34303302Y-27068882D01*
X34251371Y-26943511D01*
X34175979Y-26830679D01*
X34080024Y-26734724D01*
X34062397Y-26722946D01*
X34145045Y-26640297D01*
X34700000Y-26640297D01*
X34756634Y-26634719D01*
X34811092Y-26618199D01*
X34860013Y-26592050D01*
X34860013Y-28686305D01*
X34848887Y-28677174D01*
X34802555Y-28652410D01*
X34752282Y-28637159D01*
X34700000Y-28632010D01*
X34481775Y-28633300D01*
X34415100Y-28699975D01*
X34415100Y-29134900D01*
X34435100Y-29134900D01*
X34435100Y-29465100D01*
X34415100Y-29465100D01*
X34415100Y-29900025D01*
X34457367Y-29942292D01*
X33971706Y-30427953D01*
X33955913Y-30440915D01*
X33904190Y-30503940D01*
X33901110Y-30509703D01*
X33800000Y-30509703D01*
X33743366Y-30515281D01*
X33688908Y-30531801D01*
X33638720Y-30558627D01*
X33594729Y-30594729D01*
X33558627Y-30638720D01*
X33531801Y-30688908D01*
X33515281Y-30743366D01*
X33509703Y-30800000D01*
X33509703Y-31600000D01*
X33515281Y-31656634D01*
X33531801Y-31711092D01*
X33558627Y-31761280D01*
X33594729Y-31805271D01*
X33638720Y-31841373D01*
X33688908Y-31868199D01*
X33743366Y-31884719D01*
X33800000Y-31890297D01*
X34700000Y-31890297D01*
X34756634Y-31884719D01*
X34811092Y-31868199D01*
X34861280Y-31841373D01*
X34905271Y-31805271D01*
X34941373Y-31761280D01*
X34968199Y-31711092D01*
X34984719Y-31656634D01*
X34990297Y-31600000D01*
X34990297Y-30800000D01*
X34984719Y-30743366D01*
X34968199Y-30688908D01*
X34941373Y-30638720D01*
X34936979Y-30633366D01*
X35509703Y-30060642D01*
X35509703Y-30650000D01*
X35515281Y-30706634D01*
X35531801Y-30761092D01*
X35558627Y-30811280D01*
X35594729Y-30855271D01*
X35638720Y-30891373D01*
X35688908Y-30918199D01*
X35743366Y-30934719D01*
X35800000Y-30940297D01*
X36700000Y-30940297D01*
X36756634Y-30934719D01*
X36811092Y-30918199D01*
X36861280Y-30891373D01*
X36905271Y-30855271D01*
X36941373Y-30811280D01*
X36968199Y-30761092D01*
X36984719Y-30706634D01*
X36988928Y-30663900D01*
X38884703Y-30663900D01*
X38884703Y-30700001D01*
X38895085Y-30805408D01*
X38925831Y-30906763D01*
X38975759Y-31000173D01*
X39042952Y-31082048D01*
X39124827Y-31149241D01*
X39218237Y-31199169D01*
X39319592Y-31229915D01*
X39424999Y-31240297D01*
X40075001Y-31240297D01*
X40180408Y-31229915D01*
X40281763Y-31199169D01*
X40375173Y-31149241D01*
X40457048Y-31082048D01*
X40524241Y-31000173D01*
X40574169Y-30906763D01*
X40604915Y-30805408D01*
X40615297Y-30700001D01*
X40615297Y-29799999D01*
X40934703Y-29799999D01*
X40934703Y-30700001D01*
X40945085Y-30805408D01*
X40975831Y-30906763D01*
X41025759Y-31000173D01*
X41092952Y-31082048D01*
X41174827Y-31149241D01*
X41268237Y-31199169D01*
X41369592Y-31229915D01*
X41474999Y-31240297D01*
X42125001Y-31240297D01*
X42152269Y-31237611D01*
X46317024Y-35402367D01*
X46311100Y-35432149D01*
X46311100Y-35567851D01*
X46337574Y-35700945D01*
X46389505Y-35826316D01*
X46464897Y-35939148D01*
X46560852Y-36035103D01*
X46673684Y-36110495D01*
X46799055Y-36162426D01*
X46932149Y-36188900D01*
X47067851Y-36188900D01*
X47200945Y-36162426D01*
X47326316Y-36110495D01*
X47439148Y-36035103D01*
X47535103Y-35939148D01*
X47610495Y-35826316D01*
X47662426Y-35700945D01*
X47688900Y-35567851D01*
X47688900Y-35432149D01*
X47662426Y-35299055D01*
X47610495Y-35173684D01*
X47535103Y-35060852D01*
X47439148Y-34964897D01*
X47326316Y-34889505D01*
X47200945Y-34837574D01*
X47067851Y-34811100D01*
X46932149Y-34811100D01*
X46902367Y-34817024D01*
X42665297Y-30579955D01*
X42665297Y-29799999D01*
X42654915Y-29694592D01*
X42624169Y-29593237D01*
X42574241Y-29499827D01*
X42507048Y-29417952D01*
X42425173Y-29350759D01*
X42331763Y-29300831D01*
X42230408Y-29270085D01*
X42125001Y-29259703D01*
X41474999Y-29259703D01*
X41369592Y-29270085D01*
X41268237Y-29300831D01*
X41174827Y-29350759D01*
X41092952Y-29417952D01*
X41025759Y-29499827D01*
X40975831Y-29593237D01*
X40945085Y-29694592D01*
X40934703Y-29799999D01*
X40615297Y-29799999D01*
X40604915Y-29694592D01*
X40574169Y-29593237D01*
X40524241Y-29499827D01*
X40457048Y-29417952D01*
X40375173Y-29350759D01*
X40281763Y-29300831D01*
X40180408Y-29270085D01*
X40075001Y-29259703D01*
X39424999Y-29259703D01*
X39319592Y-29270085D01*
X39218237Y-29300831D01*
X39124827Y-29350759D01*
X39042952Y-29417952D01*
X38975759Y-29499827D01*
X38925831Y-29593237D01*
X38895085Y-29694592D01*
X38884703Y-29799999D01*
X38884703Y-29836100D01*
X36988928Y-29836100D01*
X36984719Y-29793366D01*
X36968199Y-29738908D01*
X36941373Y-29688720D01*
X36905271Y-29644729D01*
X36861280Y-29608627D01*
X36811092Y-29581801D01*
X36756634Y-29565281D01*
X36700000Y-29559703D01*
X35800000Y-29559703D01*
X35743366Y-29565281D01*
X35688908Y-29581801D01*
X35687813Y-29582386D01*
X35687813Y-25667614D01*
X35688908Y-25668199D01*
X35743366Y-25684719D01*
X35800000Y-25690297D01*
X36700000Y-25690297D01*
X36756634Y-25684719D01*
X36811092Y-25668199D01*
X36861280Y-25641373D01*
X36905271Y-25605271D01*
X36941373Y-25561280D01*
X36968199Y-25511092D01*
X36984719Y-25456634D01*
X36988928Y-25413900D01*
X38884703Y-25413900D01*
X38884703Y-25450001D01*
X38895085Y-25555408D01*
X38925831Y-25656763D01*
X38975759Y-25750173D01*
X39042952Y-25832048D01*
X39124827Y-25899241D01*
X39218237Y-25949169D01*
X39319592Y-25979915D01*
X39424999Y-25990297D01*
X40075001Y-25990297D01*
X40180408Y-25979915D01*
X40281763Y-25949169D01*
X40375173Y-25899241D01*
X40457048Y-25832048D01*
X40524241Y-25750173D01*
X40574169Y-25656763D01*
X40604915Y-25555408D01*
X40615297Y-25450001D01*
X40615297Y-24549999D01*
X40934703Y-24549999D01*
X40934703Y-25450001D01*
X40945085Y-25555408D01*
X40975831Y-25656763D01*
X41025759Y-25750173D01*
X41092952Y-25832048D01*
X41174827Y-25899241D01*
X41268237Y-25949169D01*
X41369592Y-25979915D01*
X41474999Y-25990297D01*
X42125001Y-25990297D01*
X42197786Y-25983128D01*
X46586101Y-30371444D01*
X46586101Y-30448026D01*
X46560852Y-30464897D01*
X46464897Y-30560852D01*
X46389505Y-30673684D01*
X46337574Y-30799055D01*
X46311100Y-30932149D01*
X46311100Y-31067851D01*
X46337574Y-31200945D01*
X46389505Y-31326316D01*
X46464897Y-31439148D01*
X46560852Y-31535103D01*
X46673684Y-31610495D01*
X46799055Y-31662426D01*
X46932149Y-31688900D01*
X47067851Y-31688900D01*
X47200945Y-31662426D01*
X47326316Y-31610495D01*
X47439148Y-31535103D01*
X47535103Y-31439148D01*
X47610495Y-31326316D01*
X47662426Y-31200945D01*
X47688900Y-31067851D01*
X47688900Y-30932149D01*
X47662426Y-30799055D01*
X47610495Y-30673684D01*
X47535103Y-30560852D01*
X47439148Y-30464897D01*
X47413900Y-30448027D01*
X47413900Y-30220328D01*
X47415902Y-30200000D01*
X47407911Y-30118861D01*
X47384243Y-30040841D01*
X47345810Y-29968936D01*
X47307045Y-29921702D01*
X47307044Y-29921701D01*
X47294087Y-29905913D01*
X47278299Y-29892956D01*
X42665297Y-25279955D01*
X42665297Y-24549999D01*
X42654915Y-24444592D01*
X42624169Y-24343237D01*
X42574241Y-24249827D01*
X42507048Y-24167952D01*
X42425173Y-24100759D01*
X42331763Y-24050831D01*
X42230408Y-24020085D01*
X42125001Y-24009703D01*
X41474999Y-24009703D01*
X41369592Y-24020085D01*
X41268237Y-24050831D01*
X41174827Y-24100759D01*
X41092952Y-24167952D01*
X41025759Y-24249827D01*
X40975831Y-24343237D01*
X40945085Y-24444592D01*
X40934703Y-24549999D01*
X40615297Y-24549999D01*
X40604915Y-24444592D01*
X40574169Y-24343237D01*
X40524241Y-24249827D01*
X40457048Y-24167952D01*
X40375173Y-24100759D01*
X40281763Y-24050831D01*
X40180408Y-24020085D01*
X40075001Y-24009703D01*
X39424999Y-24009703D01*
X39319592Y-24020085D01*
X39218237Y-24050831D01*
X39124827Y-24100759D01*
X39042952Y-24167952D01*
X38975759Y-24249827D01*
X38925831Y-24343237D01*
X38895085Y-24444592D01*
X38884703Y-24549999D01*
X38884703Y-24586100D01*
X36988928Y-24586100D01*
X36984719Y-24543366D01*
X36968199Y-24488908D01*
X36941373Y-24438720D01*
X36905271Y-24394729D01*
X36861280Y-24358627D01*
X36811092Y-24331801D01*
X36756634Y-24315281D01*
X36700000Y-24309703D01*
X35800000Y-24309703D01*
X35743366Y-24315281D01*
X35688908Y-24331801D01*
X35687813Y-24332386D01*
X35687813Y-22672529D01*
X36402367Y-21957976D01*
X36432149Y-21963900D01*
X36567851Y-21963900D01*
X36700945Y-21937426D01*
X36826316Y-21885495D01*
X36939148Y-21810103D01*
X37035103Y-21714148D01*
X37110495Y-21601316D01*
X37162426Y-21475945D01*
X37188900Y-21342851D01*
X37188900Y-21207149D01*
X37162426Y-21074055D01*
X37110495Y-20948684D01*
X37035103Y-20835852D01*
X36939148Y-20739897D01*
X36826316Y-20664505D01*
X36700945Y-20612574D01*
X36567851Y-20586100D01*
X36432149Y-20586100D01*
X36299055Y-20612574D01*
X36173684Y-20664505D01*
X36060852Y-20739897D01*
X35964897Y-20835852D01*
X35889505Y-20948684D01*
X35837574Y-21074055D01*
X35811100Y-21207149D01*
X35811100Y-21342851D01*
X35817024Y-21372633D01*
X34995615Y-22194043D01*
X34979827Y-22207000D01*
X34966870Y-22222788D01*
X34966868Y-22222790D01*
X34928104Y-22270024D01*
X34889670Y-22341929D01*
X34866003Y-22419949D01*
X34858012Y-22501087D01*
X34860014Y-22521415D01*
X34860014Y-23436305D01*
X34848887Y-23427174D01*
X34802555Y-23402410D01*
X34752282Y-23387159D01*
X34700000Y-23382010D01*
X34481775Y-23383300D01*
X34415100Y-23449975D01*
X34415100Y-23884900D01*
X34435100Y-23884900D01*
X34435100Y-24215100D01*
X34415100Y-24215100D01*
X34415100Y-24650025D01*
X34481775Y-24716700D01*
X34700000Y-24717990D01*
X34752282Y-24712841D01*
X34802555Y-24697590D01*
X34848887Y-24672826D01*
X34860014Y-24663695D01*
X34860014Y-25307950D01*
X34811092Y-25281801D01*
X34756634Y-25265281D01*
X34700000Y-25259703D01*
X33800000Y-25259703D01*
X33743366Y-25265281D01*
X33688908Y-25281801D01*
X33638720Y-25308627D01*
X33594729Y-25344729D01*
X33558627Y-25388720D01*
X33531801Y-25438908D01*
X33515281Y-25493366D01*
X33509703Y-25550000D01*
X33509703Y-26104955D01*
X33363909Y-26250749D01*
X33363909Y-24450000D01*
X33532010Y-24450000D01*
X33537159Y-24502282D01*
X33552410Y-24552555D01*
X33577174Y-24598887D01*
X33610502Y-24639498D01*
X33651113Y-24672826D01*
X33697445Y-24697590D01*
X33747718Y-24712841D01*
X33800000Y-24717990D01*
X34018225Y-24716700D01*
X34084900Y-24650025D01*
X34084900Y-24215100D01*
X33599975Y-24215100D01*
X33533300Y-24281775D01*
X33532010Y-24450000D01*
X33363909Y-24450000D01*
X33363909Y-23650000D01*
X33532010Y-23650000D01*
X33533300Y-23818225D01*
X33599975Y-23884900D01*
X34084900Y-23884900D01*
X34084900Y-23449975D01*
X34018225Y-23383300D01*
X33800000Y-23382010D01*
X33747718Y-23387159D01*
X33697445Y-23402410D01*
X33651113Y-23427174D01*
X33610502Y-23460502D01*
X33577174Y-23501113D01*
X33552410Y-23547445D01*
X33537159Y-23597718D01*
X33532010Y-23650000D01*
X33363909Y-23650000D01*
X33363909Y-22171433D01*
X34145046Y-21390297D01*
X34700000Y-21390297D01*
X34756634Y-21384719D01*
X34811092Y-21368199D01*
X34861280Y-21341373D01*
X34905271Y-21305271D01*
X34941373Y-21261280D01*
X34968199Y-21211092D01*
X34984719Y-21156634D01*
X34990297Y-21100000D01*
X34990297Y-20300000D01*
X34984719Y-20243366D01*
X34968199Y-20188908D01*
X34941373Y-20138720D01*
X34905271Y-20094729D01*
X34861280Y-20058627D01*
X34811092Y-20031801D01*
X34756634Y-20015281D01*
X34700000Y-20009703D01*
X33800000Y-20009703D01*
X33743366Y-20015281D01*
X33688908Y-20031801D01*
X33638720Y-20058627D01*
X33594729Y-20094729D01*
X33558627Y-20138720D01*
X33531801Y-20188908D01*
X33515281Y-20243366D01*
X33509703Y-20300000D01*
X33509703Y-20854954D01*
X32913900Y-21450758D01*
X32913900Y-19200000D01*
X33532010Y-19200000D01*
X33537159Y-19252282D01*
X33552410Y-19302555D01*
X33577174Y-19348887D01*
X33610502Y-19389498D01*
X33651113Y-19422826D01*
X33697445Y-19447590D01*
X33747718Y-19462841D01*
X33800000Y-19467990D01*
X34018225Y-19466700D01*
X34084900Y-19400025D01*
X34084900Y-18965100D01*
X34415100Y-18965100D01*
X34415100Y-19400025D01*
X34481775Y-19466700D01*
X34700000Y-19467990D01*
X34752282Y-19462841D01*
X34802555Y-19447590D01*
X34848887Y-19422826D01*
X34889498Y-19389498D01*
X34921912Y-19350000D01*
X35509703Y-19350000D01*
X35509703Y-20150000D01*
X35515281Y-20206634D01*
X35531801Y-20261092D01*
X35558627Y-20311280D01*
X35594729Y-20355271D01*
X35638720Y-20391373D01*
X35688908Y-20418199D01*
X35743366Y-20434719D01*
X35800000Y-20440297D01*
X36700000Y-20440297D01*
X36756634Y-20434719D01*
X36811092Y-20418199D01*
X36861280Y-20391373D01*
X36905271Y-20355271D01*
X36941373Y-20311280D01*
X36968199Y-20261092D01*
X36984719Y-20206634D01*
X36988928Y-20163900D01*
X38859703Y-20163900D01*
X38859703Y-20200001D01*
X38870085Y-20305408D01*
X38900831Y-20406763D01*
X38950759Y-20500173D01*
X39017952Y-20582048D01*
X39099827Y-20649241D01*
X39193237Y-20699169D01*
X39294592Y-20729915D01*
X39399999Y-20740297D01*
X40050001Y-20740297D01*
X40155408Y-20729915D01*
X40256763Y-20699169D01*
X40350173Y-20649241D01*
X40432048Y-20582048D01*
X40499241Y-20500173D01*
X40549169Y-20406763D01*
X40579915Y-20305408D01*
X40590297Y-20200001D01*
X40590297Y-19299999D01*
X40909703Y-19299999D01*
X40909703Y-20200001D01*
X40920085Y-20305408D01*
X40950831Y-20406763D01*
X41000759Y-20500173D01*
X41067952Y-20582048D01*
X41149827Y-20649241D01*
X41243237Y-20699169D01*
X41344592Y-20729915D01*
X41449999Y-20740297D01*
X42100001Y-20740297D01*
X42172786Y-20733128D01*
X46586101Y-25146444D01*
X46586100Y-25948027D01*
X46560852Y-25964897D01*
X46464897Y-26060852D01*
X46389505Y-26173684D01*
X46337574Y-26299055D01*
X46311100Y-26432149D01*
X46311100Y-26567851D01*
X46337574Y-26700945D01*
X46389505Y-26826316D01*
X46464897Y-26939148D01*
X46560852Y-27035103D01*
X46673684Y-27110495D01*
X46799055Y-27162426D01*
X46932149Y-27188900D01*
X47067851Y-27188900D01*
X47200945Y-27162426D01*
X47326316Y-27110495D01*
X47439148Y-27035103D01*
X47535103Y-26939148D01*
X47610495Y-26826316D01*
X47662426Y-26700945D01*
X47688900Y-26567851D01*
X47688900Y-26432149D01*
X47662426Y-26299055D01*
X47610495Y-26173684D01*
X47535103Y-26060852D01*
X47439148Y-25964897D01*
X47413900Y-25948027D01*
X47413900Y-24995317D01*
X47415901Y-24975000D01*
X47413900Y-24954682D01*
X47413900Y-24954672D01*
X47407911Y-24893862D01*
X47384243Y-24815841D01*
X47345810Y-24743937D01*
X47294087Y-24680913D01*
X47278299Y-24667956D01*
X42640297Y-20029955D01*
X42640297Y-19299999D01*
X42629915Y-19194592D01*
X42599169Y-19093237D01*
X42549241Y-18999827D01*
X42482048Y-18917952D01*
X42400173Y-18850759D01*
X42306763Y-18800831D01*
X42205408Y-18770085D01*
X42100001Y-18759703D01*
X41449999Y-18759703D01*
X41344592Y-18770085D01*
X41243237Y-18800831D01*
X41149827Y-18850759D01*
X41067952Y-18917952D01*
X41000759Y-18999827D01*
X40950831Y-19093237D01*
X40920085Y-19194592D01*
X40909703Y-19299999D01*
X40590297Y-19299999D01*
X40579915Y-19194592D01*
X40549169Y-19093237D01*
X40499241Y-18999827D01*
X40432048Y-18917952D01*
X40350173Y-18850759D01*
X40256763Y-18800831D01*
X40155408Y-18770085D01*
X40050001Y-18759703D01*
X39399999Y-18759703D01*
X39294592Y-18770085D01*
X39193237Y-18800831D01*
X39099827Y-18850759D01*
X39017952Y-18917952D01*
X38950759Y-18999827D01*
X38900831Y-19093237D01*
X38870085Y-19194592D01*
X38859703Y-19299999D01*
X38859703Y-19336100D01*
X36988928Y-19336100D01*
X36984719Y-19293366D01*
X36968199Y-19238908D01*
X36941373Y-19188720D01*
X36905271Y-19144729D01*
X36861280Y-19108627D01*
X36811092Y-19081801D01*
X36756634Y-19065281D01*
X36700000Y-19059703D01*
X35800000Y-19059703D01*
X35743366Y-19065281D01*
X35688908Y-19081801D01*
X35638720Y-19108627D01*
X35594729Y-19144729D01*
X35558627Y-19188720D01*
X35531801Y-19238908D01*
X35515281Y-19293366D01*
X35509703Y-19350000D01*
X34921912Y-19350000D01*
X34922826Y-19348887D01*
X34947590Y-19302555D01*
X34962841Y-19252282D01*
X34967990Y-19200000D01*
X34966700Y-19031775D01*
X34900025Y-18965100D01*
X34415100Y-18965100D01*
X34084900Y-18965100D01*
X33599975Y-18965100D01*
X33533300Y-19031775D01*
X33532010Y-19200000D01*
X32913900Y-19200000D01*
X32913900Y-18400000D01*
X33532010Y-18400000D01*
X33533300Y-18568225D01*
X33599975Y-18634900D01*
X34084900Y-18634900D01*
X34084900Y-18199975D01*
X34415100Y-18199975D01*
X34415100Y-18634900D01*
X34900025Y-18634900D01*
X34966700Y-18568225D01*
X34967990Y-18400000D01*
X34962841Y-18347718D01*
X34947590Y-18297445D01*
X34922826Y-18251113D01*
X34889498Y-18210502D01*
X34848887Y-18177174D01*
X34802555Y-18152410D01*
X34752282Y-18137159D01*
X34700000Y-18132010D01*
X34481775Y-18133300D01*
X34415100Y-18199975D01*
X34084900Y-18199975D01*
X34018225Y-18133300D01*
X33800000Y-18132010D01*
X33747718Y-18137159D01*
X33697445Y-18152410D01*
X33651113Y-18177174D01*
X33610502Y-18210502D01*
X33577174Y-18251113D01*
X33552410Y-18297445D01*
X33537159Y-18347718D01*
X33532010Y-18400000D01*
X32913900Y-18400000D01*
X32913900Y-17371442D01*
X34145046Y-16140297D01*
X34700000Y-16140297D01*
X34756634Y-16134719D01*
X34811092Y-16118199D01*
X34861280Y-16091373D01*
X34905271Y-16055271D01*
X34941373Y-16011280D01*
X34968199Y-15961092D01*
X34984719Y-15906634D01*
X34990297Y-15850000D01*
X34990297Y-15050000D01*
X34984719Y-14993366D01*
X34968199Y-14938908D01*
X34941373Y-14888720D01*
X34905271Y-14844729D01*
X34861280Y-14808627D01*
X34811092Y-14781801D01*
X34756634Y-14765281D01*
X34700000Y-14759703D01*
X33800000Y-14759703D01*
X33743366Y-14765281D01*
X33688908Y-14781801D01*
X33638720Y-14808627D01*
X33594729Y-14844729D01*
X33558627Y-14888720D01*
X33531801Y-14938908D01*
X33515281Y-14993366D01*
X33509703Y-15050000D01*
X33509703Y-15604954D01*
X32413900Y-16700758D01*
X32413900Y-13950000D01*
X33532010Y-13950000D01*
X33537159Y-14002282D01*
X33552410Y-14052555D01*
X33577174Y-14098887D01*
X33610502Y-14139498D01*
X33651113Y-14172826D01*
X33697445Y-14197590D01*
X33747718Y-14212841D01*
X33800000Y-14217990D01*
X34018225Y-14216700D01*
X34084900Y-14150025D01*
X34084900Y-13715100D01*
X34415100Y-13715100D01*
X34415100Y-14150025D01*
X34481775Y-14216700D01*
X34700000Y-14217990D01*
X34752282Y-14212841D01*
X34802555Y-14197590D01*
X34848887Y-14172826D01*
X34889498Y-14139498D01*
X34921912Y-14100000D01*
X35509703Y-14100000D01*
X35509703Y-14900000D01*
X35515281Y-14956634D01*
X35531801Y-15011092D01*
X35558627Y-15061280D01*
X35594729Y-15105271D01*
X35638720Y-15141373D01*
X35688908Y-15168199D01*
X35743366Y-15184719D01*
X35800000Y-15190297D01*
X36700000Y-15190297D01*
X36756634Y-15184719D01*
X36811092Y-15168199D01*
X36861280Y-15141373D01*
X36905271Y-15105271D01*
X36941373Y-15061280D01*
X36968199Y-15011092D01*
X36984719Y-14956634D01*
X36988928Y-14913900D01*
X38859703Y-14913900D01*
X38859703Y-14950001D01*
X38870085Y-15055408D01*
X38900831Y-15156763D01*
X38950759Y-15250173D01*
X39017952Y-15332048D01*
X39099827Y-15399241D01*
X39193237Y-15449169D01*
X39294592Y-15479915D01*
X39399999Y-15490297D01*
X40050001Y-15490297D01*
X40155408Y-15479915D01*
X40256763Y-15449169D01*
X40350173Y-15399241D01*
X40432048Y-15332048D01*
X40499241Y-15250173D01*
X40549169Y-15156763D01*
X40579915Y-15055408D01*
X40590297Y-14950001D01*
X40590297Y-14049999D01*
X40909703Y-14049999D01*
X40909703Y-14950001D01*
X40920085Y-15055408D01*
X40950831Y-15156763D01*
X41000759Y-15250173D01*
X41067952Y-15332048D01*
X41149827Y-15399241D01*
X41243237Y-15449169D01*
X41344592Y-15479915D01*
X41449999Y-15490297D01*
X42100001Y-15490297D01*
X42172786Y-15483128D01*
X46586101Y-19896444D01*
X46586100Y-21448027D01*
X46560852Y-21464897D01*
X46464897Y-21560852D01*
X46389505Y-21673684D01*
X46337574Y-21799055D01*
X46311100Y-21932149D01*
X46311100Y-22067851D01*
X46337574Y-22200945D01*
X46389505Y-22326316D01*
X46464897Y-22439148D01*
X46560852Y-22535103D01*
X46673684Y-22610495D01*
X46799055Y-22662426D01*
X46932149Y-22688900D01*
X47067851Y-22688900D01*
X47200945Y-22662426D01*
X47326316Y-22610495D01*
X47439148Y-22535103D01*
X47535103Y-22439148D01*
X47610495Y-22326316D01*
X47662426Y-22200945D01*
X47688900Y-22067851D01*
X47688900Y-21932149D01*
X47662426Y-21799055D01*
X47610495Y-21673684D01*
X47535103Y-21560852D01*
X47439148Y-21464897D01*
X47413900Y-21448027D01*
X47413900Y-19745317D01*
X47415901Y-19725000D01*
X47413900Y-19704682D01*
X47413900Y-19704672D01*
X47407911Y-19643862D01*
X47384243Y-19565841D01*
X47345810Y-19493937D01*
X47294087Y-19430913D01*
X47278299Y-19417956D01*
X42640297Y-14779955D01*
X42640297Y-14049999D01*
X42629915Y-13944592D01*
X42599169Y-13843237D01*
X42549241Y-13749827D01*
X42482048Y-13667952D01*
X42400173Y-13600759D01*
X42306763Y-13550831D01*
X42205408Y-13520085D01*
X42100001Y-13509703D01*
X41449999Y-13509703D01*
X41344592Y-13520085D01*
X41243237Y-13550831D01*
X41149827Y-13600759D01*
X41067952Y-13667952D01*
X41000759Y-13749827D01*
X40950831Y-13843237D01*
X40920085Y-13944592D01*
X40909703Y-14049999D01*
X40590297Y-14049999D01*
X40579915Y-13944592D01*
X40549169Y-13843237D01*
X40499241Y-13749827D01*
X40432048Y-13667952D01*
X40350173Y-13600759D01*
X40256763Y-13550831D01*
X40155408Y-13520085D01*
X40050001Y-13509703D01*
X39399999Y-13509703D01*
X39294592Y-13520085D01*
X39193237Y-13550831D01*
X39099827Y-13600759D01*
X39017952Y-13667952D01*
X38950759Y-13749827D01*
X38900831Y-13843237D01*
X38870085Y-13944592D01*
X38859703Y-14049999D01*
X38859703Y-14086100D01*
X36988928Y-14086100D01*
X36984719Y-14043366D01*
X36968199Y-13988908D01*
X36941373Y-13938720D01*
X36905271Y-13894729D01*
X36861280Y-13858627D01*
X36811092Y-13831801D01*
X36756634Y-13815281D01*
X36700000Y-13809703D01*
X35800000Y-13809703D01*
X35743366Y-13815281D01*
X35688908Y-13831801D01*
X35638720Y-13858627D01*
X35594729Y-13894729D01*
X35558627Y-13938720D01*
X35531801Y-13988908D01*
X35515281Y-14043366D01*
X35509703Y-14100000D01*
X34921912Y-14100000D01*
X34922826Y-14098887D01*
X34947590Y-14052555D01*
X34962841Y-14002282D01*
X34967990Y-13950000D01*
X34966700Y-13781775D01*
X34900025Y-13715100D01*
X34415100Y-13715100D01*
X34084900Y-13715100D01*
X33599975Y-13715100D01*
X33533300Y-13781775D01*
X33532010Y-13950000D01*
X32413900Y-13950000D01*
X32413900Y-13150000D01*
X33532010Y-13150000D01*
X33533300Y-13318225D01*
X33599975Y-13384900D01*
X34084900Y-13384900D01*
X34084900Y-12949975D01*
X34415100Y-12949975D01*
X34415100Y-13384900D01*
X34900025Y-13384900D01*
X34966700Y-13318225D01*
X34967990Y-13150000D01*
X34962841Y-13097718D01*
X34947590Y-13047445D01*
X34922826Y-13001113D01*
X34889498Y-12960502D01*
X34848887Y-12927174D01*
X34802555Y-12902410D01*
X34752282Y-12887159D01*
X34700000Y-12882010D01*
X34481775Y-12883300D01*
X34415100Y-12949975D01*
X34084900Y-12949975D01*
X34018225Y-12883300D01*
X33800000Y-12882010D01*
X33747718Y-12887159D01*
X33697445Y-12902410D01*
X33651113Y-12927174D01*
X33610502Y-12960502D01*
X33577174Y-13001113D01*
X33552410Y-13047445D01*
X33537159Y-13097718D01*
X33532010Y-13150000D01*
X32413900Y-13150000D01*
X32413900Y-12171442D01*
X33710572Y-10874771D01*
X33743366Y-10884719D01*
X33800000Y-10890297D01*
X34700000Y-10890297D01*
X34756634Y-10884719D01*
X34811092Y-10868199D01*
X34861280Y-10841373D01*
X34905271Y-10805271D01*
X34941373Y-10761280D01*
X34968199Y-10711092D01*
X34984719Y-10656634D01*
X34990297Y-10600000D01*
X34990297Y-9800000D01*
X34984719Y-9743366D01*
X34968199Y-9688908D01*
X34941373Y-9638720D01*
X34905271Y-9594729D01*
X34861280Y-9558627D01*
X34811092Y-9531801D01*
X34756634Y-9515281D01*
X34700000Y-9509703D01*
X33800000Y-9509703D01*
X33743366Y-9515281D01*
X33688908Y-9531801D01*
X33638720Y-9558627D01*
X33594729Y-9594729D01*
X33558627Y-9638720D01*
X33531801Y-9688908D01*
X33515281Y-9743366D01*
X33509703Y-9800000D01*
X33509703Y-9902803D01*
X33505913Y-9905913D01*
X33492956Y-9921701D01*
X31721702Y-11692956D01*
X31705914Y-11705913D01*
X31692957Y-11721701D01*
X31692955Y-11721703D01*
X31654191Y-11768937D01*
X31615757Y-11840842D01*
X31592090Y-11918862D01*
X31584099Y-12000000D01*
X31586101Y-12020328D01*
X31586100Y-20621935D01*
X31503663Y-20566852D01*
X31378292Y-20514921D01*
X31245198Y-20488447D01*
X31109496Y-20488447D01*
X30976402Y-20514921D01*
X30851031Y-20566852D01*
X30738199Y-20642244D01*
X30642244Y-20738199D01*
X30566852Y-20851031D01*
X30514921Y-20976402D01*
X30488447Y-21109496D01*
X30488447Y-21245198D01*
X30494371Y-21274980D01*
X30133252Y-21636100D01*
X30088928Y-21636100D01*
X30084719Y-21593366D01*
X30068199Y-21538908D01*
X30041373Y-21488720D01*
X30005271Y-21444729D01*
X29961280Y-21408627D01*
X29911092Y-21381801D01*
X29856634Y-21365281D01*
X29800000Y-21359703D01*
X28588899Y-21359703D01*
X28588899Y-11196443D01*
X31085342Y-8700000D01*
X33532010Y-8700000D01*
X33537159Y-8752282D01*
X33552410Y-8802555D01*
X33577174Y-8848887D01*
X33610502Y-8889498D01*
X33651113Y-8922826D01*
X33697445Y-8947590D01*
X33747718Y-8962841D01*
X33800000Y-8967990D01*
X34018225Y-8966700D01*
X34084900Y-8900025D01*
X34084900Y-8465100D01*
X34415100Y-8465100D01*
X34415100Y-8900025D01*
X34481775Y-8966700D01*
X34700000Y-8967990D01*
X34752282Y-8962841D01*
X34802555Y-8947590D01*
X34848887Y-8922826D01*
X34889498Y-8889498D01*
X34921912Y-8850000D01*
X35509703Y-8850000D01*
X35509703Y-9650000D01*
X35515281Y-9706634D01*
X35531801Y-9761092D01*
X35558627Y-9811280D01*
X35594729Y-9855271D01*
X35638720Y-9891373D01*
X35688908Y-9918199D01*
X35743366Y-9934719D01*
X35800000Y-9940297D01*
X36700000Y-9940297D01*
X36756634Y-9934719D01*
X36811092Y-9918199D01*
X36861280Y-9891373D01*
X36905271Y-9855271D01*
X36941373Y-9811280D01*
X36968199Y-9761092D01*
X36984719Y-9706634D01*
X36988928Y-9663900D01*
X38834703Y-9663900D01*
X38834703Y-9700001D01*
X38845085Y-9805408D01*
X38875831Y-9906763D01*
X38925759Y-10000173D01*
X38992952Y-10082048D01*
X39074827Y-10149241D01*
X39168237Y-10199169D01*
X39269592Y-10229915D01*
X39374999Y-10240297D01*
X40025001Y-10240297D01*
X40130408Y-10229915D01*
X40231763Y-10199169D01*
X40325173Y-10149241D01*
X40407048Y-10082048D01*
X40474241Y-10000173D01*
X40524169Y-9906763D01*
X40554915Y-9805408D01*
X40565297Y-9700001D01*
X40565297Y-8799999D01*
X40884703Y-8799999D01*
X40884703Y-9700001D01*
X40895085Y-9805408D01*
X40925831Y-9906763D01*
X40975759Y-10000173D01*
X41042952Y-10082048D01*
X41124827Y-10149241D01*
X41218237Y-10199169D01*
X41319592Y-10229915D01*
X41424999Y-10240297D01*
X42075001Y-10240297D01*
X42147786Y-10233128D01*
X46586101Y-14671444D01*
X46586100Y-16948027D01*
X46560852Y-16964897D01*
X46464897Y-17060852D01*
X46389505Y-17173684D01*
X46337574Y-17299055D01*
X46311100Y-17432149D01*
X46311100Y-17567851D01*
X46337574Y-17700945D01*
X46389505Y-17826316D01*
X46464897Y-17939148D01*
X46560852Y-18035103D01*
X46673684Y-18110495D01*
X46799055Y-18162426D01*
X46932149Y-18188900D01*
X47067851Y-18188900D01*
X47200945Y-18162426D01*
X47326316Y-18110495D01*
X47439148Y-18035103D01*
X47535103Y-17939148D01*
X47610495Y-17826316D01*
X47662426Y-17700945D01*
X47688900Y-17567851D01*
X47688900Y-17432149D01*
X47662426Y-17299055D01*
X47610495Y-17173684D01*
X47535103Y-17060852D01*
X47439148Y-16964897D01*
X47413900Y-16948027D01*
X47413900Y-14520317D01*
X47415901Y-14499999D01*
X47413900Y-14479682D01*
X47413900Y-14479672D01*
X47407911Y-14418862D01*
X47384243Y-14340841D01*
X47345810Y-14268937D01*
X47294087Y-14205913D01*
X47278298Y-14192955D01*
X42615297Y-9529955D01*
X42615297Y-8799999D01*
X42604915Y-8694592D01*
X42574169Y-8593237D01*
X42524241Y-8499827D01*
X42457048Y-8417952D01*
X42375173Y-8350759D01*
X42281763Y-8300831D01*
X42180408Y-8270085D01*
X42075001Y-8259703D01*
X41424999Y-8259703D01*
X41319592Y-8270085D01*
X41218237Y-8300831D01*
X41124827Y-8350759D01*
X41042952Y-8417952D01*
X40975759Y-8499827D01*
X40925831Y-8593237D01*
X40895085Y-8694592D01*
X40884703Y-8799999D01*
X40565297Y-8799999D01*
X40554915Y-8694592D01*
X40524169Y-8593237D01*
X40474241Y-8499827D01*
X40407048Y-8417952D01*
X40325173Y-8350759D01*
X40231763Y-8300831D01*
X40130408Y-8270085D01*
X40025001Y-8259703D01*
X39374999Y-8259703D01*
X39269592Y-8270085D01*
X39168237Y-8300831D01*
X39074827Y-8350759D01*
X38992952Y-8417952D01*
X38925759Y-8499827D01*
X38875831Y-8593237D01*
X38845085Y-8694592D01*
X38834703Y-8799999D01*
X38834703Y-8836100D01*
X36988928Y-8836100D01*
X36984719Y-8793366D01*
X36968199Y-8738908D01*
X36941373Y-8688720D01*
X36905271Y-8644729D01*
X36861280Y-8608627D01*
X36811092Y-8581801D01*
X36756634Y-8565281D01*
X36700000Y-8559703D01*
X35800000Y-8559703D01*
X35743366Y-8565281D01*
X35688908Y-8581801D01*
X35638720Y-8608627D01*
X35594729Y-8644729D01*
X35558627Y-8688720D01*
X35531801Y-8738908D01*
X35515281Y-8793366D01*
X35509703Y-8850000D01*
X34921912Y-8850000D01*
X34922826Y-8848887D01*
X34947590Y-8802555D01*
X34962841Y-8752282D01*
X34967990Y-8700000D01*
X34966700Y-8531775D01*
X34900025Y-8465100D01*
X34415100Y-8465100D01*
X34084900Y-8465100D01*
X33599975Y-8465100D01*
X33533300Y-8531775D01*
X33532010Y-8700000D01*
X31085342Y-8700000D01*
X31885342Y-7900000D01*
X33532010Y-7900000D01*
X33533300Y-8068225D01*
X33599975Y-8134900D01*
X34084900Y-8134900D01*
X34084900Y-7699975D01*
X34415100Y-7699975D01*
X34415100Y-8134900D01*
X34900025Y-8134900D01*
X34966700Y-8068225D01*
X34967990Y-7900000D01*
X34962841Y-7847718D01*
X34947590Y-7797445D01*
X34922826Y-7751113D01*
X34889498Y-7710502D01*
X34848887Y-7677174D01*
X34802555Y-7652410D01*
X34752282Y-7637159D01*
X34700000Y-7632010D01*
X34481775Y-7633300D01*
X34415100Y-7699975D01*
X34084900Y-7699975D01*
X34018225Y-7633300D01*
X33800000Y-7632010D01*
X33747718Y-7637159D01*
X33697445Y-7652410D01*
X33651113Y-7677174D01*
X33610502Y-7710502D01*
X33577174Y-7751113D01*
X33552410Y-7797445D01*
X33537159Y-7847718D01*
X33532010Y-7900000D01*
X31885342Y-7900000D01*
X34145046Y-5640297D01*
X34700000Y-5640297D01*
X34756634Y-5634719D01*
X34811092Y-5618199D01*
X34861280Y-5591373D01*
X34905271Y-5555271D01*
X34941373Y-5511280D01*
X34968199Y-5461092D01*
X34984719Y-5406634D01*
X34990297Y-5350000D01*
X34990297Y-4550000D01*
X34984719Y-4493366D01*
X34968199Y-4438908D01*
X34941373Y-4388720D01*
X34905271Y-4344729D01*
X34861280Y-4308627D01*
X34811092Y-4281801D01*
X34756634Y-4265281D01*
X34700000Y-4259703D01*
X33800000Y-4259703D01*
X33743366Y-4265281D01*
X33688908Y-4281801D01*
X33638720Y-4308627D01*
X33594729Y-4344729D01*
X33558627Y-4388720D01*
X33531801Y-4438908D01*
X33515281Y-4493366D01*
X33509703Y-4550000D01*
X33509703Y-5104954D01*
X27896701Y-10717957D01*
X27880913Y-10730914D01*
X27867956Y-10746702D01*
X27867954Y-10746704D01*
X27829190Y-10793938D01*
X27790756Y-10865843D01*
X27767089Y-10943863D01*
X27759098Y-11025001D01*
X291300Y-11025001D01*
X291300Y-3368130D01*
X2161100Y-3368130D01*
X2161100Y-3631870D01*
X2212554Y-3890543D01*
X2313483Y-4134207D01*
X2460009Y-4353499D01*
X2646501Y-4539991D01*
X2865793Y-4686517D01*
X3109457Y-4787446D01*
X3368130Y-4838900D01*
X3631870Y-4838900D01*
X3890543Y-4787446D01*
X4134207Y-4686517D01*
X4353499Y-4539991D01*
X4539991Y-4353499D01*
X4686517Y-4134207D01*
X4787446Y-3890543D01*
X4838900Y-3631870D01*
X4838900Y-3450000D01*
X33532010Y-3450000D01*
X33537159Y-3502282D01*
X33552410Y-3552555D01*
X33577174Y-3598887D01*
X33610502Y-3639498D01*
X33651113Y-3672826D01*
X33697445Y-3697590D01*
X33747718Y-3712841D01*
X33800000Y-3717990D01*
X34018225Y-3716700D01*
X34084900Y-3650025D01*
X34084900Y-3215100D01*
X34415100Y-3215100D01*
X34415100Y-3650025D01*
X34481775Y-3716700D01*
X34700000Y-3717990D01*
X34752282Y-3712841D01*
X34802555Y-3697590D01*
X34848887Y-3672826D01*
X34889498Y-3639498D01*
X34921912Y-3600000D01*
X35509703Y-3600000D01*
X35509703Y-4400000D01*
X35515281Y-4456634D01*
X35531801Y-4511092D01*
X35558627Y-4561280D01*
X35594729Y-4605271D01*
X35638720Y-4641373D01*
X35688908Y-4668199D01*
X35743366Y-4684719D01*
X35800000Y-4690297D01*
X36700000Y-4690297D01*
X36756634Y-4684719D01*
X36811092Y-4668199D01*
X36861280Y-4641373D01*
X36905271Y-4605271D01*
X36941373Y-4561280D01*
X36968199Y-4511092D01*
X36984719Y-4456634D01*
X36988928Y-4413900D01*
X38859703Y-4413900D01*
X38859703Y-4450001D01*
X38870085Y-4555408D01*
X38900831Y-4656763D01*
X38950759Y-4750173D01*
X39017952Y-4832048D01*
X39099827Y-4899241D01*
X39193237Y-4949169D01*
X39294592Y-4979915D01*
X39399999Y-4990297D01*
X40050001Y-4990297D01*
X40155408Y-4979915D01*
X40256763Y-4949169D01*
X40350173Y-4899241D01*
X40432048Y-4832048D01*
X40499241Y-4750173D01*
X40549169Y-4656763D01*
X40579915Y-4555408D01*
X40590297Y-4450001D01*
X40590297Y-3549999D01*
X40909703Y-3549999D01*
X40909703Y-4450001D01*
X40920085Y-4555408D01*
X40950831Y-4656763D01*
X41000759Y-4750173D01*
X41067952Y-4832048D01*
X41149827Y-4899241D01*
X41243237Y-4949169D01*
X41344592Y-4979915D01*
X41449999Y-4990297D01*
X42100001Y-4990297D01*
X42172786Y-4983128D01*
X46336101Y-9146444D01*
X46336100Y-12556465D01*
X46311100Y-12682149D01*
X46311100Y-12817851D01*
X46337574Y-12950945D01*
X46389505Y-13076316D01*
X46464897Y-13189148D01*
X46560852Y-13285103D01*
X46673684Y-13360495D01*
X46799055Y-13412426D01*
X46932149Y-13438900D01*
X47067851Y-13438900D01*
X47200945Y-13412426D01*
X47326316Y-13360495D01*
X47439148Y-13285103D01*
X47535103Y-13189148D01*
X47610495Y-13076316D01*
X47662426Y-12950945D01*
X47688900Y-12817851D01*
X47688900Y-12682149D01*
X47662426Y-12549055D01*
X47610495Y-12423684D01*
X47535103Y-12310852D01*
X47439148Y-12214897D01*
X47326316Y-12139505D01*
X47200945Y-12087574D01*
X47163900Y-12080205D01*
X47163900Y-8995317D01*
X47165901Y-8974999D01*
X47163900Y-8954682D01*
X47163900Y-8954672D01*
X47157911Y-8893862D01*
X47134243Y-8815841D01*
X47095810Y-8743937D01*
X47075756Y-8719502D01*
X47057045Y-8696702D01*
X47057044Y-8696701D01*
X47044087Y-8680913D01*
X47028299Y-8667956D01*
X42640297Y-4279955D01*
X42640297Y-3549999D01*
X42629915Y-3444592D01*
X42606721Y-3368130D01*
X45161100Y-3368130D01*
X45161100Y-3631870D01*
X45212554Y-3890543D01*
X45313483Y-4134207D01*
X45460009Y-4353499D01*
X45646501Y-4539991D01*
X45865793Y-4686517D01*
X46109457Y-4787446D01*
X46368130Y-4838900D01*
X46631870Y-4838900D01*
X46890543Y-4787446D01*
X47134207Y-4686517D01*
X47353499Y-4539991D01*
X47539991Y-4353499D01*
X47686517Y-4134207D01*
X47787446Y-3890543D01*
X47838900Y-3631870D01*
X47838900Y-3368130D01*
X47787446Y-3109457D01*
X47686517Y-2865793D01*
X47539991Y-2646501D01*
X47353499Y-2460009D01*
X47134207Y-2313483D01*
X46890543Y-2212554D01*
X46631870Y-2161100D01*
X46368130Y-2161100D01*
X46109457Y-2212554D01*
X45865793Y-2313483D01*
X45646501Y-2460009D01*
X45460009Y-2646501D01*
X45313483Y-2865793D01*
X45212554Y-3109457D01*
X45161100Y-3368130D01*
X42606721Y-3368130D01*
X42599169Y-3343237D01*
X42549241Y-3249827D01*
X42482048Y-3167952D01*
X42400173Y-3100759D01*
X42306763Y-3050831D01*
X42205408Y-3020085D01*
X42100001Y-3009703D01*
X41449999Y-3009703D01*
X41344592Y-3020085D01*
X41243237Y-3050831D01*
X41149827Y-3100759D01*
X41067952Y-3167952D01*
X41000759Y-3249827D01*
X40950831Y-3343237D01*
X40920085Y-3444592D01*
X40909703Y-3549999D01*
X40590297Y-3549999D01*
X40579915Y-3444592D01*
X40549169Y-3343237D01*
X40499241Y-3249827D01*
X40432048Y-3167952D01*
X40350173Y-3100759D01*
X40256763Y-3050831D01*
X40155408Y-3020085D01*
X40050001Y-3009703D01*
X39399999Y-3009703D01*
X39294592Y-3020085D01*
X39193237Y-3050831D01*
X39099827Y-3100759D01*
X39017952Y-3167952D01*
X38950759Y-3249827D01*
X38900831Y-3343237D01*
X38870085Y-3444592D01*
X38859703Y-3549999D01*
X38859703Y-3586100D01*
X36988928Y-3586100D01*
X36984719Y-3543366D01*
X36968199Y-3488908D01*
X36941373Y-3438720D01*
X36905271Y-3394729D01*
X36861280Y-3358627D01*
X36811092Y-3331801D01*
X36756634Y-3315281D01*
X36700000Y-3309703D01*
X35800000Y-3309703D01*
X35743366Y-3315281D01*
X35688908Y-3331801D01*
X35638720Y-3358627D01*
X35594729Y-3394729D01*
X35558627Y-3438720D01*
X35531801Y-3488908D01*
X35515281Y-3543366D01*
X35509703Y-3600000D01*
X34921912Y-3600000D01*
X34922826Y-3598887D01*
X34947590Y-3552555D01*
X34962841Y-3502282D01*
X34967990Y-3450000D01*
X34966700Y-3281775D01*
X34900025Y-3215100D01*
X34415100Y-3215100D01*
X34084900Y-3215100D01*
X33599975Y-3215100D01*
X33533300Y-3281775D01*
X33532010Y-3450000D01*
X4838900Y-3450000D01*
X4838900Y-3368130D01*
X4787446Y-3109457D01*
X4686517Y-2865793D01*
X4542329Y-2650000D01*
X33532010Y-2650000D01*
X33533300Y-2818225D01*
X33599975Y-2884900D01*
X34084900Y-2884900D01*
X34084900Y-2449975D01*
X34415100Y-2449975D01*
X34415100Y-2884900D01*
X34900025Y-2884900D01*
X34966700Y-2818225D01*
X34967990Y-2650000D01*
X34962841Y-2597718D01*
X34947590Y-2547445D01*
X34922826Y-2501113D01*
X34889498Y-2460502D01*
X34848887Y-2427174D01*
X34802555Y-2402410D01*
X34752282Y-2387159D01*
X34700000Y-2382010D01*
X34481775Y-2383300D01*
X34415100Y-2449975D01*
X34084900Y-2449975D01*
X34018225Y-2383300D01*
X33800000Y-2382010D01*
X33747718Y-2387159D01*
X33697445Y-2402410D01*
X33651113Y-2427174D01*
X33610502Y-2460502D01*
X33577174Y-2501113D01*
X33552410Y-2547445D01*
X33537159Y-2597718D01*
X33532010Y-2650000D01*
X4542329Y-2650000D01*
X4539991Y-2646501D01*
X4353499Y-2460009D01*
X4134207Y-2313483D01*
X3890543Y-2212554D01*
X3631870Y-2161100D01*
X3368130Y-2161100D01*
X3109457Y-2212554D01*
X2865793Y-2313483D01*
X2646501Y-2460009D01*
X2460009Y-2646501D01*
X2313483Y-2865793D01*
X2212554Y-3109457D01*
X2161100Y-3368130D01*
X291300Y-3368130D01*
X291300Y-2014250D01*
X325213Y-1668381D01*
X421520Y-1349395D01*
X577952Y-1055193D01*
X788550Y-796975D01*
X1045287Y-584583D01*
X1338392Y-426101D01*
X1656701Y-327568D01*
X2001767Y-291300D01*
X47985750Y-291300D01*
X48331619Y-325213D01*
%TD*%
M02*
