%TF.GenerationSoftware,KiCad,Pcbnew,5.1.6*%
%TF.CreationDate,2020-08-20T19:30:15+02:00*%
%TF.ProjectId,UniBadge-9x9,556e6942-6164-4676-952d-3978392e6b69,rev?*%
%TF.SameCoordinates,Original*%
%TF.FileFunction,Legend,Bot*%
%TF.FilePolarity,Positive*%
%FSLAX46Y46*%
G04 Gerber Fmt 4.6, Leading zero omitted, Abs format (unit mm)*
G04 Created by KiCad (PCBNEW 5.1.6) date 2020-08-20 19:30:15*
%MOMM*%
%LPD*%
G01*
G04 APERTURE LIST*
%ADD10C,0.150000*%
%ADD11C,0.140000*%
%ADD12C,0.110000*%
%ADD13C,0.187500*%
%ADD14C,0.100000*%
%ADD15C,0.120000*%
G04 APERTURE END LIST*
D10*
X9541421Y-21600000D02*
G75*
G03*
X9541421Y-21600000I-141421J0D01*
G01*
D11*
X22153857Y-17539857D02*
X22189571Y-17575571D01*
X22296714Y-17611285D01*
X22368142Y-17611285D01*
X22475285Y-17575571D01*
X22546714Y-17504142D01*
X22582428Y-17432714D01*
X22618142Y-17289857D01*
X22618142Y-17182714D01*
X22582428Y-17039857D01*
X22546714Y-16968428D01*
X22475285Y-16897000D01*
X22368142Y-16861285D01*
X22296714Y-16861285D01*
X22189571Y-16897000D01*
X22153857Y-16932714D01*
X21403857Y-17539857D02*
X21439571Y-17575571D01*
X21546714Y-17611285D01*
X21618142Y-17611285D01*
X21725285Y-17575571D01*
X21796714Y-17504142D01*
X21832428Y-17432714D01*
X21868142Y-17289857D01*
X21868142Y-17182714D01*
X21832428Y-17039857D01*
X21796714Y-16968428D01*
X21725285Y-16897000D01*
X21618142Y-16861285D01*
X21546714Y-16861285D01*
X21439571Y-16897000D01*
X21403857Y-16932714D01*
X21082428Y-17325571D02*
X20511000Y-17325571D01*
X19903857Y-17218428D02*
X19796714Y-17254142D01*
X19761000Y-17289857D01*
X19725285Y-17361285D01*
X19725285Y-17468428D01*
X19761000Y-17539857D01*
X19796714Y-17575571D01*
X19868142Y-17611285D01*
X20153857Y-17611285D01*
X20153857Y-16861285D01*
X19903857Y-16861285D01*
X19832428Y-16897000D01*
X19796714Y-16932714D01*
X19761000Y-17004142D01*
X19761000Y-17075571D01*
X19796714Y-17147000D01*
X19832428Y-17182714D01*
X19903857Y-17218428D01*
X20153857Y-17218428D01*
X19261000Y-17254142D02*
X19261000Y-17611285D01*
X19511000Y-16861285D02*
X19261000Y-17254142D01*
X19011000Y-16861285D01*
X18761000Y-17325571D02*
X18189571Y-17325571D01*
X17868142Y-17575571D02*
X17761000Y-17611285D01*
X17582428Y-17611285D01*
X17511000Y-17575571D01*
X17475285Y-17539857D01*
X17439571Y-17468428D01*
X17439571Y-17397000D01*
X17475285Y-17325571D01*
X17511000Y-17289857D01*
X17582428Y-17254142D01*
X17725285Y-17218428D01*
X17796714Y-17182714D01*
X17832428Y-17147000D01*
X17868142Y-17075571D01*
X17868142Y-17004142D01*
X17832428Y-16932714D01*
X17796714Y-16897000D01*
X17725285Y-16861285D01*
X17546714Y-16861285D01*
X17439571Y-16897000D01*
X17153857Y-17397000D02*
X16796714Y-17397000D01*
X17225285Y-17611285D02*
X16975285Y-16861285D01*
X16725285Y-17611285D01*
X22582428Y-16214285D02*
X22582428Y-15464285D01*
X22582428Y-15750000D02*
X22511000Y-15714285D01*
X22368142Y-15714285D01*
X22296714Y-15750000D01*
X22261000Y-15785714D01*
X22225285Y-15857142D01*
X22225285Y-16071428D01*
X22261000Y-16142857D01*
X22296714Y-16178571D01*
X22368142Y-16214285D01*
X22511000Y-16214285D01*
X22582428Y-16178571D01*
X21903857Y-16214285D02*
X21903857Y-15714285D01*
X21903857Y-15464285D02*
X21939571Y-15500000D01*
X21903857Y-15535714D01*
X21868142Y-15500000D01*
X21903857Y-15464285D01*
X21903857Y-15535714D01*
X21546714Y-15714285D02*
X21546714Y-16214285D01*
X21546714Y-15785714D02*
X21511000Y-15750000D01*
X21439571Y-15714285D01*
X21332428Y-15714285D01*
X21261000Y-15750000D01*
X21225285Y-15821428D01*
X21225285Y-16214285D01*
X20546714Y-16214285D02*
X20546714Y-15821428D01*
X20582428Y-15750000D01*
X20653857Y-15714285D01*
X20796714Y-15714285D01*
X20868142Y-15750000D01*
X20546714Y-16178571D02*
X20618142Y-16214285D01*
X20796714Y-16214285D01*
X20868142Y-16178571D01*
X20903857Y-16107142D01*
X20903857Y-16035714D01*
X20868142Y-15964285D01*
X20796714Y-15928571D01*
X20618142Y-15928571D01*
X20546714Y-15892857D01*
X20189571Y-16214285D02*
X20189571Y-15714285D01*
X20189571Y-15857142D02*
X20153857Y-15785714D01*
X20118142Y-15750000D01*
X20046714Y-15714285D01*
X19975285Y-15714285D01*
X19796714Y-15714285D02*
X19618142Y-16214285D01*
X19439571Y-15714285D02*
X19618142Y-16214285D01*
X19689571Y-16392857D01*
X19725285Y-16428571D01*
X19796714Y-16464285D01*
X19153857Y-15928571D02*
X18582428Y-15928571D01*
X18225285Y-16214285D02*
X18225285Y-15464285D01*
X18153857Y-15928571D02*
X17939571Y-16214285D01*
X17939571Y-15714285D02*
X18225285Y-16000000D01*
X17618142Y-16214285D02*
X17618142Y-15714285D01*
X17618142Y-15464285D02*
X17653857Y-15500000D01*
X17618142Y-15535714D01*
X17582428Y-15500000D01*
X17618142Y-15464285D01*
X17618142Y-15535714D01*
X17368142Y-15714285D02*
X17082428Y-15714285D01*
X17261000Y-15464285D02*
X17261000Y-16107142D01*
X17225285Y-16178571D01*
X17153857Y-16214285D01*
X17082428Y-16214285D01*
X16511000Y-16178571D02*
X16582428Y-16214285D01*
X16725285Y-16214285D01*
X16796714Y-16178571D01*
X16832428Y-16142857D01*
X16868142Y-16071428D01*
X16868142Y-15857142D01*
X16832428Y-15785714D01*
X16796714Y-15750000D01*
X16725285Y-15714285D01*
X16582428Y-15714285D01*
X16511000Y-15750000D01*
X16189571Y-16214285D02*
X16189571Y-15464285D01*
X15868142Y-16214285D02*
X15868142Y-15821428D01*
X15903857Y-15750000D01*
X15975285Y-15714285D01*
X16082428Y-15714285D01*
X16153857Y-15750000D01*
X16189571Y-15785714D01*
X15225285Y-16178571D02*
X15296714Y-16214285D01*
X15439571Y-16214285D01*
X15511000Y-16178571D01*
X15546714Y-16107142D01*
X15546714Y-15821428D01*
X15511000Y-15750000D01*
X15439571Y-15714285D01*
X15296714Y-15714285D01*
X15225285Y-15750000D01*
X15189571Y-15821428D01*
X15189571Y-15892857D01*
X15546714Y-15964285D01*
X14868142Y-15714285D02*
X14868142Y-16214285D01*
X14868142Y-15785714D02*
X14832428Y-15750000D01*
X14761000Y-15714285D01*
X14653857Y-15714285D01*
X14582428Y-15750000D01*
X14546714Y-15821428D01*
X14546714Y-16214285D01*
X14189571Y-16142857D02*
X14153857Y-16178571D01*
X14189571Y-16214285D01*
X14225285Y-16178571D01*
X14189571Y-16142857D01*
X14189571Y-16214285D01*
X13511000Y-16214285D02*
X13511000Y-15464285D01*
X13511000Y-16178571D02*
X13582428Y-16214285D01*
X13725285Y-16214285D01*
X13796714Y-16178571D01*
X13832428Y-16142857D01*
X13868142Y-16071428D01*
X13868142Y-15857142D01*
X13832428Y-15785714D01*
X13796714Y-15750000D01*
X13725285Y-15714285D01*
X13582428Y-15714285D01*
X13511000Y-15750000D01*
X12868142Y-16178571D02*
X12939571Y-16214285D01*
X13082428Y-16214285D01*
X13153857Y-16178571D01*
X13189571Y-16107142D01*
X13189571Y-15821428D01*
X13153857Y-15750000D01*
X13082428Y-15714285D01*
X12939571Y-15714285D01*
X12868142Y-15750000D01*
X12832428Y-15821428D01*
X12832428Y-15892857D01*
X13189571Y-15964285D01*
D12*
X8261904Y-14926190D02*
X8095238Y-15426190D01*
X7928571Y-14926190D01*
X7500000Y-15426190D02*
X7785714Y-15426190D01*
X7642857Y-15426190D02*
X7642857Y-14926190D01*
X7690476Y-14997619D01*
X7738095Y-15045238D01*
X7785714Y-15069047D01*
X7285714Y-15378571D02*
X7261904Y-15402380D01*
X7285714Y-15426190D01*
X7309523Y-15402380D01*
X7285714Y-15378571D01*
X7285714Y-15426190D01*
X7071428Y-14973809D02*
X7047619Y-14950000D01*
X7000000Y-14926190D01*
X6880952Y-14926190D01*
X6833333Y-14950000D01*
X6809523Y-14973809D01*
X6785714Y-15021428D01*
X6785714Y-15069047D01*
X6809523Y-15140476D01*
X7095238Y-15426190D01*
X6785714Y-15426190D01*
D13*
X22697172Y-12331809D02*
X22697172Y-13627047D01*
X22620982Y-13779428D01*
X22544791Y-13855619D01*
X22392410Y-13931809D01*
X22087648Y-13931809D01*
X21935267Y-13855619D01*
X21859077Y-13779428D01*
X21782886Y-13627047D01*
X21782886Y-12331809D01*
X21020982Y-12865142D02*
X21020982Y-13931809D01*
X21020982Y-13017523D02*
X20944791Y-12941333D01*
X20792410Y-12865142D01*
X20563839Y-12865142D01*
X20411458Y-12941333D01*
X20335267Y-13093714D01*
X20335267Y-13931809D01*
X19573363Y-13931809D02*
X19573363Y-12865142D01*
X19573363Y-12331809D02*
X19649553Y-12408000D01*
X19573363Y-12484190D01*
X19497172Y-12408000D01*
X19573363Y-12331809D01*
X19573363Y-12484190D01*
X18278125Y-13093714D02*
X18049553Y-13169904D01*
X17973363Y-13246095D01*
X17897172Y-13398476D01*
X17897172Y-13627047D01*
X17973363Y-13779428D01*
X18049553Y-13855619D01*
X18201934Y-13931809D01*
X18811458Y-13931809D01*
X18811458Y-12331809D01*
X18278125Y-12331809D01*
X18125744Y-12408000D01*
X18049553Y-12484190D01*
X17973363Y-12636571D01*
X17973363Y-12788952D01*
X18049553Y-12941333D01*
X18125744Y-13017523D01*
X18278125Y-13093714D01*
X18811458Y-13093714D01*
X16525744Y-13931809D02*
X16525744Y-13093714D01*
X16601934Y-12941333D01*
X16754315Y-12865142D01*
X17059077Y-12865142D01*
X17211458Y-12941333D01*
X16525744Y-13855619D02*
X16678125Y-13931809D01*
X17059077Y-13931809D01*
X17211458Y-13855619D01*
X17287648Y-13703238D01*
X17287648Y-13550857D01*
X17211458Y-13398476D01*
X17059077Y-13322285D01*
X16678125Y-13322285D01*
X16525744Y-13246095D01*
X15078125Y-13931809D02*
X15078125Y-12331809D01*
X15078125Y-13855619D02*
X15230505Y-13931809D01*
X15535267Y-13931809D01*
X15687648Y-13855619D01*
X15763839Y-13779428D01*
X15840029Y-13627047D01*
X15840029Y-13169904D01*
X15763839Y-13017523D01*
X15687648Y-12941333D01*
X15535267Y-12865142D01*
X15230505Y-12865142D01*
X15078125Y-12941333D01*
X13630505Y-12865142D02*
X13630505Y-14160380D01*
X13706696Y-14312761D01*
X13782886Y-14388952D01*
X13935267Y-14465142D01*
X14163839Y-14465142D01*
X14316220Y-14388952D01*
X13630505Y-13855619D02*
X13782886Y-13931809D01*
X14087648Y-13931809D01*
X14240029Y-13855619D01*
X14316220Y-13779428D01*
X14392410Y-13627047D01*
X14392410Y-13169904D01*
X14316220Y-13017523D01*
X14240029Y-12941333D01*
X14087648Y-12865142D01*
X13782886Y-12865142D01*
X13630505Y-12941333D01*
X12259077Y-13855619D02*
X12411458Y-13931809D01*
X12716220Y-13931809D01*
X12868601Y-13855619D01*
X12944791Y-13703238D01*
X12944791Y-13093714D01*
X12868601Y-12941333D01*
X12716220Y-12865142D01*
X12411458Y-12865142D01*
X12259077Y-12941333D01*
X12182886Y-13093714D01*
X12182886Y-13246095D01*
X12944791Y-13398476D01*
X10201934Y-13931809D02*
X9897172Y-13931809D01*
X9744791Y-13855619D01*
X9668601Y-13779428D01*
X9516220Y-13550857D01*
X9440029Y-13246095D01*
X9440029Y-12636571D01*
X9516220Y-12484190D01*
X9592410Y-12408000D01*
X9744791Y-12331809D01*
X10049553Y-12331809D01*
X10201934Y-12408000D01*
X10278125Y-12484190D01*
X10354315Y-12636571D01*
X10354315Y-13017523D01*
X10278125Y-13169904D01*
X10201934Y-13246095D01*
X10049553Y-13322285D01*
X9744791Y-13322285D01*
X9592410Y-13246095D01*
X9516220Y-13169904D01*
X9440029Y-13017523D01*
X8906696Y-13931809D02*
X8068601Y-12865142D01*
X8906696Y-12865142D02*
X8068601Y-13931809D01*
X7382886Y-13931809D02*
X7078125Y-13931809D01*
X6925744Y-13855619D01*
X6849553Y-13779428D01*
X6697172Y-13550857D01*
X6620982Y-13246095D01*
X6620982Y-12636571D01*
X6697172Y-12484190D01*
X6773363Y-12408000D01*
X6925744Y-12331809D01*
X7230505Y-12331809D01*
X7382886Y-12408000D01*
X7459077Y-12484190D01*
X7535267Y-12636571D01*
X7535267Y-13017523D01*
X7459077Y-13169904D01*
X7382886Y-13246095D01*
X7230505Y-13322285D01*
X6925744Y-13322285D01*
X6773363Y-13246095D01*
X6697172Y-13169904D01*
X6620982Y-13017523D01*
D14*
%TO.C,U2*%
X27641421Y-22000000D02*
G75*
G03*
X27641421Y-22000000I-141421J0D01*
G01*
D15*
%TO.C,U1*%
X8500000Y-20940000D02*
X11950000Y-20940000D01*
X8500000Y-20940000D02*
X6550000Y-20940000D01*
X8500000Y-26060000D02*
X10450000Y-26060000D01*
X8500000Y-26060000D02*
X6550000Y-26060000D01*
D10*
%TO.C,SW1*%
G36*
X9000000Y-43100000D02*
G01*
X9000000Y-43800000D01*
X9700000Y-43800000D01*
X9700000Y-43100000D01*
X9000000Y-43100000D01*
G37*
X9000000Y-43100000D02*
X9000000Y-43800000D01*
X9700000Y-43800000D01*
X9700000Y-43100000D01*
X9000000Y-43100000D01*
X9000000Y-43800000D02*
X9000000Y-43100000D01*
X9700000Y-43800000D02*
X9000000Y-43800000D01*
X9700000Y-43100000D02*
X9700000Y-43800000D01*
X9000000Y-43100000D02*
X9700000Y-43100000D01*
X8500000Y-46500000D02*
X8500000Y-42600000D01*
X10200000Y-46500000D02*
X8500000Y-46500000D01*
X10200000Y-42600000D02*
X10200000Y-46500000D01*
X8500000Y-42600000D02*
X10200000Y-42600000D01*
X10900000Y-48000000D02*
X10900000Y-41000000D01*
X7800000Y-48000000D02*
X10900000Y-48000000D01*
X7800000Y-41000000D02*
X7800000Y-48000000D01*
X10900000Y-41000000D02*
X7800000Y-41000000D01*
D15*
%TO.C,R11*%
X41011252Y-46960000D02*
X40488748Y-46960000D01*
X41011252Y-45540000D02*
X40488748Y-45540000D01*
%TO.C,R10*%
X41011252Y-41460000D02*
X40488748Y-41460000D01*
X41011252Y-40040000D02*
X40488748Y-40040000D01*
%TO.C,R9*%
X41011252Y-36210000D02*
X40488748Y-36210000D01*
X41011252Y-34790000D02*
X40488748Y-34790000D01*
%TO.C,R8*%
X41036252Y-30960000D02*
X40513748Y-30960000D01*
X41036252Y-29540000D02*
X40513748Y-29540000D01*
%TO.C,R7*%
X41036252Y-25710000D02*
X40513748Y-25710000D01*
X41036252Y-24290000D02*
X40513748Y-24290000D01*
%TO.C,R6*%
X41011252Y-20460000D02*
X40488748Y-20460000D01*
X41011252Y-19040000D02*
X40488748Y-19040000D01*
%TO.C,R5*%
X41011252Y-15210000D02*
X40488748Y-15210000D01*
X41011252Y-13790000D02*
X40488748Y-13790000D01*
%TO.C,R4*%
X40986252Y-9960000D02*
X40463748Y-9960000D01*
X40986252Y-8540000D02*
X40463748Y-8540000D01*
%TO.C,R3*%
X41011252Y-4710000D02*
X40488748Y-4710000D01*
X41011252Y-3290000D02*
X40488748Y-3290000D01*
%TO.C,R2*%
X11238748Y-33290000D02*
X11761252Y-33290000D01*
X11238748Y-34710000D02*
X11761252Y-34710000D01*
%TO.C,R1*%
X11761252Y-38210000D02*
X11238748Y-38210000D01*
X11761252Y-36790000D02*
X11238748Y-36790000D01*
%TO.C,Q9*%
X36010000Y-44670000D02*
X34550000Y-44670000D01*
X36010000Y-47830000D02*
X33850000Y-47830000D01*
X36010000Y-47830000D02*
X36010000Y-46900000D01*
X36010000Y-44670000D02*
X36010000Y-45600000D01*
%TO.C,Q8*%
X36010000Y-39170000D02*
X34550000Y-39170000D01*
X36010000Y-42330000D02*
X33850000Y-42330000D01*
X36010000Y-42330000D02*
X36010000Y-41400000D01*
X36010000Y-39170000D02*
X36010000Y-40100000D01*
%TO.C,Q7*%
X36010000Y-33920000D02*
X34550000Y-33920000D01*
X36010000Y-37080000D02*
X33850000Y-37080000D01*
X36010000Y-37080000D02*
X36010000Y-36150000D01*
X36010000Y-33920000D02*
X36010000Y-34850000D01*
%TO.C,Q6*%
X36010000Y-28670000D02*
X34550000Y-28670000D01*
X36010000Y-31830000D02*
X33850000Y-31830000D01*
X36010000Y-31830000D02*
X36010000Y-30900000D01*
X36010000Y-28670000D02*
X36010000Y-29600000D01*
%TO.C,Q5*%
X36010000Y-23420000D02*
X34550000Y-23420000D01*
X36010000Y-26580000D02*
X33850000Y-26580000D01*
X36010000Y-26580000D02*
X36010000Y-25650000D01*
X36010000Y-23420000D02*
X36010000Y-24350000D01*
%TO.C,Q4*%
X36010000Y-18170000D02*
X34550000Y-18170000D01*
X36010000Y-21330000D02*
X33850000Y-21330000D01*
X36010000Y-21330000D02*
X36010000Y-20400000D01*
X36010000Y-18170000D02*
X36010000Y-19100000D01*
%TO.C,Q3*%
X36010000Y-12920000D02*
X34550000Y-12920000D01*
X36010000Y-16080000D02*
X33850000Y-16080000D01*
X36010000Y-16080000D02*
X36010000Y-15150000D01*
X36010000Y-12920000D02*
X36010000Y-13850000D01*
%TO.C,Q2*%
X36010000Y-7670000D02*
X34550000Y-7670000D01*
X36010000Y-10830000D02*
X33850000Y-10830000D01*
X36010000Y-10830000D02*
X36010000Y-9900000D01*
X36010000Y-7670000D02*
X36010000Y-8600000D01*
%TO.C,Q1*%
X36010000Y-2420000D02*
X34550000Y-2420000D01*
X36010000Y-5580000D02*
X33850000Y-5580000D01*
X36010000Y-5580000D02*
X36010000Y-4650000D01*
X36010000Y-2420000D02*
X36010000Y-3350000D01*
%TO.C,C3*%
X11238748Y-29790000D02*
X11761252Y-29790000D01*
X11238748Y-31210000D02*
X11761252Y-31210000D01*
%TO.C,C2*%
X5261252Y-32210000D02*
X4738748Y-32210000D01*
X5261252Y-30790000D02*
X4738748Y-30790000D01*
%TO.C,C1*%
X4738748Y-35290000D02*
X5261252Y-35290000D01*
X4738748Y-36710000D02*
X5261252Y-36710000D01*
%TO.C,BT1*%
X670000Y-48330000D02*
X2000000Y-48330000D01*
X670000Y-47000000D02*
X670000Y-48330000D01*
X670000Y-45730000D02*
X3330000Y-45730000D01*
X3330000Y-45730000D02*
X3330000Y-43130000D01*
X670000Y-45730000D02*
X670000Y-43130000D01*
X670000Y-43130000D02*
X3330000Y-43130000D01*
%TO.C,U2*%
D10*
X26761904Y-19752380D02*
X26761904Y-20561904D01*
X26714285Y-20657142D01*
X26666666Y-20704761D01*
X26571428Y-20752380D01*
X26380952Y-20752380D01*
X26285714Y-20704761D01*
X26238095Y-20657142D01*
X26190476Y-20561904D01*
X26190476Y-19752380D01*
X25761904Y-19847619D02*
X25714285Y-19800000D01*
X25619047Y-19752380D01*
X25380952Y-19752380D01*
X25285714Y-19800000D01*
X25238095Y-19847619D01*
X25190476Y-19942857D01*
X25190476Y-20038095D01*
X25238095Y-20180952D01*
X25809523Y-20752380D01*
X25190476Y-20752380D01*
%TO.C,U1*%
X9261904Y-19552380D02*
X9261904Y-20361904D01*
X9214285Y-20457142D01*
X9166666Y-20504761D01*
X9071428Y-20552380D01*
X8880952Y-20552380D01*
X8785714Y-20504761D01*
X8738095Y-20457142D01*
X8690476Y-20361904D01*
X8690476Y-19552380D01*
X7690476Y-20552380D02*
X8261904Y-20552380D01*
X7976190Y-20552380D02*
X7976190Y-19552380D01*
X8071428Y-19695238D01*
X8166666Y-19790476D01*
X8261904Y-19838095D01*
%TO.C,SW1*%
X7333333Y-48904761D02*
X7190476Y-48952380D01*
X6952380Y-48952380D01*
X6857142Y-48904761D01*
X6809523Y-48857142D01*
X6761904Y-48761904D01*
X6761904Y-48666666D01*
X6809523Y-48571428D01*
X6857142Y-48523809D01*
X6952380Y-48476190D01*
X7142857Y-48428571D01*
X7238095Y-48380952D01*
X7285714Y-48333333D01*
X7333333Y-48238095D01*
X7333333Y-48142857D01*
X7285714Y-48047619D01*
X7238095Y-48000000D01*
X7142857Y-47952380D01*
X6904761Y-47952380D01*
X6761904Y-48000000D01*
X6428571Y-47952380D02*
X6190476Y-48952380D01*
X6000000Y-48238095D01*
X5809523Y-48952380D01*
X5571428Y-47952380D01*
X4666666Y-48952380D02*
X5238095Y-48952380D01*
X4952380Y-48952380D02*
X4952380Y-47952380D01*
X5047619Y-48095238D01*
X5142857Y-48190476D01*
X5238095Y-48238095D01*
%TO.C,R11*%
X41392857Y-45052380D02*
X41726190Y-44576190D01*
X41964285Y-45052380D02*
X41964285Y-44052380D01*
X41583333Y-44052380D01*
X41488095Y-44100000D01*
X41440476Y-44147619D01*
X41392857Y-44242857D01*
X41392857Y-44385714D01*
X41440476Y-44480952D01*
X41488095Y-44528571D01*
X41583333Y-44576190D01*
X41964285Y-44576190D01*
X40440476Y-45052380D02*
X41011904Y-45052380D01*
X40726190Y-45052380D02*
X40726190Y-44052380D01*
X40821428Y-44195238D01*
X40916666Y-44290476D01*
X41011904Y-44338095D01*
X39488095Y-45052380D02*
X40059523Y-45052380D01*
X39773809Y-45052380D02*
X39773809Y-44052380D01*
X39869047Y-44195238D01*
X39964285Y-44290476D01*
X40059523Y-44338095D01*
%TO.C,R10*%
X41392857Y-39552380D02*
X41726190Y-39076190D01*
X41964285Y-39552380D02*
X41964285Y-38552380D01*
X41583333Y-38552380D01*
X41488095Y-38600000D01*
X41440476Y-38647619D01*
X41392857Y-38742857D01*
X41392857Y-38885714D01*
X41440476Y-38980952D01*
X41488095Y-39028571D01*
X41583333Y-39076190D01*
X41964285Y-39076190D01*
X40440476Y-39552380D02*
X41011904Y-39552380D01*
X40726190Y-39552380D02*
X40726190Y-38552380D01*
X40821428Y-38695238D01*
X40916666Y-38790476D01*
X41011904Y-38838095D01*
X39821428Y-38552380D02*
X39726190Y-38552380D01*
X39630952Y-38600000D01*
X39583333Y-38647619D01*
X39535714Y-38742857D01*
X39488095Y-38933333D01*
X39488095Y-39171428D01*
X39535714Y-39361904D01*
X39583333Y-39457142D01*
X39630952Y-39504761D01*
X39726190Y-39552380D01*
X39821428Y-39552380D01*
X39916666Y-39504761D01*
X39964285Y-39457142D01*
X40011904Y-39361904D01*
X40059523Y-39171428D01*
X40059523Y-38933333D01*
X40011904Y-38742857D01*
X39964285Y-38647619D01*
X39916666Y-38600000D01*
X39821428Y-38552380D01*
%TO.C,R9*%
X40916666Y-34302380D02*
X41250000Y-33826190D01*
X41488095Y-34302380D02*
X41488095Y-33302380D01*
X41107142Y-33302380D01*
X41011904Y-33350000D01*
X40964285Y-33397619D01*
X40916666Y-33492857D01*
X40916666Y-33635714D01*
X40964285Y-33730952D01*
X41011904Y-33778571D01*
X41107142Y-33826190D01*
X41488095Y-33826190D01*
X40440476Y-34302380D02*
X40250000Y-34302380D01*
X40154761Y-34254761D01*
X40107142Y-34207142D01*
X40011904Y-34064285D01*
X39964285Y-33873809D01*
X39964285Y-33492857D01*
X40011904Y-33397619D01*
X40059523Y-33350000D01*
X40154761Y-33302380D01*
X40345238Y-33302380D01*
X40440476Y-33350000D01*
X40488095Y-33397619D01*
X40535714Y-33492857D01*
X40535714Y-33730952D01*
X40488095Y-33826190D01*
X40440476Y-33873809D01*
X40345238Y-33921428D01*
X40154761Y-33921428D01*
X40059523Y-33873809D01*
X40011904Y-33826190D01*
X39964285Y-33730952D01*
%TO.C,R8*%
X40941666Y-29052380D02*
X41275000Y-28576190D01*
X41513095Y-29052380D02*
X41513095Y-28052380D01*
X41132142Y-28052380D01*
X41036904Y-28100000D01*
X40989285Y-28147619D01*
X40941666Y-28242857D01*
X40941666Y-28385714D01*
X40989285Y-28480952D01*
X41036904Y-28528571D01*
X41132142Y-28576190D01*
X41513095Y-28576190D01*
X40370238Y-28480952D02*
X40465476Y-28433333D01*
X40513095Y-28385714D01*
X40560714Y-28290476D01*
X40560714Y-28242857D01*
X40513095Y-28147619D01*
X40465476Y-28100000D01*
X40370238Y-28052380D01*
X40179761Y-28052380D01*
X40084523Y-28100000D01*
X40036904Y-28147619D01*
X39989285Y-28242857D01*
X39989285Y-28290476D01*
X40036904Y-28385714D01*
X40084523Y-28433333D01*
X40179761Y-28480952D01*
X40370238Y-28480952D01*
X40465476Y-28528571D01*
X40513095Y-28576190D01*
X40560714Y-28671428D01*
X40560714Y-28861904D01*
X40513095Y-28957142D01*
X40465476Y-29004761D01*
X40370238Y-29052380D01*
X40179761Y-29052380D01*
X40084523Y-29004761D01*
X40036904Y-28957142D01*
X39989285Y-28861904D01*
X39989285Y-28671428D01*
X40036904Y-28576190D01*
X40084523Y-28528571D01*
X40179761Y-28480952D01*
%TO.C,R7*%
X40941666Y-23802380D02*
X41275000Y-23326190D01*
X41513095Y-23802380D02*
X41513095Y-22802380D01*
X41132142Y-22802380D01*
X41036904Y-22850000D01*
X40989285Y-22897619D01*
X40941666Y-22992857D01*
X40941666Y-23135714D01*
X40989285Y-23230952D01*
X41036904Y-23278571D01*
X41132142Y-23326190D01*
X41513095Y-23326190D01*
X40608333Y-22802380D02*
X39941666Y-22802380D01*
X40370238Y-23802380D01*
%TO.C,R6*%
X40916666Y-18552380D02*
X41250000Y-18076190D01*
X41488095Y-18552380D02*
X41488095Y-17552380D01*
X41107142Y-17552380D01*
X41011904Y-17600000D01*
X40964285Y-17647619D01*
X40916666Y-17742857D01*
X40916666Y-17885714D01*
X40964285Y-17980952D01*
X41011904Y-18028571D01*
X41107142Y-18076190D01*
X41488095Y-18076190D01*
X40059523Y-17552380D02*
X40250000Y-17552380D01*
X40345238Y-17600000D01*
X40392857Y-17647619D01*
X40488095Y-17790476D01*
X40535714Y-17980952D01*
X40535714Y-18361904D01*
X40488095Y-18457142D01*
X40440476Y-18504761D01*
X40345238Y-18552380D01*
X40154761Y-18552380D01*
X40059523Y-18504761D01*
X40011904Y-18457142D01*
X39964285Y-18361904D01*
X39964285Y-18123809D01*
X40011904Y-18028571D01*
X40059523Y-17980952D01*
X40154761Y-17933333D01*
X40345238Y-17933333D01*
X40440476Y-17980952D01*
X40488095Y-18028571D01*
X40535714Y-18123809D01*
%TO.C,R5*%
X40916666Y-13302380D02*
X41250000Y-12826190D01*
X41488095Y-13302380D02*
X41488095Y-12302380D01*
X41107142Y-12302380D01*
X41011904Y-12350000D01*
X40964285Y-12397619D01*
X40916666Y-12492857D01*
X40916666Y-12635714D01*
X40964285Y-12730952D01*
X41011904Y-12778571D01*
X41107142Y-12826190D01*
X41488095Y-12826190D01*
X40011904Y-12302380D02*
X40488095Y-12302380D01*
X40535714Y-12778571D01*
X40488095Y-12730952D01*
X40392857Y-12683333D01*
X40154761Y-12683333D01*
X40059523Y-12730952D01*
X40011904Y-12778571D01*
X39964285Y-12873809D01*
X39964285Y-13111904D01*
X40011904Y-13207142D01*
X40059523Y-13254761D01*
X40154761Y-13302380D01*
X40392857Y-13302380D01*
X40488095Y-13254761D01*
X40535714Y-13207142D01*
%TO.C,R4*%
X40891666Y-8052380D02*
X41225000Y-7576190D01*
X41463095Y-8052380D02*
X41463095Y-7052380D01*
X41082142Y-7052380D01*
X40986904Y-7100000D01*
X40939285Y-7147619D01*
X40891666Y-7242857D01*
X40891666Y-7385714D01*
X40939285Y-7480952D01*
X40986904Y-7528571D01*
X41082142Y-7576190D01*
X41463095Y-7576190D01*
X40034523Y-7385714D02*
X40034523Y-8052380D01*
X40272619Y-7004761D02*
X40510714Y-7719047D01*
X39891666Y-7719047D01*
%TO.C,R3*%
X40916666Y-2802380D02*
X41250000Y-2326190D01*
X41488095Y-2802380D02*
X41488095Y-1802380D01*
X41107142Y-1802380D01*
X41011904Y-1850000D01*
X40964285Y-1897619D01*
X40916666Y-1992857D01*
X40916666Y-2135714D01*
X40964285Y-2230952D01*
X41011904Y-2278571D01*
X41107142Y-2326190D01*
X41488095Y-2326190D01*
X40583333Y-1802380D02*
X39964285Y-1802380D01*
X40297619Y-2183333D01*
X40154761Y-2183333D01*
X40059523Y-2230952D01*
X40011904Y-2278571D01*
X39964285Y-2373809D01*
X39964285Y-2611904D01*
X40011904Y-2707142D01*
X40059523Y-2754761D01*
X40154761Y-2802380D01*
X40440476Y-2802380D01*
X40535714Y-2754761D01*
X40583333Y-2707142D01*
%TO.C,R2*%
X11666666Y-32952380D02*
X12000000Y-32476190D01*
X12238095Y-32952380D02*
X12238095Y-31952380D01*
X11857142Y-31952380D01*
X11761904Y-32000000D01*
X11714285Y-32047619D01*
X11666666Y-32142857D01*
X11666666Y-32285714D01*
X11714285Y-32380952D01*
X11761904Y-32428571D01*
X11857142Y-32476190D01*
X12238095Y-32476190D01*
X11285714Y-32047619D02*
X11238095Y-32000000D01*
X11142857Y-31952380D01*
X10904761Y-31952380D01*
X10809523Y-32000000D01*
X10761904Y-32047619D01*
X10714285Y-32142857D01*
X10714285Y-32238095D01*
X10761904Y-32380952D01*
X11333333Y-32952380D01*
X10714285Y-32952380D01*
%TO.C,R1*%
X11666666Y-36452380D02*
X12000000Y-35976190D01*
X12238095Y-36452380D02*
X12238095Y-35452380D01*
X11857142Y-35452380D01*
X11761904Y-35500000D01*
X11714285Y-35547619D01*
X11666666Y-35642857D01*
X11666666Y-35785714D01*
X11714285Y-35880952D01*
X11761904Y-35928571D01*
X11857142Y-35976190D01*
X12238095Y-35976190D01*
X10714285Y-36452380D02*
X11285714Y-36452380D01*
X11000000Y-36452380D02*
X11000000Y-35452380D01*
X11095238Y-35595238D01*
X11190476Y-35690476D01*
X11285714Y-35738095D01*
%TO.C,Q9*%
X35345238Y-49297619D02*
X35440476Y-49250000D01*
X35535714Y-49154761D01*
X35678571Y-49011904D01*
X35773809Y-48964285D01*
X35869047Y-48964285D01*
X35821428Y-49202380D02*
X35916666Y-49154761D01*
X36011904Y-49059523D01*
X36059523Y-48869047D01*
X36059523Y-48535714D01*
X36011904Y-48345238D01*
X35916666Y-48250000D01*
X35821428Y-48202380D01*
X35630952Y-48202380D01*
X35535714Y-48250000D01*
X35440476Y-48345238D01*
X35392857Y-48535714D01*
X35392857Y-48869047D01*
X35440476Y-49059523D01*
X35535714Y-49154761D01*
X35630952Y-49202380D01*
X35821428Y-49202380D01*
X34916666Y-49202380D02*
X34726190Y-49202380D01*
X34630952Y-49154761D01*
X34583333Y-49107142D01*
X34488095Y-48964285D01*
X34440476Y-48773809D01*
X34440476Y-48392857D01*
X34488095Y-48297619D01*
X34535714Y-48250000D01*
X34630952Y-48202380D01*
X34821428Y-48202380D01*
X34916666Y-48250000D01*
X34964285Y-48297619D01*
X35011904Y-48392857D01*
X35011904Y-48630952D01*
X34964285Y-48726190D01*
X34916666Y-48773809D01*
X34821428Y-48821428D01*
X34630952Y-48821428D01*
X34535714Y-48773809D01*
X34488095Y-48726190D01*
X34440476Y-48630952D01*
%TO.C,Q8*%
X35345238Y-43797619D02*
X35440476Y-43750000D01*
X35535714Y-43654761D01*
X35678571Y-43511904D01*
X35773809Y-43464285D01*
X35869047Y-43464285D01*
X35821428Y-43702380D02*
X35916666Y-43654761D01*
X36011904Y-43559523D01*
X36059523Y-43369047D01*
X36059523Y-43035714D01*
X36011904Y-42845238D01*
X35916666Y-42750000D01*
X35821428Y-42702380D01*
X35630952Y-42702380D01*
X35535714Y-42750000D01*
X35440476Y-42845238D01*
X35392857Y-43035714D01*
X35392857Y-43369047D01*
X35440476Y-43559523D01*
X35535714Y-43654761D01*
X35630952Y-43702380D01*
X35821428Y-43702380D01*
X34821428Y-43130952D02*
X34916666Y-43083333D01*
X34964285Y-43035714D01*
X35011904Y-42940476D01*
X35011904Y-42892857D01*
X34964285Y-42797619D01*
X34916666Y-42750000D01*
X34821428Y-42702380D01*
X34630952Y-42702380D01*
X34535714Y-42750000D01*
X34488095Y-42797619D01*
X34440476Y-42892857D01*
X34440476Y-42940476D01*
X34488095Y-43035714D01*
X34535714Y-43083333D01*
X34630952Y-43130952D01*
X34821428Y-43130952D01*
X34916666Y-43178571D01*
X34964285Y-43226190D01*
X35011904Y-43321428D01*
X35011904Y-43511904D01*
X34964285Y-43607142D01*
X34916666Y-43654761D01*
X34821428Y-43702380D01*
X34630952Y-43702380D01*
X34535714Y-43654761D01*
X34488095Y-43607142D01*
X34440476Y-43511904D01*
X34440476Y-43321428D01*
X34488095Y-43226190D01*
X34535714Y-43178571D01*
X34630952Y-43130952D01*
%TO.C,Q7*%
X35345238Y-38547619D02*
X35440476Y-38500000D01*
X35535714Y-38404761D01*
X35678571Y-38261904D01*
X35773809Y-38214285D01*
X35869047Y-38214285D01*
X35821428Y-38452380D02*
X35916666Y-38404761D01*
X36011904Y-38309523D01*
X36059523Y-38119047D01*
X36059523Y-37785714D01*
X36011904Y-37595238D01*
X35916666Y-37500000D01*
X35821428Y-37452380D01*
X35630952Y-37452380D01*
X35535714Y-37500000D01*
X35440476Y-37595238D01*
X35392857Y-37785714D01*
X35392857Y-38119047D01*
X35440476Y-38309523D01*
X35535714Y-38404761D01*
X35630952Y-38452380D01*
X35821428Y-38452380D01*
X35059523Y-37452380D02*
X34392857Y-37452380D01*
X34821428Y-38452380D01*
%TO.C,Q6*%
X35345238Y-33297619D02*
X35440476Y-33250000D01*
X35535714Y-33154761D01*
X35678571Y-33011904D01*
X35773809Y-32964285D01*
X35869047Y-32964285D01*
X35821428Y-33202380D02*
X35916666Y-33154761D01*
X36011904Y-33059523D01*
X36059523Y-32869047D01*
X36059523Y-32535714D01*
X36011904Y-32345238D01*
X35916666Y-32250000D01*
X35821428Y-32202380D01*
X35630952Y-32202380D01*
X35535714Y-32250000D01*
X35440476Y-32345238D01*
X35392857Y-32535714D01*
X35392857Y-32869047D01*
X35440476Y-33059523D01*
X35535714Y-33154761D01*
X35630952Y-33202380D01*
X35821428Y-33202380D01*
X34535714Y-32202380D02*
X34726190Y-32202380D01*
X34821428Y-32250000D01*
X34869047Y-32297619D01*
X34964285Y-32440476D01*
X35011904Y-32630952D01*
X35011904Y-33011904D01*
X34964285Y-33107142D01*
X34916666Y-33154761D01*
X34821428Y-33202380D01*
X34630952Y-33202380D01*
X34535714Y-33154761D01*
X34488095Y-33107142D01*
X34440476Y-33011904D01*
X34440476Y-32773809D01*
X34488095Y-32678571D01*
X34535714Y-32630952D01*
X34630952Y-32583333D01*
X34821428Y-32583333D01*
X34916666Y-32630952D01*
X34964285Y-32678571D01*
X35011904Y-32773809D01*
%TO.C,Q5*%
X35345238Y-28047619D02*
X35440476Y-28000000D01*
X35535714Y-27904761D01*
X35678571Y-27761904D01*
X35773809Y-27714285D01*
X35869047Y-27714285D01*
X35821428Y-27952380D02*
X35916666Y-27904761D01*
X36011904Y-27809523D01*
X36059523Y-27619047D01*
X36059523Y-27285714D01*
X36011904Y-27095238D01*
X35916666Y-27000000D01*
X35821428Y-26952380D01*
X35630952Y-26952380D01*
X35535714Y-27000000D01*
X35440476Y-27095238D01*
X35392857Y-27285714D01*
X35392857Y-27619047D01*
X35440476Y-27809523D01*
X35535714Y-27904761D01*
X35630952Y-27952380D01*
X35821428Y-27952380D01*
X34488095Y-26952380D02*
X34964285Y-26952380D01*
X35011904Y-27428571D01*
X34964285Y-27380952D01*
X34869047Y-27333333D01*
X34630952Y-27333333D01*
X34535714Y-27380952D01*
X34488095Y-27428571D01*
X34440476Y-27523809D01*
X34440476Y-27761904D01*
X34488095Y-27857142D01*
X34535714Y-27904761D01*
X34630952Y-27952380D01*
X34869047Y-27952380D01*
X34964285Y-27904761D01*
X35011904Y-27857142D01*
%TO.C,Q4*%
X35345238Y-22797619D02*
X35440476Y-22750000D01*
X35535714Y-22654761D01*
X35678571Y-22511904D01*
X35773809Y-22464285D01*
X35869047Y-22464285D01*
X35821428Y-22702380D02*
X35916666Y-22654761D01*
X36011904Y-22559523D01*
X36059523Y-22369047D01*
X36059523Y-22035714D01*
X36011904Y-21845238D01*
X35916666Y-21750000D01*
X35821428Y-21702380D01*
X35630952Y-21702380D01*
X35535714Y-21750000D01*
X35440476Y-21845238D01*
X35392857Y-22035714D01*
X35392857Y-22369047D01*
X35440476Y-22559523D01*
X35535714Y-22654761D01*
X35630952Y-22702380D01*
X35821428Y-22702380D01*
X34535714Y-22035714D02*
X34535714Y-22702380D01*
X34773809Y-21654761D02*
X35011904Y-22369047D01*
X34392857Y-22369047D01*
%TO.C,Q3*%
X35345238Y-17547619D02*
X35440476Y-17500000D01*
X35535714Y-17404761D01*
X35678571Y-17261904D01*
X35773809Y-17214285D01*
X35869047Y-17214285D01*
X35821428Y-17452380D02*
X35916666Y-17404761D01*
X36011904Y-17309523D01*
X36059523Y-17119047D01*
X36059523Y-16785714D01*
X36011904Y-16595238D01*
X35916666Y-16500000D01*
X35821428Y-16452380D01*
X35630952Y-16452380D01*
X35535714Y-16500000D01*
X35440476Y-16595238D01*
X35392857Y-16785714D01*
X35392857Y-17119047D01*
X35440476Y-17309523D01*
X35535714Y-17404761D01*
X35630952Y-17452380D01*
X35821428Y-17452380D01*
X35059523Y-16452380D02*
X34440476Y-16452380D01*
X34773809Y-16833333D01*
X34630952Y-16833333D01*
X34535714Y-16880952D01*
X34488095Y-16928571D01*
X34440476Y-17023809D01*
X34440476Y-17261904D01*
X34488095Y-17357142D01*
X34535714Y-17404761D01*
X34630952Y-17452380D01*
X34916666Y-17452380D01*
X35011904Y-17404761D01*
X35059523Y-17357142D01*
%TO.C,Q2*%
X35345238Y-12297619D02*
X35440476Y-12250000D01*
X35535714Y-12154761D01*
X35678571Y-12011904D01*
X35773809Y-11964285D01*
X35869047Y-11964285D01*
X35821428Y-12202380D02*
X35916666Y-12154761D01*
X36011904Y-12059523D01*
X36059523Y-11869047D01*
X36059523Y-11535714D01*
X36011904Y-11345238D01*
X35916666Y-11250000D01*
X35821428Y-11202380D01*
X35630952Y-11202380D01*
X35535714Y-11250000D01*
X35440476Y-11345238D01*
X35392857Y-11535714D01*
X35392857Y-11869047D01*
X35440476Y-12059523D01*
X35535714Y-12154761D01*
X35630952Y-12202380D01*
X35821428Y-12202380D01*
X35011904Y-11297619D02*
X34964285Y-11250000D01*
X34869047Y-11202380D01*
X34630952Y-11202380D01*
X34535714Y-11250000D01*
X34488095Y-11297619D01*
X34440476Y-11392857D01*
X34440476Y-11488095D01*
X34488095Y-11630952D01*
X35059523Y-12202380D01*
X34440476Y-12202380D01*
%TO.C,Q1*%
X35345238Y-7047619D02*
X35440476Y-7000000D01*
X35535714Y-6904761D01*
X35678571Y-6761904D01*
X35773809Y-6714285D01*
X35869047Y-6714285D01*
X35821428Y-6952380D02*
X35916666Y-6904761D01*
X36011904Y-6809523D01*
X36059523Y-6619047D01*
X36059523Y-6285714D01*
X36011904Y-6095238D01*
X35916666Y-6000000D01*
X35821428Y-5952380D01*
X35630952Y-5952380D01*
X35535714Y-6000000D01*
X35440476Y-6095238D01*
X35392857Y-6285714D01*
X35392857Y-6619047D01*
X35440476Y-6809523D01*
X35535714Y-6904761D01*
X35630952Y-6952380D01*
X35821428Y-6952380D01*
X34440476Y-6952380D02*
X35011904Y-6952380D01*
X34726190Y-6952380D02*
X34726190Y-5952380D01*
X34821428Y-6095238D01*
X34916666Y-6190476D01*
X35011904Y-6238095D01*
%TO.C,C3*%
X11666666Y-29357142D02*
X11714285Y-29404761D01*
X11857142Y-29452380D01*
X11952380Y-29452380D01*
X12095238Y-29404761D01*
X12190476Y-29309523D01*
X12238095Y-29214285D01*
X12285714Y-29023809D01*
X12285714Y-28880952D01*
X12238095Y-28690476D01*
X12190476Y-28595238D01*
X12095238Y-28500000D01*
X11952380Y-28452380D01*
X11857142Y-28452380D01*
X11714285Y-28500000D01*
X11666666Y-28547619D01*
X11333333Y-28452380D02*
X10714285Y-28452380D01*
X11047619Y-28833333D01*
X10904761Y-28833333D01*
X10809523Y-28880952D01*
X10761904Y-28928571D01*
X10714285Y-29023809D01*
X10714285Y-29261904D01*
X10761904Y-29357142D01*
X10809523Y-29404761D01*
X10904761Y-29452380D01*
X11190476Y-29452380D01*
X11285714Y-29404761D01*
X11333333Y-29357142D01*
%TO.C,C2*%
X5166666Y-30357142D02*
X5214285Y-30404761D01*
X5357142Y-30452380D01*
X5452380Y-30452380D01*
X5595238Y-30404761D01*
X5690476Y-30309523D01*
X5738095Y-30214285D01*
X5785714Y-30023809D01*
X5785714Y-29880952D01*
X5738095Y-29690476D01*
X5690476Y-29595238D01*
X5595238Y-29500000D01*
X5452380Y-29452380D01*
X5357142Y-29452380D01*
X5214285Y-29500000D01*
X5166666Y-29547619D01*
X4785714Y-29547619D02*
X4738095Y-29500000D01*
X4642857Y-29452380D01*
X4404761Y-29452380D01*
X4309523Y-29500000D01*
X4261904Y-29547619D01*
X4214285Y-29642857D01*
X4214285Y-29738095D01*
X4261904Y-29880952D01*
X4833333Y-30452380D01*
X4214285Y-30452380D01*
%TO.C,C1*%
X5166666Y-34857142D02*
X5214285Y-34904761D01*
X5357142Y-34952380D01*
X5452380Y-34952380D01*
X5595238Y-34904761D01*
X5690476Y-34809523D01*
X5738095Y-34714285D01*
X5785714Y-34523809D01*
X5785714Y-34380952D01*
X5738095Y-34190476D01*
X5690476Y-34095238D01*
X5595238Y-34000000D01*
X5452380Y-33952380D01*
X5357142Y-33952380D01*
X5214285Y-34000000D01*
X5166666Y-34047619D01*
X4214285Y-34952380D02*
X4785714Y-34952380D01*
X4500000Y-34952380D02*
X4500000Y-33952380D01*
X4595238Y-34095238D01*
X4690476Y-34190476D01*
X4785714Y-34238095D01*
%TO.C,BT1*%
X2785714Y-41928571D02*
X2642857Y-41976190D01*
X2595238Y-42023809D01*
X2547619Y-42119047D01*
X2547619Y-42261904D01*
X2595238Y-42357142D01*
X2642857Y-42404761D01*
X2738095Y-42452380D01*
X3119047Y-42452380D01*
X3119047Y-41452380D01*
X2785714Y-41452380D01*
X2690476Y-41500000D01*
X2642857Y-41547619D01*
X2595238Y-41642857D01*
X2595238Y-41738095D01*
X2642857Y-41833333D01*
X2690476Y-41880952D01*
X2785714Y-41928571D01*
X3119047Y-41928571D01*
X2261904Y-41452380D02*
X1690476Y-41452380D01*
X1976190Y-42452380D02*
X1976190Y-41452380D01*
X833333Y-42452380D02*
X1404761Y-42452380D01*
X1119047Y-42452380D02*
X1119047Y-41452380D01*
X1214285Y-41595238D01*
X1309523Y-41690476D01*
X1404761Y-41738095D01*
%TD*%
M02*
