%TF.GenerationSoftware,KiCad,Pcbnew,5.1.6*%
%TF.CreationDate,2020-08-08T21:56:00+02:00*%
%TF.ProjectId,unibatch-9x9,756e6962-6174-4636-982d-3978392e6b69,rev?*%
%TF.SameCoordinates,Original*%
%TF.FileFunction,Soldermask,Top*%
%TF.FilePolarity,Negative*%
%FSLAX46Y46*%
G04 Gerber Fmt 4.6, Leading zero omitted, Abs format (unit mm)*
G04 Created by KiCad (PCBNEW 5.1.6) date 2020-08-08 21:56:00*
%MOMM*%
%LPD*%
G01*
G04 APERTURE LIST*
%ADD10C,0.010000*%
%ADD11C,2.100000*%
%ADD12O,1.700000X1.700000*%
%ADD13R,1.700000X1.700000*%
G04 APERTURE END LIST*
D10*
%TO.C,Ref\u002A\u002A*%
G36*
X20227364Y-2472752D02*
G01*
X20285461Y-2586318D01*
X20372481Y-2760124D01*
X20484638Y-2986379D01*
X20618146Y-3257293D01*
X20769219Y-3565075D01*
X20934071Y-3901935D01*
X21108916Y-4260082D01*
X21289968Y-4631726D01*
X21473441Y-5009077D01*
X21655548Y-5384343D01*
X21832505Y-5749735D01*
X22000524Y-6097463D01*
X22155820Y-6419735D01*
X22294607Y-6708762D01*
X22413098Y-6956752D01*
X22507508Y-7155916D01*
X22574051Y-7298462D01*
X22608940Y-7376602D01*
X22613334Y-7389014D01*
X22571074Y-7407099D01*
X22444334Y-7420518D01*
X22233173Y-7429267D01*
X21937647Y-7433343D01*
X21806242Y-7433667D01*
X20999151Y-7433667D01*
X20615924Y-6639917D01*
X20232696Y-5846167D01*
X20052674Y-6227167D01*
X19950664Y-6443399D01*
X19832750Y-6693859D01*
X19718913Y-6936091D01*
X19679114Y-7020917D01*
X19485577Y-7433667D01*
X18633957Y-7433667D01*
X18377165Y-7432174D01*
X18153076Y-7428006D01*
X17973996Y-7421631D01*
X17852229Y-7413518D01*
X17800079Y-7404134D01*
X17799186Y-7401917D01*
X17819770Y-7359137D01*
X17873538Y-7246303D01*
X17957422Y-7069875D01*
X18068356Y-6836314D01*
X18203273Y-6552079D01*
X18359109Y-6223632D01*
X18532795Y-5857433D01*
X18721267Y-5459941D01*
X18921457Y-5037617D01*
X18994950Y-4882549D01*
X19198313Y-4454802D01*
X19391418Y-4051281D01*
X19571190Y-3678241D01*
X19734552Y-3341939D01*
X19878431Y-3048630D01*
X19999750Y-2804570D01*
X20095434Y-2616014D01*
X20162409Y-2489219D01*
X20197598Y-2430440D01*
X20201977Y-2427216D01*
X20227364Y-2472752D01*
G37*
X20227364Y-2472752D02*
X20285461Y-2586318D01*
X20372481Y-2760124D01*
X20484638Y-2986379D01*
X20618146Y-3257293D01*
X20769219Y-3565075D01*
X20934071Y-3901935D01*
X21108916Y-4260082D01*
X21289968Y-4631726D01*
X21473441Y-5009077D01*
X21655548Y-5384343D01*
X21832505Y-5749735D01*
X22000524Y-6097463D01*
X22155820Y-6419735D01*
X22294607Y-6708762D01*
X22413098Y-6956752D01*
X22507508Y-7155916D01*
X22574051Y-7298462D01*
X22608940Y-7376602D01*
X22613334Y-7389014D01*
X22571074Y-7407099D01*
X22444334Y-7420518D01*
X22233173Y-7429267D01*
X21937647Y-7433343D01*
X21806242Y-7433667D01*
X20999151Y-7433667D01*
X20615924Y-6639917D01*
X20232696Y-5846167D01*
X20052674Y-6227167D01*
X19950664Y-6443399D01*
X19832750Y-6693859D01*
X19718913Y-6936091D01*
X19679114Y-7020917D01*
X19485577Y-7433667D01*
X18633957Y-7433667D01*
X18377165Y-7432174D01*
X18153076Y-7428006D01*
X17973996Y-7421631D01*
X17852229Y-7413518D01*
X17800079Y-7404134D01*
X17799186Y-7401917D01*
X17819770Y-7359137D01*
X17873538Y-7246303D01*
X17957422Y-7069875D01*
X18068356Y-6836314D01*
X18203273Y-6552079D01*
X18359109Y-6223632D01*
X18532795Y-5857433D01*
X18721267Y-5459941D01*
X18921457Y-5037617D01*
X18994950Y-4882549D01*
X19198313Y-4454802D01*
X19391418Y-4051281D01*
X19571190Y-3678241D01*
X19734552Y-3341939D01*
X19878431Y-3048630D01*
X19999750Y-2804570D01*
X20095434Y-2616014D01*
X20162409Y-2489219D01*
X20197598Y-2430440D01*
X20201977Y-2427216D01*
X20227364Y-2472752D01*
G36*
X29077601Y-2449296D02*
G01*
X29131718Y-2551583D01*
X29215304Y-2714707D01*
X29324593Y-2931008D01*
X29455817Y-3192828D01*
X29605209Y-3492510D01*
X29769001Y-3822394D01*
X29943427Y-4174823D01*
X30124718Y-4542139D01*
X30309109Y-4916683D01*
X30492831Y-5290798D01*
X30672117Y-5656824D01*
X30843200Y-6007105D01*
X31002313Y-6333981D01*
X31145688Y-6629794D01*
X31269558Y-6886887D01*
X31370156Y-7097601D01*
X31443715Y-7254278D01*
X31486467Y-7349260D01*
X31495854Y-7373823D01*
X31488880Y-7391651D01*
X31453223Y-7405658D01*
X31380420Y-7416276D01*
X31262012Y-7423934D01*
X31089536Y-7429065D01*
X30854533Y-7432098D01*
X30548540Y-7433466D01*
X30321104Y-7433667D01*
X29132667Y-7433667D01*
X29132667Y-6753835D01*
X29134922Y-6510156D01*
X29141269Y-6313462D01*
X29151080Y-6174476D01*
X29163726Y-6103918D01*
X29171104Y-6097759D01*
X29209787Y-6140960D01*
X29283495Y-6238553D01*
X29380359Y-6374441D01*
X29453905Y-6481257D01*
X29586108Y-6669491D01*
X29679875Y-6787378D01*
X29738475Y-6838256D01*
X29765178Y-6825464D01*
X29767667Y-6801639D01*
X29744779Y-6753905D01*
X29682156Y-6651210D01*
X29588864Y-6507780D01*
X29473967Y-6337844D01*
X29450779Y-6304222D01*
X29133892Y-5846167D01*
X29133279Y-5512900D01*
X29135125Y-5356444D01*
X29145826Y-5260524D01*
X29172104Y-5227164D01*
X29220677Y-5258387D01*
X29298268Y-5356216D01*
X29411596Y-5522674D01*
X29472421Y-5614990D01*
X29599965Y-5800810D01*
X29690548Y-5912867D01*
X29745776Y-5952768D01*
X29767255Y-5922124D01*
X29767667Y-5910741D01*
X29744873Y-5862276D01*
X29682471Y-5758689D01*
X29589432Y-5614204D01*
X29474727Y-5443042D01*
X29448490Y-5404698D01*
X29129313Y-4939915D01*
X29141573Y-4573863D01*
X29153834Y-4207810D01*
X29429000Y-4611941D01*
X29539960Y-4767732D01*
X29635944Y-4889184D01*
X29706442Y-4963869D01*
X29740309Y-4980111D01*
X29730431Y-4934432D01*
X29678863Y-4832910D01*
X29593119Y-4688605D01*
X29480713Y-4514574D01*
X29425445Y-4432967D01*
X29301533Y-4253821D01*
X29195792Y-4103437D01*
X29116763Y-3993767D01*
X29072988Y-3936762D01*
X29067066Y-3931475D01*
X28994122Y-4035611D01*
X28901494Y-4179661D01*
X28798143Y-4348179D01*
X28693030Y-4525716D01*
X28595117Y-4696826D01*
X28513365Y-4846060D01*
X28456733Y-4957972D01*
X28434184Y-5017113D01*
X28434719Y-5021560D01*
X28466968Y-5006700D01*
X28533373Y-4931449D01*
X28624319Y-4807892D01*
X28723815Y-4658155D01*
X28984500Y-4248780D01*
X28996704Y-4611689D01*
X29008909Y-4974599D01*
X28707633Y-5440802D01*
X28597226Y-5618458D01*
X28509811Y-5772375D01*
X28453087Y-5887965D01*
X28434757Y-5950639D01*
X28436112Y-5955147D01*
X28469957Y-5942281D01*
X28539209Y-5865260D01*
X28636604Y-5733058D01*
X28734769Y-5586061D01*
X29003672Y-5168834D01*
X29004670Y-5516939D01*
X29005667Y-5865045D01*
X28707502Y-6332935D01*
X28598596Y-6510461D01*
X28512039Y-6664421D01*
X28455541Y-6780094D01*
X28436810Y-6842756D01*
X28438118Y-6847393D01*
X28470832Y-6832972D01*
X28538331Y-6757198D01*
X28631680Y-6631223D01*
X28735722Y-6475897D01*
X29004546Y-6057834D01*
X29005106Y-6745750D01*
X29005667Y-7433667D01*
X27841500Y-7433667D01*
X27537452Y-7433146D01*
X27263026Y-7431678D01*
X27029029Y-7429399D01*
X26846271Y-7426450D01*
X26725558Y-7422969D01*
X26677699Y-7419095D01*
X26677334Y-7418719D01*
X26694971Y-7378184D01*
X26745422Y-7269020D01*
X26824995Y-7098990D01*
X26929998Y-6875856D01*
X27056739Y-6607382D01*
X27201526Y-6301330D01*
X27360667Y-5965465D01*
X27530471Y-5607548D01*
X27707246Y-5235342D01*
X27887299Y-4856612D01*
X28066939Y-4479120D01*
X28242474Y-4110628D01*
X28410212Y-3758900D01*
X28566461Y-3431699D01*
X28707530Y-3136788D01*
X28829726Y-2881929D01*
X28929358Y-2674887D01*
X29002734Y-2523423D01*
X29046161Y-2435302D01*
X29056721Y-2415502D01*
X29077601Y-2449296D01*
G37*
X29077601Y-2449296D02*
X29131718Y-2551583D01*
X29215304Y-2714707D01*
X29324593Y-2931008D01*
X29455817Y-3192828D01*
X29605209Y-3492510D01*
X29769001Y-3822394D01*
X29943427Y-4174823D01*
X30124718Y-4542139D01*
X30309109Y-4916683D01*
X30492831Y-5290798D01*
X30672117Y-5656824D01*
X30843200Y-6007105D01*
X31002313Y-6333981D01*
X31145688Y-6629794D01*
X31269558Y-6886887D01*
X31370156Y-7097601D01*
X31443715Y-7254278D01*
X31486467Y-7349260D01*
X31495854Y-7373823D01*
X31488880Y-7391651D01*
X31453223Y-7405658D01*
X31380420Y-7416276D01*
X31262012Y-7423934D01*
X31089536Y-7429065D01*
X30854533Y-7432098D01*
X30548540Y-7433466D01*
X30321104Y-7433667D01*
X29132667Y-7433667D01*
X29132667Y-6753835D01*
X29134922Y-6510156D01*
X29141269Y-6313462D01*
X29151080Y-6174476D01*
X29163726Y-6103918D01*
X29171104Y-6097759D01*
X29209787Y-6140960D01*
X29283495Y-6238553D01*
X29380359Y-6374441D01*
X29453905Y-6481257D01*
X29586108Y-6669491D01*
X29679875Y-6787378D01*
X29738475Y-6838256D01*
X29765178Y-6825464D01*
X29767667Y-6801639D01*
X29744779Y-6753905D01*
X29682156Y-6651210D01*
X29588864Y-6507780D01*
X29473967Y-6337844D01*
X29450779Y-6304222D01*
X29133892Y-5846167D01*
X29133279Y-5512900D01*
X29135125Y-5356444D01*
X29145826Y-5260524D01*
X29172104Y-5227164D01*
X29220677Y-5258387D01*
X29298268Y-5356216D01*
X29411596Y-5522674D01*
X29472421Y-5614990D01*
X29599965Y-5800810D01*
X29690548Y-5912867D01*
X29745776Y-5952768D01*
X29767255Y-5922124D01*
X29767667Y-5910741D01*
X29744873Y-5862276D01*
X29682471Y-5758689D01*
X29589432Y-5614204D01*
X29474727Y-5443042D01*
X29448490Y-5404698D01*
X29129313Y-4939915D01*
X29141573Y-4573863D01*
X29153834Y-4207810D01*
X29429000Y-4611941D01*
X29539960Y-4767732D01*
X29635944Y-4889184D01*
X29706442Y-4963869D01*
X29740309Y-4980111D01*
X29730431Y-4934432D01*
X29678863Y-4832910D01*
X29593119Y-4688605D01*
X29480713Y-4514574D01*
X29425445Y-4432967D01*
X29301533Y-4253821D01*
X29195792Y-4103437D01*
X29116763Y-3993767D01*
X29072988Y-3936762D01*
X29067066Y-3931475D01*
X28994122Y-4035611D01*
X28901494Y-4179661D01*
X28798143Y-4348179D01*
X28693030Y-4525716D01*
X28595117Y-4696826D01*
X28513365Y-4846060D01*
X28456733Y-4957972D01*
X28434184Y-5017113D01*
X28434719Y-5021560D01*
X28466968Y-5006700D01*
X28533373Y-4931449D01*
X28624319Y-4807892D01*
X28723815Y-4658155D01*
X28984500Y-4248780D01*
X28996704Y-4611689D01*
X29008909Y-4974599D01*
X28707633Y-5440802D01*
X28597226Y-5618458D01*
X28509811Y-5772375D01*
X28453087Y-5887965D01*
X28434757Y-5950639D01*
X28436112Y-5955147D01*
X28469957Y-5942281D01*
X28539209Y-5865260D01*
X28636604Y-5733058D01*
X28734769Y-5586061D01*
X29003672Y-5168834D01*
X29004670Y-5516939D01*
X29005667Y-5865045D01*
X28707502Y-6332935D01*
X28598596Y-6510461D01*
X28512039Y-6664421D01*
X28455541Y-6780094D01*
X28436810Y-6842756D01*
X28438118Y-6847393D01*
X28470832Y-6832972D01*
X28538331Y-6757198D01*
X28631680Y-6631223D01*
X28735722Y-6475897D01*
X29004546Y-6057834D01*
X29005106Y-6745750D01*
X29005667Y-7433667D01*
X27841500Y-7433667D01*
X27537452Y-7433146D01*
X27263026Y-7431678D01*
X27029029Y-7429399D01*
X26846271Y-7426450D01*
X26725558Y-7422969D01*
X26677699Y-7419095D01*
X26677334Y-7418719D01*
X26694971Y-7378184D01*
X26745422Y-7269020D01*
X26824995Y-7098990D01*
X26929998Y-6875856D01*
X27056739Y-6607382D01*
X27201526Y-6301330D01*
X27360667Y-5965465D01*
X27530471Y-5607548D01*
X27707246Y-5235342D01*
X27887299Y-4856612D01*
X28066939Y-4479120D01*
X28242474Y-4110628D01*
X28410212Y-3758900D01*
X28566461Y-3431699D01*
X28707530Y-3136788D01*
X28829726Y-2881929D01*
X28929358Y-2674887D01*
X29002734Y-2523423D01*
X29046161Y-2435302D01*
X29056721Y-2415502D01*
X29077601Y-2449296D01*
G36*
X25815977Y-2530771D02*
G01*
X25782126Y-2605061D01*
X25716937Y-2744307D01*
X25625788Y-2937173D01*
X25514052Y-3172321D01*
X25387105Y-3438415D01*
X25250323Y-3724117D01*
X25237588Y-3750667D01*
X25103596Y-4031312D01*
X24982345Y-4287850D01*
X24878514Y-4510173D01*
X24796781Y-4688175D01*
X24741825Y-4811750D01*
X24718325Y-4870790D01*
X24717798Y-4873528D01*
X24734924Y-4922981D01*
X24783597Y-5034410D01*
X24857861Y-5195633D01*
X24951758Y-5394467D01*
X25059330Y-5618730D01*
X25174620Y-5856237D01*
X25291672Y-6094808D01*
X25404527Y-6322258D01*
X25507228Y-6526405D01*
X25593818Y-6695066D01*
X25658339Y-6816059D01*
X25694834Y-6877200D01*
X25700042Y-6882213D01*
X25722104Y-6844808D01*
X25776925Y-6737481D01*
X25861261Y-6566945D01*
X25971871Y-6339912D01*
X26105514Y-6063092D01*
X26258949Y-5743197D01*
X26428933Y-5386939D01*
X26612225Y-5001029D01*
X26783167Y-4639667D01*
X27005508Y-4169053D01*
X27194856Y-3769290D01*
X27354234Y-3434606D01*
X27486668Y-3159229D01*
X27595181Y-2937385D01*
X27682797Y-2763303D01*
X27752540Y-2631209D01*
X27807433Y-2535331D01*
X27850501Y-2469897D01*
X27884768Y-2429134D01*
X27913257Y-2407269D01*
X27938992Y-2398530D01*
X27957917Y-2397120D01*
X28042439Y-2405482D01*
X28074334Y-2425210D01*
X28056611Y-2471914D01*
X28005922Y-2586359D01*
X27925985Y-2760786D01*
X27820518Y-2987436D01*
X27693240Y-3258550D01*
X27547870Y-3566370D01*
X27388126Y-3903137D01*
X27217726Y-4261091D01*
X27040388Y-4632475D01*
X26859832Y-5009530D01*
X26679775Y-5384496D01*
X26503937Y-5749615D01*
X26336035Y-6097128D01*
X26179787Y-6419276D01*
X26038914Y-6708301D01*
X25917132Y-6956444D01*
X25818160Y-7155946D01*
X25745717Y-7299047D01*
X25703522Y-7377991D01*
X25694287Y-7391334D01*
X25653952Y-7356726D01*
X25622470Y-7296084D01*
X25594321Y-7233731D01*
X25533753Y-7106616D01*
X25446126Y-6925748D01*
X25336800Y-6702134D01*
X25211135Y-6446784D01*
X25077950Y-6177679D01*
X24570199Y-5154525D01*
X24048923Y-6254523D01*
X23914061Y-6537339D01*
X23789710Y-6794739D01*
X23680749Y-7016890D01*
X23592060Y-7193956D01*
X23528522Y-7316102D01*
X23495015Y-7373493D01*
X23492246Y-7376401D01*
X23466534Y-7344536D01*
X23408068Y-7244395D01*
X23320984Y-7083908D01*
X23209420Y-6871006D01*
X23077513Y-6613618D01*
X22929400Y-6319676D01*
X22769219Y-5997109D01*
X22712285Y-5881390D01*
X22523615Y-5496743D01*
X22324825Y-5090980D01*
X22124111Y-4680868D01*
X21929672Y-4283168D01*
X21749702Y-3914645D01*
X21592400Y-3592062D01*
X21489317Y-3380250D01*
X21010907Y-2396000D01*
X21135850Y-2396000D01*
X21167513Y-2397965D01*
X21197828Y-2408407D01*
X21230671Y-2434150D01*
X21269917Y-2482017D01*
X21319440Y-2558830D01*
X21383116Y-2671412D01*
X21464820Y-2826586D01*
X21568426Y-3031175D01*
X21697810Y-3292002D01*
X21856847Y-3615890D01*
X22031455Y-3972917D01*
X22213752Y-4345774D01*
X22398550Y-4723459D01*
X22579357Y-5092725D01*
X22749684Y-5440327D01*
X22903040Y-5753020D01*
X23032933Y-6017558D01*
X23132874Y-6220696D01*
X23141641Y-6238482D01*
X23481167Y-6927131D01*
X23962625Y-5907216D01*
X24444082Y-4887302D01*
X23862451Y-3694568D01*
X23718490Y-3399031D01*
X23586178Y-3126799D01*
X23470177Y-2887510D01*
X23375149Y-2690803D01*
X23305754Y-2546319D01*
X23266656Y-2463696D01*
X23260048Y-2448917D01*
X23278156Y-2408100D01*
X23362617Y-2396000D01*
X23399481Y-2398665D01*
X23433986Y-2412099D01*
X23471001Y-2444462D01*
X23515394Y-2503912D01*
X23572034Y-2598608D01*
X23645791Y-2736710D01*
X23741534Y-2926376D01*
X23864131Y-3175765D01*
X24018451Y-3493036D01*
X24023532Y-3503503D01*
X24160684Y-3784338D01*
X24286076Y-4037790D01*
X24394983Y-4254574D01*
X24482681Y-4425406D01*
X24544448Y-4540998D01*
X24575558Y-4592067D01*
X24578091Y-4593586D01*
X24599903Y-4552271D01*
X24653072Y-4444238D01*
X24732851Y-4279349D01*
X24834494Y-4067469D01*
X24953255Y-3818462D01*
X25084386Y-3542192D01*
X25105938Y-3496667D01*
X25255645Y-3180991D01*
X25374337Y-2933535D01*
X25466958Y-2745867D01*
X25538449Y-2609556D01*
X25593754Y-2516169D01*
X25637816Y-2457276D01*
X25675579Y-2424444D01*
X25711984Y-2409242D01*
X25746643Y-2403771D01*
X25876486Y-2390376D01*
X25815977Y-2530771D01*
G37*
X25815977Y-2530771D02*
X25782126Y-2605061D01*
X25716937Y-2744307D01*
X25625788Y-2937173D01*
X25514052Y-3172321D01*
X25387105Y-3438415D01*
X25250323Y-3724117D01*
X25237588Y-3750667D01*
X25103596Y-4031312D01*
X24982345Y-4287850D01*
X24878514Y-4510173D01*
X24796781Y-4688175D01*
X24741825Y-4811750D01*
X24718325Y-4870790D01*
X24717798Y-4873528D01*
X24734924Y-4922981D01*
X24783597Y-5034410D01*
X24857861Y-5195633D01*
X24951758Y-5394467D01*
X25059330Y-5618730D01*
X25174620Y-5856237D01*
X25291672Y-6094808D01*
X25404527Y-6322258D01*
X25507228Y-6526405D01*
X25593818Y-6695066D01*
X25658339Y-6816059D01*
X25694834Y-6877200D01*
X25700042Y-6882213D01*
X25722104Y-6844808D01*
X25776925Y-6737481D01*
X25861261Y-6566945D01*
X25971871Y-6339912D01*
X26105514Y-6063092D01*
X26258949Y-5743197D01*
X26428933Y-5386939D01*
X26612225Y-5001029D01*
X26783167Y-4639667D01*
X27005508Y-4169053D01*
X27194856Y-3769290D01*
X27354234Y-3434606D01*
X27486668Y-3159229D01*
X27595181Y-2937385D01*
X27682797Y-2763303D01*
X27752540Y-2631209D01*
X27807433Y-2535331D01*
X27850501Y-2469897D01*
X27884768Y-2429134D01*
X27913257Y-2407269D01*
X27938992Y-2398530D01*
X27957917Y-2397120D01*
X28042439Y-2405482D01*
X28074334Y-2425210D01*
X28056611Y-2471914D01*
X28005922Y-2586359D01*
X27925985Y-2760786D01*
X27820518Y-2987436D01*
X27693240Y-3258550D01*
X27547870Y-3566370D01*
X27388126Y-3903137D01*
X27217726Y-4261091D01*
X27040388Y-4632475D01*
X26859832Y-5009530D01*
X26679775Y-5384496D01*
X26503937Y-5749615D01*
X26336035Y-6097128D01*
X26179787Y-6419276D01*
X26038914Y-6708301D01*
X25917132Y-6956444D01*
X25818160Y-7155946D01*
X25745717Y-7299047D01*
X25703522Y-7377991D01*
X25694287Y-7391334D01*
X25653952Y-7356726D01*
X25622470Y-7296084D01*
X25594321Y-7233731D01*
X25533753Y-7106616D01*
X25446126Y-6925748D01*
X25336800Y-6702134D01*
X25211135Y-6446784D01*
X25077950Y-6177679D01*
X24570199Y-5154525D01*
X24048923Y-6254523D01*
X23914061Y-6537339D01*
X23789710Y-6794739D01*
X23680749Y-7016890D01*
X23592060Y-7193956D01*
X23528522Y-7316102D01*
X23495015Y-7373493D01*
X23492246Y-7376401D01*
X23466534Y-7344536D01*
X23408068Y-7244395D01*
X23320984Y-7083908D01*
X23209420Y-6871006D01*
X23077513Y-6613618D01*
X22929400Y-6319676D01*
X22769219Y-5997109D01*
X22712285Y-5881390D01*
X22523615Y-5496743D01*
X22324825Y-5090980D01*
X22124111Y-4680868D01*
X21929672Y-4283168D01*
X21749702Y-3914645D01*
X21592400Y-3592062D01*
X21489317Y-3380250D01*
X21010907Y-2396000D01*
X21135850Y-2396000D01*
X21167513Y-2397965D01*
X21197828Y-2408407D01*
X21230671Y-2434150D01*
X21269917Y-2482017D01*
X21319440Y-2558830D01*
X21383116Y-2671412D01*
X21464820Y-2826586D01*
X21568426Y-3031175D01*
X21697810Y-3292002D01*
X21856847Y-3615890D01*
X22031455Y-3972917D01*
X22213752Y-4345774D01*
X22398550Y-4723459D01*
X22579357Y-5092725D01*
X22749684Y-5440327D01*
X22903040Y-5753020D01*
X23032933Y-6017558D01*
X23132874Y-6220696D01*
X23141641Y-6238482D01*
X23481167Y-6927131D01*
X23962625Y-5907216D01*
X24444082Y-4887302D01*
X23862451Y-3694568D01*
X23718490Y-3399031D01*
X23586178Y-3126799D01*
X23470177Y-2887510D01*
X23375149Y-2690803D01*
X23305754Y-2546319D01*
X23266656Y-2463696D01*
X23260048Y-2448917D01*
X23278156Y-2408100D01*
X23362617Y-2396000D01*
X23399481Y-2398665D01*
X23433986Y-2412099D01*
X23471001Y-2444462D01*
X23515394Y-2503912D01*
X23572034Y-2598608D01*
X23645791Y-2736710D01*
X23741534Y-2926376D01*
X23864131Y-3175765D01*
X24018451Y-3493036D01*
X24023532Y-3503503D01*
X24160684Y-3784338D01*
X24286076Y-4037790D01*
X24394983Y-4254574D01*
X24482681Y-4425406D01*
X24544448Y-4540998D01*
X24575558Y-4592067D01*
X24578091Y-4593586D01*
X24599903Y-4552271D01*
X24653072Y-4444238D01*
X24732851Y-4279349D01*
X24834494Y-4067469D01*
X24953255Y-3818462D01*
X25084386Y-3542192D01*
X25105938Y-3496667D01*
X25255645Y-3180991D01*
X25374337Y-2933535D01*
X25466958Y-2745867D01*
X25538449Y-2609556D01*
X25593754Y-2516169D01*
X25637816Y-2457276D01*
X25675579Y-2424444D01*
X25711984Y-2409242D01*
X25746643Y-2403771D01*
X25876486Y-2390376D01*
X25815977Y-2530771D01*
G36*
X20245163Y-6157127D02*
G01*
X20295400Y-6248457D01*
X20366164Y-6384973D01*
X20449730Y-6550947D01*
X20538373Y-6730649D01*
X20624368Y-6908352D01*
X20699991Y-7068328D01*
X20757515Y-7194847D01*
X20789216Y-7272181D01*
X20793000Y-7286893D01*
X20753288Y-7294249D01*
X20644630Y-7300364D01*
X20482745Y-7304674D01*
X20283351Y-7306613D01*
X20242667Y-7306667D01*
X20037942Y-7304985D01*
X19867750Y-7300383D01*
X19747808Y-7293528D01*
X19693834Y-7285083D01*
X19692334Y-7283360D01*
X19709113Y-7238109D01*
X19754327Y-7133031D01*
X19820291Y-6984872D01*
X19899316Y-6810381D01*
X19983718Y-6626304D01*
X20065810Y-6449389D01*
X20137906Y-6296384D01*
X20192320Y-6184035D01*
X20221365Y-6129090D01*
X20223178Y-6126711D01*
X20245163Y-6157127D01*
G37*
X20245163Y-6157127D02*
X20295400Y-6248457D01*
X20366164Y-6384973D01*
X20449730Y-6550947D01*
X20538373Y-6730649D01*
X20624368Y-6908352D01*
X20699991Y-7068328D01*
X20757515Y-7194847D01*
X20789216Y-7272181D01*
X20793000Y-7286893D01*
X20753288Y-7294249D01*
X20644630Y-7300364D01*
X20482745Y-7304674D01*
X20283351Y-7306613D01*
X20242667Y-7306667D01*
X20037942Y-7304985D01*
X19867750Y-7300383D01*
X19747808Y-7293528D01*
X19693834Y-7285083D01*
X19692334Y-7283360D01*
X19709113Y-7238109D01*
X19754327Y-7133031D01*
X19820291Y-6984872D01*
X19899316Y-6810381D01*
X19983718Y-6626304D01*
X20065810Y-6449389D01*
X20137906Y-6296384D01*
X20192320Y-6184035D01*
X20221365Y-6129090D01*
X20223178Y-6126711D01*
X20245163Y-6157127D01*
G36*
X21656843Y-2400582D02*
G01*
X21685075Y-2413595D01*
X21717179Y-2442679D01*
X21756554Y-2494071D01*
X21806600Y-2574009D01*
X21870715Y-2688731D01*
X21952300Y-2844476D01*
X22054753Y-3047481D01*
X22181473Y-3303984D01*
X22335859Y-3620224D01*
X22521312Y-4002439D01*
X22661386Y-4291817D01*
X22868729Y-4720681D01*
X23041879Y-5080026D01*
X23183661Y-5376480D01*
X23296898Y-5616670D01*
X23384413Y-5807224D01*
X23449031Y-5954769D01*
X23493576Y-6065933D01*
X23520870Y-6147343D01*
X23533739Y-6205626D01*
X23535005Y-6247411D01*
X23527492Y-6279324D01*
X23517549Y-6301250D01*
X23472966Y-6382387D01*
X23447743Y-6417622D01*
X23447429Y-6417667D01*
X23427493Y-6380753D01*
X23374096Y-6274728D01*
X23290714Y-6106664D01*
X23180821Y-5883637D01*
X23047893Y-5612721D01*
X22895404Y-5300988D01*
X22726829Y-4955513D01*
X22545643Y-4583370D01*
X22474850Y-4437754D01*
X22289797Y-4056388D01*
X22116442Y-3698010D01*
X21958233Y-3369828D01*
X21818621Y-3079053D01*
X21701055Y-2832895D01*
X21608985Y-2638563D01*
X21545862Y-2503267D01*
X21515135Y-2434217D01*
X21512667Y-2426921D01*
X21549219Y-2404914D01*
X21629084Y-2397400D01*
X21656843Y-2400582D01*
G37*
X21656843Y-2400582D02*
X21685075Y-2413595D01*
X21717179Y-2442679D01*
X21756554Y-2494071D01*
X21806600Y-2574009D01*
X21870715Y-2688731D01*
X21952300Y-2844476D01*
X22054753Y-3047481D01*
X22181473Y-3303984D01*
X22335859Y-3620224D01*
X22521312Y-4002439D01*
X22661386Y-4291817D01*
X22868729Y-4720681D01*
X23041879Y-5080026D01*
X23183661Y-5376480D01*
X23296898Y-5616670D01*
X23384413Y-5807224D01*
X23449031Y-5954769D01*
X23493576Y-6065933D01*
X23520870Y-6147343D01*
X23533739Y-6205626D01*
X23535005Y-6247411D01*
X23527492Y-6279324D01*
X23517549Y-6301250D01*
X23472966Y-6382387D01*
X23447743Y-6417622D01*
X23447429Y-6417667D01*
X23427493Y-6380753D01*
X23374096Y-6274728D01*
X23290714Y-6106664D01*
X23180821Y-5883637D01*
X23047893Y-5612721D01*
X22895404Y-5300988D01*
X22726829Y-4955513D01*
X22545643Y-4583370D01*
X22474850Y-4437754D01*
X22289797Y-4056388D01*
X22116442Y-3698010D01*
X21958233Y-3369828D01*
X21818621Y-3079053D01*
X21701055Y-2832895D01*
X21608985Y-2638563D01*
X21545862Y-2503267D01*
X21515135Y-2434217D01*
X21512667Y-2426921D01*
X21549219Y-2404914D01*
X21629084Y-2397400D01*
X21656843Y-2400582D01*
G36*
X27540912Y-2405399D02*
G01*
X27561054Y-2444329D01*
X27559465Y-2453132D01*
X27538201Y-2507478D01*
X27485443Y-2627837D01*
X27405294Y-2805468D01*
X27301853Y-3031631D01*
X27179223Y-3297588D01*
X27041503Y-3594598D01*
X26892795Y-3913921D01*
X26737199Y-4246817D01*
X26578817Y-4584547D01*
X26421750Y-4918371D01*
X26270099Y-5239548D01*
X26127964Y-5539339D01*
X25999446Y-5809005D01*
X25888647Y-6039804D01*
X25799668Y-6222998D01*
X25736609Y-6349847D01*
X25703571Y-6411610D01*
X25699879Y-6416232D01*
X25666481Y-6383319D01*
X25624431Y-6306847D01*
X25615110Y-6276803D01*
X25614048Y-6237260D01*
X25624002Y-6181588D01*
X25647727Y-6103156D01*
X25687980Y-5995331D01*
X25747515Y-5851484D01*
X25829089Y-5664983D01*
X25935458Y-5429197D01*
X26069377Y-5137495D01*
X26233602Y-4783246D01*
X26430890Y-4359819D01*
X26455726Y-4306597D01*
X26656685Y-3876429D01*
X26825399Y-3516751D01*
X26965200Y-3221222D01*
X27079418Y-2983501D01*
X27171384Y-2797249D01*
X27244430Y-2656125D01*
X27301887Y-2553789D01*
X27347086Y-2483900D01*
X27383357Y-2440119D01*
X27414033Y-2416105D01*
X27442444Y-2405517D01*
X27455638Y-2403413D01*
X27540912Y-2405399D01*
G37*
X27540912Y-2405399D02*
X27561054Y-2444329D01*
X27559465Y-2453132D01*
X27538201Y-2507478D01*
X27485443Y-2627837D01*
X27405294Y-2805468D01*
X27301853Y-3031631D01*
X27179223Y-3297588D01*
X27041503Y-3594598D01*
X26892795Y-3913921D01*
X26737199Y-4246817D01*
X26578817Y-4584547D01*
X26421750Y-4918371D01*
X26270099Y-5239548D01*
X26127964Y-5539339D01*
X25999446Y-5809005D01*
X25888647Y-6039804D01*
X25799668Y-6222998D01*
X25736609Y-6349847D01*
X25703571Y-6411610D01*
X25699879Y-6416232D01*
X25666481Y-6383319D01*
X25624431Y-6306847D01*
X25615110Y-6276803D01*
X25614048Y-6237260D01*
X25624002Y-6181588D01*
X25647727Y-6103156D01*
X25687980Y-5995331D01*
X25747515Y-5851484D01*
X25829089Y-5664983D01*
X25935458Y-5429197D01*
X26069377Y-5137495D01*
X26233602Y-4783246D01*
X26430890Y-4359819D01*
X26455726Y-4306597D01*
X26656685Y-3876429D01*
X26825399Y-3516751D01*
X26965200Y-3221222D01*
X27079418Y-2983501D01*
X27171384Y-2797249D01*
X27244430Y-2656125D01*
X27301887Y-2553789D01*
X27347086Y-2483900D01*
X27383357Y-2440119D01*
X27414033Y-2416105D01*
X27442444Y-2405517D01*
X27455638Y-2403413D01*
X27540912Y-2405399D01*
%TD*%
%TO.C,D15*%
G36*
G01*
X29975000Y-15700001D02*
X29975000Y-14799999D01*
G75*
G02*
X30224999Y-14550000I249999J0D01*
G01*
X30875001Y-14550000D01*
G75*
G02*
X31125000Y-14799999I0J-249999D01*
G01*
X31125000Y-15700001D01*
G75*
G02*
X30875001Y-15950000I-249999J0D01*
G01*
X30224999Y-15950000D01*
G75*
G02*
X29975000Y-15700001I0J249999D01*
G01*
G37*
G36*
G01*
X27925000Y-15700001D02*
X27925000Y-14799999D01*
G75*
G02*
X28174999Y-14550000I249999J0D01*
G01*
X28825001Y-14550000D01*
G75*
G02*
X29075000Y-14799999I0J-249999D01*
G01*
X29075000Y-15700001D01*
G75*
G02*
X28825001Y-15950000I-249999J0D01*
G01*
X28174999Y-15950000D01*
G75*
G02*
X27925000Y-15700001I0J249999D01*
G01*
G37*
%TD*%
D11*
%TO.C,REF\u002A\u002A*%
X3500000Y-3500000D03*
%TD*%
%TO.C,REF\u002A\u002A*%
X46500000Y-3500000D03*
%TD*%
%TO.C,D81*%
G36*
G01*
X44200000Y-47200001D02*
X44200000Y-46299999D01*
G75*
G02*
X44449999Y-46050000I249999J0D01*
G01*
X45100001Y-46050000D01*
G75*
G02*
X45350000Y-46299999I0J-249999D01*
G01*
X45350000Y-47200001D01*
G75*
G02*
X45100001Y-47450000I-249999J0D01*
G01*
X44449999Y-47450000D01*
G75*
G02*
X44200000Y-47200001I0J249999D01*
G01*
G37*
G36*
G01*
X42150000Y-47200001D02*
X42150000Y-46299999D01*
G75*
G02*
X42399999Y-46050000I249999J0D01*
G01*
X43050001Y-46050000D01*
G75*
G02*
X43300000Y-46299999I0J-249999D01*
G01*
X43300000Y-47200001D01*
G75*
G02*
X43050001Y-47450000I-249999J0D01*
G01*
X42399999Y-47450000D01*
G75*
G02*
X42150000Y-47200001I0J249999D01*
G01*
G37*
%TD*%
%TO.C,D80*%
G36*
G01*
X39450000Y-47200001D02*
X39450000Y-46299999D01*
G75*
G02*
X39699999Y-46050000I249999J0D01*
G01*
X40350001Y-46050000D01*
G75*
G02*
X40600000Y-46299999I0J-249999D01*
G01*
X40600000Y-47200001D01*
G75*
G02*
X40350001Y-47450000I-249999J0D01*
G01*
X39699999Y-47450000D01*
G75*
G02*
X39450000Y-47200001I0J249999D01*
G01*
G37*
G36*
G01*
X37400000Y-47200001D02*
X37400000Y-46299999D01*
G75*
G02*
X37649999Y-46050000I249999J0D01*
G01*
X38300001Y-46050000D01*
G75*
G02*
X38550000Y-46299999I0J-249999D01*
G01*
X38550000Y-47200001D01*
G75*
G02*
X38300001Y-47450000I-249999J0D01*
G01*
X37649999Y-47450000D01*
G75*
G02*
X37400000Y-47200001I0J249999D01*
G01*
G37*
%TD*%
%TO.C,D79*%
G36*
G01*
X34700000Y-47200001D02*
X34700000Y-46299999D01*
G75*
G02*
X34949999Y-46050000I249999J0D01*
G01*
X35600001Y-46050000D01*
G75*
G02*
X35850000Y-46299999I0J-249999D01*
G01*
X35850000Y-47200001D01*
G75*
G02*
X35600001Y-47450000I-249999J0D01*
G01*
X34949999Y-47450000D01*
G75*
G02*
X34700000Y-47200001I0J249999D01*
G01*
G37*
G36*
G01*
X32650000Y-47200001D02*
X32650000Y-46299999D01*
G75*
G02*
X32899999Y-46050000I249999J0D01*
G01*
X33550001Y-46050000D01*
G75*
G02*
X33800000Y-46299999I0J-249999D01*
G01*
X33800000Y-47200001D01*
G75*
G02*
X33550001Y-47450000I-249999J0D01*
G01*
X32899999Y-47450000D01*
G75*
G02*
X32650000Y-47200001I0J249999D01*
G01*
G37*
%TD*%
%TO.C,D78*%
G36*
G01*
X29950000Y-47200001D02*
X29950000Y-46299999D01*
G75*
G02*
X30199999Y-46050000I249999J0D01*
G01*
X30850001Y-46050000D01*
G75*
G02*
X31100000Y-46299999I0J-249999D01*
G01*
X31100000Y-47200001D01*
G75*
G02*
X30850001Y-47450000I-249999J0D01*
G01*
X30199999Y-47450000D01*
G75*
G02*
X29950000Y-47200001I0J249999D01*
G01*
G37*
G36*
G01*
X27900000Y-47200001D02*
X27900000Y-46299999D01*
G75*
G02*
X28149999Y-46050000I249999J0D01*
G01*
X28800001Y-46050000D01*
G75*
G02*
X29050000Y-46299999I0J-249999D01*
G01*
X29050000Y-47200001D01*
G75*
G02*
X28800001Y-47450000I-249999J0D01*
G01*
X28149999Y-47450000D01*
G75*
G02*
X27900000Y-47200001I0J249999D01*
G01*
G37*
%TD*%
%TO.C,D77*%
G36*
G01*
X25200000Y-47200001D02*
X25200000Y-46299999D01*
G75*
G02*
X25449999Y-46050000I249999J0D01*
G01*
X26100001Y-46050000D01*
G75*
G02*
X26350000Y-46299999I0J-249999D01*
G01*
X26350000Y-47200001D01*
G75*
G02*
X26100001Y-47450000I-249999J0D01*
G01*
X25449999Y-47450000D01*
G75*
G02*
X25200000Y-47200001I0J249999D01*
G01*
G37*
G36*
G01*
X23150000Y-47200001D02*
X23150000Y-46299999D01*
G75*
G02*
X23399999Y-46050000I249999J0D01*
G01*
X24050001Y-46050000D01*
G75*
G02*
X24300000Y-46299999I0J-249999D01*
G01*
X24300000Y-47200001D01*
G75*
G02*
X24050001Y-47450000I-249999J0D01*
G01*
X23399999Y-47450000D01*
G75*
G02*
X23150000Y-47200001I0J249999D01*
G01*
G37*
%TD*%
%TO.C,D76*%
G36*
G01*
X20450000Y-47200001D02*
X20450000Y-46299999D01*
G75*
G02*
X20699999Y-46050000I249999J0D01*
G01*
X21350001Y-46050000D01*
G75*
G02*
X21600000Y-46299999I0J-249999D01*
G01*
X21600000Y-47200001D01*
G75*
G02*
X21350001Y-47450000I-249999J0D01*
G01*
X20699999Y-47450000D01*
G75*
G02*
X20450000Y-47200001I0J249999D01*
G01*
G37*
G36*
G01*
X18400000Y-47200001D02*
X18400000Y-46299999D01*
G75*
G02*
X18649999Y-46050000I249999J0D01*
G01*
X19300001Y-46050000D01*
G75*
G02*
X19550000Y-46299999I0J-249999D01*
G01*
X19550000Y-47200001D01*
G75*
G02*
X19300001Y-47450000I-249999J0D01*
G01*
X18649999Y-47450000D01*
G75*
G02*
X18400000Y-47200001I0J249999D01*
G01*
G37*
%TD*%
%TO.C,D75*%
G36*
G01*
X15700000Y-47200001D02*
X15700000Y-46299999D01*
G75*
G02*
X15949999Y-46050000I249999J0D01*
G01*
X16600001Y-46050000D01*
G75*
G02*
X16850000Y-46299999I0J-249999D01*
G01*
X16850000Y-47200001D01*
G75*
G02*
X16600001Y-47450000I-249999J0D01*
G01*
X15949999Y-47450000D01*
G75*
G02*
X15700000Y-47200001I0J249999D01*
G01*
G37*
G36*
G01*
X13650000Y-47200001D02*
X13650000Y-46299999D01*
G75*
G02*
X13899999Y-46050000I249999J0D01*
G01*
X14550001Y-46050000D01*
G75*
G02*
X14800000Y-46299999I0J-249999D01*
G01*
X14800000Y-47200001D01*
G75*
G02*
X14550001Y-47450000I-249999J0D01*
G01*
X13899999Y-47450000D01*
G75*
G02*
X13650000Y-47200001I0J249999D01*
G01*
G37*
%TD*%
%TO.C,D74*%
G36*
G01*
X10950000Y-47200001D02*
X10950000Y-46299999D01*
G75*
G02*
X11199999Y-46050000I249999J0D01*
G01*
X11850001Y-46050000D01*
G75*
G02*
X12100000Y-46299999I0J-249999D01*
G01*
X12100000Y-47200001D01*
G75*
G02*
X11850001Y-47450000I-249999J0D01*
G01*
X11199999Y-47450000D01*
G75*
G02*
X10950000Y-47200001I0J249999D01*
G01*
G37*
G36*
G01*
X8900000Y-47200001D02*
X8900000Y-46299999D01*
G75*
G02*
X9149999Y-46050000I249999J0D01*
G01*
X9800001Y-46050000D01*
G75*
G02*
X10050000Y-46299999I0J-249999D01*
G01*
X10050000Y-47200001D01*
G75*
G02*
X9800001Y-47450000I-249999J0D01*
G01*
X9149999Y-47450000D01*
G75*
G02*
X8900000Y-47200001I0J249999D01*
G01*
G37*
%TD*%
%TO.C,D73*%
G36*
G01*
X6200000Y-47200001D02*
X6200000Y-46299999D01*
G75*
G02*
X6449999Y-46050000I249999J0D01*
G01*
X7100001Y-46050000D01*
G75*
G02*
X7350000Y-46299999I0J-249999D01*
G01*
X7350000Y-47200001D01*
G75*
G02*
X7100001Y-47450000I-249999J0D01*
G01*
X6449999Y-47450000D01*
G75*
G02*
X6200000Y-47200001I0J249999D01*
G01*
G37*
G36*
G01*
X4150000Y-47200001D02*
X4150000Y-46299999D01*
G75*
G02*
X4399999Y-46050000I249999J0D01*
G01*
X5050001Y-46050000D01*
G75*
G02*
X5300000Y-46299999I0J-249999D01*
G01*
X5300000Y-47200001D01*
G75*
G02*
X5050001Y-47450000I-249999J0D01*
G01*
X4399999Y-47450000D01*
G75*
G02*
X4150000Y-47200001I0J249999D01*
G01*
G37*
%TD*%
%TO.C,D72*%
G36*
G01*
X44200000Y-42700001D02*
X44200000Y-41799999D01*
G75*
G02*
X44449999Y-41550000I249999J0D01*
G01*
X45100001Y-41550000D01*
G75*
G02*
X45350000Y-41799999I0J-249999D01*
G01*
X45350000Y-42700001D01*
G75*
G02*
X45100001Y-42950000I-249999J0D01*
G01*
X44449999Y-42950000D01*
G75*
G02*
X44200000Y-42700001I0J249999D01*
G01*
G37*
G36*
G01*
X42150000Y-42700001D02*
X42150000Y-41799999D01*
G75*
G02*
X42399999Y-41550000I249999J0D01*
G01*
X43050001Y-41550000D01*
G75*
G02*
X43300000Y-41799999I0J-249999D01*
G01*
X43300000Y-42700001D01*
G75*
G02*
X43050001Y-42950000I-249999J0D01*
G01*
X42399999Y-42950000D01*
G75*
G02*
X42150000Y-42700001I0J249999D01*
G01*
G37*
%TD*%
%TO.C,D71*%
G36*
G01*
X39450000Y-42700001D02*
X39450000Y-41799999D01*
G75*
G02*
X39699999Y-41550000I249999J0D01*
G01*
X40350001Y-41550000D01*
G75*
G02*
X40600000Y-41799999I0J-249999D01*
G01*
X40600000Y-42700001D01*
G75*
G02*
X40350001Y-42950000I-249999J0D01*
G01*
X39699999Y-42950000D01*
G75*
G02*
X39450000Y-42700001I0J249999D01*
G01*
G37*
G36*
G01*
X37400000Y-42700001D02*
X37400000Y-41799999D01*
G75*
G02*
X37649999Y-41550000I249999J0D01*
G01*
X38300001Y-41550000D01*
G75*
G02*
X38550000Y-41799999I0J-249999D01*
G01*
X38550000Y-42700001D01*
G75*
G02*
X38300001Y-42950000I-249999J0D01*
G01*
X37649999Y-42950000D01*
G75*
G02*
X37400000Y-42700001I0J249999D01*
G01*
G37*
%TD*%
%TO.C,D70*%
G36*
G01*
X34700000Y-42700001D02*
X34700000Y-41799999D01*
G75*
G02*
X34949999Y-41550000I249999J0D01*
G01*
X35600001Y-41550000D01*
G75*
G02*
X35850000Y-41799999I0J-249999D01*
G01*
X35850000Y-42700001D01*
G75*
G02*
X35600001Y-42950000I-249999J0D01*
G01*
X34949999Y-42950000D01*
G75*
G02*
X34700000Y-42700001I0J249999D01*
G01*
G37*
G36*
G01*
X32650000Y-42700001D02*
X32650000Y-41799999D01*
G75*
G02*
X32899999Y-41550000I249999J0D01*
G01*
X33550001Y-41550000D01*
G75*
G02*
X33800000Y-41799999I0J-249999D01*
G01*
X33800000Y-42700001D01*
G75*
G02*
X33550001Y-42950000I-249999J0D01*
G01*
X32899999Y-42950000D01*
G75*
G02*
X32650000Y-42700001I0J249999D01*
G01*
G37*
%TD*%
%TO.C,D69*%
G36*
G01*
X29950000Y-42700001D02*
X29950000Y-41799999D01*
G75*
G02*
X30199999Y-41550000I249999J0D01*
G01*
X30850001Y-41550000D01*
G75*
G02*
X31100000Y-41799999I0J-249999D01*
G01*
X31100000Y-42700001D01*
G75*
G02*
X30850001Y-42950000I-249999J0D01*
G01*
X30199999Y-42950000D01*
G75*
G02*
X29950000Y-42700001I0J249999D01*
G01*
G37*
G36*
G01*
X27900000Y-42700001D02*
X27900000Y-41799999D01*
G75*
G02*
X28149999Y-41550000I249999J0D01*
G01*
X28800001Y-41550000D01*
G75*
G02*
X29050000Y-41799999I0J-249999D01*
G01*
X29050000Y-42700001D01*
G75*
G02*
X28800001Y-42950000I-249999J0D01*
G01*
X28149999Y-42950000D01*
G75*
G02*
X27900000Y-42700001I0J249999D01*
G01*
G37*
%TD*%
%TO.C,D68*%
G36*
G01*
X25200000Y-42700001D02*
X25200000Y-41799999D01*
G75*
G02*
X25449999Y-41550000I249999J0D01*
G01*
X26100001Y-41550000D01*
G75*
G02*
X26350000Y-41799999I0J-249999D01*
G01*
X26350000Y-42700001D01*
G75*
G02*
X26100001Y-42950000I-249999J0D01*
G01*
X25449999Y-42950000D01*
G75*
G02*
X25200000Y-42700001I0J249999D01*
G01*
G37*
G36*
G01*
X23150000Y-42700001D02*
X23150000Y-41799999D01*
G75*
G02*
X23399999Y-41550000I249999J0D01*
G01*
X24050001Y-41550000D01*
G75*
G02*
X24300000Y-41799999I0J-249999D01*
G01*
X24300000Y-42700001D01*
G75*
G02*
X24050001Y-42950000I-249999J0D01*
G01*
X23399999Y-42950000D01*
G75*
G02*
X23150000Y-42700001I0J249999D01*
G01*
G37*
%TD*%
%TO.C,D67*%
G36*
G01*
X20450000Y-42700001D02*
X20450000Y-41799999D01*
G75*
G02*
X20699999Y-41550000I249999J0D01*
G01*
X21350001Y-41550000D01*
G75*
G02*
X21600000Y-41799999I0J-249999D01*
G01*
X21600000Y-42700001D01*
G75*
G02*
X21350001Y-42950000I-249999J0D01*
G01*
X20699999Y-42950000D01*
G75*
G02*
X20450000Y-42700001I0J249999D01*
G01*
G37*
G36*
G01*
X18400000Y-42700001D02*
X18400000Y-41799999D01*
G75*
G02*
X18649999Y-41550000I249999J0D01*
G01*
X19300001Y-41550000D01*
G75*
G02*
X19550000Y-41799999I0J-249999D01*
G01*
X19550000Y-42700001D01*
G75*
G02*
X19300001Y-42950000I-249999J0D01*
G01*
X18649999Y-42950000D01*
G75*
G02*
X18400000Y-42700001I0J249999D01*
G01*
G37*
%TD*%
%TO.C,D66*%
G36*
G01*
X15700000Y-42700001D02*
X15700000Y-41799999D01*
G75*
G02*
X15949999Y-41550000I249999J0D01*
G01*
X16600001Y-41550000D01*
G75*
G02*
X16850000Y-41799999I0J-249999D01*
G01*
X16850000Y-42700001D01*
G75*
G02*
X16600001Y-42950000I-249999J0D01*
G01*
X15949999Y-42950000D01*
G75*
G02*
X15700000Y-42700001I0J249999D01*
G01*
G37*
G36*
G01*
X13650000Y-42700001D02*
X13650000Y-41799999D01*
G75*
G02*
X13899999Y-41550000I249999J0D01*
G01*
X14550001Y-41550000D01*
G75*
G02*
X14800000Y-41799999I0J-249999D01*
G01*
X14800000Y-42700001D01*
G75*
G02*
X14550001Y-42950000I-249999J0D01*
G01*
X13899999Y-42950000D01*
G75*
G02*
X13650000Y-42700001I0J249999D01*
G01*
G37*
%TD*%
%TO.C,D65*%
G36*
G01*
X10950000Y-42700001D02*
X10950000Y-41799999D01*
G75*
G02*
X11199999Y-41550000I249999J0D01*
G01*
X11850001Y-41550000D01*
G75*
G02*
X12100000Y-41799999I0J-249999D01*
G01*
X12100000Y-42700001D01*
G75*
G02*
X11850001Y-42950000I-249999J0D01*
G01*
X11199999Y-42950000D01*
G75*
G02*
X10950000Y-42700001I0J249999D01*
G01*
G37*
G36*
G01*
X8900000Y-42700001D02*
X8900000Y-41799999D01*
G75*
G02*
X9149999Y-41550000I249999J0D01*
G01*
X9800001Y-41550000D01*
G75*
G02*
X10050000Y-41799999I0J-249999D01*
G01*
X10050000Y-42700001D01*
G75*
G02*
X9800001Y-42950000I-249999J0D01*
G01*
X9149999Y-42950000D01*
G75*
G02*
X8900000Y-42700001I0J249999D01*
G01*
G37*
%TD*%
%TO.C,D64*%
G36*
G01*
X6200000Y-42700001D02*
X6200000Y-41799999D01*
G75*
G02*
X6449999Y-41550000I249999J0D01*
G01*
X7100001Y-41550000D01*
G75*
G02*
X7350000Y-41799999I0J-249999D01*
G01*
X7350000Y-42700001D01*
G75*
G02*
X7100001Y-42950000I-249999J0D01*
G01*
X6449999Y-42950000D01*
G75*
G02*
X6200000Y-42700001I0J249999D01*
G01*
G37*
G36*
G01*
X4150000Y-42700001D02*
X4150000Y-41799999D01*
G75*
G02*
X4399999Y-41550000I249999J0D01*
G01*
X5050001Y-41550000D01*
G75*
G02*
X5300000Y-41799999I0J-249999D01*
G01*
X5300000Y-42700001D01*
G75*
G02*
X5050001Y-42950000I-249999J0D01*
G01*
X4399999Y-42950000D01*
G75*
G02*
X4150000Y-42700001I0J249999D01*
G01*
G37*
%TD*%
%TO.C,D63*%
G36*
G01*
X44200000Y-38200001D02*
X44200000Y-37299999D01*
G75*
G02*
X44449999Y-37050000I249999J0D01*
G01*
X45100001Y-37050000D01*
G75*
G02*
X45350000Y-37299999I0J-249999D01*
G01*
X45350000Y-38200001D01*
G75*
G02*
X45100001Y-38450000I-249999J0D01*
G01*
X44449999Y-38450000D01*
G75*
G02*
X44200000Y-38200001I0J249999D01*
G01*
G37*
G36*
G01*
X42150000Y-38200001D02*
X42150000Y-37299999D01*
G75*
G02*
X42399999Y-37050000I249999J0D01*
G01*
X43050001Y-37050000D01*
G75*
G02*
X43300000Y-37299999I0J-249999D01*
G01*
X43300000Y-38200001D01*
G75*
G02*
X43050001Y-38450000I-249999J0D01*
G01*
X42399999Y-38450000D01*
G75*
G02*
X42150000Y-38200001I0J249999D01*
G01*
G37*
%TD*%
%TO.C,D62*%
G36*
G01*
X39475000Y-38200001D02*
X39475000Y-37299999D01*
G75*
G02*
X39724999Y-37050000I249999J0D01*
G01*
X40375001Y-37050000D01*
G75*
G02*
X40625000Y-37299999I0J-249999D01*
G01*
X40625000Y-38200001D01*
G75*
G02*
X40375001Y-38450000I-249999J0D01*
G01*
X39724999Y-38450000D01*
G75*
G02*
X39475000Y-38200001I0J249999D01*
G01*
G37*
G36*
G01*
X37425000Y-38200001D02*
X37425000Y-37299999D01*
G75*
G02*
X37674999Y-37050000I249999J0D01*
G01*
X38325001Y-37050000D01*
G75*
G02*
X38575000Y-37299999I0J-249999D01*
G01*
X38575000Y-38200001D01*
G75*
G02*
X38325001Y-38450000I-249999J0D01*
G01*
X37674999Y-38450000D01*
G75*
G02*
X37425000Y-38200001I0J249999D01*
G01*
G37*
%TD*%
%TO.C,D61*%
G36*
G01*
X34700000Y-38200001D02*
X34700000Y-37299999D01*
G75*
G02*
X34949999Y-37050000I249999J0D01*
G01*
X35600001Y-37050000D01*
G75*
G02*
X35850000Y-37299999I0J-249999D01*
G01*
X35850000Y-38200001D01*
G75*
G02*
X35600001Y-38450000I-249999J0D01*
G01*
X34949999Y-38450000D01*
G75*
G02*
X34700000Y-38200001I0J249999D01*
G01*
G37*
G36*
G01*
X32650000Y-38200001D02*
X32650000Y-37299999D01*
G75*
G02*
X32899999Y-37050000I249999J0D01*
G01*
X33550001Y-37050000D01*
G75*
G02*
X33800000Y-37299999I0J-249999D01*
G01*
X33800000Y-38200001D01*
G75*
G02*
X33550001Y-38450000I-249999J0D01*
G01*
X32899999Y-38450000D01*
G75*
G02*
X32650000Y-38200001I0J249999D01*
G01*
G37*
%TD*%
%TO.C,D60*%
G36*
G01*
X29950000Y-38200001D02*
X29950000Y-37299999D01*
G75*
G02*
X30199999Y-37050000I249999J0D01*
G01*
X30850001Y-37050000D01*
G75*
G02*
X31100000Y-37299999I0J-249999D01*
G01*
X31100000Y-38200001D01*
G75*
G02*
X30850001Y-38450000I-249999J0D01*
G01*
X30199999Y-38450000D01*
G75*
G02*
X29950000Y-38200001I0J249999D01*
G01*
G37*
G36*
G01*
X27900000Y-38200001D02*
X27900000Y-37299999D01*
G75*
G02*
X28149999Y-37050000I249999J0D01*
G01*
X28800001Y-37050000D01*
G75*
G02*
X29050000Y-37299999I0J-249999D01*
G01*
X29050000Y-38200001D01*
G75*
G02*
X28800001Y-38450000I-249999J0D01*
G01*
X28149999Y-38450000D01*
G75*
G02*
X27900000Y-38200001I0J249999D01*
G01*
G37*
%TD*%
%TO.C,D59*%
G36*
G01*
X25200000Y-38200001D02*
X25200000Y-37299999D01*
G75*
G02*
X25449999Y-37050000I249999J0D01*
G01*
X26100001Y-37050000D01*
G75*
G02*
X26350000Y-37299999I0J-249999D01*
G01*
X26350000Y-38200001D01*
G75*
G02*
X26100001Y-38450000I-249999J0D01*
G01*
X25449999Y-38450000D01*
G75*
G02*
X25200000Y-38200001I0J249999D01*
G01*
G37*
G36*
G01*
X23150000Y-38200001D02*
X23150000Y-37299999D01*
G75*
G02*
X23399999Y-37050000I249999J0D01*
G01*
X24050001Y-37050000D01*
G75*
G02*
X24300000Y-37299999I0J-249999D01*
G01*
X24300000Y-38200001D01*
G75*
G02*
X24050001Y-38450000I-249999J0D01*
G01*
X23399999Y-38450000D01*
G75*
G02*
X23150000Y-38200001I0J249999D01*
G01*
G37*
%TD*%
%TO.C,D58*%
G36*
G01*
X20450000Y-38200001D02*
X20450000Y-37299999D01*
G75*
G02*
X20699999Y-37050000I249999J0D01*
G01*
X21350001Y-37050000D01*
G75*
G02*
X21600000Y-37299999I0J-249999D01*
G01*
X21600000Y-38200001D01*
G75*
G02*
X21350001Y-38450000I-249999J0D01*
G01*
X20699999Y-38450000D01*
G75*
G02*
X20450000Y-38200001I0J249999D01*
G01*
G37*
G36*
G01*
X18400000Y-38200001D02*
X18400000Y-37299999D01*
G75*
G02*
X18649999Y-37050000I249999J0D01*
G01*
X19300001Y-37050000D01*
G75*
G02*
X19550000Y-37299999I0J-249999D01*
G01*
X19550000Y-38200001D01*
G75*
G02*
X19300001Y-38450000I-249999J0D01*
G01*
X18649999Y-38450000D01*
G75*
G02*
X18400000Y-38200001I0J249999D01*
G01*
G37*
%TD*%
%TO.C,D57*%
G36*
G01*
X15700000Y-38200001D02*
X15700000Y-37299999D01*
G75*
G02*
X15949999Y-37050000I249999J0D01*
G01*
X16600001Y-37050000D01*
G75*
G02*
X16850000Y-37299999I0J-249999D01*
G01*
X16850000Y-38200001D01*
G75*
G02*
X16600001Y-38450000I-249999J0D01*
G01*
X15949999Y-38450000D01*
G75*
G02*
X15700000Y-38200001I0J249999D01*
G01*
G37*
G36*
G01*
X13650000Y-38200001D02*
X13650000Y-37299999D01*
G75*
G02*
X13899999Y-37050000I249999J0D01*
G01*
X14550001Y-37050000D01*
G75*
G02*
X14800000Y-37299999I0J-249999D01*
G01*
X14800000Y-38200001D01*
G75*
G02*
X14550001Y-38450000I-249999J0D01*
G01*
X13899999Y-38450000D01*
G75*
G02*
X13650000Y-38200001I0J249999D01*
G01*
G37*
%TD*%
%TO.C,D56*%
G36*
G01*
X10950000Y-38200001D02*
X10950000Y-37299999D01*
G75*
G02*
X11199999Y-37050000I249999J0D01*
G01*
X11850001Y-37050000D01*
G75*
G02*
X12100000Y-37299999I0J-249999D01*
G01*
X12100000Y-38200001D01*
G75*
G02*
X11850001Y-38450000I-249999J0D01*
G01*
X11199999Y-38450000D01*
G75*
G02*
X10950000Y-38200001I0J249999D01*
G01*
G37*
G36*
G01*
X8900000Y-38200001D02*
X8900000Y-37299999D01*
G75*
G02*
X9149999Y-37050000I249999J0D01*
G01*
X9800001Y-37050000D01*
G75*
G02*
X10050000Y-37299999I0J-249999D01*
G01*
X10050000Y-38200001D01*
G75*
G02*
X9800001Y-38450000I-249999J0D01*
G01*
X9149999Y-38450000D01*
G75*
G02*
X8900000Y-38200001I0J249999D01*
G01*
G37*
%TD*%
%TO.C,D55*%
G36*
G01*
X6200000Y-38200001D02*
X6200000Y-37299999D01*
G75*
G02*
X6449999Y-37050000I249999J0D01*
G01*
X7100001Y-37050000D01*
G75*
G02*
X7350000Y-37299999I0J-249999D01*
G01*
X7350000Y-38200001D01*
G75*
G02*
X7100001Y-38450000I-249999J0D01*
G01*
X6449999Y-38450000D01*
G75*
G02*
X6200000Y-38200001I0J249999D01*
G01*
G37*
G36*
G01*
X4150000Y-38200001D02*
X4150000Y-37299999D01*
G75*
G02*
X4399999Y-37050000I249999J0D01*
G01*
X5050001Y-37050000D01*
G75*
G02*
X5300000Y-37299999I0J-249999D01*
G01*
X5300000Y-38200001D01*
G75*
G02*
X5050001Y-38450000I-249999J0D01*
G01*
X4399999Y-38450000D01*
G75*
G02*
X4150000Y-38200001I0J249999D01*
G01*
G37*
%TD*%
%TO.C,D54*%
G36*
G01*
X44200000Y-33700001D02*
X44200000Y-32799999D01*
G75*
G02*
X44449999Y-32550000I249999J0D01*
G01*
X45100001Y-32550000D01*
G75*
G02*
X45350000Y-32799999I0J-249999D01*
G01*
X45350000Y-33700001D01*
G75*
G02*
X45100001Y-33950000I-249999J0D01*
G01*
X44449999Y-33950000D01*
G75*
G02*
X44200000Y-33700001I0J249999D01*
G01*
G37*
G36*
G01*
X42150000Y-33700001D02*
X42150000Y-32799999D01*
G75*
G02*
X42399999Y-32550000I249999J0D01*
G01*
X43050001Y-32550000D01*
G75*
G02*
X43300000Y-32799999I0J-249999D01*
G01*
X43300000Y-33700001D01*
G75*
G02*
X43050001Y-33950000I-249999J0D01*
G01*
X42399999Y-33950000D01*
G75*
G02*
X42150000Y-33700001I0J249999D01*
G01*
G37*
%TD*%
%TO.C,D53*%
G36*
G01*
X39450000Y-33700001D02*
X39450000Y-32799999D01*
G75*
G02*
X39699999Y-32550000I249999J0D01*
G01*
X40350001Y-32550000D01*
G75*
G02*
X40600000Y-32799999I0J-249999D01*
G01*
X40600000Y-33700001D01*
G75*
G02*
X40350001Y-33950000I-249999J0D01*
G01*
X39699999Y-33950000D01*
G75*
G02*
X39450000Y-33700001I0J249999D01*
G01*
G37*
G36*
G01*
X37400000Y-33700001D02*
X37400000Y-32799999D01*
G75*
G02*
X37649999Y-32550000I249999J0D01*
G01*
X38300001Y-32550000D01*
G75*
G02*
X38550000Y-32799999I0J-249999D01*
G01*
X38550000Y-33700001D01*
G75*
G02*
X38300001Y-33950000I-249999J0D01*
G01*
X37649999Y-33950000D01*
G75*
G02*
X37400000Y-33700001I0J249999D01*
G01*
G37*
%TD*%
%TO.C,D52*%
G36*
G01*
X34700000Y-33700001D02*
X34700000Y-32799999D01*
G75*
G02*
X34949999Y-32550000I249999J0D01*
G01*
X35600001Y-32550000D01*
G75*
G02*
X35850000Y-32799999I0J-249999D01*
G01*
X35850000Y-33700001D01*
G75*
G02*
X35600001Y-33950000I-249999J0D01*
G01*
X34949999Y-33950000D01*
G75*
G02*
X34700000Y-33700001I0J249999D01*
G01*
G37*
G36*
G01*
X32650000Y-33700001D02*
X32650000Y-32799999D01*
G75*
G02*
X32899999Y-32550000I249999J0D01*
G01*
X33550001Y-32550000D01*
G75*
G02*
X33800000Y-32799999I0J-249999D01*
G01*
X33800000Y-33700001D01*
G75*
G02*
X33550001Y-33950000I-249999J0D01*
G01*
X32899999Y-33950000D01*
G75*
G02*
X32650000Y-33700001I0J249999D01*
G01*
G37*
%TD*%
%TO.C,D51*%
G36*
G01*
X29950000Y-33700001D02*
X29950000Y-32799999D01*
G75*
G02*
X30199999Y-32550000I249999J0D01*
G01*
X30850001Y-32550000D01*
G75*
G02*
X31100000Y-32799999I0J-249999D01*
G01*
X31100000Y-33700001D01*
G75*
G02*
X30850001Y-33950000I-249999J0D01*
G01*
X30199999Y-33950000D01*
G75*
G02*
X29950000Y-33700001I0J249999D01*
G01*
G37*
G36*
G01*
X27900000Y-33700001D02*
X27900000Y-32799999D01*
G75*
G02*
X28149999Y-32550000I249999J0D01*
G01*
X28800001Y-32550000D01*
G75*
G02*
X29050000Y-32799999I0J-249999D01*
G01*
X29050000Y-33700001D01*
G75*
G02*
X28800001Y-33950000I-249999J0D01*
G01*
X28149999Y-33950000D01*
G75*
G02*
X27900000Y-33700001I0J249999D01*
G01*
G37*
%TD*%
%TO.C,D50*%
G36*
G01*
X25200000Y-33700001D02*
X25200000Y-32799999D01*
G75*
G02*
X25449999Y-32550000I249999J0D01*
G01*
X26100001Y-32550000D01*
G75*
G02*
X26350000Y-32799999I0J-249999D01*
G01*
X26350000Y-33700001D01*
G75*
G02*
X26100001Y-33950000I-249999J0D01*
G01*
X25449999Y-33950000D01*
G75*
G02*
X25200000Y-33700001I0J249999D01*
G01*
G37*
G36*
G01*
X23150000Y-33700001D02*
X23150000Y-32799999D01*
G75*
G02*
X23399999Y-32550000I249999J0D01*
G01*
X24050001Y-32550000D01*
G75*
G02*
X24300000Y-32799999I0J-249999D01*
G01*
X24300000Y-33700001D01*
G75*
G02*
X24050001Y-33950000I-249999J0D01*
G01*
X23399999Y-33950000D01*
G75*
G02*
X23150000Y-33700001I0J249999D01*
G01*
G37*
%TD*%
%TO.C,D49*%
G36*
G01*
X20450000Y-33700001D02*
X20450000Y-32799999D01*
G75*
G02*
X20699999Y-32550000I249999J0D01*
G01*
X21350001Y-32550000D01*
G75*
G02*
X21600000Y-32799999I0J-249999D01*
G01*
X21600000Y-33700001D01*
G75*
G02*
X21350001Y-33950000I-249999J0D01*
G01*
X20699999Y-33950000D01*
G75*
G02*
X20450000Y-33700001I0J249999D01*
G01*
G37*
G36*
G01*
X18400000Y-33700001D02*
X18400000Y-32799999D01*
G75*
G02*
X18649999Y-32550000I249999J0D01*
G01*
X19300001Y-32550000D01*
G75*
G02*
X19550000Y-32799999I0J-249999D01*
G01*
X19550000Y-33700001D01*
G75*
G02*
X19300001Y-33950000I-249999J0D01*
G01*
X18649999Y-33950000D01*
G75*
G02*
X18400000Y-33700001I0J249999D01*
G01*
G37*
%TD*%
%TO.C,D48*%
G36*
G01*
X15700000Y-33700001D02*
X15700000Y-32799999D01*
G75*
G02*
X15949999Y-32550000I249999J0D01*
G01*
X16600001Y-32550000D01*
G75*
G02*
X16850000Y-32799999I0J-249999D01*
G01*
X16850000Y-33700001D01*
G75*
G02*
X16600001Y-33950000I-249999J0D01*
G01*
X15949999Y-33950000D01*
G75*
G02*
X15700000Y-33700001I0J249999D01*
G01*
G37*
G36*
G01*
X13650000Y-33700001D02*
X13650000Y-32799999D01*
G75*
G02*
X13899999Y-32550000I249999J0D01*
G01*
X14550001Y-32550000D01*
G75*
G02*
X14800000Y-32799999I0J-249999D01*
G01*
X14800000Y-33700001D01*
G75*
G02*
X14550001Y-33950000I-249999J0D01*
G01*
X13899999Y-33950000D01*
G75*
G02*
X13650000Y-33700001I0J249999D01*
G01*
G37*
%TD*%
%TO.C,D47*%
G36*
G01*
X10950000Y-33700001D02*
X10950000Y-32799999D01*
G75*
G02*
X11199999Y-32550000I249999J0D01*
G01*
X11850001Y-32550000D01*
G75*
G02*
X12100000Y-32799999I0J-249999D01*
G01*
X12100000Y-33700001D01*
G75*
G02*
X11850001Y-33950000I-249999J0D01*
G01*
X11199999Y-33950000D01*
G75*
G02*
X10950000Y-33700001I0J249999D01*
G01*
G37*
G36*
G01*
X8900000Y-33700001D02*
X8900000Y-32799999D01*
G75*
G02*
X9149999Y-32550000I249999J0D01*
G01*
X9800001Y-32550000D01*
G75*
G02*
X10050000Y-32799999I0J-249999D01*
G01*
X10050000Y-33700001D01*
G75*
G02*
X9800001Y-33950000I-249999J0D01*
G01*
X9149999Y-33950000D01*
G75*
G02*
X8900000Y-33700001I0J249999D01*
G01*
G37*
%TD*%
%TO.C,D46*%
G36*
G01*
X6200000Y-33700001D02*
X6200000Y-32799999D01*
G75*
G02*
X6449999Y-32550000I249999J0D01*
G01*
X7100001Y-32550000D01*
G75*
G02*
X7350000Y-32799999I0J-249999D01*
G01*
X7350000Y-33700001D01*
G75*
G02*
X7100001Y-33950000I-249999J0D01*
G01*
X6449999Y-33950000D01*
G75*
G02*
X6200000Y-33700001I0J249999D01*
G01*
G37*
G36*
G01*
X4150000Y-33700001D02*
X4150000Y-32799999D01*
G75*
G02*
X4399999Y-32550000I249999J0D01*
G01*
X5050001Y-32550000D01*
G75*
G02*
X5300000Y-32799999I0J-249999D01*
G01*
X5300000Y-33700001D01*
G75*
G02*
X5050001Y-33950000I-249999J0D01*
G01*
X4399999Y-33950000D01*
G75*
G02*
X4150000Y-33700001I0J249999D01*
G01*
G37*
%TD*%
%TO.C,D45*%
G36*
G01*
X44225000Y-29200001D02*
X44225000Y-28299999D01*
G75*
G02*
X44474999Y-28050000I249999J0D01*
G01*
X45125001Y-28050000D01*
G75*
G02*
X45375000Y-28299999I0J-249999D01*
G01*
X45375000Y-29200001D01*
G75*
G02*
X45125001Y-29450000I-249999J0D01*
G01*
X44474999Y-29450000D01*
G75*
G02*
X44225000Y-29200001I0J249999D01*
G01*
G37*
G36*
G01*
X42175000Y-29200001D02*
X42175000Y-28299999D01*
G75*
G02*
X42424999Y-28050000I249999J0D01*
G01*
X43075001Y-28050000D01*
G75*
G02*
X43325000Y-28299999I0J-249999D01*
G01*
X43325000Y-29200001D01*
G75*
G02*
X43075001Y-29450000I-249999J0D01*
G01*
X42424999Y-29450000D01*
G75*
G02*
X42175000Y-29200001I0J249999D01*
G01*
G37*
%TD*%
%TO.C,D44*%
G36*
G01*
X39450000Y-29200001D02*
X39450000Y-28299999D01*
G75*
G02*
X39699999Y-28050000I249999J0D01*
G01*
X40350001Y-28050000D01*
G75*
G02*
X40600000Y-28299999I0J-249999D01*
G01*
X40600000Y-29200001D01*
G75*
G02*
X40350001Y-29450000I-249999J0D01*
G01*
X39699999Y-29450000D01*
G75*
G02*
X39450000Y-29200001I0J249999D01*
G01*
G37*
G36*
G01*
X37400000Y-29200001D02*
X37400000Y-28299999D01*
G75*
G02*
X37649999Y-28050000I249999J0D01*
G01*
X38300001Y-28050000D01*
G75*
G02*
X38550000Y-28299999I0J-249999D01*
G01*
X38550000Y-29200001D01*
G75*
G02*
X38300001Y-29450000I-249999J0D01*
G01*
X37649999Y-29450000D01*
G75*
G02*
X37400000Y-29200001I0J249999D01*
G01*
G37*
%TD*%
%TO.C,D43*%
G36*
G01*
X34700000Y-29200001D02*
X34700000Y-28299999D01*
G75*
G02*
X34949999Y-28050000I249999J0D01*
G01*
X35600001Y-28050000D01*
G75*
G02*
X35850000Y-28299999I0J-249999D01*
G01*
X35850000Y-29200001D01*
G75*
G02*
X35600001Y-29450000I-249999J0D01*
G01*
X34949999Y-29450000D01*
G75*
G02*
X34700000Y-29200001I0J249999D01*
G01*
G37*
G36*
G01*
X32650000Y-29200001D02*
X32650000Y-28299999D01*
G75*
G02*
X32899999Y-28050000I249999J0D01*
G01*
X33550001Y-28050000D01*
G75*
G02*
X33800000Y-28299999I0J-249999D01*
G01*
X33800000Y-29200001D01*
G75*
G02*
X33550001Y-29450000I-249999J0D01*
G01*
X32899999Y-29450000D01*
G75*
G02*
X32650000Y-29200001I0J249999D01*
G01*
G37*
%TD*%
%TO.C,D42*%
G36*
G01*
X29975000Y-29200001D02*
X29975000Y-28299999D01*
G75*
G02*
X30224999Y-28050000I249999J0D01*
G01*
X30875001Y-28050000D01*
G75*
G02*
X31125000Y-28299999I0J-249999D01*
G01*
X31125000Y-29200001D01*
G75*
G02*
X30875001Y-29450000I-249999J0D01*
G01*
X30224999Y-29450000D01*
G75*
G02*
X29975000Y-29200001I0J249999D01*
G01*
G37*
G36*
G01*
X27925000Y-29200001D02*
X27925000Y-28299999D01*
G75*
G02*
X28174999Y-28050000I249999J0D01*
G01*
X28825001Y-28050000D01*
G75*
G02*
X29075000Y-28299999I0J-249999D01*
G01*
X29075000Y-29200001D01*
G75*
G02*
X28825001Y-29450000I-249999J0D01*
G01*
X28174999Y-29450000D01*
G75*
G02*
X27925000Y-29200001I0J249999D01*
G01*
G37*
%TD*%
%TO.C,D41*%
G36*
G01*
X25200000Y-29200001D02*
X25200000Y-28299999D01*
G75*
G02*
X25449999Y-28050000I249999J0D01*
G01*
X26100001Y-28050000D01*
G75*
G02*
X26350000Y-28299999I0J-249999D01*
G01*
X26350000Y-29200001D01*
G75*
G02*
X26100001Y-29450000I-249999J0D01*
G01*
X25449999Y-29450000D01*
G75*
G02*
X25200000Y-29200001I0J249999D01*
G01*
G37*
G36*
G01*
X23150000Y-29200001D02*
X23150000Y-28299999D01*
G75*
G02*
X23399999Y-28050000I249999J0D01*
G01*
X24050001Y-28050000D01*
G75*
G02*
X24300000Y-28299999I0J-249999D01*
G01*
X24300000Y-29200001D01*
G75*
G02*
X24050001Y-29450000I-249999J0D01*
G01*
X23399999Y-29450000D01*
G75*
G02*
X23150000Y-29200001I0J249999D01*
G01*
G37*
%TD*%
%TO.C,D40*%
G36*
G01*
X20475000Y-29200001D02*
X20475000Y-28299999D01*
G75*
G02*
X20724999Y-28050000I249999J0D01*
G01*
X21375001Y-28050000D01*
G75*
G02*
X21625000Y-28299999I0J-249999D01*
G01*
X21625000Y-29200001D01*
G75*
G02*
X21375001Y-29450000I-249999J0D01*
G01*
X20724999Y-29450000D01*
G75*
G02*
X20475000Y-29200001I0J249999D01*
G01*
G37*
G36*
G01*
X18425000Y-29200001D02*
X18425000Y-28299999D01*
G75*
G02*
X18674999Y-28050000I249999J0D01*
G01*
X19325001Y-28050000D01*
G75*
G02*
X19575000Y-28299999I0J-249999D01*
G01*
X19575000Y-29200001D01*
G75*
G02*
X19325001Y-29450000I-249999J0D01*
G01*
X18674999Y-29450000D01*
G75*
G02*
X18425000Y-29200001I0J249999D01*
G01*
G37*
%TD*%
%TO.C,D39*%
G36*
G01*
X15725000Y-29200001D02*
X15725000Y-28299999D01*
G75*
G02*
X15974999Y-28050000I249999J0D01*
G01*
X16625001Y-28050000D01*
G75*
G02*
X16875000Y-28299999I0J-249999D01*
G01*
X16875000Y-29200001D01*
G75*
G02*
X16625001Y-29450000I-249999J0D01*
G01*
X15974999Y-29450000D01*
G75*
G02*
X15725000Y-29200001I0J249999D01*
G01*
G37*
G36*
G01*
X13675000Y-29200001D02*
X13675000Y-28299999D01*
G75*
G02*
X13924999Y-28050000I249999J0D01*
G01*
X14575001Y-28050000D01*
G75*
G02*
X14825000Y-28299999I0J-249999D01*
G01*
X14825000Y-29200001D01*
G75*
G02*
X14575001Y-29450000I-249999J0D01*
G01*
X13924999Y-29450000D01*
G75*
G02*
X13675000Y-29200001I0J249999D01*
G01*
G37*
%TD*%
%TO.C,D38*%
G36*
G01*
X10945000Y-29200001D02*
X10945000Y-28299999D01*
G75*
G02*
X11194999Y-28050000I249999J0D01*
G01*
X11845001Y-28050000D01*
G75*
G02*
X12095000Y-28299999I0J-249999D01*
G01*
X12095000Y-29200001D01*
G75*
G02*
X11845001Y-29450000I-249999J0D01*
G01*
X11194999Y-29450000D01*
G75*
G02*
X10945000Y-29200001I0J249999D01*
G01*
G37*
G36*
G01*
X8895000Y-29200001D02*
X8895000Y-28299999D01*
G75*
G02*
X9144999Y-28050000I249999J0D01*
G01*
X9795001Y-28050000D01*
G75*
G02*
X10045000Y-28299999I0J-249999D01*
G01*
X10045000Y-29200001D01*
G75*
G02*
X9795001Y-29450000I-249999J0D01*
G01*
X9144999Y-29450000D01*
G75*
G02*
X8895000Y-29200001I0J249999D01*
G01*
G37*
%TD*%
%TO.C,D37*%
G36*
G01*
X6225000Y-29200001D02*
X6225000Y-28299999D01*
G75*
G02*
X6474999Y-28050000I249999J0D01*
G01*
X7125001Y-28050000D01*
G75*
G02*
X7375000Y-28299999I0J-249999D01*
G01*
X7375000Y-29200001D01*
G75*
G02*
X7125001Y-29450000I-249999J0D01*
G01*
X6474999Y-29450000D01*
G75*
G02*
X6225000Y-29200001I0J249999D01*
G01*
G37*
G36*
G01*
X4175000Y-29200001D02*
X4175000Y-28299999D01*
G75*
G02*
X4424999Y-28050000I249999J0D01*
G01*
X5075001Y-28050000D01*
G75*
G02*
X5325000Y-28299999I0J-249999D01*
G01*
X5325000Y-29200001D01*
G75*
G02*
X5075001Y-29450000I-249999J0D01*
G01*
X4424999Y-29450000D01*
G75*
G02*
X4175000Y-29200001I0J249999D01*
G01*
G37*
%TD*%
%TO.C,D36*%
G36*
G01*
X44225000Y-24700001D02*
X44225000Y-23799999D01*
G75*
G02*
X44474999Y-23550000I249999J0D01*
G01*
X45125001Y-23550000D01*
G75*
G02*
X45375000Y-23799999I0J-249999D01*
G01*
X45375000Y-24700001D01*
G75*
G02*
X45125001Y-24950000I-249999J0D01*
G01*
X44474999Y-24950000D01*
G75*
G02*
X44225000Y-24700001I0J249999D01*
G01*
G37*
G36*
G01*
X42175000Y-24700001D02*
X42175000Y-23799999D01*
G75*
G02*
X42424999Y-23550000I249999J0D01*
G01*
X43075001Y-23550000D01*
G75*
G02*
X43325000Y-23799999I0J-249999D01*
G01*
X43325000Y-24700001D01*
G75*
G02*
X43075001Y-24950000I-249999J0D01*
G01*
X42424999Y-24950000D01*
G75*
G02*
X42175000Y-24700001I0J249999D01*
G01*
G37*
%TD*%
%TO.C,D35*%
G36*
G01*
X39475000Y-24700001D02*
X39475000Y-23799999D01*
G75*
G02*
X39724999Y-23550000I249999J0D01*
G01*
X40375001Y-23550000D01*
G75*
G02*
X40625000Y-23799999I0J-249999D01*
G01*
X40625000Y-24700001D01*
G75*
G02*
X40375001Y-24950000I-249999J0D01*
G01*
X39724999Y-24950000D01*
G75*
G02*
X39475000Y-24700001I0J249999D01*
G01*
G37*
G36*
G01*
X37425000Y-24700001D02*
X37425000Y-23799999D01*
G75*
G02*
X37674999Y-23550000I249999J0D01*
G01*
X38325001Y-23550000D01*
G75*
G02*
X38575000Y-23799999I0J-249999D01*
G01*
X38575000Y-24700001D01*
G75*
G02*
X38325001Y-24950000I-249999J0D01*
G01*
X37674999Y-24950000D01*
G75*
G02*
X37425000Y-24700001I0J249999D01*
G01*
G37*
%TD*%
%TO.C,D34*%
G36*
G01*
X34725000Y-24700001D02*
X34725000Y-23799999D01*
G75*
G02*
X34974999Y-23550000I249999J0D01*
G01*
X35625001Y-23550000D01*
G75*
G02*
X35875000Y-23799999I0J-249999D01*
G01*
X35875000Y-24700001D01*
G75*
G02*
X35625001Y-24950000I-249999J0D01*
G01*
X34974999Y-24950000D01*
G75*
G02*
X34725000Y-24700001I0J249999D01*
G01*
G37*
G36*
G01*
X32675000Y-24700001D02*
X32675000Y-23799999D01*
G75*
G02*
X32924999Y-23550000I249999J0D01*
G01*
X33575001Y-23550000D01*
G75*
G02*
X33825000Y-23799999I0J-249999D01*
G01*
X33825000Y-24700001D01*
G75*
G02*
X33575001Y-24950000I-249999J0D01*
G01*
X32924999Y-24950000D01*
G75*
G02*
X32675000Y-24700001I0J249999D01*
G01*
G37*
%TD*%
%TO.C,D33*%
G36*
G01*
X29950000Y-24700001D02*
X29950000Y-23799999D01*
G75*
G02*
X30199999Y-23550000I249999J0D01*
G01*
X30850001Y-23550000D01*
G75*
G02*
X31100000Y-23799999I0J-249999D01*
G01*
X31100000Y-24700001D01*
G75*
G02*
X30850001Y-24950000I-249999J0D01*
G01*
X30199999Y-24950000D01*
G75*
G02*
X29950000Y-24700001I0J249999D01*
G01*
G37*
G36*
G01*
X27900000Y-24700001D02*
X27900000Y-23799999D01*
G75*
G02*
X28149999Y-23550000I249999J0D01*
G01*
X28800001Y-23550000D01*
G75*
G02*
X29050000Y-23799999I0J-249999D01*
G01*
X29050000Y-24700001D01*
G75*
G02*
X28800001Y-24950000I-249999J0D01*
G01*
X28149999Y-24950000D01*
G75*
G02*
X27900000Y-24700001I0J249999D01*
G01*
G37*
%TD*%
%TO.C,D32*%
G36*
G01*
X25200000Y-24700001D02*
X25200000Y-23799999D01*
G75*
G02*
X25449999Y-23550000I249999J0D01*
G01*
X26100001Y-23550000D01*
G75*
G02*
X26350000Y-23799999I0J-249999D01*
G01*
X26350000Y-24700001D01*
G75*
G02*
X26100001Y-24950000I-249999J0D01*
G01*
X25449999Y-24950000D01*
G75*
G02*
X25200000Y-24700001I0J249999D01*
G01*
G37*
G36*
G01*
X23150000Y-24700001D02*
X23150000Y-23799999D01*
G75*
G02*
X23399999Y-23550000I249999J0D01*
G01*
X24050001Y-23550000D01*
G75*
G02*
X24300000Y-23799999I0J-249999D01*
G01*
X24300000Y-24700001D01*
G75*
G02*
X24050001Y-24950000I-249999J0D01*
G01*
X23399999Y-24950000D01*
G75*
G02*
X23150000Y-24700001I0J249999D01*
G01*
G37*
%TD*%
%TO.C,D31*%
G36*
G01*
X20450000Y-24700001D02*
X20450000Y-23799999D01*
G75*
G02*
X20699999Y-23550000I249999J0D01*
G01*
X21350001Y-23550000D01*
G75*
G02*
X21600000Y-23799999I0J-249999D01*
G01*
X21600000Y-24700001D01*
G75*
G02*
X21350001Y-24950000I-249999J0D01*
G01*
X20699999Y-24950000D01*
G75*
G02*
X20450000Y-24700001I0J249999D01*
G01*
G37*
G36*
G01*
X18400000Y-24700001D02*
X18400000Y-23799999D01*
G75*
G02*
X18649999Y-23550000I249999J0D01*
G01*
X19300001Y-23550000D01*
G75*
G02*
X19550000Y-23799999I0J-249999D01*
G01*
X19550000Y-24700001D01*
G75*
G02*
X19300001Y-24950000I-249999J0D01*
G01*
X18649999Y-24950000D01*
G75*
G02*
X18400000Y-24700001I0J249999D01*
G01*
G37*
%TD*%
%TO.C,D30*%
G36*
G01*
X15700000Y-24700001D02*
X15700000Y-23799999D01*
G75*
G02*
X15949999Y-23550000I249999J0D01*
G01*
X16600001Y-23550000D01*
G75*
G02*
X16850000Y-23799999I0J-249999D01*
G01*
X16850000Y-24700001D01*
G75*
G02*
X16600001Y-24950000I-249999J0D01*
G01*
X15949999Y-24950000D01*
G75*
G02*
X15700000Y-24700001I0J249999D01*
G01*
G37*
G36*
G01*
X13650000Y-24700001D02*
X13650000Y-23799999D01*
G75*
G02*
X13899999Y-23550000I249999J0D01*
G01*
X14550001Y-23550000D01*
G75*
G02*
X14800000Y-23799999I0J-249999D01*
G01*
X14800000Y-24700001D01*
G75*
G02*
X14550001Y-24950000I-249999J0D01*
G01*
X13899999Y-24950000D01*
G75*
G02*
X13650000Y-24700001I0J249999D01*
G01*
G37*
%TD*%
%TO.C,D29*%
G36*
G01*
X10950000Y-24700001D02*
X10950000Y-23799999D01*
G75*
G02*
X11199999Y-23550000I249999J0D01*
G01*
X11850001Y-23550000D01*
G75*
G02*
X12100000Y-23799999I0J-249999D01*
G01*
X12100000Y-24700001D01*
G75*
G02*
X11850001Y-24950000I-249999J0D01*
G01*
X11199999Y-24950000D01*
G75*
G02*
X10950000Y-24700001I0J249999D01*
G01*
G37*
G36*
G01*
X8900000Y-24700001D02*
X8900000Y-23799999D01*
G75*
G02*
X9149999Y-23550000I249999J0D01*
G01*
X9800001Y-23550000D01*
G75*
G02*
X10050000Y-23799999I0J-249999D01*
G01*
X10050000Y-24700001D01*
G75*
G02*
X9800001Y-24950000I-249999J0D01*
G01*
X9149999Y-24950000D01*
G75*
G02*
X8900000Y-24700001I0J249999D01*
G01*
G37*
%TD*%
%TO.C,D28*%
G36*
G01*
X6200000Y-24700001D02*
X6200000Y-23799999D01*
G75*
G02*
X6449999Y-23550000I249999J0D01*
G01*
X7100001Y-23550000D01*
G75*
G02*
X7350000Y-23799999I0J-249999D01*
G01*
X7350000Y-24700001D01*
G75*
G02*
X7100001Y-24950000I-249999J0D01*
G01*
X6449999Y-24950000D01*
G75*
G02*
X6200000Y-24700001I0J249999D01*
G01*
G37*
G36*
G01*
X4150000Y-24700001D02*
X4150000Y-23799999D01*
G75*
G02*
X4399999Y-23550000I249999J0D01*
G01*
X5050001Y-23550000D01*
G75*
G02*
X5300000Y-23799999I0J-249999D01*
G01*
X5300000Y-24700001D01*
G75*
G02*
X5050001Y-24950000I-249999J0D01*
G01*
X4399999Y-24950000D01*
G75*
G02*
X4150000Y-24700001I0J249999D01*
G01*
G37*
%TD*%
%TO.C,D27*%
G36*
G01*
X44200000Y-20200001D02*
X44200000Y-19299999D01*
G75*
G02*
X44449999Y-19050000I249999J0D01*
G01*
X45100001Y-19050000D01*
G75*
G02*
X45350000Y-19299999I0J-249999D01*
G01*
X45350000Y-20200001D01*
G75*
G02*
X45100001Y-20450000I-249999J0D01*
G01*
X44449999Y-20450000D01*
G75*
G02*
X44200000Y-20200001I0J249999D01*
G01*
G37*
G36*
G01*
X42150000Y-20200001D02*
X42150000Y-19299999D01*
G75*
G02*
X42399999Y-19050000I249999J0D01*
G01*
X43050001Y-19050000D01*
G75*
G02*
X43300000Y-19299999I0J-249999D01*
G01*
X43300000Y-20200001D01*
G75*
G02*
X43050001Y-20450000I-249999J0D01*
G01*
X42399999Y-20450000D01*
G75*
G02*
X42150000Y-20200001I0J249999D01*
G01*
G37*
%TD*%
%TO.C,D26*%
G36*
G01*
X39450000Y-20200001D02*
X39450000Y-19299999D01*
G75*
G02*
X39699999Y-19050000I249999J0D01*
G01*
X40350001Y-19050000D01*
G75*
G02*
X40600000Y-19299999I0J-249999D01*
G01*
X40600000Y-20200001D01*
G75*
G02*
X40350001Y-20450000I-249999J0D01*
G01*
X39699999Y-20450000D01*
G75*
G02*
X39450000Y-20200001I0J249999D01*
G01*
G37*
G36*
G01*
X37400000Y-20200001D02*
X37400000Y-19299999D01*
G75*
G02*
X37649999Y-19050000I249999J0D01*
G01*
X38300001Y-19050000D01*
G75*
G02*
X38550000Y-19299999I0J-249999D01*
G01*
X38550000Y-20200001D01*
G75*
G02*
X38300001Y-20450000I-249999J0D01*
G01*
X37649999Y-20450000D01*
G75*
G02*
X37400000Y-20200001I0J249999D01*
G01*
G37*
%TD*%
%TO.C,D25*%
G36*
G01*
X34700000Y-20200001D02*
X34700000Y-19299999D01*
G75*
G02*
X34949999Y-19050000I249999J0D01*
G01*
X35600001Y-19050000D01*
G75*
G02*
X35850000Y-19299999I0J-249999D01*
G01*
X35850000Y-20200001D01*
G75*
G02*
X35600001Y-20450000I-249999J0D01*
G01*
X34949999Y-20450000D01*
G75*
G02*
X34700000Y-20200001I0J249999D01*
G01*
G37*
G36*
G01*
X32650000Y-20200001D02*
X32650000Y-19299999D01*
G75*
G02*
X32899999Y-19050000I249999J0D01*
G01*
X33550001Y-19050000D01*
G75*
G02*
X33800000Y-19299999I0J-249999D01*
G01*
X33800000Y-20200001D01*
G75*
G02*
X33550001Y-20450000I-249999J0D01*
G01*
X32899999Y-20450000D01*
G75*
G02*
X32650000Y-20200001I0J249999D01*
G01*
G37*
%TD*%
%TO.C,D24*%
G36*
G01*
X29950000Y-20200001D02*
X29950000Y-19299999D01*
G75*
G02*
X30199999Y-19050000I249999J0D01*
G01*
X30850001Y-19050000D01*
G75*
G02*
X31100000Y-19299999I0J-249999D01*
G01*
X31100000Y-20200001D01*
G75*
G02*
X30850001Y-20450000I-249999J0D01*
G01*
X30199999Y-20450000D01*
G75*
G02*
X29950000Y-20200001I0J249999D01*
G01*
G37*
G36*
G01*
X27900000Y-20200001D02*
X27900000Y-19299999D01*
G75*
G02*
X28149999Y-19050000I249999J0D01*
G01*
X28800001Y-19050000D01*
G75*
G02*
X29050000Y-19299999I0J-249999D01*
G01*
X29050000Y-20200001D01*
G75*
G02*
X28800001Y-20450000I-249999J0D01*
G01*
X28149999Y-20450000D01*
G75*
G02*
X27900000Y-20200001I0J249999D01*
G01*
G37*
%TD*%
%TO.C,D23*%
G36*
G01*
X25200000Y-20200001D02*
X25200000Y-19299999D01*
G75*
G02*
X25449999Y-19050000I249999J0D01*
G01*
X26100001Y-19050000D01*
G75*
G02*
X26350000Y-19299999I0J-249999D01*
G01*
X26350000Y-20200001D01*
G75*
G02*
X26100001Y-20450000I-249999J0D01*
G01*
X25449999Y-20450000D01*
G75*
G02*
X25200000Y-20200001I0J249999D01*
G01*
G37*
G36*
G01*
X23150000Y-20200001D02*
X23150000Y-19299999D01*
G75*
G02*
X23399999Y-19050000I249999J0D01*
G01*
X24050001Y-19050000D01*
G75*
G02*
X24300000Y-19299999I0J-249999D01*
G01*
X24300000Y-20200001D01*
G75*
G02*
X24050001Y-20450000I-249999J0D01*
G01*
X23399999Y-20450000D01*
G75*
G02*
X23150000Y-20200001I0J249999D01*
G01*
G37*
%TD*%
%TO.C,D22*%
G36*
G01*
X20450000Y-20200001D02*
X20450000Y-19299999D01*
G75*
G02*
X20699999Y-19050000I249999J0D01*
G01*
X21350001Y-19050000D01*
G75*
G02*
X21600000Y-19299999I0J-249999D01*
G01*
X21600000Y-20200001D01*
G75*
G02*
X21350001Y-20450000I-249999J0D01*
G01*
X20699999Y-20450000D01*
G75*
G02*
X20450000Y-20200001I0J249999D01*
G01*
G37*
G36*
G01*
X18400000Y-20200001D02*
X18400000Y-19299999D01*
G75*
G02*
X18649999Y-19050000I249999J0D01*
G01*
X19300001Y-19050000D01*
G75*
G02*
X19550000Y-19299999I0J-249999D01*
G01*
X19550000Y-20200001D01*
G75*
G02*
X19300001Y-20450000I-249999J0D01*
G01*
X18649999Y-20450000D01*
G75*
G02*
X18400000Y-20200001I0J249999D01*
G01*
G37*
%TD*%
%TO.C,D21*%
G36*
G01*
X15700000Y-20200001D02*
X15700000Y-19299999D01*
G75*
G02*
X15949999Y-19050000I249999J0D01*
G01*
X16600001Y-19050000D01*
G75*
G02*
X16850000Y-19299999I0J-249999D01*
G01*
X16850000Y-20200001D01*
G75*
G02*
X16600001Y-20450000I-249999J0D01*
G01*
X15949999Y-20450000D01*
G75*
G02*
X15700000Y-20200001I0J249999D01*
G01*
G37*
G36*
G01*
X13650000Y-20200001D02*
X13650000Y-19299999D01*
G75*
G02*
X13899999Y-19050000I249999J0D01*
G01*
X14550001Y-19050000D01*
G75*
G02*
X14800000Y-19299999I0J-249999D01*
G01*
X14800000Y-20200001D01*
G75*
G02*
X14550001Y-20450000I-249999J0D01*
G01*
X13899999Y-20450000D01*
G75*
G02*
X13650000Y-20200001I0J249999D01*
G01*
G37*
%TD*%
%TO.C,D20*%
G36*
G01*
X10950000Y-20200001D02*
X10950000Y-19299999D01*
G75*
G02*
X11199999Y-19050000I249999J0D01*
G01*
X11850001Y-19050000D01*
G75*
G02*
X12100000Y-19299999I0J-249999D01*
G01*
X12100000Y-20200001D01*
G75*
G02*
X11850001Y-20450000I-249999J0D01*
G01*
X11199999Y-20450000D01*
G75*
G02*
X10950000Y-20200001I0J249999D01*
G01*
G37*
G36*
G01*
X8900000Y-20200001D02*
X8900000Y-19299999D01*
G75*
G02*
X9149999Y-19050000I249999J0D01*
G01*
X9800001Y-19050000D01*
G75*
G02*
X10050000Y-19299999I0J-249999D01*
G01*
X10050000Y-20200001D01*
G75*
G02*
X9800001Y-20450000I-249999J0D01*
G01*
X9149999Y-20450000D01*
G75*
G02*
X8900000Y-20200001I0J249999D01*
G01*
G37*
%TD*%
%TO.C,D19*%
G36*
G01*
X6225000Y-20200001D02*
X6225000Y-19299999D01*
G75*
G02*
X6474999Y-19050000I249999J0D01*
G01*
X7125001Y-19050000D01*
G75*
G02*
X7375000Y-19299999I0J-249999D01*
G01*
X7375000Y-20200001D01*
G75*
G02*
X7125001Y-20450000I-249999J0D01*
G01*
X6474999Y-20450000D01*
G75*
G02*
X6225000Y-20200001I0J249999D01*
G01*
G37*
G36*
G01*
X4175000Y-20200001D02*
X4175000Y-19299999D01*
G75*
G02*
X4424999Y-19050000I249999J0D01*
G01*
X5075001Y-19050000D01*
G75*
G02*
X5325000Y-19299999I0J-249999D01*
G01*
X5325000Y-20200001D01*
G75*
G02*
X5075001Y-20450000I-249999J0D01*
G01*
X4424999Y-20450000D01*
G75*
G02*
X4175000Y-20200001I0J249999D01*
G01*
G37*
%TD*%
%TO.C,D18*%
G36*
G01*
X44225000Y-15700001D02*
X44225000Y-14799999D01*
G75*
G02*
X44474999Y-14550000I249999J0D01*
G01*
X45125001Y-14550000D01*
G75*
G02*
X45375000Y-14799999I0J-249999D01*
G01*
X45375000Y-15700001D01*
G75*
G02*
X45125001Y-15950000I-249999J0D01*
G01*
X44474999Y-15950000D01*
G75*
G02*
X44225000Y-15700001I0J249999D01*
G01*
G37*
G36*
G01*
X42175000Y-15700001D02*
X42175000Y-14799999D01*
G75*
G02*
X42424999Y-14550000I249999J0D01*
G01*
X43075001Y-14550000D01*
G75*
G02*
X43325000Y-14799999I0J-249999D01*
G01*
X43325000Y-15700001D01*
G75*
G02*
X43075001Y-15950000I-249999J0D01*
G01*
X42424999Y-15950000D01*
G75*
G02*
X42175000Y-15700001I0J249999D01*
G01*
G37*
%TD*%
%TO.C,D17*%
G36*
G01*
X39475000Y-15700001D02*
X39475000Y-14799999D01*
G75*
G02*
X39724999Y-14550000I249999J0D01*
G01*
X40375001Y-14550000D01*
G75*
G02*
X40625000Y-14799999I0J-249999D01*
G01*
X40625000Y-15700001D01*
G75*
G02*
X40375001Y-15950000I-249999J0D01*
G01*
X39724999Y-15950000D01*
G75*
G02*
X39475000Y-15700001I0J249999D01*
G01*
G37*
G36*
G01*
X37425000Y-15700001D02*
X37425000Y-14799999D01*
G75*
G02*
X37674999Y-14550000I249999J0D01*
G01*
X38325001Y-14550000D01*
G75*
G02*
X38575000Y-14799999I0J-249999D01*
G01*
X38575000Y-15700001D01*
G75*
G02*
X38325001Y-15950000I-249999J0D01*
G01*
X37674999Y-15950000D01*
G75*
G02*
X37425000Y-15700001I0J249999D01*
G01*
G37*
%TD*%
%TO.C,D16*%
G36*
G01*
X34725000Y-15700001D02*
X34725000Y-14799999D01*
G75*
G02*
X34974999Y-14550000I249999J0D01*
G01*
X35625001Y-14550000D01*
G75*
G02*
X35875000Y-14799999I0J-249999D01*
G01*
X35875000Y-15700001D01*
G75*
G02*
X35625001Y-15950000I-249999J0D01*
G01*
X34974999Y-15950000D01*
G75*
G02*
X34725000Y-15700001I0J249999D01*
G01*
G37*
G36*
G01*
X32675000Y-15700001D02*
X32675000Y-14799999D01*
G75*
G02*
X32924999Y-14550000I249999J0D01*
G01*
X33575001Y-14550000D01*
G75*
G02*
X33825000Y-14799999I0J-249999D01*
G01*
X33825000Y-15700001D01*
G75*
G02*
X33575001Y-15950000I-249999J0D01*
G01*
X32924999Y-15950000D01*
G75*
G02*
X32675000Y-15700001I0J249999D01*
G01*
G37*
%TD*%
%TO.C,D14*%
G36*
G01*
X25225000Y-15700001D02*
X25225000Y-14799999D01*
G75*
G02*
X25474999Y-14550000I249999J0D01*
G01*
X26125001Y-14550000D01*
G75*
G02*
X26375000Y-14799999I0J-249999D01*
G01*
X26375000Y-15700001D01*
G75*
G02*
X26125001Y-15950000I-249999J0D01*
G01*
X25474999Y-15950000D01*
G75*
G02*
X25225000Y-15700001I0J249999D01*
G01*
G37*
G36*
G01*
X23175000Y-15700001D02*
X23175000Y-14799999D01*
G75*
G02*
X23424999Y-14550000I249999J0D01*
G01*
X24075001Y-14550000D01*
G75*
G02*
X24325000Y-14799999I0J-249999D01*
G01*
X24325000Y-15700001D01*
G75*
G02*
X24075001Y-15950000I-249999J0D01*
G01*
X23424999Y-15950000D01*
G75*
G02*
X23175000Y-15700001I0J249999D01*
G01*
G37*
%TD*%
%TO.C,D13*%
G36*
G01*
X20475000Y-15700001D02*
X20475000Y-14799999D01*
G75*
G02*
X20724999Y-14550000I249999J0D01*
G01*
X21375001Y-14550000D01*
G75*
G02*
X21625000Y-14799999I0J-249999D01*
G01*
X21625000Y-15700001D01*
G75*
G02*
X21375001Y-15950000I-249999J0D01*
G01*
X20724999Y-15950000D01*
G75*
G02*
X20475000Y-15700001I0J249999D01*
G01*
G37*
G36*
G01*
X18425000Y-15700001D02*
X18425000Y-14799999D01*
G75*
G02*
X18674999Y-14550000I249999J0D01*
G01*
X19325001Y-14550000D01*
G75*
G02*
X19575000Y-14799999I0J-249999D01*
G01*
X19575000Y-15700001D01*
G75*
G02*
X19325001Y-15950000I-249999J0D01*
G01*
X18674999Y-15950000D01*
G75*
G02*
X18425000Y-15700001I0J249999D01*
G01*
G37*
%TD*%
%TO.C,D12*%
G36*
G01*
X15725000Y-15700001D02*
X15725000Y-14799999D01*
G75*
G02*
X15974999Y-14550000I249999J0D01*
G01*
X16625001Y-14550000D01*
G75*
G02*
X16875000Y-14799999I0J-249999D01*
G01*
X16875000Y-15700001D01*
G75*
G02*
X16625001Y-15950000I-249999J0D01*
G01*
X15974999Y-15950000D01*
G75*
G02*
X15725000Y-15700001I0J249999D01*
G01*
G37*
G36*
G01*
X13675000Y-15700001D02*
X13675000Y-14799999D01*
G75*
G02*
X13924999Y-14550000I249999J0D01*
G01*
X14575001Y-14550000D01*
G75*
G02*
X14825000Y-14799999I0J-249999D01*
G01*
X14825000Y-15700001D01*
G75*
G02*
X14575001Y-15950000I-249999J0D01*
G01*
X13924999Y-15950000D01*
G75*
G02*
X13675000Y-15700001I0J249999D01*
G01*
G37*
%TD*%
%TO.C,D11*%
G36*
G01*
X10950000Y-15700001D02*
X10950000Y-14799999D01*
G75*
G02*
X11199999Y-14550000I249999J0D01*
G01*
X11850001Y-14550000D01*
G75*
G02*
X12100000Y-14799999I0J-249999D01*
G01*
X12100000Y-15700001D01*
G75*
G02*
X11850001Y-15950000I-249999J0D01*
G01*
X11199999Y-15950000D01*
G75*
G02*
X10950000Y-15700001I0J249999D01*
G01*
G37*
G36*
G01*
X8900000Y-15700001D02*
X8900000Y-14799999D01*
G75*
G02*
X9149999Y-14550000I249999J0D01*
G01*
X9800001Y-14550000D01*
G75*
G02*
X10050000Y-14799999I0J-249999D01*
G01*
X10050000Y-15700001D01*
G75*
G02*
X9800001Y-15950000I-249999J0D01*
G01*
X9149999Y-15950000D01*
G75*
G02*
X8900000Y-15700001I0J249999D01*
G01*
G37*
%TD*%
%TO.C,D10*%
G36*
G01*
X6225000Y-15700001D02*
X6225000Y-14799999D01*
G75*
G02*
X6474999Y-14550000I249999J0D01*
G01*
X7125001Y-14550000D01*
G75*
G02*
X7375000Y-14799999I0J-249999D01*
G01*
X7375000Y-15700001D01*
G75*
G02*
X7125001Y-15950000I-249999J0D01*
G01*
X6474999Y-15950000D01*
G75*
G02*
X6225000Y-15700001I0J249999D01*
G01*
G37*
G36*
G01*
X4175000Y-15700001D02*
X4175000Y-14799999D01*
G75*
G02*
X4424999Y-14550000I249999J0D01*
G01*
X5075001Y-14550000D01*
G75*
G02*
X5325000Y-14799999I0J-249999D01*
G01*
X5325000Y-15700001D01*
G75*
G02*
X5075001Y-15950000I-249999J0D01*
G01*
X4424999Y-15950000D01*
G75*
G02*
X4175000Y-15700001I0J249999D01*
G01*
G37*
%TD*%
%TO.C,D9*%
G36*
G01*
X44200000Y-11200001D02*
X44200000Y-10299999D01*
G75*
G02*
X44449999Y-10050000I249999J0D01*
G01*
X45100001Y-10050000D01*
G75*
G02*
X45350000Y-10299999I0J-249999D01*
G01*
X45350000Y-11200001D01*
G75*
G02*
X45100001Y-11450000I-249999J0D01*
G01*
X44449999Y-11450000D01*
G75*
G02*
X44200000Y-11200001I0J249999D01*
G01*
G37*
G36*
G01*
X42150000Y-11200001D02*
X42150000Y-10299999D01*
G75*
G02*
X42399999Y-10050000I249999J0D01*
G01*
X43050001Y-10050000D01*
G75*
G02*
X43300000Y-10299999I0J-249999D01*
G01*
X43300000Y-11200001D01*
G75*
G02*
X43050001Y-11450000I-249999J0D01*
G01*
X42399999Y-11450000D01*
G75*
G02*
X42150000Y-11200001I0J249999D01*
G01*
G37*
%TD*%
%TO.C,D8*%
G36*
G01*
X39450000Y-11200001D02*
X39450000Y-10299999D01*
G75*
G02*
X39699999Y-10050000I249999J0D01*
G01*
X40350001Y-10050000D01*
G75*
G02*
X40600000Y-10299999I0J-249999D01*
G01*
X40600000Y-11200001D01*
G75*
G02*
X40350001Y-11450000I-249999J0D01*
G01*
X39699999Y-11450000D01*
G75*
G02*
X39450000Y-11200001I0J249999D01*
G01*
G37*
G36*
G01*
X37400000Y-11200001D02*
X37400000Y-10299999D01*
G75*
G02*
X37649999Y-10050000I249999J0D01*
G01*
X38300001Y-10050000D01*
G75*
G02*
X38550000Y-10299999I0J-249999D01*
G01*
X38550000Y-11200001D01*
G75*
G02*
X38300001Y-11450000I-249999J0D01*
G01*
X37649999Y-11450000D01*
G75*
G02*
X37400000Y-11200001I0J249999D01*
G01*
G37*
%TD*%
%TO.C,D7*%
G36*
G01*
X34700000Y-11200001D02*
X34700000Y-10299999D01*
G75*
G02*
X34949999Y-10050000I249999J0D01*
G01*
X35600001Y-10050000D01*
G75*
G02*
X35850000Y-10299999I0J-249999D01*
G01*
X35850000Y-11200001D01*
G75*
G02*
X35600001Y-11450000I-249999J0D01*
G01*
X34949999Y-11450000D01*
G75*
G02*
X34700000Y-11200001I0J249999D01*
G01*
G37*
G36*
G01*
X32650000Y-11200001D02*
X32650000Y-10299999D01*
G75*
G02*
X32899999Y-10050000I249999J0D01*
G01*
X33550001Y-10050000D01*
G75*
G02*
X33800000Y-10299999I0J-249999D01*
G01*
X33800000Y-11200001D01*
G75*
G02*
X33550001Y-11450000I-249999J0D01*
G01*
X32899999Y-11450000D01*
G75*
G02*
X32650000Y-11200001I0J249999D01*
G01*
G37*
%TD*%
%TO.C,D6*%
G36*
G01*
X29950000Y-11200001D02*
X29950000Y-10299999D01*
G75*
G02*
X30199999Y-10050000I249999J0D01*
G01*
X30850001Y-10050000D01*
G75*
G02*
X31100000Y-10299999I0J-249999D01*
G01*
X31100000Y-11200001D01*
G75*
G02*
X30850001Y-11450000I-249999J0D01*
G01*
X30199999Y-11450000D01*
G75*
G02*
X29950000Y-11200001I0J249999D01*
G01*
G37*
G36*
G01*
X27900000Y-11200001D02*
X27900000Y-10299999D01*
G75*
G02*
X28149999Y-10050000I249999J0D01*
G01*
X28800001Y-10050000D01*
G75*
G02*
X29050000Y-10299999I0J-249999D01*
G01*
X29050000Y-11200001D01*
G75*
G02*
X28800001Y-11450000I-249999J0D01*
G01*
X28149999Y-11450000D01*
G75*
G02*
X27900000Y-11200001I0J249999D01*
G01*
G37*
%TD*%
%TO.C,D5*%
G36*
G01*
X25200000Y-11200001D02*
X25200000Y-10299999D01*
G75*
G02*
X25449999Y-10050000I249999J0D01*
G01*
X26100001Y-10050000D01*
G75*
G02*
X26350000Y-10299999I0J-249999D01*
G01*
X26350000Y-11200001D01*
G75*
G02*
X26100001Y-11450000I-249999J0D01*
G01*
X25449999Y-11450000D01*
G75*
G02*
X25200000Y-11200001I0J249999D01*
G01*
G37*
G36*
G01*
X23150000Y-11200001D02*
X23150000Y-10299999D01*
G75*
G02*
X23399999Y-10050000I249999J0D01*
G01*
X24050001Y-10050000D01*
G75*
G02*
X24300000Y-10299999I0J-249999D01*
G01*
X24300000Y-11200001D01*
G75*
G02*
X24050001Y-11450000I-249999J0D01*
G01*
X23399999Y-11450000D01*
G75*
G02*
X23150000Y-11200001I0J249999D01*
G01*
G37*
%TD*%
%TO.C,D4*%
G36*
G01*
X20450000Y-11200001D02*
X20450000Y-10299999D01*
G75*
G02*
X20699999Y-10050000I249999J0D01*
G01*
X21350001Y-10050000D01*
G75*
G02*
X21600000Y-10299999I0J-249999D01*
G01*
X21600000Y-11200001D01*
G75*
G02*
X21350001Y-11450000I-249999J0D01*
G01*
X20699999Y-11450000D01*
G75*
G02*
X20450000Y-11200001I0J249999D01*
G01*
G37*
G36*
G01*
X18400000Y-11200001D02*
X18400000Y-10299999D01*
G75*
G02*
X18649999Y-10050000I249999J0D01*
G01*
X19300001Y-10050000D01*
G75*
G02*
X19550000Y-10299999I0J-249999D01*
G01*
X19550000Y-11200001D01*
G75*
G02*
X19300001Y-11450000I-249999J0D01*
G01*
X18649999Y-11450000D01*
G75*
G02*
X18400000Y-11200001I0J249999D01*
G01*
G37*
%TD*%
%TO.C,D3*%
G36*
G01*
X15700000Y-11200001D02*
X15700000Y-10299999D01*
G75*
G02*
X15949999Y-10050000I249999J0D01*
G01*
X16600001Y-10050000D01*
G75*
G02*
X16850000Y-10299999I0J-249999D01*
G01*
X16850000Y-11200001D01*
G75*
G02*
X16600001Y-11450000I-249999J0D01*
G01*
X15949999Y-11450000D01*
G75*
G02*
X15700000Y-11200001I0J249999D01*
G01*
G37*
G36*
G01*
X13650000Y-11200001D02*
X13650000Y-10299999D01*
G75*
G02*
X13899999Y-10050000I249999J0D01*
G01*
X14550001Y-10050000D01*
G75*
G02*
X14800000Y-10299999I0J-249999D01*
G01*
X14800000Y-11200001D01*
G75*
G02*
X14550001Y-11450000I-249999J0D01*
G01*
X13899999Y-11450000D01*
G75*
G02*
X13650000Y-11200001I0J249999D01*
G01*
G37*
%TD*%
%TO.C,D2*%
G36*
G01*
X10950000Y-11200001D02*
X10950000Y-10299999D01*
G75*
G02*
X11199999Y-10050000I249999J0D01*
G01*
X11850001Y-10050000D01*
G75*
G02*
X12100000Y-10299999I0J-249999D01*
G01*
X12100000Y-11200001D01*
G75*
G02*
X11850001Y-11450000I-249999J0D01*
G01*
X11199999Y-11450000D01*
G75*
G02*
X10950000Y-11200001I0J249999D01*
G01*
G37*
G36*
G01*
X8900000Y-11200001D02*
X8900000Y-10299999D01*
G75*
G02*
X9149999Y-10050000I249999J0D01*
G01*
X9800001Y-10050000D01*
G75*
G02*
X10050000Y-10299999I0J-249999D01*
G01*
X10050000Y-11200001D01*
G75*
G02*
X9800001Y-11450000I-249999J0D01*
G01*
X9149999Y-11450000D01*
G75*
G02*
X8900000Y-11200001I0J249999D01*
G01*
G37*
%TD*%
%TO.C,D1*%
G36*
G01*
X6200000Y-11200001D02*
X6200000Y-10299999D01*
G75*
G02*
X6449999Y-10050000I249999J0D01*
G01*
X7100001Y-10050000D01*
G75*
G02*
X7350000Y-10299999I0J-249999D01*
G01*
X7350000Y-11200001D01*
G75*
G02*
X7100001Y-11450000I-249999J0D01*
G01*
X6449999Y-11450000D01*
G75*
G02*
X6200000Y-11200001I0J249999D01*
G01*
G37*
G36*
G01*
X4150000Y-11200001D02*
X4150000Y-10299999D01*
G75*
G02*
X4399999Y-10050000I249999J0D01*
G01*
X5050001Y-10050000D01*
G75*
G02*
X5300000Y-10299999I0J-249999D01*
G01*
X5300000Y-11200001D01*
G75*
G02*
X5050001Y-11450000I-249999J0D01*
G01*
X4399999Y-11450000D01*
G75*
G02*
X4150000Y-11200001I0J249999D01*
G01*
G37*
%TD*%
D12*
%TO.C,BT1*%
X2000000Y-44460000D03*
D13*
X2000000Y-47000000D03*
%TD*%
M02*
