%TF.GenerationSoftware,KiCad,Pcbnew,5.1.6*%
%TF.CreationDate,2020-08-20T19:30:15+02:00*%
%TF.ProjectId,UniBadge-9x9,556e6942-6164-4676-952d-3978392e6b69,rev?*%
%TF.SameCoordinates,Original*%
%TF.FileFunction,Soldermask,Bot*%
%TF.FilePolarity,Negative*%
%FSLAX46Y46*%
G04 Gerber Fmt 4.6, Leading zero omitted, Abs format (unit mm)*
G04 Created by KiCad (PCBNEW 5.1.6) date 2020-08-20 19:30:15*
%MOMM*%
%LPD*%
G01*
G04 APERTURE LIST*
%ADD10C,0.010000*%
%ADD11R,1.300000X0.800000*%
%ADD12R,1.950000X1.100000*%
%ADD13C,2.100000*%
%ADD14R,0.900000X0.800000*%
%ADD15O,1.700000X1.700000*%
%ADD16R,1.700000X1.700000*%
G04 APERTURE END LIST*
D10*
%TO.C,G\u002A\u002A\u002A*%
G36*
X19660295Y-41064740D02*
G01*
X19537031Y-41077665D01*
X19466650Y-41090072D01*
X19311848Y-41131414D01*
X19162326Y-41187478D01*
X19025713Y-41255183D01*
X18962960Y-41293537D01*
X18862919Y-41366776D01*
X18777305Y-41446732D01*
X18698935Y-41540609D01*
X18655817Y-41601527D01*
X18604956Y-41668824D01*
X18554935Y-41719705D01*
X18531898Y-41737250D01*
X18485047Y-41762890D01*
X18436923Y-41780462D01*
X18394282Y-41788300D01*
X18363882Y-41784741D01*
X18357182Y-41780296D01*
X18348676Y-41758524D01*
X18359809Y-41738380D01*
X18385524Y-41727595D01*
X18391897Y-41727241D01*
X18452522Y-41714827D01*
X18513265Y-41678524D01*
X18555859Y-41638119D01*
X18580429Y-41609848D01*
X18592124Y-41589386D01*
X18588833Y-41572518D01*
X18568444Y-41555028D01*
X18528846Y-41532698D01*
X18494091Y-41514764D01*
X18345513Y-41451602D01*
X18183133Y-41405942D01*
X18011919Y-41378116D01*
X17836839Y-41368455D01*
X17662860Y-41377292D01*
X17494950Y-41404959D01*
X17371528Y-41439776D01*
X17233847Y-41495742D01*
X17114283Y-41562615D01*
X17013491Y-41638776D01*
X16932126Y-41722607D01*
X16870845Y-41812488D01*
X16830303Y-41906801D01*
X16811155Y-42003926D01*
X16814057Y-42102245D01*
X16839666Y-42200138D01*
X16888636Y-42295986D01*
X16961623Y-42388170D01*
X16979928Y-42406780D01*
X17073518Y-42485553D01*
X17181085Y-42554072D01*
X17296175Y-42609233D01*
X17412336Y-42647933D01*
X17520631Y-42666866D01*
X17569625Y-42671693D01*
X17598390Y-42677249D01*
X17612111Y-42685349D01*
X17615974Y-42697808D01*
X17616024Y-42700250D01*
X17612390Y-42715514D01*
X17597459Y-42724043D01*
X17565187Y-42728485D01*
X17549249Y-42729533D01*
X17482474Y-42733377D01*
X17482474Y-43050025D01*
X17419588Y-43050025D01*
X17370554Y-43054405D01*
X17335373Y-43069613D01*
X17323746Y-43078643D01*
X17290789Y-43107261D01*
X17342910Y-44048473D01*
X17353378Y-44235691D01*
X17362734Y-44398899D01*
X17371078Y-44539498D01*
X17378514Y-44658886D01*
X17385142Y-44758464D01*
X17391063Y-44839630D01*
X17396380Y-44903786D01*
X17401193Y-44952329D01*
X17405605Y-44986661D01*
X17409717Y-45008180D01*
X17413218Y-45017708D01*
X17439274Y-45040242D01*
X17472838Y-45052446D01*
X17511602Y-45057097D01*
X17571686Y-45062234D01*
X17648983Y-45067631D01*
X17739385Y-45073062D01*
X17838786Y-45078302D01*
X17943077Y-45083123D01*
X18048152Y-45087301D01*
X18149902Y-45090608D01*
X18182023Y-45091470D01*
X18338631Y-45095315D01*
X18473920Y-45098357D01*
X18591996Y-45100616D01*
X18696966Y-45102117D01*
X18792934Y-45102882D01*
X18884008Y-45102933D01*
X18974293Y-45102294D01*
X19067895Y-45100987D01*
X19168920Y-45099035D01*
X19244066Y-45097348D01*
X19390208Y-45093420D01*
X19530046Y-45088674D01*
X19661186Y-45083251D01*
X19781234Y-45077296D01*
X19887795Y-45070949D01*
X19978476Y-45064353D01*
X20050881Y-45057651D01*
X20102617Y-45050986D01*
X20131138Y-45044558D01*
X20160496Y-45023763D01*
X20177275Y-44985495D01*
X20177399Y-44984996D01*
X20180017Y-44964609D01*
X20183812Y-44921047D01*
X20188641Y-44856539D01*
X20194360Y-44773313D01*
X20200827Y-44673598D01*
X20207898Y-44559624D01*
X20215432Y-44433619D01*
X20220174Y-44351588D01*
X19428493Y-44351588D01*
X19428355Y-44459659D01*
X19427837Y-44545139D01*
X19426789Y-44610872D01*
X19425056Y-44659705D01*
X19422487Y-44694483D01*
X19418928Y-44718052D01*
X19414227Y-44733256D01*
X19408231Y-44742942D01*
X19407443Y-44743841D01*
X19393399Y-44754970D01*
X19372061Y-44761958D01*
X19337990Y-44765684D01*
X19285743Y-44767029D01*
X19263605Y-44767100D01*
X19193863Y-44765404D01*
X19146521Y-44760084D01*
X19118754Y-44750795D01*
X19116127Y-44749055D01*
X19110398Y-44743988D01*
X19105609Y-44736429D01*
X19101659Y-44724179D01*
X19098447Y-44705037D01*
X19095873Y-44676802D01*
X19093835Y-44637276D01*
X19092233Y-44584256D01*
X19090966Y-44515544D01*
X19089933Y-44428938D01*
X19089032Y-44322239D01*
X19088165Y-44193246D01*
X19087777Y-44130533D01*
X19087745Y-44124787D01*
X18797391Y-44124787D01*
X18792644Y-44240104D01*
X18776866Y-44340080D01*
X18748242Y-44433085D01*
X18713781Y-44510278D01*
X18678609Y-44567451D01*
X18632421Y-44624537D01*
X18580906Y-44675848D01*
X18529755Y-44715697D01*
X18485930Y-44737999D01*
X18400261Y-44753059D01*
X18314722Y-44745267D01*
X18249173Y-44721972D01*
X18170032Y-44668843D01*
X18102141Y-44595970D01*
X18046268Y-44506787D01*
X18003183Y-44404732D01*
X17973654Y-44293237D01*
X17958450Y-44175738D01*
X17958340Y-44055670D01*
X17974092Y-43936469D01*
X18006476Y-43821568D01*
X18033377Y-43757844D01*
X18085102Y-43665944D01*
X18142643Y-43595341D01*
X18209516Y-43541997D01*
X18233952Y-43527645D01*
X18315106Y-43496456D01*
X18396534Y-43490306D01*
X18476724Y-43508856D01*
X18554164Y-43551769D01*
X18623582Y-43614549D01*
X18695718Y-43710000D01*
X18748139Y-43817574D01*
X18781487Y-43939154D01*
X18796404Y-44076626D01*
X18797391Y-44124787D01*
X19087745Y-44124787D01*
X19086984Y-43990552D01*
X19086503Y-43873805D01*
X19086398Y-43778090D01*
X19086732Y-43701205D01*
X19087567Y-43640946D01*
X19088967Y-43595111D01*
X19090994Y-43561497D01*
X19093713Y-43537902D01*
X19097185Y-43522123D01*
X19101474Y-43511958D01*
X19105647Y-43506264D01*
X19119543Y-43494986D01*
X19140148Y-43487874D01*
X19172923Y-43484038D01*
X19223326Y-43482586D01*
X19251489Y-43482474D01*
X19317260Y-43483780D01*
X19361240Y-43487998D01*
X19386959Y-43495571D01*
X19393738Y-43500412D01*
X19401565Y-43521313D01*
X19408445Y-43567031D01*
X19414355Y-43636962D01*
X19419270Y-43730502D01*
X19423165Y-43847047D01*
X19426016Y-43985991D01*
X19427797Y-44146732D01*
X19428485Y-44328664D01*
X19428493Y-44351588D01*
X20220174Y-44351588D01*
X20223283Y-44297812D01*
X20231311Y-44154431D01*
X20235019Y-44086630D01*
X20243032Y-43940061D01*
X20250818Y-43799688D01*
X20258243Y-43667787D01*
X20265175Y-43546631D01*
X20271480Y-43438497D01*
X20277025Y-43345658D01*
X20281676Y-43270389D01*
X20285300Y-43214967D01*
X20287764Y-43181664D01*
X20288450Y-43174577D01*
X20291069Y-43135123D01*
X20284918Y-43109333D01*
X20266961Y-43086090D01*
X20263290Y-43082364D01*
X20240461Y-43063567D01*
X20214287Y-43053767D01*
X20175654Y-43050266D01*
X20154059Y-43050025D01*
X20077166Y-43050025D01*
X20077166Y-42801508D01*
X19980675Y-42806381D01*
X19923779Y-42807194D01*
X19885150Y-42803307D01*
X19870019Y-42797089D01*
X19861956Y-42783017D01*
X19870511Y-42771548D01*
X19897896Y-42761898D01*
X19946321Y-42753285D01*
X20016876Y-42745037D01*
X20197357Y-42717358D01*
X20365785Y-42672702D01*
X20520431Y-42612074D01*
X20659566Y-42536472D01*
X20781462Y-42446901D01*
X20884390Y-42344360D01*
X20966621Y-42229851D01*
X20994475Y-42178622D01*
X21019282Y-42126896D01*
X21035336Y-42086469D01*
X21044913Y-42048200D01*
X21050287Y-42002949D01*
X21053731Y-41941574D01*
X21053792Y-41940218D01*
X21055801Y-41876190D01*
X21054454Y-41828641D01*
X21048725Y-41788722D01*
X21037586Y-41747579D01*
X21028194Y-41719533D01*
X20973138Y-41599383D01*
X20895350Y-41488023D01*
X20796348Y-41386561D01*
X20677651Y-41296108D01*
X20540777Y-41217771D01*
X20387247Y-41152660D01*
X20218577Y-41101884D01*
X20165875Y-41089747D01*
X20054603Y-41071981D01*
X19927582Y-41061894D01*
X19793313Y-41059482D01*
X19660295Y-41064740D01*
G37*
X19660295Y-41064740D02*
X19537031Y-41077665D01*
X19466650Y-41090072D01*
X19311848Y-41131414D01*
X19162326Y-41187478D01*
X19025713Y-41255183D01*
X18962960Y-41293537D01*
X18862919Y-41366776D01*
X18777305Y-41446732D01*
X18698935Y-41540609D01*
X18655817Y-41601527D01*
X18604956Y-41668824D01*
X18554935Y-41719705D01*
X18531898Y-41737250D01*
X18485047Y-41762890D01*
X18436923Y-41780462D01*
X18394282Y-41788300D01*
X18363882Y-41784741D01*
X18357182Y-41780296D01*
X18348676Y-41758524D01*
X18359809Y-41738380D01*
X18385524Y-41727595D01*
X18391897Y-41727241D01*
X18452522Y-41714827D01*
X18513265Y-41678524D01*
X18555859Y-41638119D01*
X18580429Y-41609848D01*
X18592124Y-41589386D01*
X18588833Y-41572518D01*
X18568444Y-41555028D01*
X18528846Y-41532698D01*
X18494091Y-41514764D01*
X18345513Y-41451602D01*
X18183133Y-41405942D01*
X18011919Y-41378116D01*
X17836839Y-41368455D01*
X17662860Y-41377292D01*
X17494950Y-41404959D01*
X17371528Y-41439776D01*
X17233847Y-41495742D01*
X17114283Y-41562615D01*
X17013491Y-41638776D01*
X16932126Y-41722607D01*
X16870845Y-41812488D01*
X16830303Y-41906801D01*
X16811155Y-42003926D01*
X16814057Y-42102245D01*
X16839666Y-42200138D01*
X16888636Y-42295986D01*
X16961623Y-42388170D01*
X16979928Y-42406780D01*
X17073518Y-42485553D01*
X17181085Y-42554072D01*
X17296175Y-42609233D01*
X17412336Y-42647933D01*
X17520631Y-42666866D01*
X17569625Y-42671693D01*
X17598390Y-42677249D01*
X17612111Y-42685349D01*
X17615974Y-42697808D01*
X17616024Y-42700250D01*
X17612390Y-42715514D01*
X17597459Y-42724043D01*
X17565187Y-42728485D01*
X17549249Y-42729533D01*
X17482474Y-42733377D01*
X17482474Y-43050025D01*
X17419588Y-43050025D01*
X17370554Y-43054405D01*
X17335373Y-43069613D01*
X17323746Y-43078643D01*
X17290789Y-43107261D01*
X17342910Y-44048473D01*
X17353378Y-44235691D01*
X17362734Y-44398899D01*
X17371078Y-44539498D01*
X17378514Y-44658886D01*
X17385142Y-44758464D01*
X17391063Y-44839630D01*
X17396380Y-44903786D01*
X17401193Y-44952329D01*
X17405605Y-44986661D01*
X17409717Y-45008180D01*
X17413218Y-45017708D01*
X17439274Y-45040242D01*
X17472838Y-45052446D01*
X17511602Y-45057097D01*
X17571686Y-45062234D01*
X17648983Y-45067631D01*
X17739385Y-45073062D01*
X17838786Y-45078302D01*
X17943077Y-45083123D01*
X18048152Y-45087301D01*
X18149902Y-45090608D01*
X18182023Y-45091470D01*
X18338631Y-45095315D01*
X18473920Y-45098357D01*
X18591996Y-45100616D01*
X18696966Y-45102117D01*
X18792934Y-45102882D01*
X18884008Y-45102933D01*
X18974293Y-45102294D01*
X19067895Y-45100987D01*
X19168920Y-45099035D01*
X19244066Y-45097348D01*
X19390208Y-45093420D01*
X19530046Y-45088674D01*
X19661186Y-45083251D01*
X19781234Y-45077296D01*
X19887795Y-45070949D01*
X19978476Y-45064353D01*
X20050881Y-45057651D01*
X20102617Y-45050986D01*
X20131138Y-45044558D01*
X20160496Y-45023763D01*
X20177275Y-44985495D01*
X20177399Y-44984996D01*
X20180017Y-44964609D01*
X20183812Y-44921047D01*
X20188641Y-44856539D01*
X20194360Y-44773313D01*
X20200827Y-44673598D01*
X20207898Y-44559624D01*
X20215432Y-44433619D01*
X20220174Y-44351588D01*
X19428493Y-44351588D01*
X19428355Y-44459659D01*
X19427837Y-44545139D01*
X19426789Y-44610872D01*
X19425056Y-44659705D01*
X19422487Y-44694483D01*
X19418928Y-44718052D01*
X19414227Y-44733256D01*
X19408231Y-44742942D01*
X19407443Y-44743841D01*
X19393399Y-44754970D01*
X19372061Y-44761958D01*
X19337990Y-44765684D01*
X19285743Y-44767029D01*
X19263605Y-44767100D01*
X19193863Y-44765404D01*
X19146521Y-44760084D01*
X19118754Y-44750795D01*
X19116127Y-44749055D01*
X19110398Y-44743988D01*
X19105609Y-44736429D01*
X19101659Y-44724179D01*
X19098447Y-44705037D01*
X19095873Y-44676802D01*
X19093835Y-44637276D01*
X19092233Y-44584256D01*
X19090966Y-44515544D01*
X19089933Y-44428938D01*
X19089032Y-44322239D01*
X19088165Y-44193246D01*
X19087777Y-44130533D01*
X19087745Y-44124787D01*
X18797391Y-44124787D01*
X18792644Y-44240104D01*
X18776866Y-44340080D01*
X18748242Y-44433085D01*
X18713781Y-44510278D01*
X18678609Y-44567451D01*
X18632421Y-44624537D01*
X18580906Y-44675848D01*
X18529755Y-44715697D01*
X18485930Y-44737999D01*
X18400261Y-44753059D01*
X18314722Y-44745267D01*
X18249173Y-44721972D01*
X18170032Y-44668843D01*
X18102141Y-44595970D01*
X18046268Y-44506787D01*
X18003183Y-44404732D01*
X17973654Y-44293237D01*
X17958450Y-44175738D01*
X17958340Y-44055670D01*
X17974092Y-43936469D01*
X18006476Y-43821568D01*
X18033377Y-43757844D01*
X18085102Y-43665944D01*
X18142643Y-43595341D01*
X18209516Y-43541997D01*
X18233952Y-43527645D01*
X18315106Y-43496456D01*
X18396534Y-43490306D01*
X18476724Y-43508856D01*
X18554164Y-43551769D01*
X18623582Y-43614549D01*
X18695718Y-43710000D01*
X18748139Y-43817574D01*
X18781487Y-43939154D01*
X18796404Y-44076626D01*
X18797391Y-44124787D01*
X19087745Y-44124787D01*
X19086984Y-43990552D01*
X19086503Y-43873805D01*
X19086398Y-43778090D01*
X19086732Y-43701205D01*
X19087567Y-43640946D01*
X19088967Y-43595111D01*
X19090994Y-43561497D01*
X19093713Y-43537902D01*
X19097185Y-43522123D01*
X19101474Y-43511958D01*
X19105647Y-43506264D01*
X19119543Y-43494986D01*
X19140148Y-43487874D01*
X19172923Y-43484038D01*
X19223326Y-43482586D01*
X19251489Y-43482474D01*
X19317260Y-43483780D01*
X19361240Y-43487998D01*
X19386959Y-43495571D01*
X19393738Y-43500412D01*
X19401565Y-43521313D01*
X19408445Y-43567031D01*
X19414355Y-43636962D01*
X19419270Y-43730502D01*
X19423165Y-43847047D01*
X19426016Y-43985991D01*
X19427797Y-44146732D01*
X19428485Y-44328664D01*
X19428493Y-44351588D01*
X20220174Y-44351588D01*
X20223283Y-44297812D01*
X20231311Y-44154431D01*
X20235019Y-44086630D01*
X20243032Y-43940061D01*
X20250818Y-43799688D01*
X20258243Y-43667787D01*
X20265175Y-43546631D01*
X20271480Y-43438497D01*
X20277025Y-43345658D01*
X20281676Y-43270389D01*
X20285300Y-43214967D01*
X20287764Y-43181664D01*
X20288450Y-43174577D01*
X20291069Y-43135123D01*
X20284918Y-43109333D01*
X20266961Y-43086090D01*
X20263290Y-43082364D01*
X20240461Y-43063567D01*
X20214287Y-43053767D01*
X20175654Y-43050266D01*
X20154059Y-43050025D01*
X20077166Y-43050025D01*
X20077166Y-42801508D01*
X19980675Y-42806381D01*
X19923779Y-42807194D01*
X19885150Y-42803307D01*
X19870019Y-42797089D01*
X19861956Y-42783017D01*
X19870511Y-42771548D01*
X19897896Y-42761898D01*
X19946321Y-42753285D01*
X20016876Y-42745037D01*
X20197357Y-42717358D01*
X20365785Y-42672702D01*
X20520431Y-42612074D01*
X20659566Y-42536472D01*
X20781462Y-42446901D01*
X20884390Y-42344360D01*
X20966621Y-42229851D01*
X20994475Y-42178622D01*
X21019282Y-42126896D01*
X21035336Y-42086469D01*
X21044913Y-42048200D01*
X21050287Y-42002949D01*
X21053731Y-41941574D01*
X21053792Y-41940218D01*
X21055801Y-41876190D01*
X21054454Y-41828641D01*
X21048725Y-41788722D01*
X21037586Y-41747579D01*
X21028194Y-41719533D01*
X20973138Y-41599383D01*
X20895350Y-41488023D01*
X20796348Y-41386561D01*
X20677651Y-41296108D01*
X20540777Y-41217771D01*
X20387247Y-41152660D01*
X20218577Y-41101884D01*
X20165875Y-41089747D01*
X20054603Y-41071981D01*
X19927582Y-41061894D01*
X19793313Y-41059482D01*
X19660295Y-41064740D01*
G36*
X22034632Y-44654347D02*
G01*
X22015397Y-44656387D01*
X21992455Y-44661071D01*
X21963629Y-44669168D01*
X21926736Y-44681447D01*
X21879596Y-44698677D01*
X21820029Y-44721626D01*
X21745856Y-44751065D01*
X21654895Y-44787761D01*
X21544966Y-44832484D01*
X21413888Y-44886003D01*
X21399914Y-44891713D01*
X21270739Y-44944486D01*
X21137794Y-44998785D01*
X21005127Y-45052957D01*
X20876786Y-45105349D01*
X20756819Y-45154310D01*
X20649274Y-45198188D01*
X20558200Y-45235328D01*
X20503255Y-45257721D01*
X20420127Y-45291795D01*
X20344383Y-45323239D01*
X20279348Y-45350640D01*
X20228345Y-45372586D01*
X20194697Y-45387667D01*
X20182098Y-45394126D01*
X20168217Y-45416336D01*
X20166200Y-45428919D01*
X20155977Y-45453134D01*
X20130852Y-45480621D01*
X20099137Y-45504256D01*
X20069145Y-45516913D01*
X20062839Y-45517526D01*
X20033980Y-45511783D01*
X20000105Y-45498061D01*
X19965902Y-45485909D01*
X19938674Y-45491344D01*
X19937433Y-45491993D01*
X19904226Y-45520272D01*
X19888893Y-45561115D01*
X19891334Y-45616251D01*
X19911448Y-45687409D01*
X19924171Y-45720144D01*
X19961962Y-45811788D01*
X19895553Y-45840658D01*
X19868503Y-45852086D01*
X19821032Y-45871780D01*
X19756290Y-45898448D01*
X19677429Y-45930797D01*
X19587602Y-45967533D01*
X19489960Y-46007364D01*
X19393841Y-46046481D01*
X19295110Y-46086806D01*
X19204209Y-46124298D01*
X19123741Y-46157857D01*
X19056309Y-46186380D01*
X19004515Y-46208767D01*
X18970963Y-46223916D01*
X18958255Y-46230724D01*
X18958212Y-46230838D01*
X18968990Y-46238624D01*
X18998322Y-46253730D01*
X19041270Y-46273720D01*
X19076143Y-46289037D01*
X19194400Y-46339832D01*
X19607165Y-46170351D01*
X19703528Y-46130987D01*
X19792471Y-46095045D01*
X19871252Y-46063603D01*
X19937134Y-46037736D01*
X19987375Y-46018522D01*
X20019235Y-46007038D01*
X20029867Y-46004172D01*
X20039125Y-46016594D01*
X20055229Y-46046866D01*
X20075259Y-46089347D01*
X20083113Y-46107101D01*
X20105735Y-46155093D01*
X20127822Y-46195141D01*
X20145524Y-46220447D01*
X20149490Y-46224215D01*
X20181015Y-46238528D01*
X20217836Y-46242404D01*
X20251899Y-46236816D01*
X20275147Y-46222736D01*
X20280671Y-46208377D01*
X20289108Y-46188115D01*
X20310124Y-46160637D01*
X20317850Y-46152502D01*
X20361514Y-46122345D01*
X20409014Y-46116903D01*
X20450970Y-46129714D01*
X20455761Y-46132398D01*
X20459676Y-46134902D01*
X20464111Y-46136687D01*
X20470461Y-46137216D01*
X20480123Y-46135949D01*
X20494492Y-46132348D01*
X20514963Y-46125874D01*
X20542932Y-46115989D01*
X20579795Y-46102155D01*
X20626948Y-46083832D01*
X20685786Y-46060483D01*
X20757705Y-46031569D01*
X20844100Y-45996551D01*
X20946367Y-45954890D01*
X21065902Y-45906049D01*
X21204101Y-45849489D01*
X21362358Y-45784670D01*
X21542071Y-45711056D01*
X21641314Y-45670411D01*
X21807351Y-45602079D01*
X21949984Y-45542647D01*
X22069580Y-45491955D01*
X22166505Y-45449842D01*
X22241124Y-45416148D01*
X22293806Y-45390712D01*
X22324915Y-45373374D01*
X22332489Y-45367696D01*
X22367607Y-45326497D01*
X22396222Y-45278700D01*
X22413587Y-45233221D01*
X22413675Y-45232533D01*
X22143681Y-45232533D01*
X22138011Y-45249853D01*
X22124796Y-45257344D01*
X22090241Y-45273403D01*
X22036602Y-45297101D01*
X21966139Y-45327510D01*
X21881108Y-45363700D01*
X21783769Y-45404744D01*
X21676379Y-45449714D01*
X21561196Y-45497680D01*
X21440479Y-45547713D01*
X21316485Y-45598887D01*
X21191474Y-45650271D01*
X21067701Y-45700939D01*
X20947427Y-45749960D01*
X20832908Y-45796406D01*
X20726404Y-45839350D01*
X20630172Y-45877862D01*
X20546469Y-45911015D01*
X20477555Y-45937879D01*
X20425688Y-45957526D01*
X20393125Y-45969027D01*
X20382424Y-45971731D01*
X20367479Y-45958174D01*
X20363345Y-45938142D01*
X20364527Y-45931871D01*
X20369120Y-45924980D01*
X20378699Y-45916770D01*
X20394839Y-45906541D01*
X20419113Y-45893593D01*
X20453096Y-45877226D01*
X20498362Y-45856740D01*
X20556485Y-45831435D01*
X20629040Y-45800611D01*
X20717601Y-45763569D01*
X20823741Y-45719608D01*
X20949035Y-45668028D01*
X21095058Y-45608130D01*
X21228243Y-45553594D01*
X21369204Y-45496015D01*
X21503585Y-45441344D01*
X21629489Y-45390339D01*
X21745021Y-45343758D01*
X21848284Y-45302357D01*
X21937382Y-45266896D01*
X22010420Y-45238132D01*
X22065502Y-45216822D01*
X22100730Y-45203725D01*
X22114038Y-45199579D01*
X22136296Y-45209522D01*
X22143681Y-45232533D01*
X22413675Y-45232533D01*
X22416611Y-45209595D01*
X22411582Y-45189215D01*
X22398074Y-45149551D01*
X22377625Y-45094706D01*
X22351767Y-45028780D01*
X22322038Y-44955876D01*
X22320589Y-44952393D01*
X22201252Y-44952393D01*
X22193749Y-44977276D01*
X22172614Y-44981982D01*
X22139908Y-44966357D01*
X22128408Y-44957887D01*
X22087516Y-44938180D01*
X22048476Y-44932448D01*
X22034299Y-44934594D01*
X22009943Y-44941300D01*
X21974393Y-44952967D01*
X21926633Y-44969999D01*
X21865647Y-44992797D01*
X21790418Y-45021763D01*
X21699931Y-45057300D01*
X21593170Y-45099810D01*
X21469119Y-45149696D01*
X21326763Y-45207358D01*
X21165084Y-45273200D01*
X20983068Y-45347624D01*
X20779698Y-45431032D01*
X20553958Y-45523826D01*
X20535053Y-45531605D01*
X20456420Y-45563509D01*
X20384979Y-45591637D01*
X20324287Y-45614656D01*
X20277905Y-45631234D01*
X20249393Y-45640039D01*
X20242514Y-45641072D01*
X20227579Y-45627514D01*
X20223435Y-45607632D01*
X20224812Y-45599991D01*
X20230250Y-45591872D01*
X20241716Y-45582362D01*
X20261173Y-45570547D01*
X20290588Y-45555515D01*
X20331923Y-45536352D01*
X20387145Y-45512146D01*
X20458218Y-45481984D01*
X20547107Y-45444951D01*
X20655777Y-45400135D01*
X20776715Y-45350507D01*
X20972464Y-45270297D01*
X21146092Y-45199203D01*
X21299013Y-45136683D01*
X21432642Y-45082197D01*
X21548391Y-45035202D01*
X21647675Y-44995158D01*
X21731906Y-44961523D01*
X21802500Y-44933757D01*
X21860868Y-44911318D01*
X21908426Y-44893665D01*
X21946586Y-44880256D01*
X21976763Y-44870552D01*
X22000370Y-44864009D01*
X22018820Y-44860088D01*
X22033528Y-44858246D01*
X22045906Y-44857943D01*
X22057369Y-44858638D01*
X22060707Y-44858947D01*
X22115804Y-44870964D01*
X22161178Y-44893442D01*
X22191426Y-44922790D01*
X22201252Y-44952393D01*
X22320589Y-44952393D01*
X22318038Y-44946265D01*
X22280443Y-44857252D01*
X22249773Y-44789021D01*
X22223590Y-44738703D01*
X22199456Y-44703430D01*
X22174932Y-44680330D01*
X22147582Y-44666534D01*
X22114968Y-44659173D01*
X22074651Y-44655377D01*
X22070708Y-44655121D01*
X22052343Y-44654181D01*
X22034632Y-44654347D01*
G37*
X22034632Y-44654347D02*
X22015397Y-44656387D01*
X21992455Y-44661071D01*
X21963629Y-44669168D01*
X21926736Y-44681447D01*
X21879596Y-44698677D01*
X21820029Y-44721626D01*
X21745856Y-44751065D01*
X21654895Y-44787761D01*
X21544966Y-44832484D01*
X21413888Y-44886003D01*
X21399914Y-44891713D01*
X21270739Y-44944486D01*
X21137794Y-44998785D01*
X21005127Y-45052957D01*
X20876786Y-45105349D01*
X20756819Y-45154310D01*
X20649274Y-45198188D01*
X20558200Y-45235328D01*
X20503255Y-45257721D01*
X20420127Y-45291795D01*
X20344383Y-45323239D01*
X20279348Y-45350640D01*
X20228345Y-45372586D01*
X20194697Y-45387667D01*
X20182098Y-45394126D01*
X20168217Y-45416336D01*
X20166200Y-45428919D01*
X20155977Y-45453134D01*
X20130852Y-45480621D01*
X20099137Y-45504256D01*
X20069145Y-45516913D01*
X20062839Y-45517526D01*
X20033980Y-45511783D01*
X20000105Y-45498061D01*
X19965902Y-45485909D01*
X19938674Y-45491344D01*
X19937433Y-45491993D01*
X19904226Y-45520272D01*
X19888893Y-45561115D01*
X19891334Y-45616251D01*
X19911448Y-45687409D01*
X19924171Y-45720144D01*
X19961962Y-45811788D01*
X19895553Y-45840658D01*
X19868503Y-45852086D01*
X19821032Y-45871780D01*
X19756290Y-45898448D01*
X19677429Y-45930797D01*
X19587602Y-45967533D01*
X19489960Y-46007364D01*
X19393841Y-46046481D01*
X19295110Y-46086806D01*
X19204209Y-46124298D01*
X19123741Y-46157857D01*
X19056309Y-46186380D01*
X19004515Y-46208767D01*
X18970963Y-46223916D01*
X18958255Y-46230724D01*
X18958212Y-46230838D01*
X18968990Y-46238624D01*
X18998322Y-46253730D01*
X19041270Y-46273720D01*
X19076143Y-46289037D01*
X19194400Y-46339832D01*
X19607165Y-46170351D01*
X19703528Y-46130987D01*
X19792471Y-46095045D01*
X19871252Y-46063603D01*
X19937134Y-46037736D01*
X19987375Y-46018522D01*
X20019235Y-46007038D01*
X20029867Y-46004172D01*
X20039125Y-46016594D01*
X20055229Y-46046866D01*
X20075259Y-46089347D01*
X20083113Y-46107101D01*
X20105735Y-46155093D01*
X20127822Y-46195141D01*
X20145524Y-46220447D01*
X20149490Y-46224215D01*
X20181015Y-46238528D01*
X20217836Y-46242404D01*
X20251899Y-46236816D01*
X20275147Y-46222736D01*
X20280671Y-46208377D01*
X20289108Y-46188115D01*
X20310124Y-46160637D01*
X20317850Y-46152502D01*
X20361514Y-46122345D01*
X20409014Y-46116903D01*
X20450970Y-46129714D01*
X20455761Y-46132398D01*
X20459676Y-46134902D01*
X20464111Y-46136687D01*
X20470461Y-46137216D01*
X20480123Y-46135949D01*
X20494492Y-46132348D01*
X20514963Y-46125874D01*
X20542932Y-46115989D01*
X20579795Y-46102155D01*
X20626948Y-46083832D01*
X20685786Y-46060483D01*
X20757705Y-46031569D01*
X20844100Y-45996551D01*
X20946367Y-45954890D01*
X21065902Y-45906049D01*
X21204101Y-45849489D01*
X21362358Y-45784670D01*
X21542071Y-45711056D01*
X21641314Y-45670411D01*
X21807351Y-45602079D01*
X21949984Y-45542647D01*
X22069580Y-45491955D01*
X22166505Y-45449842D01*
X22241124Y-45416148D01*
X22293806Y-45390712D01*
X22324915Y-45373374D01*
X22332489Y-45367696D01*
X22367607Y-45326497D01*
X22396222Y-45278700D01*
X22413587Y-45233221D01*
X22413675Y-45232533D01*
X22143681Y-45232533D01*
X22138011Y-45249853D01*
X22124796Y-45257344D01*
X22090241Y-45273403D01*
X22036602Y-45297101D01*
X21966139Y-45327510D01*
X21881108Y-45363700D01*
X21783769Y-45404744D01*
X21676379Y-45449714D01*
X21561196Y-45497680D01*
X21440479Y-45547713D01*
X21316485Y-45598887D01*
X21191474Y-45650271D01*
X21067701Y-45700939D01*
X20947427Y-45749960D01*
X20832908Y-45796406D01*
X20726404Y-45839350D01*
X20630172Y-45877862D01*
X20546469Y-45911015D01*
X20477555Y-45937879D01*
X20425688Y-45957526D01*
X20393125Y-45969027D01*
X20382424Y-45971731D01*
X20367479Y-45958174D01*
X20363345Y-45938142D01*
X20364527Y-45931871D01*
X20369120Y-45924980D01*
X20378699Y-45916770D01*
X20394839Y-45906541D01*
X20419113Y-45893593D01*
X20453096Y-45877226D01*
X20498362Y-45856740D01*
X20556485Y-45831435D01*
X20629040Y-45800611D01*
X20717601Y-45763569D01*
X20823741Y-45719608D01*
X20949035Y-45668028D01*
X21095058Y-45608130D01*
X21228243Y-45553594D01*
X21369204Y-45496015D01*
X21503585Y-45441344D01*
X21629489Y-45390339D01*
X21745021Y-45343758D01*
X21848284Y-45302357D01*
X21937382Y-45266896D01*
X22010420Y-45238132D01*
X22065502Y-45216822D01*
X22100730Y-45203725D01*
X22114038Y-45199579D01*
X22136296Y-45209522D01*
X22143681Y-45232533D01*
X22413675Y-45232533D01*
X22416611Y-45209595D01*
X22411582Y-45189215D01*
X22398074Y-45149551D01*
X22377625Y-45094706D01*
X22351767Y-45028780D01*
X22322038Y-44955876D01*
X22320589Y-44952393D01*
X22201252Y-44952393D01*
X22193749Y-44977276D01*
X22172614Y-44981982D01*
X22139908Y-44966357D01*
X22128408Y-44957887D01*
X22087516Y-44938180D01*
X22048476Y-44932448D01*
X22034299Y-44934594D01*
X22009943Y-44941300D01*
X21974393Y-44952967D01*
X21926633Y-44969999D01*
X21865647Y-44992797D01*
X21790418Y-45021763D01*
X21699931Y-45057300D01*
X21593170Y-45099810D01*
X21469119Y-45149696D01*
X21326763Y-45207358D01*
X21165084Y-45273200D01*
X20983068Y-45347624D01*
X20779698Y-45431032D01*
X20553958Y-45523826D01*
X20535053Y-45531605D01*
X20456420Y-45563509D01*
X20384979Y-45591637D01*
X20324287Y-45614656D01*
X20277905Y-45631234D01*
X20249393Y-45640039D01*
X20242514Y-45641072D01*
X20227579Y-45627514D01*
X20223435Y-45607632D01*
X20224812Y-45599991D01*
X20230250Y-45591872D01*
X20241716Y-45582362D01*
X20261173Y-45570547D01*
X20290588Y-45555515D01*
X20331923Y-45536352D01*
X20387145Y-45512146D01*
X20458218Y-45481984D01*
X20547107Y-45444951D01*
X20655777Y-45400135D01*
X20776715Y-45350507D01*
X20972464Y-45270297D01*
X21146092Y-45199203D01*
X21299013Y-45136683D01*
X21432642Y-45082197D01*
X21548391Y-45035202D01*
X21647675Y-44995158D01*
X21731906Y-44961523D01*
X21802500Y-44933757D01*
X21860868Y-44911318D01*
X21908426Y-44893665D01*
X21946586Y-44880256D01*
X21976763Y-44870552D01*
X22000370Y-44864009D01*
X22018820Y-44860088D01*
X22033528Y-44858246D01*
X22045906Y-44857943D01*
X22057369Y-44858638D01*
X22060707Y-44858947D01*
X22115804Y-44870964D01*
X22161178Y-44893442D01*
X22191426Y-44922790D01*
X22201252Y-44952393D01*
X22320589Y-44952393D01*
X22318038Y-44946265D01*
X22280443Y-44857252D01*
X22249773Y-44789021D01*
X22223590Y-44738703D01*
X22199456Y-44703430D01*
X22174932Y-44680330D01*
X22147582Y-44666534D01*
X22114968Y-44659173D01*
X22074651Y-44655377D01*
X22070708Y-44655121D01*
X22052343Y-44654181D01*
X22034632Y-44654347D01*
G36*
X17932759Y-46649986D02*
G01*
X17897452Y-46663537D01*
X17842748Y-46685106D01*
X17770712Y-46713864D01*
X17683408Y-46748980D01*
X17582901Y-46789623D01*
X17471255Y-46834964D01*
X17350533Y-46884171D01*
X17222800Y-46936414D01*
X17214187Y-46939943D01*
X17065547Y-47000805D01*
X16938479Y-47052680D01*
X16831039Y-47096284D01*
X16741283Y-47132332D01*
X16667269Y-47161538D01*
X16607053Y-47184620D01*
X16558690Y-47202292D01*
X16520238Y-47215269D01*
X16489754Y-47224268D01*
X16465293Y-47230003D01*
X16444912Y-47233191D01*
X16426668Y-47234546D01*
X16413256Y-47234790D01*
X16353097Y-47238146D01*
X16288135Y-47246538D01*
X16253606Y-47253323D01*
X16210830Y-47265089D01*
X16158341Y-47281945D01*
X16102263Y-47301619D01*
X16048718Y-47321836D01*
X16003832Y-47340322D01*
X15973727Y-47354802D01*
X15965659Y-47360264D01*
X15967148Y-47374129D01*
X15976544Y-47406143D01*
X15991835Y-47451028D01*
X16011007Y-47503509D01*
X16032048Y-47558309D01*
X16052945Y-47610151D01*
X16071685Y-47653761D01*
X16086255Y-47683861D01*
X16093068Y-47694239D01*
X16107695Y-47692931D01*
X16140382Y-47682553D01*
X16186174Y-47664866D01*
X16236004Y-47643478D01*
X16347148Y-47589638D01*
X16435686Y-47537526D01*
X16504226Y-47485501D01*
X16535628Y-47454953D01*
X16546562Y-47445235D01*
X16563632Y-47433728D01*
X16588481Y-47419707D01*
X16622751Y-47402447D01*
X16668082Y-47381223D01*
X16726119Y-47355311D01*
X16798501Y-47323986D01*
X16886872Y-47286522D01*
X16992874Y-47242195D01*
X17118147Y-47190280D01*
X17264335Y-47130052D01*
X17368728Y-47087178D01*
X17503875Y-47031737D01*
X17632487Y-46978997D01*
X17752566Y-46929776D01*
X17862118Y-46884892D01*
X17959144Y-46845162D01*
X18041650Y-46811404D01*
X18107637Y-46784435D01*
X18155110Y-46765071D01*
X18182072Y-46754132D01*
X18187296Y-46752054D01*
X18192784Y-46745620D01*
X18181308Y-46735490D01*
X18150600Y-46720366D01*
X18098391Y-46698953D01*
X18085800Y-46694046D01*
X18032700Y-46673935D01*
X17987975Y-46657857D01*
X17957185Y-46647760D01*
X17946607Y-46645284D01*
X17932759Y-46649986D01*
G37*
X17932759Y-46649986D02*
X17897452Y-46663537D01*
X17842748Y-46685106D01*
X17770712Y-46713864D01*
X17683408Y-46748980D01*
X17582901Y-46789623D01*
X17471255Y-46834964D01*
X17350533Y-46884171D01*
X17222800Y-46936414D01*
X17214187Y-46939943D01*
X17065547Y-47000805D01*
X16938479Y-47052680D01*
X16831039Y-47096284D01*
X16741283Y-47132332D01*
X16667269Y-47161538D01*
X16607053Y-47184620D01*
X16558690Y-47202292D01*
X16520238Y-47215269D01*
X16489754Y-47224268D01*
X16465293Y-47230003D01*
X16444912Y-47233191D01*
X16426668Y-47234546D01*
X16413256Y-47234790D01*
X16353097Y-47238146D01*
X16288135Y-47246538D01*
X16253606Y-47253323D01*
X16210830Y-47265089D01*
X16158341Y-47281945D01*
X16102263Y-47301619D01*
X16048718Y-47321836D01*
X16003832Y-47340322D01*
X15973727Y-47354802D01*
X15965659Y-47360264D01*
X15967148Y-47374129D01*
X15976544Y-47406143D01*
X15991835Y-47451028D01*
X16011007Y-47503509D01*
X16032048Y-47558309D01*
X16052945Y-47610151D01*
X16071685Y-47653761D01*
X16086255Y-47683861D01*
X16093068Y-47694239D01*
X16107695Y-47692931D01*
X16140382Y-47682553D01*
X16186174Y-47664866D01*
X16236004Y-47643478D01*
X16347148Y-47589638D01*
X16435686Y-47537526D01*
X16504226Y-47485501D01*
X16535628Y-47454953D01*
X16546562Y-47445235D01*
X16563632Y-47433728D01*
X16588481Y-47419707D01*
X16622751Y-47402447D01*
X16668082Y-47381223D01*
X16726119Y-47355311D01*
X16798501Y-47323986D01*
X16886872Y-47286522D01*
X16992874Y-47242195D01*
X17118147Y-47190280D01*
X17264335Y-47130052D01*
X17368728Y-47087178D01*
X17503875Y-47031737D01*
X17632487Y-46978997D01*
X17752566Y-46929776D01*
X17862118Y-46884892D01*
X17959144Y-46845162D01*
X18041650Y-46811404D01*
X18107637Y-46784435D01*
X18155110Y-46765071D01*
X18182072Y-46754132D01*
X18187296Y-46752054D01*
X18192784Y-46745620D01*
X18181308Y-46735490D01*
X18150600Y-46720366D01*
X18098391Y-46698953D01*
X18085800Y-46694046D01*
X18032700Y-46673935D01*
X17987975Y-46657857D01*
X17957185Y-46647760D01*
X17946607Y-46645284D01*
X17932759Y-46649986D01*
G36*
X14618670Y-44723944D02*
G01*
X14598030Y-44728138D01*
X14591057Y-44738148D01*
X14591011Y-44748022D01*
X14597386Y-44767742D01*
X14614736Y-44788551D01*
X14645320Y-44811819D01*
X14691397Y-44838918D01*
X14755229Y-44871220D01*
X14839076Y-44910097D01*
X14909773Y-44941468D01*
X14993837Y-44978787D01*
X15056757Y-45007962D01*
X15100999Y-45030321D01*
X15129030Y-45047189D01*
X15143315Y-45059893D01*
X15146467Y-45068766D01*
X15142695Y-45096492D01*
X15136271Y-45133535D01*
X15135623Y-45136920D01*
X15133249Y-45176400D01*
X15145432Y-45201001D01*
X15159723Y-45208843D01*
X15195588Y-45226015D01*
X15251261Y-45251727D01*
X15324977Y-45285190D01*
X15414970Y-45325617D01*
X15519474Y-45372218D01*
X15636724Y-45424205D01*
X15764954Y-45480789D01*
X15902398Y-45541182D01*
X16047291Y-45604595D01*
X16125774Y-45638843D01*
X16273344Y-45703288D01*
X16414014Y-45764945D01*
X16546062Y-45823048D01*
X16667767Y-45876827D01*
X16777406Y-45925514D01*
X16873259Y-45968342D01*
X16953603Y-46004542D01*
X17016717Y-46033346D01*
X17060879Y-46053986D01*
X17084368Y-46065695D01*
X17087850Y-46068045D01*
X17083152Y-46082621D01*
X17069983Y-46116190D01*
X17050100Y-46164455D01*
X17025256Y-46223116D01*
X17011322Y-46255467D01*
X16979509Y-46329963D01*
X16958325Y-46385170D01*
X16948101Y-46425060D01*
X16949172Y-46453605D01*
X16961869Y-46474779D01*
X16986527Y-46492554D01*
X17023478Y-46510902D01*
X17033109Y-46515328D01*
X17095332Y-46541949D01*
X17140086Y-46554962D01*
X17171862Y-46553596D01*
X17195151Y-46537084D01*
X17214443Y-46504657D01*
X17223808Y-46482698D01*
X17239381Y-46451116D01*
X17254518Y-46431526D01*
X17257790Y-46429506D01*
X17276042Y-46425656D01*
X17313577Y-46419774D01*
X17364410Y-46412750D01*
X17407226Y-46407319D01*
X17541660Y-46390889D01*
X17750550Y-46471043D01*
X17911888Y-46533549D01*
X18092303Y-46604520D01*
X18287555Y-46682252D01*
X18493405Y-46765041D01*
X18705614Y-46851184D01*
X18919940Y-46938976D01*
X19097797Y-47012455D01*
X19258202Y-47079041D01*
X19396743Y-47136593D01*
X19515094Y-47185722D01*
X19614929Y-47227040D01*
X19697924Y-47261155D01*
X19765752Y-47288678D01*
X19820089Y-47310221D01*
X19862609Y-47326393D01*
X19894987Y-47337805D01*
X19918897Y-47345067D01*
X19936014Y-47348790D01*
X19948013Y-47349583D01*
X19956568Y-47348059D01*
X19963354Y-47344826D01*
X19970046Y-47340496D01*
X19978318Y-47335679D01*
X19980987Y-47334398D01*
X20005814Y-47314283D01*
X20031105Y-47280531D01*
X20040240Y-47263856D01*
X20057504Y-47232320D01*
X20071512Y-47213907D01*
X20076291Y-47211756D01*
X20141943Y-47240429D01*
X20201735Y-47268781D01*
X20251569Y-47294650D01*
X20287347Y-47315871D01*
X20304972Y-47330284D01*
X20306109Y-47333058D01*
X20314231Y-47364825D01*
X20335667Y-47407802D01*
X20366027Y-47454933D01*
X20400918Y-47499165D01*
X20424926Y-47523926D01*
X20457417Y-47548262D01*
X20509945Y-47580798D01*
X20579112Y-47619839D01*
X20661522Y-47663688D01*
X20753777Y-47710649D01*
X20852479Y-47759026D01*
X20954232Y-47807123D01*
X21055638Y-47853243D01*
X21153300Y-47895691D01*
X21243821Y-47932771D01*
X21243946Y-47932821D01*
X21307702Y-47957951D01*
X21327179Y-47908367D01*
X21338602Y-47876856D01*
X21339201Y-47861037D01*
X21327911Y-47853110D01*
X21319247Y-47850221D01*
X21289861Y-47839217D01*
X21241374Y-47818954D01*
X21177627Y-47791167D01*
X21102459Y-47757589D01*
X21019711Y-47719955D01*
X20933222Y-47679999D01*
X20846832Y-47639455D01*
X20764381Y-47600057D01*
X20751277Y-47593717D01*
X20652999Y-47543864D01*
X20571964Y-47498151D01*
X20509704Y-47457607D01*
X20467747Y-47423262D01*
X20447625Y-47396146D01*
X20446019Y-47388197D01*
X20456885Y-47387025D01*
X20485548Y-47393686D01*
X20526110Y-47406763D01*
X20531692Y-47408766D01*
X20644468Y-47444985D01*
X20739412Y-47464728D01*
X20818264Y-47467768D01*
X20882763Y-47453882D01*
X20934649Y-47422844D01*
X20975660Y-47374429D01*
X20989760Y-47349455D01*
X21014282Y-47277109D01*
X21014654Y-47223744D01*
X20912896Y-47223744D01*
X20908597Y-47272941D01*
X20887209Y-47319034D01*
X20876755Y-47331819D01*
X20837158Y-47355421D01*
X20778878Y-47361924D01*
X20702062Y-47351332D01*
X20610574Y-47324932D01*
X20535402Y-47298776D01*
X20481260Y-47278684D01*
X20444992Y-47262837D01*
X20423441Y-47249417D01*
X20413451Y-47236605D01*
X20411866Y-47222585D01*
X20413920Y-47211667D01*
X20433819Y-47170614D01*
X20469930Y-47128354D01*
X20514835Y-47093097D01*
X20527829Y-47085673D01*
X20575088Y-47072009D01*
X20636619Y-47069532D01*
X20704258Y-47077439D01*
X20769840Y-47094928D01*
X20812332Y-47113615D01*
X20852397Y-47138876D01*
X20885299Y-47165668D01*
X20898724Y-47180947D01*
X20912896Y-47223744D01*
X21014654Y-47223744D01*
X21014766Y-47207742D01*
X20992585Y-47143149D01*
X20949113Y-47085126D01*
X20885721Y-47035468D01*
X20803784Y-46995971D01*
X20704673Y-46968429D01*
X20697320Y-46967031D01*
X20607419Y-46961856D01*
X20521817Y-46978443D01*
X20444694Y-47014685D01*
X20380232Y-47068473D01*
X20332612Y-47137701D01*
X20324787Y-47154851D01*
X20308357Y-47183486D01*
X20292517Y-47193330D01*
X20290280Y-47192795D01*
X20233147Y-47168825D01*
X20182526Y-47145787D01*
X20143147Y-47126006D01*
X20119740Y-47111806D01*
X20115323Y-47106803D01*
X20119977Y-47090197D01*
X20131855Y-47058871D01*
X20140761Y-47037456D01*
X20155802Y-46996516D01*
X20164931Y-46960384D01*
X20166200Y-46948077D01*
X20166292Y-46938822D01*
X20165869Y-46930173D01*
X20163879Y-46921598D01*
X20159272Y-46912563D01*
X20150998Y-46902535D01*
X20138004Y-46890980D01*
X20119242Y-46877366D01*
X20093659Y-46861159D01*
X20060205Y-46841826D01*
X20017830Y-46818833D01*
X19965483Y-46791647D01*
X19902112Y-46759735D01*
X19826667Y-46722563D01*
X19738098Y-46679599D01*
X19635354Y-46630308D01*
X19517384Y-46574158D01*
X19383136Y-46510616D01*
X19231562Y-46439147D01*
X19061608Y-46359219D01*
X18872226Y-46270299D01*
X18662364Y-46171852D01*
X18430972Y-46063347D01*
X18326842Y-46014519D01*
X17803909Y-45769303D01*
X17725866Y-45655923D01*
X17693887Y-45607742D01*
X17668249Y-45565838D01*
X17652007Y-45535408D01*
X17647822Y-45523043D01*
X17653414Y-45498770D01*
X17666971Y-45466535D01*
X17667936Y-45464648D01*
X17682349Y-45426651D01*
X17679697Y-45396086D01*
X17657742Y-45369307D01*
X17614245Y-45342670D01*
X17584323Y-45328536D01*
X17525707Y-45304060D01*
X17484636Y-45291777D01*
X17456700Y-45291036D01*
X17437488Y-45301184D01*
X17432845Y-45306158D01*
X17422680Y-45323670D01*
X17404658Y-45359852D01*
X17381015Y-45410026D01*
X17353986Y-45469511D01*
X17343212Y-45493764D01*
X17315928Y-45553565D01*
X17291321Y-45603770D01*
X17271499Y-45640353D01*
X17258571Y-45659288D01*
X17255632Y-45660997D01*
X17241686Y-45655460D01*
X17206887Y-45640759D01*
X17153678Y-45617952D01*
X17084503Y-45588095D01*
X17001803Y-45552243D01*
X16908022Y-45511452D01*
X16805602Y-45466779D01*
X16736372Y-45436518D01*
X16524969Y-45344030D01*
X16335635Y-45261206D01*
X16167126Y-45187525D01*
X16018201Y-45122467D01*
X15887615Y-45065512D01*
X15774127Y-45016141D01*
X15676493Y-44973834D01*
X15593471Y-44938071D01*
X15523818Y-44908332D01*
X15466291Y-44884097D01*
X15419648Y-44864847D01*
X15382645Y-44850062D01*
X15354041Y-44839221D01*
X15332591Y-44831806D01*
X15317054Y-44827296D01*
X15306187Y-44825172D01*
X15298746Y-44824913D01*
X15293489Y-44826000D01*
X15289174Y-44827913D01*
X15285566Y-44829688D01*
X15260471Y-44850465D01*
X15238857Y-44883186D01*
X15236725Y-44887960D01*
X15222260Y-44916661D01*
X15209822Y-44931767D01*
X15207721Y-44932448D01*
X15193418Y-44927501D01*
X15159573Y-44913700D01*
X15109851Y-44892603D01*
X15047917Y-44865770D01*
X14977438Y-44834760D01*
X14963049Y-44828376D01*
X14879156Y-44791533D01*
X14814284Y-44764260D01*
X14764486Y-44745193D01*
X14725812Y-44732971D01*
X14694314Y-44726233D01*
X14666045Y-44723616D01*
X14658839Y-44723444D01*
X14618670Y-44723944D01*
G37*
X14618670Y-44723944D02*
X14598030Y-44728138D01*
X14591057Y-44738148D01*
X14591011Y-44748022D01*
X14597386Y-44767742D01*
X14614736Y-44788551D01*
X14645320Y-44811819D01*
X14691397Y-44838918D01*
X14755229Y-44871220D01*
X14839076Y-44910097D01*
X14909773Y-44941468D01*
X14993837Y-44978787D01*
X15056757Y-45007962D01*
X15100999Y-45030321D01*
X15129030Y-45047189D01*
X15143315Y-45059893D01*
X15146467Y-45068766D01*
X15142695Y-45096492D01*
X15136271Y-45133535D01*
X15135623Y-45136920D01*
X15133249Y-45176400D01*
X15145432Y-45201001D01*
X15159723Y-45208843D01*
X15195588Y-45226015D01*
X15251261Y-45251727D01*
X15324977Y-45285190D01*
X15414970Y-45325617D01*
X15519474Y-45372218D01*
X15636724Y-45424205D01*
X15764954Y-45480789D01*
X15902398Y-45541182D01*
X16047291Y-45604595D01*
X16125774Y-45638843D01*
X16273344Y-45703288D01*
X16414014Y-45764945D01*
X16546062Y-45823048D01*
X16667767Y-45876827D01*
X16777406Y-45925514D01*
X16873259Y-45968342D01*
X16953603Y-46004542D01*
X17016717Y-46033346D01*
X17060879Y-46053986D01*
X17084368Y-46065695D01*
X17087850Y-46068045D01*
X17083152Y-46082621D01*
X17069983Y-46116190D01*
X17050100Y-46164455D01*
X17025256Y-46223116D01*
X17011322Y-46255467D01*
X16979509Y-46329963D01*
X16958325Y-46385170D01*
X16948101Y-46425060D01*
X16949172Y-46453605D01*
X16961869Y-46474779D01*
X16986527Y-46492554D01*
X17023478Y-46510902D01*
X17033109Y-46515328D01*
X17095332Y-46541949D01*
X17140086Y-46554962D01*
X17171862Y-46553596D01*
X17195151Y-46537084D01*
X17214443Y-46504657D01*
X17223808Y-46482698D01*
X17239381Y-46451116D01*
X17254518Y-46431526D01*
X17257790Y-46429506D01*
X17276042Y-46425656D01*
X17313577Y-46419774D01*
X17364410Y-46412750D01*
X17407226Y-46407319D01*
X17541660Y-46390889D01*
X17750550Y-46471043D01*
X17911888Y-46533549D01*
X18092303Y-46604520D01*
X18287555Y-46682252D01*
X18493405Y-46765041D01*
X18705614Y-46851184D01*
X18919940Y-46938976D01*
X19097797Y-47012455D01*
X19258202Y-47079041D01*
X19396743Y-47136593D01*
X19515094Y-47185722D01*
X19614929Y-47227040D01*
X19697924Y-47261155D01*
X19765752Y-47288678D01*
X19820089Y-47310221D01*
X19862609Y-47326393D01*
X19894987Y-47337805D01*
X19918897Y-47345067D01*
X19936014Y-47348790D01*
X19948013Y-47349583D01*
X19956568Y-47348059D01*
X19963354Y-47344826D01*
X19970046Y-47340496D01*
X19978318Y-47335679D01*
X19980987Y-47334398D01*
X20005814Y-47314283D01*
X20031105Y-47280531D01*
X20040240Y-47263856D01*
X20057504Y-47232320D01*
X20071512Y-47213907D01*
X20076291Y-47211756D01*
X20141943Y-47240429D01*
X20201735Y-47268781D01*
X20251569Y-47294650D01*
X20287347Y-47315871D01*
X20304972Y-47330284D01*
X20306109Y-47333058D01*
X20314231Y-47364825D01*
X20335667Y-47407802D01*
X20366027Y-47454933D01*
X20400918Y-47499165D01*
X20424926Y-47523926D01*
X20457417Y-47548262D01*
X20509945Y-47580798D01*
X20579112Y-47619839D01*
X20661522Y-47663688D01*
X20753777Y-47710649D01*
X20852479Y-47759026D01*
X20954232Y-47807123D01*
X21055638Y-47853243D01*
X21153300Y-47895691D01*
X21243821Y-47932771D01*
X21243946Y-47932821D01*
X21307702Y-47957951D01*
X21327179Y-47908367D01*
X21338602Y-47876856D01*
X21339201Y-47861037D01*
X21327911Y-47853110D01*
X21319247Y-47850221D01*
X21289861Y-47839217D01*
X21241374Y-47818954D01*
X21177627Y-47791167D01*
X21102459Y-47757589D01*
X21019711Y-47719955D01*
X20933222Y-47679999D01*
X20846832Y-47639455D01*
X20764381Y-47600057D01*
X20751277Y-47593717D01*
X20652999Y-47543864D01*
X20571964Y-47498151D01*
X20509704Y-47457607D01*
X20467747Y-47423262D01*
X20447625Y-47396146D01*
X20446019Y-47388197D01*
X20456885Y-47387025D01*
X20485548Y-47393686D01*
X20526110Y-47406763D01*
X20531692Y-47408766D01*
X20644468Y-47444985D01*
X20739412Y-47464728D01*
X20818264Y-47467768D01*
X20882763Y-47453882D01*
X20934649Y-47422844D01*
X20975660Y-47374429D01*
X20989760Y-47349455D01*
X21014282Y-47277109D01*
X21014654Y-47223744D01*
X20912896Y-47223744D01*
X20908597Y-47272941D01*
X20887209Y-47319034D01*
X20876755Y-47331819D01*
X20837158Y-47355421D01*
X20778878Y-47361924D01*
X20702062Y-47351332D01*
X20610574Y-47324932D01*
X20535402Y-47298776D01*
X20481260Y-47278684D01*
X20444992Y-47262837D01*
X20423441Y-47249417D01*
X20413451Y-47236605D01*
X20411866Y-47222585D01*
X20413920Y-47211667D01*
X20433819Y-47170614D01*
X20469930Y-47128354D01*
X20514835Y-47093097D01*
X20527829Y-47085673D01*
X20575088Y-47072009D01*
X20636619Y-47069532D01*
X20704258Y-47077439D01*
X20769840Y-47094928D01*
X20812332Y-47113615D01*
X20852397Y-47138876D01*
X20885299Y-47165668D01*
X20898724Y-47180947D01*
X20912896Y-47223744D01*
X21014654Y-47223744D01*
X21014766Y-47207742D01*
X20992585Y-47143149D01*
X20949113Y-47085126D01*
X20885721Y-47035468D01*
X20803784Y-46995971D01*
X20704673Y-46968429D01*
X20697320Y-46967031D01*
X20607419Y-46961856D01*
X20521817Y-46978443D01*
X20444694Y-47014685D01*
X20380232Y-47068473D01*
X20332612Y-47137701D01*
X20324787Y-47154851D01*
X20308357Y-47183486D01*
X20292517Y-47193330D01*
X20290280Y-47192795D01*
X20233147Y-47168825D01*
X20182526Y-47145787D01*
X20143147Y-47126006D01*
X20119740Y-47111806D01*
X20115323Y-47106803D01*
X20119977Y-47090197D01*
X20131855Y-47058871D01*
X20140761Y-47037456D01*
X20155802Y-46996516D01*
X20164931Y-46960384D01*
X20166200Y-46948077D01*
X20166292Y-46938822D01*
X20165869Y-46930173D01*
X20163879Y-46921598D01*
X20159272Y-46912563D01*
X20150998Y-46902535D01*
X20138004Y-46890980D01*
X20119242Y-46877366D01*
X20093659Y-46861159D01*
X20060205Y-46841826D01*
X20017830Y-46818833D01*
X19965483Y-46791647D01*
X19902112Y-46759735D01*
X19826667Y-46722563D01*
X19738098Y-46679599D01*
X19635354Y-46630308D01*
X19517384Y-46574158D01*
X19383136Y-46510616D01*
X19231562Y-46439147D01*
X19061608Y-46359219D01*
X18872226Y-46270299D01*
X18662364Y-46171852D01*
X18430972Y-46063347D01*
X18326842Y-46014519D01*
X17803909Y-45769303D01*
X17725866Y-45655923D01*
X17693887Y-45607742D01*
X17668249Y-45565838D01*
X17652007Y-45535408D01*
X17647822Y-45523043D01*
X17653414Y-45498770D01*
X17666971Y-45466535D01*
X17667936Y-45464648D01*
X17682349Y-45426651D01*
X17679697Y-45396086D01*
X17657742Y-45369307D01*
X17614245Y-45342670D01*
X17584323Y-45328536D01*
X17525707Y-45304060D01*
X17484636Y-45291777D01*
X17456700Y-45291036D01*
X17437488Y-45301184D01*
X17432845Y-45306158D01*
X17422680Y-45323670D01*
X17404658Y-45359852D01*
X17381015Y-45410026D01*
X17353986Y-45469511D01*
X17343212Y-45493764D01*
X17315928Y-45553565D01*
X17291321Y-45603770D01*
X17271499Y-45640353D01*
X17258571Y-45659288D01*
X17255632Y-45660997D01*
X17241686Y-45655460D01*
X17206887Y-45640759D01*
X17153678Y-45617952D01*
X17084503Y-45588095D01*
X17001803Y-45552243D01*
X16908022Y-45511452D01*
X16805602Y-45466779D01*
X16736372Y-45436518D01*
X16524969Y-45344030D01*
X16335635Y-45261206D01*
X16167126Y-45187525D01*
X16018201Y-45122467D01*
X15887615Y-45065512D01*
X15774127Y-45016141D01*
X15676493Y-44973834D01*
X15593471Y-44938071D01*
X15523818Y-44908332D01*
X15466291Y-44884097D01*
X15419648Y-44864847D01*
X15382645Y-44850062D01*
X15354041Y-44839221D01*
X15332591Y-44831806D01*
X15317054Y-44827296D01*
X15306187Y-44825172D01*
X15298746Y-44824913D01*
X15293489Y-44826000D01*
X15289174Y-44827913D01*
X15285566Y-44829688D01*
X15260471Y-44850465D01*
X15238857Y-44883186D01*
X15236725Y-44887960D01*
X15222260Y-44916661D01*
X15209822Y-44931767D01*
X15207721Y-44932448D01*
X15193418Y-44927501D01*
X15159573Y-44913700D01*
X15109851Y-44892603D01*
X15047917Y-44865770D01*
X14977438Y-44834760D01*
X14963049Y-44828376D01*
X14879156Y-44791533D01*
X14814284Y-44764260D01*
X14764486Y-44745193D01*
X14725812Y-44732971D01*
X14694314Y-44726233D01*
X14666045Y-44723616D01*
X14658839Y-44723444D01*
X14618670Y-44723944D01*
%TO.C,Ref\u002A\u002A*%
G36*
X11465167Y-4397306D02*
G01*
X12554250Y-6644356D01*
X12781886Y-7114191D01*
X12975165Y-7513901D01*
X13136702Y-7849529D01*
X13269112Y-8127120D01*
X13375010Y-8352715D01*
X13457011Y-8532359D01*
X13517730Y-8672095D01*
X13559782Y-8777966D01*
X13585781Y-8856016D01*
X13598342Y-8912286D01*
X13600081Y-8952822D01*
X13593612Y-8983666D01*
X13581550Y-9010861D01*
X13579746Y-9014370D01*
X13531140Y-9098391D01*
X13498605Y-9137050D01*
X13497167Y-9137334D01*
X13466747Y-9104031D01*
X13419617Y-9023640D01*
X13418209Y-9020917D01*
X13377994Y-8940608D01*
X13307234Y-8796854D01*
X13209816Y-8597687D01*
X13089627Y-8351140D01*
X12950552Y-8065244D01*
X12796481Y-7748032D01*
X12631298Y-7407538D01*
X12458892Y-7051793D01*
X12283149Y-6688829D01*
X12107955Y-6326680D01*
X11937199Y-5973377D01*
X11774765Y-5636953D01*
X11624543Y-5325441D01*
X11490417Y-5046873D01*
X11376275Y-4809282D01*
X11286005Y-4620699D01*
X11223492Y-4489158D01*
X11192624Y-4422690D01*
X11190000Y-4416169D01*
X11227070Y-4402608D01*
X11317342Y-4396660D01*
X11327584Y-4396653D01*
X11465167Y-4397306D01*
G37*
X11465167Y-4397306D02*
X12554250Y-6644356D01*
X12781886Y-7114191D01*
X12975165Y-7513901D01*
X13136702Y-7849529D01*
X13269112Y-8127120D01*
X13375010Y-8352715D01*
X13457011Y-8532359D01*
X13517730Y-8672095D01*
X13559782Y-8777966D01*
X13585781Y-8856016D01*
X13598342Y-8912286D01*
X13600081Y-8952822D01*
X13593612Y-8983666D01*
X13581550Y-9010861D01*
X13579746Y-9014370D01*
X13531140Y-9098391D01*
X13498605Y-9137050D01*
X13497167Y-9137334D01*
X13466747Y-9104031D01*
X13419617Y-9023640D01*
X13418209Y-9020917D01*
X13377994Y-8940608D01*
X13307234Y-8796854D01*
X13209816Y-8597687D01*
X13089627Y-8351140D01*
X12950552Y-8065244D01*
X12796481Y-7748032D01*
X12631298Y-7407538D01*
X12458892Y-7051793D01*
X12283149Y-6688829D01*
X12107955Y-6326680D01*
X11937199Y-5973377D01*
X11774765Y-5636953D01*
X11624543Y-5325441D01*
X11490417Y-5046873D01*
X11376275Y-4809282D01*
X11286005Y-4620699D01*
X11223492Y-4489158D01*
X11192624Y-4422690D01*
X11190000Y-4416169D01*
X11227070Y-4402608D01*
X11317342Y-4396660D01*
X11327584Y-4396653D01*
X11465167Y-4397306D01*
G36*
X18342766Y-4403206D02*
G01*
X18386282Y-4419150D01*
X18386667Y-4421020D01*
X18369304Y-4461781D01*
X18319717Y-4571146D01*
X18241660Y-4741076D01*
X18138887Y-4963534D01*
X18015151Y-5230480D01*
X17874206Y-5533877D01*
X17719807Y-5865686D01*
X17555706Y-6217868D01*
X17385658Y-6582386D01*
X17213416Y-6951200D01*
X17042734Y-7316272D01*
X16877365Y-7669565D01*
X16721065Y-8003039D01*
X16577585Y-8308656D01*
X16450681Y-8578377D01*
X16344105Y-8804165D01*
X16261612Y-8977981D01*
X16206955Y-9091786D01*
X16185219Y-9135275D01*
X16154657Y-9156103D01*
X16116314Y-9107082D01*
X16086854Y-9042570D01*
X16022447Y-8888424D01*
X17066974Y-6643679D01*
X18111500Y-4398934D01*
X18249084Y-4397467D01*
X18342766Y-4403206D01*
G37*
X18342766Y-4403206D02*
X18386282Y-4419150D01*
X18386667Y-4421020D01*
X18369304Y-4461781D01*
X18319717Y-4571146D01*
X18241660Y-4741076D01*
X18138887Y-4963534D01*
X18015151Y-5230480D01*
X17874206Y-5533877D01*
X17719807Y-5865686D01*
X17555706Y-6217868D01*
X17385658Y-6582386D01*
X17213416Y-6951200D01*
X17042734Y-7316272D01*
X16877365Y-7669565D01*
X16721065Y-8003039D01*
X16577585Y-8308656D01*
X16450681Y-8578377D01*
X16344105Y-8804165D01*
X16261612Y-8977981D01*
X16206955Y-9091786D01*
X16185219Y-9135275D01*
X16154657Y-9156103D01*
X16116314Y-9107082D01*
X16086854Y-9042570D01*
X16022447Y-8888424D01*
X17066974Y-6643679D01*
X18111500Y-4398934D01*
X18249084Y-4397467D01*
X18342766Y-4403206D01*
G36*
X9687528Y-8858009D02*
G01*
X9740592Y-8948404D01*
X9815644Y-9086865D01*
X9905502Y-9259194D01*
X10002980Y-9451192D01*
X10100894Y-9648662D01*
X10192059Y-9837404D01*
X10269291Y-10003221D01*
X10325406Y-10131914D01*
X10336278Y-10159164D01*
X10301340Y-10171619D01*
X10195695Y-10182247D01*
X10033299Y-10190260D01*
X9828106Y-10194866D01*
X9691228Y-10195667D01*
X9032068Y-10195667D01*
X9131060Y-9973417D01*
X9261218Y-9682992D01*
X9380963Y-9419243D01*
X9485630Y-9192180D01*
X9570559Y-9011814D01*
X9631087Y-8888155D01*
X9662551Y-8831213D01*
X9663639Y-8829878D01*
X9687528Y-8858009D01*
G37*
X9687528Y-8858009D02*
X9740592Y-8948404D01*
X9815644Y-9086865D01*
X9905502Y-9259194D01*
X10002980Y-9451192D01*
X10100894Y-9648662D01*
X10192059Y-9837404D01*
X10269291Y-10003221D01*
X10325406Y-10131914D01*
X10336278Y-10159164D01*
X10301340Y-10171619D01*
X10195695Y-10182247D01*
X10033299Y-10190260D01*
X9828106Y-10194866D01*
X9691228Y-10195667D01*
X9032068Y-10195667D01*
X9131060Y-9973417D01*
X9261218Y-9682992D01*
X9380963Y-9419243D01*
X9485630Y-9192180D01*
X9570559Y-9011814D01*
X9631087Y-8888155D01*
X9662551Y-8831213D01*
X9663639Y-8829878D01*
X9687528Y-8858009D01*
G36*
X16310781Y-4400577D02*
G01*
X16354287Y-4411723D01*
X16354667Y-4412987D01*
X16337301Y-4452904D01*
X16288464Y-4558937D01*
X16213045Y-4720738D01*
X16115932Y-4927960D01*
X16002017Y-5170258D01*
X15876188Y-5437285D01*
X15743335Y-5718694D01*
X15608348Y-6004139D01*
X15476115Y-6283274D01*
X15351526Y-6545751D01*
X15239471Y-6781225D01*
X15144840Y-6979350D01*
X15072521Y-7129778D01*
X15027404Y-7222163D01*
X15022547Y-7231834D01*
X15009891Y-7265972D01*
X15007353Y-7308567D01*
X15018379Y-7368011D01*
X15046412Y-7452696D01*
X15094897Y-7571014D01*
X15167278Y-7731357D01*
X15267000Y-7942117D01*
X15397506Y-8211686D01*
X15562242Y-8548456D01*
X15566425Y-8556985D01*
X16164167Y-9775804D01*
X17434397Y-7096485D01*
X18704627Y-4417167D01*
X18841980Y-4403901D01*
X18935239Y-4402711D01*
X18978889Y-4417550D01*
X18979334Y-4419860D01*
X18961599Y-4463382D01*
X18910674Y-4576058D01*
X18829980Y-4750700D01*
X18722935Y-4980118D01*
X18592959Y-5257123D01*
X18443472Y-5574528D01*
X18277894Y-5925143D01*
X18099643Y-6301780D01*
X17912141Y-6697249D01*
X17718807Y-7104363D01*
X17523059Y-7515933D01*
X17328318Y-7924769D01*
X17138004Y-8323683D01*
X16955536Y-8705487D01*
X16784334Y-9062991D01*
X16627818Y-9389008D01*
X16489407Y-9676348D01*
X16372520Y-9917822D01*
X16280578Y-10106242D01*
X16217000Y-10234419D01*
X16185207Y-10295165D01*
X16182663Y-10298934D01*
X16154147Y-10272773D01*
X16092628Y-10174660D01*
X16000703Y-10009461D01*
X15880970Y-9782042D01*
X15736026Y-9497270D01*
X15568470Y-9160011D01*
X15499043Y-9018351D01*
X15347604Y-8709737D01*
X15207355Y-8426723D01*
X15082697Y-8177977D01*
X14978031Y-7972164D01*
X14897758Y-7817951D01*
X14846279Y-7724003D01*
X14828511Y-7698000D01*
X14804977Y-7734849D01*
X14749792Y-7839523D01*
X14667307Y-8003218D01*
X14561870Y-8217126D01*
X14437831Y-8472443D01*
X14299540Y-8760361D01*
X14186320Y-8998227D01*
X14039570Y-9305859D01*
X13903205Y-9588165D01*
X13781659Y-9836233D01*
X13679370Y-10041154D01*
X13600773Y-10194015D01*
X13550306Y-10285907D01*
X13533486Y-10309487D01*
X13509585Y-10274164D01*
X13451640Y-10168481D01*
X13362573Y-9998249D01*
X13245307Y-9769278D01*
X13102764Y-9487379D01*
X12937865Y-9158362D01*
X12753534Y-8788038D01*
X12552693Y-8382217D01*
X12338263Y-7946711D01*
X12113167Y-7487329D01*
X12079000Y-7417411D01*
X11852423Y-6953166D01*
X11636659Y-6510257D01*
X11434604Y-6094676D01*
X11249150Y-5712414D01*
X11083194Y-5369466D01*
X10939630Y-5071821D01*
X10821352Y-4825473D01*
X10731256Y-4636413D01*
X10672235Y-4510635D01*
X10647185Y-4454129D01*
X10646577Y-4452194D01*
X10658122Y-4410199D01*
X10730522Y-4400670D01*
X10770278Y-4403627D01*
X10908236Y-4417167D01*
X12202701Y-7072019D01*
X12418615Y-7514131D01*
X12623972Y-7933249D01*
X12815736Y-8323262D01*
X12990869Y-8678059D01*
X13146335Y-8991529D01*
X13279098Y-9257559D01*
X13386120Y-9470041D01*
X13464364Y-9622861D01*
X13510794Y-9709909D01*
X13522742Y-9728436D01*
X13545946Y-9692312D01*
X13599524Y-9590669D01*
X13678107Y-9434736D01*
X13776327Y-9235744D01*
X13888812Y-9004925D01*
X14010195Y-8753510D01*
X14135105Y-8492729D01*
X14258174Y-8233814D01*
X14374031Y-7987996D01*
X14477308Y-7766506D01*
X14562634Y-7580574D01*
X14624642Y-7441433D01*
X14657960Y-7360312D01*
X14662185Y-7345091D01*
X14644005Y-7300301D01*
X14592588Y-7188088D01*
X14512024Y-7017021D01*
X14406405Y-6795670D01*
X14279823Y-6532605D01*
X14136369Y-6236395D01*
X13980134Y-5915611D01*
X13962834Y-5880196D01*
X13805576Y-5557664D01*
X13660687Y-5259143D01*
X13532246Y-4993142D01*
X13424334Y-4768171D01*
X13341029Y-4592737D01*
X13286411Y-4475352D01*
X13264561Y-4424523D01*
X13264334Y-4423355D01*
X13301244Y-4404324D01*
X13390472Y-4396014D01*
X13394586Y-4396000D01*
X13430032Y-4397669D01*
X13462796Y-4407634D01*
X13497263Y-4433338D01*
X13537817Y-4482222D01*
X13588843Y-4561726D01*
X13654725Y-4679292D01*
X13739849Y-4842361D01*
X13848599Y-5058374D01*
X13985359Y-5334771D01*
X14154514Y-5678994D01*
X14174108Y-5718917D01*
X14823378Y-7041834D01*
X15136343Y-6385667D01*
X15272097Y-6100617D01*
X15427189Y-5774278D01*
X15584860Y-5441951D01*
X15728355Y-5138934D01*
X15764371Y-5062750D01*
X15878372Y-4822457D01*
X15963542Y-4648182D01*
X16027081Y-4529322D01*
X16076185Y-4455277D01*
X16118051Y-4415445D01*
X16159879Y-4399225D01*
X16208865Y-4396015D01*
X16217051Y-4396000D01*
X16310781Y-4400577D01*
G37*
X16310781Y-4400577D02*
X16354287Y-4411723D01*
X16354667Y-4412987D01*
X16337301Y-4452904D01*
X16288464Y-4558937D01*
X16213045Y-4720738D01*
X16115932Y-4927960D01*
X16002017Y-5170258D01*
X15876188Y-5437285D01*
X15743335Y-5718694D01*
X15608348Y-6004139D01*
X15476115Y-6283274D01*
X15351526Y-6545751D01*
X15239471Y-6781225D01*
X15144840Y-6979350D01*
X15072521Y-7129778D01*
X15027404Y-7222163D01*
X15022547Y-7231834D01*
X15009891Y-7265972D01*
X15007353Y-7308567D01*
X15018379Y-7368011D01*
X15046412Y-7452696D01*
X15094897Y-7571014D01*
X15167278Y-7731357D01*
X15267000Y-7942117D01*
X15397506Y-8211686D01*
X15562242Y-8548456D01*
X15566425Y-8556985D01*
X16164167Y-9775804D01*
X17434397Y-7096485D01*
X18704627Y-4417167D01*
X18841980Y-4403901D01*
X18935239Y-4402711D01*
X18978889Y-4417550D01*
X18979334Y-4419860D01*
X18961599Y-4463382D01*
X18910674Y-4576058D01*
X18829980Y-4750700D01*
X18722935Y-4980118D01*
X18592959Y-5257123D01*
X18443472Y-5574528D01*
X18277894Y-5925143D01*
X18099643Y-6301780D01*
X17912141Y-6697249D01*
X17718807Y-7104363D01*
X17523059Y-7515933D01*
X17328318Y-7924769D01*
X17138004Y-8323683D01*
X16955536Y-8705487D01*
X16784334Y-9062991D01*
X16627818Y-9389008D01*
X16489407Y-9676348D01*
X16372520Y-9917822D01*
X16280578Y-10106242D01*
X16217000Y-10234419D01*
X16185207Y-10295165D01*
X16182663Y-10298934D01*
X16154147Y-10272773D01*
X16092628Y-10174660D01*
X16000703Y-10009461D01*
X15880970Y-9782042D01*
X15736026Y-9497270D01*
X15568470Y-9160011D01*
X15499043Y-9018351D01*
X15347604Y-8709737D01*
X15207355Y-8426723D01*
X15082697Y-8177977D01*
X14978031Y-7972164D01*
X14897758Y-7817951D01*
X14846279Y-7724003D01*
X14828511Y-7698000D01*
X14804977Y-7734849D01*
X14749792Y-7839523D01*
X14667307Y-8003218D01*
X14561870Y-8217126D01*
X14437831Y-8472443D01*
X14299540Y-8760361D01*
X14186320Y-8998227D01*
X14039570Y-9305859D01*
X13903205Y-9588165D01*
X13781659Y-9836233D01*
X13679370Y-10041154D01*
X13600773Y-10194015D01*
X13550306Y-10285907D01*
X13533486Y-10309487D01*
X13509585Y-10274164D01*
X13451640Y-10168481D01*
X13362573Y-9998249D01*
X13245307Y-9769278D01*
X13102764Y-9487379D01*
X12937865Y-9158362D01*
X12753534Y-8788038D01*
X12552693Y-8382217D01*
X12338263Y-7946711D01*
X12113167Y-7487329D01*
X12079000Y-7417411D01*
X11852423Y-6953166D01*
X11636659Y-6510257D01*
X11434604Y-6094676D01*
X11249150Y-5712414D01*
X11083194Y-5369466D01*
X10939630Y-5071821D01*
X10821352Y-4825473D01*
X10731256Y-4636413D01*
X10672235Y-4510635D01*
X10647185Y-4454129D01*
X10646577Y-4452194D01*
X10658122Y-4410199D01*
X10730522Y-4400670D01*
X10770278Y-4403627D01*
X10908236Y-4417167D01*
X12202701Y-7072019D01*
X12418615Y-7514131D01*
X12623972Y-7933249D01*
X12815736Y-8323262D01*
X12990869Y-8678059D01*
X13146335Y-8991529D01*
X13279098Y-9257559D01*
X13386120Y-9470041D01*
X13464364Y-9622861D01*
X13510794Y-9709909D01*
X13522742Y-9728436D01*
X13545946Y-9692312D01*
X13599524Y-9590669D01*
X13678107Y-9434736D01*
X13776327Y-9235744D01*
X13888812Y-9004925D01*
X14010195Y-8753510D01*
X14135105Y-8492729D01*
X14258174Y-8233814D01*
X14374031Y-7987996D01*
X14477308Y-7766506D01*
X14562634Y-7580574D01*
X14624642Y-7441433D01*
X14657960Y-7360312D01*
X14662185Y-7345091D01*
X14644005Y-7300301D01*
X14592588Y-7188088D01*
X14512024Y-7017021D01*
X14406405Y-6795670D01*
X14279823Y-6532605D01*
X14136369Y-6236395D01*
X13980134Y-5915611D01*
X13962834Y-5880196D01*
X13805576Y-5557664D01*
X13660687Y-5259143D01*
X13532246Y-4993142D01*
X13424334Y-4768171D01*
X13341029Y-4592737D01*
X13286411Y-4475352D01*
X13264561Y-4424523D01*
X13264334Y-4423355D01*
X13301244Y-4404324D01*
X13390472Y-4396014D01*
X13394586Y-4396000D01*
X13430032Y-4397669D01*
X13462796Y-4407634D01*
X13497263Y-4433338D01*
X13537817Y-4482222D01*
X13588843Y-4561726D01*
X13654725Y-4679292D01*
X13739849Y-4842361D01*
X13848599Y-5058374D01*
X13985359Y-5334771D01*
X14154514Y-5678994D01*
X14174108Y-5718917D01*
X14823378Y-7041834D01*
X15136343Y-6385667D01*
X15272097Y-6100617D01*
X15427189Y-5774278D01*
X15584860Y-5441951D01*
X15728355Y-5138934D01*
X15764371Y-5062750D01*
X15878372Y-4822457D01*
X15963542Y-4648182D01*
X16027081Y-4529322D01*
X16076185Y-4455277D01*
X16118051Y-4415445D01*
X16159879Y-4399225D01*
X16208865Y-4396015D01*
X16217051Y-4396000D01*
X16310781Y-4400577D01*
G36*
X20171427Y-4486391D02*
G01*
X20227634Y-4590820D01*
X20313905Y-4757251D01*
X20426752Y-4978614D01*
X20562691Y-5247843D01*
X20718235Y-5557869D01*
X20889899Y-5901624D01*
X21074197Y-6272040D01*
X21267642Y-6662049D01*
X21466749Y-7064583D01*
X21668032Y-7472574D01*
X21868005Y-7878955D01*
X22063183Y-8276656D01*
X22250079Y-8658611D01*
X22425207Y-9017750D01*
X22585081Y-9347007D01*
X22726217Y-9639313D01*
X22845127Y-9887600D01*
X22938326Y-10084800D01*
X23002328Y-10223845D01*
X23033647Y-10297667D01*
X23035965Y-10305119D01*
X23030065Y-10321820D01*
X22998699Y-10335016D01*
X22933945Y-10344990D01*
X22827882Y-10352025D01*
X22672589Y-10356404D01*
X22460145Y-10358410D01*
X22182628Y-10358325D01*
X21832118Y-10356433D01*
X21638965Y-10354992D01*
X20228167Y-10343834D01*
X20216649Y-9550084D01*
X20214901Y-9301393D01*
X20216932Y-9084594D01*
X20222325Y-8912770D01*
X20230664Y-8799003D01*
X20241533Y-8756377D01*
X20241917Y-8756334D01*
X20278188Y-8789423D01*
X20351229Y-8879922D01*
X20451020Y-9014681D01*
X20567540Y-9180546D01*
X20588650Y-9211417D01*
X20705510Y-9382757D01*
X20804565Y-9527539D01*
X20876415Y-9632056D01*
X20911660Y-9682602D01*
X20913338Y-9684845D01*
X20950625Y-9676866D01*
X20973158Y-9658109D01*
X20973900Y-9614143D01*
X20932456Y-9520826D01*
X20846067Y-9373278D01*
X20711978Y-9166617D01*
X20612619Y-9019727D01*
X20207000Y-8426423D01*
X20207000Y-8062212D01*
X20210912Y-7898524D01*
X20221361Y-7772962D01*
X20236413Y-7704841D01*
X20243439Y-7698000D01*
X20279525Y-7731072D01*
X20352593Y-7821602D01*
X20452718Y-7956564D01*
X20569975Y-8122928D01*
X20595624Y-8160309D01*
X20742409Y-8368543D01*
X20850972Y-8506777D01*
X20924587Y-8578812D01*
X20965254Y-8589316D01*
X20971521Y-8554113D01*
X20939273Y-8474640D01*
X20865124Y-8344864D01*
X20745688Y-8158754D01*
X20613069Y-7962052D01*
X20207000Y-7368090D01*
X20207000Y-6989767D01*
X20209824Y-6818595D01*
X20217378Y-6681220D01*
X20228283Y-6598434D01*
X20233866Y-6584579D01*
X20266366Y-6607013D01*
X20335630Y-6687694D01*
X20431792Y-6814198D01*
X20544986Y-6974104D01*
X20556057Y-6990273D01*
X20692022Y-7189009D01*
X20788645Y-7327611D01*
X20854333Y-7415863D01*
X20897492Y-7463548D01*
X20926530Y-7480450D01*
X20949854Y-7476353D01*
X20965822Y-7467131D01*
X20960699Y-7421897D01*
X20907484Y-7314181D01*
X20809100Y-7149073D01*
X20668471Y-6931666D01*
X20599094Y-6828319D01*
X20463591Y-6629991D01*
X20344290Y-6458598D01*
X20249243Y-6325448D01*
X20186502Y-6241850D01*
X20164667Y-6218196D01*
X20136354Y-6252187D01*
X20070995Y-6346495D01*
X19976271Y-6489550D01*
X19859864Y-6669780D01*
X19752058Y-6839670D01*
X19593175Y-7098163D01*
X19480621Y-7295282D01*
X19415538Y-7428869D01*
X19399062Y-7496767D01*
X19402102Y-7502702D01*
X19420373Y-7522182D01*
X19436676Y-7530266D01*
X19458995Y-7517163D01*
X19495316Y-7473086D01*
X19553621Y-7388244D01*
X19641895Y-7252848D01*
X19768122Y-7057108D01*
X19777979Y-7041834D01*
X20078528Y-6576167D01*
X20079264Y-7008941D01*
X20080000Y-7441716D01*
X19720167Y-8009438D01*
X19597813Y-8204041D01*
X19493304Y-8373243D01*
X19414338Y-8504338D01*
X19368614Y-8584623D01*
X19360334Y-8603247D01*
X19394520Y-8626900D01*
X19419328Y-8629334D01*
X19462801Y-8595271D01*
X19539464Y-8502161D01*
X19639053Y-8363625D01*
X19751306Y-8193282D01*
X19768578Y-8165866D01*
X20058834Y-7702398D01*
X20070947Y-8102091D01*
X20083060Y-8501785D01*
X19721697Y-9067816D01*
X19598758Y-9261997D01*
X19493765Y-9430911D01*
X19414460Y-9561851D01*
X19368589Y-9642111D01*
X19360334Y-9660757D01*
X19394437Y-9685263D01*
X19418332Y-9687667D01*
X19463162Y-9653760D01*
X19539763Y-9561938D01*
X19636614Y-9427046D01*
X19722199Y-9296084D01*
X19828613Y-9127107D01*
X19923226Y-8977785D01*
X19993978Y-8867098D01*
X20024034Y-8820997D01*
X20043534Y-8802780D01*
X20058035Y-8820495D01*
X20068229Y-8883180D01*
X20074809Y-8999875D01*
X20078467Y-9179621D01*
X20079897Y-9431456D01*
X20080000Y-9551247D01*
X20080000Y-10365000D01*
X18704167Y-10365000D01*
X18372510Y-10364473D01*
X18069610Y-10362977D01*
X17805408Y-10360640D01*
X17589846Y-10357593D01*
X17432865Y-10353964D01*
X17344406Y-10349881D01*
X17328334Y-10347162D01*
X17346096Y-10302734D01*
X17397107Y-10189515D01*
X17477956Y-10014639D01*
X17585228Y-9785240D01*
X17715511Y-9508452D01*
X17865393Y-9191411D01*
X18031460Y-8841249D01*
X18210301Y-8465102D01*
X18398502Y-8070103D01*
X18592650Y-7663388D01*
X18789333Y-7252090D01*
X18985137Y-6843344D01*
X19176652Y-6444285D01*
X19360462Y-6062045D01*
X19533157Y-5703761D01*
X19691323Y-5376566D01*
X19831547Y-5087594D01*
X19950416Y-4843980D01*
X20044519Y-4652858D01*
X20110441Y-4521363D01*
X20144771Y-4456629D01*
X20148769Y-4451031D01*
X20171427Y-4486391D01*
G37*
X20171427Y-4486391D02*
X20227634Y-4590820D01*
X20313905Y-4757251D01*
X20426752Y-4978614D01*
X20562691Y-5247843D01*
X20718235Y-5557869D01*
X20889899Y-5901624D01*
X21074197Y-6272040D01*
X21267642Y-6662049D01*
X21466749Y-7064583D01*
X21668032Y-7472574D01*
X21868005Y-7878955D01*
X22063183Y-8276656D01*
X22250079Y-8658611D01*
X22425207Y-9017750D01*
X22585081Y-9347007D01*
X22726217Y-9639313D01*
X22845127Y-9887600D01*
X22938326Y-10084800D01*
X23002328Y-10223845D01*
X23033647Y-10297667D01*
X23035965Y-10305119D01*
X23030065Y-10321820D01*
X22998699Y-10335016D01*
X22933945Y-10344990D01*
X22827882Y-10352025D01*
X22672589Y-10356404D01*
X22460145Y-10358410D01*
X22182628Y-10358325D01*
X21832118Y-10356433D01*
X21638965Y-10354992D01*
X20228167Y-10343834D01*
X20216649Y-9550084D01*
X20214901Y-9301393D01*
X20216932Y-9084594D01*
X20222325Y-8912770D01*
X20230664Y-8799003D01*
X20241533Y-8756377D01*
X20241917Y-8756334D01*
X20278188Y-8789423D01*
X20351229Y-8879922D01*
X20451020Y-9014681D01*
X20567540Y-9180546D01*
X20588650Y-9211417D01*
X20705510Y-9382757D01*
X20804565Y-9527539D01*
X20876415Y-9632056D01*
X20911660Y-9682602D01*
X20913338Y-9684845D01*
X20950625Y-9676866D01*
X20973158Y-9658109D01*
X20973900Y-9614143D01*
X20932456Y-9520826D01*
X20846067Y-9373278D01*
X20711978Y-9166617D01*
X20612619Y-9019727D01*
X20207000Y-8426423D01*
X20207000Y-8062212D01*
X20210912Y-7898524D01*
X20221361Y-7772962D01*
X20236413Y-7704841D01*
X20243439Y-7698000D01*
X20279525Y-7731072D01*
X20352593Y-7821602D01*
X20452718Y-7956564D01*
X20569975Y-8122928D01*
X20595624Y-8160309D01*
X20742409Y-8368543D01*
X20850972Y-8506777D01*
X20924587Y-8578812D01*
X20965254Y-8589316D01*
X20971521Y-8554113D01*
X20939273Y-8474640D01*
X20865124Y-8344864D01*
X20745688Y-8158754D01*
X20613069Y-7962052D01*
X20207000Y-7368090D01*
X20207000Y-6989767D01*
X20209824Y-6818595D01*
X20217378Y-6681220D01*
X20228283Y-6598434D01*
X20233866Y-6584579D01*
X20266366Y-6607013D01*
X20335630Y-6687694D01*
X20431792Y-6814198D01*
X20544986Y-6974104D01*
X20556057Y-6990273D01*
X20692022Y-7189009D01*
X20788645Y-7327611D01*
X20854333Y-7415863D01*
X20897492Y-7463548D01*
X20926530Y-7480450D01*
X20949854Y-7476353D01*
X20965822Y-7467131D01*
X20960699Y-7421897D01*
X20907484Y-7314181D01*
X20809100Y-7149073D01*
X20668471Y-6931666D01*
X20599094Y-6828319D01*
X20463591Y-6629991D01*
X20344290Y-6458598D01*
X20249243Y-6325448D01*
X20186502Y-6241850D01*
X20164667Y-6218196D01*
X20136354Y-6252187D01*
X20070995Y-6346495D01*
X19976271Y-6489550D01*
X19859864Y-6669780D01*
X19752058Y-6839670D01*
X19593175Y-7098163D01*
X19480621Y-7295282D01*
X19415538Y-7428869D01*
X19399062Y-7496767D01*
X19402102Y-7502702D01*
X19420373Y-7522182D01*
X19436676Y-7530266D01*
X19458995Y-7517163D01*
X19495316Y-7473086D01*
X19553621Y-7388244D01*
X19641895Y-7252848D01*
X19768122Y-7057108D01*
X19777979Y-7041834D01*
X20078528Y-6576167D01*
X20079264Y-7008941D01*
X20080000Y-7441716D01*
X19720167Y-8009438D01*
X19597813Y-8204041D01*
X19493304Y-8373243D01*
X19414338Y-8504338D01*
X19368614Y-8584623D01*
X19360334Y-8603247D01*
X19394520Y-8626900D01*
X19419328Y-8629334D01*
X19462801Y-8595271D01*
X19539464Y-8502161D01*
X19639053Y-8363625D01*
X19751306Y-8193282D01*
X19768578Y-8165866D01*
X20058834Y-7702398D01*
X20070947Y-8102091D01*
X20083060Y-8501785D01*
X19721697Y-9067816D01*
X19598758Y-9261997D01*
X19493765Y-9430911D01*
X19414460Y-9561851D01*
X19368589Y-9642111D01*
X19360334Y-9660757D01*
X19394437Y-9685263D01*
X19418332Y-9687667D01*
X19463162Y-9653760D01*
X19539763Y-9561938D01*
X19636614Y-9427046D01*
X19722199Y-9296084D01*
X19828613Y-9127107D01*
X19923226Y-8977785D01*
X19993978Y-8867098D01*
X20024034Y-8820997D01*
X20043534Y-8802780D01*
X20058035Y-8820495D01*
X20068229Y-8883180D01*
X20074809Y-8999875D01*
X20078467Y-9179621D01*
X20079897Y-9431456D01*
X20080000Y-9551247D01*
X20080000Y-10365000D01*
X18704167Y-10365000D01*
X18372510Y-10364473D01*
X18069610Y-10362977D01*
X17805408Y-10360640D01*
X17589846Y-10357593D01*
X17432865Y-10353964D01*
X17344406Y-10349881D01*
X17328334Y-10347162D01*
X17346096Y-10302734D01*
X17397107Y-10189515D01*
X17477956Y-10014639D01*
X17585228Y-9785240D01*
X17715511Y-9508452D01*
X17865393Y-9191411D01*
X18031460Y-8841249D01*
X18210301Y-8465102D01*
X18398502Y-8070103D01*
X18592650Y-7663388D01*
X18789333Y-7252090D01*
X18985137Y-6843344D01*
X19176652Y-6444285D01*
X19360462Y-6062045D01*
X19533157Y-5703761D01*
X19691323Y-5376566D01*
X19831547Y-5087594D01*
X19950416Y-4843980D01*
X20044519Y-4652858D01*
X20110441Y-4521363D01*
X20144771Y-4456629D01*
X20148769Y-4451031D01*
X20171427Y-4486391D01*
G36*
X9645627Y-4475436D02*
G01*
X9702411Y-4582872D01*
X9790434Y-4754832D01*
X9906802Y-4985508D01*
X10048622Y-5269093D01*
X10213000Y-5599777D01*
X10397042Y-5971752D01*
X10597855Y-6379210D01*
X10812545Y-6816343D01*
X11038218Y-7277341D01*
X11083450Y-7369917D01*
X11310970Y-7835677D01*
X11527780Y-8279430D01*
X11731002Y-8695291D01*
X11917758Y-9077373D01*
X12085171Y-9419793D01*
X12230361Y-9716664D01*
X12350452Y-9962101D01*
X12442565Y-10150218D01*
X12503823Y-10275130D01*
X12531346Y-10330952D01*
X12532518Y-10333250D01*
X12497166Y-10342251D01*
X12388674Y-10350260D01*
X12218566Y-10356898D01*
X11998367Y-10361783D01*
X11739602Y-10364533D01*
X11572985Y-10365000D01*
X10596306Y-10365000D01*
X10136537Y-9423084D01*
X9676768Y-8481167D01*
X9569947Y-8714000D01*
X9516433Y-8828849D01*
X9434550Y-9002355D01*
X9332664Y-9216893D01*
X9219142Y-9454837D01*
X9122826Y-9655917D01*
X8782526Y-10365000D01*
X7782432Y-10365000D01*
X7502724Y-10363722D01*
X7254546Y-10360135D01*
X7049303Y-10354605D01*
X6898406Y-10347502D01*
X6813263Y-10339194D01*
X6798617Y-10333250D01*
X6818924Y-10290829D01*
X6872676Y-10177834D01*
X6957060Y-10000202D01*
X7069257Y-9763868D01*
X7206453Y-9474766D01*
X7365831Y-9138832D01*
X7544574Y-8762000D01*
X7739868Y-8350207D01*
X7948896Y-7909387D01*
X8168841Y-7445474D01*
X8204661Y-7369917D01*
X8426065Y-6903649D01*
X8637316Y-6460254D01*
X8835578Y-6045589D01*
X9018017Y-5665512D01*
X9181801Y-5325880D01*
X9324095Y-5032550D01*
X9442066Y-4791380D01*
X9532879Y-4608226D01*
X9593700Y-4488948D01*
X9621697Y-4439401D01*
X9622975Y-4438334D01*
X9645627Y-4475436D01*
G37*
X9645627Y-4475436D02*
X9702411Y-4582872D01*
X9790434Y-4754832D01*
X9906802Y-4985508D01*
X10048622Y-5269093D01*
X10213000Y-5599777D01*
X10397042Y-5971752D01*
X10597855Y-6379210D01*
X10812545Y-6816343D01*
X11038218Y-7277341D01*
X11083450Y-7369917D01*
X11310970Y-7835677D01*
X11527780Y-8279430D01*
X11731002Y-8695291D01*
X11917758Y-9077373D01*
X12085171Y-9419793D01*
X12230361Y-9716664D01*
X12350452Y-9962101D01*
X12442565Y-10150218D01*
X12503823Y-10275130D01*
X12531346Y-10330952D01*
X12532518Y-10333250D01*
X12497166Y-10342251D01*
X12388674Y-10350260D01*
X12218566Y-10356898D01*
X11998367Y-10361783D01*
X11739602Y-10364533D01*
X11572985Y-10365000D01*
X10596306Y-10365000D01*
X10136537Y-9423084D01*
X9676768Y-8481167D01*
X9569947Y-8714000D01*
X9516433Y-8828849D01*
X9434550Y-9002355D01*
X9332664Y-9216893D01*
X9219142Y-9454837D01*
X9122826Y-9655917D01*
X8782526Y-10365000D01*
X7782432Y-10365000D01*
X7502724Y-10363722D01*
X7254546Y-10360135D01*
X7049303Y-10354605D01*
X6898406Y-10347502D01*
X6813263Y-10339194D01*
X6798617Y-10333250D01*
X6818924Y-10290829D01*
X6872676Y-10177834D01*
X6957060Y-10000202D01*
X7069257Y-9763868D01*
X7206453Y-9474766D01*
X7365831Y-9138832D01*
X7544574Y-8762000D01*
X7739868Y-8350207D01*
X7948896Y-7909387D01*
X8168841Y-7445474D01*
X8204661Y-7369917D01*
X8426065Y-6903649D01*
X8637316Y-6460254D01*
X8835578Y-6045589D01*
X9018017Y-5665512D01*
X9181801Y-5325880D01*
X9324095Y-5032550D01*
X9442066Y-4791380D01*
X9532879Y-4608226D01*
X9593700Y-4488948D01*
X9621697Y-4439401D01*
X9622975Y-4438334D01*
X9645627Y-4475436D01*
%TD*%
D11*
%TO.C,U2*%
X22850000Y-22050000D03*
X22850000Y-23330000D03*
X22850000Y-24590000D03*
X22850000Y-25860000D03*
X22850000Y-27140000D03*
X22850000Y-28410000D03*
X22850000Y-29670000D03*
X22850000Y-30950000D03*
X29150000Y-30950000D03*
X29150000Y-29670000D03*
X29150000Y-28410000D03*
X29150000Y-27140000D03*
X29150000Y-25860000D03*
X29150000Y-24590000D03*
X29150000Y-23330000D03*
X29150000Y-22050000D03*
%TD*%
%TO.C,U1*%
G36*
G01*
X7000000Y-21445000D02*
X7000000Y-21745000D01*
G75*
G02*
X6850000Y-21895000I-150000J0D01*
G01*
X5200000Y-21895000D01*
G75*
G02*
X5050000Y-21745000I0J150000D01*
G01*
X5050000Y-21445000D01*
G75*
G02*
X5200000Y-21295000I150000J0D01*
G01*
X6850000Y-21295000D01*
G75*
G02*
X7000000Y-21445000I0J-150000D01*
G01*
G37*
G36*
G01*
X7000000Y-22715000D02*
X7000000Y-23015000D01*
G75*
G02*
X6850000Y-23165000I-150000J0D01*
G01*
X5200000Y-23165000D01*
G75*
G02*
X5050000Y-23015000I0J150000D01*
G01*
X5050000Y-22715000D01*
G75*
G02*
X5200000Y-22565000I150000J0D01*
G01*
X6850000Y-22565000D01*
G75*
G02*
X7000000Y-22715000I0J-150000D01*
G01*
G37*
G36*
G01*
X7000000Y-23985000D02*
X7000000Y-24285000D01*
G75*
G02*
X6850000Y-24435000I-150000J0D01*
G01*
X5200000Y-24435000D01*
G75*
G02*
X5050000Y-24285000I0J150000D01*
G01*
X5050000Y-23985000D01*
G75*
G02*
X5200000Y-23835000I150000J0D01*
G01*
X6850000Y-23835000D01*
G75*
G02*
X7000000Y-23985000I0J-150000D01*
G01*
G37*
G36*
G01*
X7000000Y-25255000D02*
X7000000Y-25555000D01*
G75*
G02*
X6850000Y-25705000I-150000J0D01*
G01*
X5200000Y-25705000D01*
G75*
G02*
X5050000Y-25555000I0J150000D01*
G01*
X5050000Y-25255000D01*
G75*
G02*
X5200000Y-25105000I150000J0D01*
G01*
X6850000Y-25105000D01*
G75*
G02*
X7000000Y-25255000I0J-150000D01*
G01*
G37*
G36*
G01*
X11950000Y-25255000D02*
X11950000Y-25555000D01*
G75*
G02*
X11800000Y-25705000I-150000J0D01*
G01*
X10150000Y-25705000D01*
G75*
G02*
X10000000Y-25555000I0J150000D01*
G01*
X10000000Y-25255000D01*
G75*
G02*
X10150000Y-25105000I150000J0D01*
G01*
X11800000Y-25105000D01*
G75*
G02*
X11950000Y-25255000I0J-150000D01*
G01*
G37*
G36*
G01*
X11950000Y-23985000D02*
X11950000Y-24285000D01*
G75*
G02*
X11800000Y-24435000I-150000J0D01*
G01*
X10150000Y-24435000D01*
G75*
G02*
X10000000Y-24285000I0J150000D01*
G01*
X10000000Y-23985000D01*
G75*
G02*
X10150000Y-23835000I150000J0D01*
G01*
X11800000Y-23835000D01*
G75*
G02*
X11950000Y-23985000I0J-150000D01*
G01*
G37*
G36*
G01*
X11950000Y-22715000D02*
X11950000Y-23015000D01*
G75*
G02*
X11800000Y-23165000I-150000J0D01*
G01*
X10150000Y-23165000D01*
G75*
G02*
X10000000Y-23015000I0J150000D01*
G01*
X10000000Y-22715000D01*
G75*
G02*
X10150000Y-22565000I150000J0D01*
G01*
X11800000Y-22565000D01*
G75*
G02*
X11950000Y-22715000I0J-150000D01*
G01*
G37*
G36*
G01*
X11950000Y-21445000D02*
X11950000Y-21745000D01*
G75*
G02*
X11800000Y-21895000I-150000J0D01*
G01*
X10150000Y-21895000D01*
G75*
G02*
X10000000Y-21745000I0J150000D01*
G01*
X10000000Y-21445000D01*
G75*
G02*
X10150000Y-21295000I150000J0D01*
G01*
X11800000Y-21295000D01*
G75*
G02*
X11950000Y-21445000I0J-150000D01*
G01*
G37*
%TD*%
D12*
%TO.C,SW1*%
X12150000Y-44500000D03*
X12150000Y-42000000D03*
X12150000Y-47000000D03*
X6500000Y-47000000D03*
X6500000Y-44500000D03*
X6500000Y-42000000D03*
%TD*%
D13*
%TO.C,REF\u002A\u002A*%
X3500000Y-3500000D03*
%TD*%
%TO.C,REF\u002A\u002A*%
X46500000Y-3500000D03*
%TD*%
%TO.C,R11*%
G36*
G01*
X40300000Y-45799999D02*
X40300000Y-46700001D01*
G75*
G02*
X40050001Y-46950000I-249999J0D01*
G01*
X39399999Y-46950000D01*
G75*
G02*
X39150000Y-46700001I0J249999D01*
G01*
X39150000Y-45799999D01*
G75*
G02*
X39399999Y-45550000I249999J0D01*
G01*
X40050001Y-45550000D01*
G75*
G02*
X40300000Y-45799999I0J-249999D01*
G01*
G37*
G36*
G01*
X42350000Y-45799999D02*
X42350000Y-46700001D01*
G75*
G02*
X42100001Y-46950000I-249999J0D01*
G01*
X41449999Y-46950000D01*
G75*
G02*
X41200000Y-46700001I0J249999D01*
G01*
X41200000Y-45799999D01*
G75*
G02*
X41449999Y-45550000I249999J0D01*
G01*
X42100001Y-45550000D01*
G75*
G02*
X42350000Y-45799999I0J-249999D01*
G01*
G37*
%TD*%
%TO.C,R10*%
G36*
G01*
X40300000Y-40299999D02*
X40300000Y-41200001D01*
G75*
G02*
X40050001Y-41450000I-249999J0D01*
G01*
X39399999Y-41450000D01*
G75*
G02*
X39150000Y-41200001I0J249999D01*
G01*
X39150000Y-40299999D01*
G75*
G02*
X39399999Y-40050000I249999J0D01*
G01*
X40050001Y-40050000D01*
G75*
G02*
X40300000Y-40299999I0J-249999D01*
G01*
G37*
G36*
G01*
X42350000Y-40299999D02*
X42350000Y-41200001D01*
G75*
G02*
X42100001Y-41450000I-249999J0D01*
G01*
X41449999Y-41450000D01*
G75*
G02*
X41200000Y-41200001I0J249999D01*
G01*
X41200000Y-40299999D01*
G75*
G02*
X41449999Y-40050000I249999J0D01*
G01*
X42100001Y-40050000D01*
G75*
G02*
X42350000Y-40299999I0J-249999D01*
G01*
G37*
%TD*%
%TO.C,R9*%
G36*
G01*
X40300000Y-35049999D02*
X40300000Y-35950001D01*
G75*
G02*
X40050001Y-36200000I-249999J0D01*
G01*
X39399999Y-36200000D01*
G75*
G02*
X39150000Y-35950001I0J249999D01*
G01*
X39150000Y-35049999D01*
G75*
G02*
X39399999Y-34800000I249999J0D01*
G01*
X40050001Y-34800000D01*
G75*
G02*
X40300000Y-35049999I0J-249999D01*
G01*
G37*
G36*
G01*
X42350000Y-35049999D02*
X42350000Y-35950001D01*
G75*
G02*
X42100001Y-36200000I-249999J0D01*
G01*
X41449999Y-36200000D01*
G75*
G02*
X41200000Y-35950001I0J249999D01*
G01*
X41200000Y-35049999D01*
G75*
G02*
X41449999Y-34800000I249999J0D01*
G01*
X42100001Y-34800000D01*
G75*
G02*
X42350000Y-35049999I0J-249999D01*
G01*
G37*
%TD*%
%TO.C,R8*%
G36*
G01*
X40325000Y-29799999D02*
X40325000Y-30700001D01*
G75*
G02*
X40075001Y-30950000I-249999J0D01*
G01*
X39424999Y-30950000D01*
G75*
G02*
X39175000Y-30700001I0J249999D01*
G01*
X39175000Y-29799999D01*
G75*
G02*
X39424999Y-29550000I249999J0D01*
G01*
X40075001Y-29550000D01*
G75*
G02*
X40325000Y-29799999I0J-249999D01*
G01*
G37*
G36*
G01*
X42375000Y-29799999D02*
X42375000Y-30700001D01*
G75*
G02*
X42125001Y-30950000I-249999J0D01*
G01*
X41474999Y-30950000D01*
G75*
G02*
X41225000Y-30700001I0J249999D01*
G01*
X41225000Y-29799999D01*
G75*
G02*
X41474999Y-29550000I249999J0D01*
G01*
X42125001Y-29550000D01*
G75*
G02*
X42375000Y-29799999I0J-249999D01*
G01*
G37*
%TD*%
%TO.C,R7*%
G36*
G01*
X40325000Y-24549999D02*
X40325000Y-25450001D01*
G75*
G02*
X40075001Y-25700000I-249999J0D01*
G01*
X39424999Y-25700000D01*
G75*
G02*
X39175000Y-25450001I0J249999D01*
G01*
X39175000Y-24549999D01*
G75*
G02*
X39424999Y-24300000I249999J0D01*
G01*
X40075001Y-24300000D01*
G75*
G02*
X40325000Y-24549999I0J-249999D01*
G01*
G37*
G36*
G01*
X42375000Y-24549999D02*
X42375000Y-25450001D01*
G75*
G02*
X42125001Y-25700000I-249999J0D01*
G01*
X41474999Y-25700000D01*
G75*
G02*
X41225000Y-25450001I0J249999D01*
G01*
X41225000Y-24549999D01*
G75*
G02*
X41474999Y-24300000I249999J0D01*
G01*
X42125001Y-24300000D01*
G75*
G02*
X42375000Y-24549999I0J-249999D01*
G01*
G37*
%TD*%
%TO.C,R6*%
G36*
G01*
X40300000Y-19299999D02*
X40300000Y-20200001D01*
G75*
G02*
X40050001Y-20450000I-249999J0D01*
G01*
X39399999Y-20450000D01*
G75*
G02*
X39150000Y-20200001I0J249999D01*
G01*
X39150000Y-19299999D01*
G75*
G02*
X39399999Y-19050000I249999J0D01*
G01*
X40050001Y-19050000D01*
G75*
G02*
X40300000Y-19299999I0J-249999D01*
G01*
G37*
G36*
G01*
X42350000Y-19299999D02*
X42350000Y-20200001D01*
G75*
G02*
X42100001Y-20450000I-249999J0D01*
G01*
X41449999Y-20450000D01*
G75*
G02*
X41200000Y-20200001I0J249999D01*
G01*
X41200000Y-19299999D01*
G75*
G02*
X41449999Y-19050000I249999J0D01*
G01*
X42100001Y-19050000D01*
G75*
G02*
X42350000Y-19299999I0J-249999D01*
G01*
G37*
%TD*%
%TO.C,R5*%
G36*
G01*
X40300000Y-14049999D02*
X40300000Y-14950001D01*
G75*
G02*
X40050001Y-15200000I-249999J0D01*
G01*
X39399999Y-15200000D01*
G75*
G02*
X39150000Y-14950001I0J249999D01*
G01*
X39150000Y-14049999D01*
G75*
G02*
X39399999Y-13800000I249999J0D01*
G01*
X40050001Y-13800000D01*
G75*
G02*
X40300000Y-14049999I0J-249999D01*
G01*
G37*
G36*
G01*
X42350000Y-14049999D02*
X42350000Y-14950001D01*
G75*
G02*
X42100001Y-15200000I-249999J0D01*
G01*
X41449999Y-15200000D01*
G75*
G02*
X41200000Y-14950001I0J249999D01*
G01*
X41200000Y-14049999D01*
G75*
G02*
X41449999Y-13800000I249999J0D01*
G01*
X42100001Y-13800000D01*
G75*
G02*
X42350000Y-14049999I0J-249999D01*
G01*
G37*
%TD*%
%TO.C,R4*%
G36*
G01*
X40275000Y-8799999D02*
X40275000Y-9700001D01*
G75*
G02*
X40025001Y-9950000I-249999J0D01*
G01*
X39374999Y-9950000D01*
G75*
G02*
X39125000Y-9700001I0J249999D01*
G01*
X39125000Y-8799999D01*
G75*
G02*
X39374999Y-8550000I249999J0D01*
G01*
X40025001Y-8550000D01*
G75*
G02*
X40275000Y-8799999I0J-249999D01*
G01*
G37*
G36*
G01*
X42325000Y-8799999D02*
X42325000Y-9700001D01*
G75*
G02*
X42075001Y-9950000I-249999J0D01*
G01*
X41424999Y-9950000D01*
G75*
G02*
X41175000Y-9700001I0J249999D01*
G01*
X41175000Y-8799999D01*
G75*
G02*
X41424999Y-8550000I249999J0D01*
G01*
X42075001Y-8550000D01*
G75*
G02*
X42325000Y-8799999I0J-249999D01*
G01*
G37*
%TD*%
%TO.C,R3*%
G36*
G01*
X40300000Y-3549999D02*
X40300000Y-4450001D01*
G75*
G02*
X40050001Y-4700000I-249999J0D01*
G01*
X39399999Y-4700000D01*
G75*
G02*
X39150000Y-4450001I0J249999D01*
G01*
X39150000Y-3549999D01*
G75*
G02*
X39399999Y-3300000I249999J0D01*
G01*
X40050001Y-3300000D01*
G75*
G02*
X40300000Y-3549999I0J-249999D01*
G01*
G37*
G36*
G01*
X42350000Y-3549999D02*
X42350000Y-4450001D01*
G75*
G02*
X42100001Y-4700000I-249999J0D01*
G01*
X41449999Y-4700000D01*
G75*
G02*
X41200000Y-4450001I0J249999D01*
G01*
X41200000Y-3549999D01*
G75*
G02*
X41449999Y-3300000I249999J0D01*
G01*
X42100001Y-3300000D01*
G75*
G02*
X42350000Y-3549999I0J-249999D01*
G01*
G37*
%TD*%
%TO.C,R2*%
G36*
G01*
X11950000Y-34450001D02*
X11950000Y-33549999D01*
G75*
G02*
X12199999Y-33300000I249999J0D01*
G01*
X12850001Y-33300000D01*
G75*
G02*
X13100000Y-33549999I0J-249999D01*
G01*
X13100000Y-34450001D01*
G75*
G02*
X12850001Y-34700000I-249999J0D01*
G01*
X12199999Y-34700000D01*
G75*
G02*
X11950000Y-34450001I0J249999D01*
G01*
G37*
G36*
G01*
X9900000Y-34450001D02*
X9900000Y-33549999D01*
G75*
G02*
X10149999Y-33300000I249999J0D01*
G01*
X10800001Y-33300000D01*
G75*
G02*
X11050000Y-33549999I0J-249999D01*
G01*
X11050000Y-34450001D01*
G75*
G02*
X10800001Y-34700000I-249999J0D01*
G01*
X10149999Y-34700000D01*
G75*
G02*
X9900000Y-34450001I0J249999D01*
G01*
G37*
%TD*%
%TO.C,R1*%
G36*
G01*
X11050000Y-37049999D02*
X11050000Y-37950001D01*
G75*
G02*
X10800001Y-38200000I-249999J0D01*
G01*
X10149999Y-38200000D01*
G75*
G02*
X9900000Y-37950001I0J249999D01*
G01*
X9900000Y-37049999D01*
G75*
G02*
X10149999Y-36800000I249999J0D01*
G01*
X10800001Y-36800000D01*
G75*
G02*
X11050000Y-37049999I0J-249999D01*
G01*
G37*
G36*
G01*
X13100000Y-37049999D02*
X13100000Y-37950001D01*
G75*
G02*
X12850001Y-38200000I-249999J0D01*
G01*
X12199999Y-38200000D01*
G75*
G02*
X11950000Y-37950001I0J249999D01*
G01*
X11950000Y-37049999D01*
G75*
G02*
X12199999Y-36800000I249999J0D01*
G01*
X12850001Y-36800000D01*
G75*
G02*
X13100000Y-37049999I0J-249999D01*
G01*
G37*
%TD*%
D14*
%TO.C,Q9*%
X36250000Y-46250000D03*
X34250000Y-45300000D03*
X34250000Y-47200000D03*
%TD*%
%TO.C,Q8*%
X36250000Y-40750000D03*
X34250000Y-39800000D03*
X34250000Y-41700000D03*
%TD*%
%TO.C,Q7*%
X36250000Y-35500000D03*
X34250000Y-34550000D03*
X34250000Y-36450000D03*
%TD*%
%TO.C,Q6*%
X36250000Y-30250000D03*
X34250000Y-29300000D03*
X34250000Y-31200000D03*
%TD*%
%TO.C,Q5*%
X36250000Y-25000000D03*
X34250000Y-24050000D03*
X34250000Y-25950000D03*
%TD*%
%TO.C,Q4*%
X36250000Y-19750000D03*
X34250000Y-18800000D03*
X34250000Y-20700000D03*
%TD*%
%TO.C,Q3*%
X36250000Y-14500000D03*
X34250000Y-13550000D03*
X34250000Y-15450000D03*
%TD*%
%TO.C,Q2*%
X36250000Y-9250000D03*
X34250000Y-8300000D03*
X34250000Y-10200000D03*
%TD*%
%TO.C,Q1*%
X36250000Y-4000000D03*
X34250000Y-3050000D03*
X34250000Y-4950000D03*
%TD*%
%TO.C,C3*%
G36*
G01*
X11950000Y-30950001D02*
X11950000Y-30049999D01*
G75*
G02*
X12199999Y-29800000I249999J0D01*
G01*
X12850001Y-29800000D01*
G75*
G02*
X13100000Y-30049999I0J-249999D01*
G01*
X13100000Y-30950001D01*
G75*
G02*
X12850001Y-31200000I-249999J0D01*
G01*
X12199999Y-31200000D01*
G75*
G02*
X11950000Y-30950001I0J249999D01*
G01*
G37*
G36*
G01*
X9900000Y-30950001D02*
X9900000Y-30049999D01*
G75*
G02*
X10149999Y-29800000I249999J0D01*
G01*
X10800001Y-29800000D01*
G75*
G02*
X11050000Y-30049999I0J-249999D01*
G01*
X11050000Y-30950001D01*
G75*
G02*
X10800001Y-31200000I-249999J0D01*
G01*
X10149999Y-31200000D01*
G75*
G02*
X9900000Y-30950001I0J249999D01*
G01*
G37*
%TD*%
%TO.C,C2*%
G36*
G01*
X4550000Y-31049999D02*
X4550000Y-31950001D01*
G75*
G02*
X4300001Y-32200000I-249999J0D01*
G01*
X3649999Y-32200000D01*
G75*
G02*
X3400000Y-31950001I0J249999D01*
G01*
X3400000Y-31049999D01*
G75*
G02*
X3649999Y-30800000I249999J0D01*
G01*
X4300001Y-30800000D01*
G75*
G02*
X4550000Y-31049999I0J-249999D01*
G01*
G37*
G36*
G01*
X6600000Y-31049999D02*
X6600000Y-31950001D01*
G75*
G02*
X6350001Y-32200000I-249999J0D01*
G01*
X5699999Y-32200000D01*
G75*
G02*
X5450000Y-31950001I0J249999D01*
G01*
X5450000Y-31049999D01*
G75*
G02*
X5699999Y-30800000I249999J0D01*
G01*
X6350001Y-30800000D01*
G75*
G02*
X6600000Y-31049999I0J-249999D01*
G01*
G37*
%TD*%
%TO.C,C1*%
G36*
G01*
X5450000Y-36450001D02*
X5450000Y-35549999D01*
G75*
G02*
X5699999Y-35300000I249999J0D01*
G01*
X6350001Y-35300000D01*
G75*
G02*
X6600000Y-35549999I0J-249999D01*
G01*
X6600000Y-36450001D01*
G75*
G02*
X6350001Y-36700000I-249999J0D01*
G01*
X5699999Y-36700000D01*
G75*
G02*
X5450000Y-36450001I0J249999D01*
G01*
G37*
G36*
G01*
X3400000Y-36450001D02*
X3400000Y-35549999D01*
G75*
G02*
X3649999Y-35300000I249999J0D01*
G01*
X4300001Y-35300000D01*
G75*
G02*
X4550000Y-35549999I0J-249999D01*
G01*
X4550000Y-36450001D01*
G75*
G02*
X4300001Y-36700000I-249999J0D01*
G01*
X3649999Y-36700000D01*
G75*
G02*
X3400000Y-36450001I0J249999D01*
G01*
G37*
%TD*%
D15*
%TO.C,BT1*%
X2000000Y-44460000D03*
D16*
X2000000Y-47000000D03*
%TD*%
M02*
